<svg width="19" height="16" viewBox="0 0 19 16" fill="none" xmlns="http://www.w3.org/2000/svg">
<path d="M14.6796 5.5L11.5546 0.1875L10.4733 0.8125L13.2358 5.5H6.36084L9.09209 0.8125L8.01084 0.1875L4.88584 5.5H0.89209L3.03584 15.5H16.5483L18.6921 5.5H14.6796ZM15.5358 14.25H9.79209V6.75H13.9671L14.8796 8.3125L15.9546 7.6875L15.4171 6.75H17.1483L15.5358 14.25Z" fill="#667085"/>
<path d="M5.61714 6.75L4.70464 8.3125L3.62964 7.6875L4.17339 6.75H2.44214L4.04839 14.25H9.79214V6.75H5.61714Z" fill="#D0D5DD"/>
<path d="M10.417 8.625H9.16699V12.375H10.417V8.625Z" fill="#667085"/>
<path d="M7.29199 8.625H6.04199V12.375H7.29199V8.625Z" fill="#667085"/>
<path d="M13.542 8.625H12.292V12.375H13.542V8.625Z" fill="#667085"/>
</svg>
