<svg width="19" height="16" viewBox="0 0 19 16" fill="none" xmlns="http://www.w3.org/2000/svg">
<path d="M17.3367 2.58012C17.7761 3.01957 17.7761 3.72973 17.3367 4.16918L12.8367 8.66918C12.3972 9.10864 11.687 9.10864 11.2476 8.66918L9.19799 6.65473L6.08666 9.79419C5.64721 10.2336 4.93705 10.2336 4.4976 9.79419C4.05744 9.35473 4.05744 8.64458 4.4976 8.20512L8.4351 4.26762C8.87455 3.82816 9.5847 3.82816 10.0242 4.26762L12.0421 6.28207L15.7476 2.58012C16.187 2.13996 16.8972 2.13996 17.3367 2.58012Z" fill="#667085"/>
<path d="M1.91699 0C2.5382 0 3.04199 0.503789 3.04199 1.125V12.9375C3.04199 13.2469 3.29371 13.5 3.60449 13.5H17.667C18.2893 13.5 18.792 14.0027 18.792 14.625C18.792 15.2473 18.2893 15.75 17.667 15.75H3.60449C2.05129 15.75 0.791992 14.4914 0.791992 12.9375V1.125C0.791992 0.503789 1.29578 0 1.91699 0Z" fill="#D0D5DD"/>
</svg>
