<svg width="21" height="20" viewBox="0 0 21 20" fill="none" xmlns="http://www.w3.org/2000/svg">
<path d="M19.11 4.46606C19.6022 4.67735 19.8764 5.20469 19.7674 5.725C19.6619 6.24883 19.2014 6.625 18.667 6.625V6.90625C18.667 7.37383 18.2908 7.75 17.8232 7.75H3.76074C3.29492 7.75 2.91699 7.37383 2.91699 6.90625V6.625C2.38297 6.59336 1.92246 6.24883 1.81508 5.725C1.70769 5.20469 1.983 4.67735 2.47402 4.46606L10.349 1.09095C10.6303 0.969682 10.9537 0.969682 11.235 1.09095L19.11 4.46606ZM10.792 5.5C11.4143 5.5 11.917 4.99727 11.917 4.375C11.917 3.75379 11.4143 3.25 10.792 3.25C10.1697 3.25 9.667 3.75379 9.667 4.375C9.667 4.99727 10.1697 5.5 10.792 5.5Z" fill="#667085"/>
<path d="M6.26045 15.625H7.6667V8.875H9.9167V15.625H11.6358V8.875H13.8858V15.625H15.2921V8.875H17.5421V15.7762C17.5632 15.7867 17.5843 15.7691 17.6054 15.8148L19.2929 16.9398C19.7042 17.2141 19.887 17.7273 19.7429 18.202C19.5987 18.6766 19.1628 19 18.6671 19H2.88545C2.42139 19 1.98401 18.6766 1.84036 18.202C1.69668 17.7273 1.88055 17.2141 2.29307 16.9398L3.98057 15.8148C4.00061 15.7691 4.02135 15.7867 4.01045 15.7762V8.875H6.26045V15.625Z" fill="#D0D5DD"/>
</svg>
