<svg width="21" height="20" viewBox="0 0 21 20" fill="none" xmlns="http://www.w3.org/2000/svg">
<path d="M15.6796 7.5L12.5546 2.1875L11.4733 2.8125L14.2358 7.5H7.36084L10.0921 2.8125L9.01084 2.1875L5.88584 7.5H1.89209L4.03584 17.5H17.5483L19.6921 7.5H15.6796ZM16.5358 16.25H10.7921V8.75H14.9671L15.8796 10.3125L16.9546 9.6875L16.4171 8.75H18.1483L16.5358 16.25Z" fill="#667085"/>
<path d="M6.61714 8.75L5.70464 10.3125L4.62964 9.6875L5.17339 8.75H3.44214L5.04839 16.25H10.7921V8.75H6.61714Z" fill="#D0D5DD"/>
<path d="M11.417 10.625H10.167V14.375H11.417V10.625Z" fill="#667085"/>
<path d="M8.29199 10.625H7.04199V14.375H8.29199V10.625Z" fill="#667085"/>
<path d="M14.542 10.625H13.292V14.375H14.542V10.625Z" fill="#667085"/>
</svg>
