<svg width="276" height="158" viewBox="0 0 276 158" fill="none" xmlns="http://www.w3.org/2000/svg">
<g opacity="0.3">
<path fill-rule="evenodd" clip-rule="evenodd" d="M246.84 125.18C246.535 124.472 245.99 123.76 245.634 123.208C245.291 122.656 244.93 122.099 244.531 121.789C244.128 121.487 244.128 120.581 243.625 119.774C243.123 118.963 242.368 118.765 242.115 118.557C241.866 118.355 242.016 117.798 241.969 117.242C241.917 116.69 241.565 116.232 241.565 116.232C241.364 115.982 241.364 115.322 241.312 114.968C241.265 114.614 241.012 114.614 240.707 114.312C240.411 114.006 240.308 114.567 240.055 114.364C239.806 114.161 240.106 113.661 240.106 113.1C240.106 112.539 239.759 112.647 239.505 112.091C239.252 111.539 238.849 110.779 238.849 110.779C238.398 110.171 238.445 111.59 238.501 112.194C238.544 112.794 238.244 114.114 238.3 114.869C238.347 115.624 237.999 117.142 237.742 117.595C237.493 118.053 236.892 117.393 236.639 116.84C236.386 116.284 235.635 116.081 235.085 115.628C234.532 115.175 234.227 114.52 234.33 113.911C234.429 113.303 234.78 113.251 234.832 112.345C234.883 111.431 233.626 111.888 233.077 111.888C232.527 111.888 231.519 111.987 231.163 112.142C230.815 112.293 229.764 112.746 229.562 113.251C229.36 113.756 229.107 114.563 228.704 114.666C228.3 114.77 227.948 114.067 227.549 113.808C227.146 113.558 226.742 113.907 226.541 114.161C226.343 114.412 225.185 115.68 224.777 115.982C224.378 116.284 223.721 116.789 223.575 117.496C223.421 118.204 222.97 118.808 222.421 119.312C221.867 119.817 220.262 119.714 219.103 120.572C217.949 121.431 217.194 121.888 216.996 123.096C216.79 124.312 216.996 126.331 217.297 127.138C217.597 127.945 218.052 130.369 218.254 131.236C218.451 132.091 218.052 133.859 218.803 134.515C219.558 135.171 221.112 133.859 221.665 133.756C222.219 133.657 224.579 133.048 225.288 132.647C225.991 132.242 227.399 131.59 228.549 131.638C229.704 131.689 231.515 131.59 232.42 132.039C233.321 132.492 233.025 133.652 233.823 134.11C234.626 134.567 235.137 132.949 235.137 132.949C235.137 132.949 235.231 133.704 235.587 134.312C235.939 134.916 236.192 135.421 236.69 135.822C237.188 136.232 237.042 137.643 237.699 138.247C238.351 138.855 239.557 139.054 240.012 138.855C240.458 138.657 240.862 138.35 241.068 138.657C241.269 138.959 241.716 139.567 242.419 139.364C243.128 139.157 243.025 138.204 243.025 138.204C243.025 138.204 243.93 138.096 244.63 137.595C245.333 137.086 244.63 136.935 244.887 136.025C245.136 135.119 245.638 133.752 246.14 132.695C246.647 131.633 247.097 131.482 247.398 130.369C247.698 129.261 247.548 128.299 247.346 127.647C247.149 126.991 247.149 125.878 246.844 125.171L246.84 125.18Z" fill="#6E7781"/>
<path fill-rule="evenodd" clip-rule="evenodd" d="M241.817 141.442C241.216 141.489 240.611 141.088 240.611 141.088C240.611 141.088 240.564 142.753 240.762 143.262C240.968 143.767 241.616 144.172 242.319 144.423C243.023 144.673 243.126 143.866 243.379 143.003C243.628 142.149 243.474 141.442 243.225 141.239C242.976 141.04 242.418 141.39 241.817 141.442Z" fill="#6E7781"/>
<path fill-rule="evenodd" clip-rule="evenodd" d="M263.276 141.745C262.971 141.594 262.62 141.24 262.62 141.24C262.22 141.089 261.667 142.457 261.517 142.957C261.366 143.462 260.564 144.376 260.113 144.726C259.654 145.08 258.903 145.735 258.251 146.037C257.598 146.344 257.448 147.452 257.753 147.401C258.053 147.353 258.749 147.552 259.512 147.854C260.263 148.16 260.512 147.401 260.869 146.896C261.22 146.387 261.675 145.731 262.173 144.976C262.68 144.221 263.534 143.608 263.783 142.806C264.031 141.995 263.581 141.896 263.285 141.741L263.276 141.745Z" fill="#6E7781"/>
<path fill-rule="evenodd" clip-rule="evenodd" d="M265.585 138.358C265.229 138.16 264.68 137.198 264.482 136.792C264.281 136.391 263.577 135.175 263.126 135.075C262.676 134.976 262.676 135.632 263.079 136.236C263.478 136.84 264.131 137.189 264.083 137.75C264.028 138.311 264.083 139.67 263.736 139.821C263.736 139.821 264.285 140.175 264.435 140.628C264.585 141.081 264.083 141.689 264.435 141.939C264.787 142.194 265.392 142.094 265.59 141.585C265.791 141.081 266.045 140.274 266.341 139.868C266.645 139.463 267.199 139.113 267.096 138.807C266.993 138.501 265.942 138.553 265.59 138.35L265.585 138.358Z" fill="#6E7781"/>
<path fill-rule="evenodd" clip-rule="evenodd" d="M230.41 101.438C230.41 101.438 230.564 101.943 231.062 102.094C231.564 102.24 232.221 102.042 232.169 102.296C232.118 102.547 231.315 102.499 231.26 102.801C231.212 103.103 231.315 103.556 231.715 103.664C232.114 103.763 232.766 103.664 233.071 103.862C233.371 104.061 235.083 105.027 235.337 105.329C235.581 105.627 236.234 106.792 236.337 107.245C236.431 107.702 236.787 107.749 237.036 108.155C237.289 108.56 238.251 109.164 238.899 109.065C239.551 108.966 239.851 107.956 240.1 108.056C240.354 108.155 241.259 108.004 241.607 108.31C241.959 108.612 242.71 109.721 243.263 110.126C243.817 110.532 244.92 111.239 245.074 110.735C245.229 110.226 244.019 108.668 243.619 108.414C243.216 108.159 242.667 107.301 242.667 107.098C242.667 106.895 243.37 106.947 243.169 106.593C242.967 106.239 242.868 105.834 242.362 105.584C241.86 105.333 241.512 104.471 240.959 104.169C240.405 103.867 237.641 102.607 236.886 102.4C236.131 102.197 235.375 101.899 235.225 101.899C235.075 101.899 234.474 102.805 233.968 102.961C233.466 103.107 233.015 102.754 232.865 102.352C232.715 101.947 233.165 101.541 232.715 101.088C232.26 100.635 230.453 100.381 230.401 101.446L230.41 101.438Z" fill="#6E7781"/>
<path fill-rule="evenodd" clip-rule="evenodd" d="M244.083 106.084C244.328 106.183 245.238 106.235 245.736 106.136C246.238 106.036 246.993 105.381 247.143 104.923C247.294 104.47 247.294 103.862 246.942 103.612C246.585 103.357 246.186 103.612 246.384 103.918C246.585 104.216 246.238 104.824 245.937 105.126C245.633 105.433 243.929 105.48 243.929 105.48C243.577 105.631 243.826 105.989 244.083 106.088V106.084Z" fill="#6E7781"/>
<path fill-rule="evenodd" clip-rule="evenodd" d="M221.22 105.224C221.567 105.526 222.125 105.578 222.168 105.276C222.22 104.974 222.022 104.115 222.22 103.761C222.421 103.408 222.623 103.257 222.777 103.61C222.923 103.964 222.778 104.568 223.172 104.723C223.576 104.874 224.078 104.723 224.181 104.521C224.275 104.318 223.979 103.511 223.674 103.157C223.374 102.804 222.868 102.299 222.868 102.299C222.868 102.299 223.468 102.044 223.674 101.79C223.872 101.54 224.477 101.488 224.477 101.285C224.477 101.082 224.078 100.884 223.524 100.983C222.971 101.082 222.464 101.138 222.464 101.138L222.164 100.733C222.164 100.733 222.018 99.6243 222.366 99.7235C222.717 99.8227 224.078 99.8227 224.43 99.9219C224.777 100.025 225.387 99.7709 225.537 99.5164C225.687 99.2662 226.189 98.6061 225.79 98.5069C225.387 98.4077 224.979 98.9642 224.477 99.0634C223.979 99.1627 223.121 99.0634 222.872 98.8607C222.623 98.6579 221.417 99.2144 221.361 99.6199C221.314 100.025 221.464 100.884 221.361 101.233C221.267 101.591 221.215 102.398 221.16 102.998C221.108 103.606 221.413 103.964 221.361 104.262C221.314 104.564 220.863 104.918 221.215 105.224H221.22Z" fill="#6E7781"/>
<path fill-rule="evenodd" clip-rule="evenodd" d="M213.322 100.025C213.476 100.529 213.777 101.289 213.777 101.289C213.777 101.289 214.03 101.086 214.129 101.444C214.232 101.793 214.077 102.303 214.429 102.553C214.781 102.807 215.382 102.704 215.584 102.855C215.781 103.001 216.137 103.208 216.39 103.308C216.639 103.411 217.339 103.109 217.339 103.109C217.339 103.109 217.794 103.562 218.296 103.463C218.798 103.359 219.197 102.751 219.403 102.35C219.6 101.944 219.854 101.038 219.957 100.685C220.055 100.331 220.06 99.9255 220.257 99.6235C220.459 99.3215 221.012 99.5199 220.862 99.0195C220.712 98.5148 220.515 98.463 220.309 98.01C220.107 97.5527 219.905 96.9488 219.858 96.746C219.806 96.5389 219.703 96.0385 219.961 96.086C220.206 96.142 220.613 96.2369 220.613 96.0385C220.613 95.84 220.519 95.5338 220.519 95.5338C220.519 95.5338 220.866 95.5855 221.021 95.331C221.167 95.0808 221.115 94.9816 220.772 94.6235C220.42 94.274 220.171 93.8168 219.867 93.5665C219.566 93.312 218.91 93.7132 218.759 94.0713C218.609 94.4294 218.965 95.1325 218.403 95.331C217.854 95.5338 217.553 95.4863 217.249 95.991C216.953 96.4958 216.854 96.897 216.403 96.9488C215.948 96.9962 215.39 97.5096 215.292 97.6563C215.193 97.8116 215.292 98.6701 214.94 98.4155C214.588 98.1653 214.189 97.7598 213.837 98.0618C213.481 98.3638 213.185 99.5242 213.326 100.033L213.322 100.025Z" fill="#6E7781"/>
<path fill-rule="evenodd" clip-rule="evenodd" d="M219.36 109.014C219.909 109.165 220.711 109.113 221.111 109.014C221.514 108.914 220.81 108.608 220.561 108.561C220.312 108.509 219.506 108.612 219.252 108.509C219.003 108.41 218.699 108.004 218.497 107.801C218.3 107.603 217.75 107.348 217.544 106.995C217.343 106.641 216.84 106.542 216.639 106.335C216.433 106.136 215.935 106.136 215.433 105.929C214.926 105.726 214.175 106.132 213.622 106.084C213.072 106.033 212.974 105.627 212.424 105.58C211.867 105.528 210.961 105.58 210.961 105.58C210.356 105.882 210.609 106.434 211.017 106.688C211.416 106.939 212.167 107.392 212.424 107.392C212.682 107.392 213.776 107.392 214.274 107.491C214.781 107.594 216.892 108.151 217.441 108.203C217.995 108.25 218.797 108.858 219.355 109.009L219.36 109.014Z" fill="#6E7781"/>
<path fill-rule="evenodd" clip-rule="evenodd" d="M223.175 109.014C223.579 108.962 224.231 108.914 224.132 108.712C224.029 108.509 221.974 108.108 221.974 108.763C221.974 108.763 222.78 109.065 223.175 109.014Z" fill="#6E7781"/>
<path fill-rule="evenodd" clip-rule="evenodd" d="M221.566 110.074C221.871 110.272 222.424 110.527 222.523 110.221C222.626 109.919 221.622 109.612 221.622 109.612C221.222 109.612 221.27 109.867 221.566 110.07V110.074Z" fill="#6E7781"/>
<path fill-rule="evenodd" clip-rule="evenodd" d="M210.809 104.871C210.964 104.267 211.518 103.357 211.269 102.999C211.02 102.65 210.96 102.348 210.608 101.942C210.26 101.537 210.209 100.98 209.758 100.527C209.303 100.074 209.153 99.6212 208.805 99.4185C208.453 99.2157 208.101 98.6074 207.745 98.3572C207.398 98.107 206.99 97.0932 206.492 96.7912C205.986 96.4892 205.488 95.579 205.183 95.277C204.879 94.975 204.887 94.9232 204.278 94.673C203.681 94.4228 203.329 94.0086 202.977 94.0647C202.625 94.1165 202.625 94.824 203.076 95.5272C203.531 96.2347 204.235 97.145 204.436 97.3995C204.634 97.6497 205.286 97.7532 205.488 98.1588C205.685 98.56 205.737 98.9698 205.939 99.4746C206.14 99.975 206.642 100.484 206.891 100.989C207.149 101.494 207.75 102.456 207.951 102.706C208.153 102.965 208.003 103.871 208.501 104.173C208.501 104.173 209.204 104.63 209.608 104.777C210.007 104.928 210.664 105.484 210.814 104.876L210.809 104.871Z" fill="#6E7781"/>
<path fill-rule="evenodd" clip-rule="evenodd" d="M226.344 91.0854C225.739 91.1371 225.791 91.5383 225.288 91.6376C224.782 91.7411 224.383 91.7411 224.082 91.7411C223.782 91.7411 223.327 91.8921 223.426 92.3451C223.464 92.4917 223.679 92.6988 224.134 92.8498C224.58 93.0008 224.782 93.0008 224.885 93.6091C224.992 94.2174 225.34 94.7221 225.743 94.6186C226.142 94.5193 226.245 94.1138 226.348 93.6091C226.443 93.1043 227.048 93.1043 226.846 92.5478C226.649 91.9913 226.949 91.0293 226.348 91.0854H226.344Z" fill="#6E7781"/>
<path fill-rule="evenodd" clip-rule="evenodd" d="M225.286 110.277C225.535 110.075 226.037 109.617 226.642 109.367C227.248 109.117 227.299 108.862 227.192 108.612C227.089 108.362 226.793 108.612 226.436 108.763C226.089 108.914 225.634 108.966 225.286 109.268C224.934 109.57 224.08 110.433 224.08 110.433C223.93 111.395 225.037 110.484 225.286 110.282V110.277Z" fill="#6E7781"/>
<path fill-rule="evenodd" clip-rule="evenodd" d="M222.166 84.2639C222.166 84.5659 221.617 84.3674 221.617 84.3674C221.462 84.6219 222.016 85.4287 222.218 85.7306C222.419 86.0326 222.269 86.3864 222.218 86.5891C222.166 86.7876 221.87 87.1931 222.166 87.4433C222.466 87.6979 222.724 88.1508 222.973 88.1034C223.226 88.0516 222.78 87.3959 222.677 87.2449C222.578 87.0896 222.831 86.6884 223.183 86.7401C223.531 86.7919 223.878 87.0421 224.23 87.3441C224.582 87.6461 224.99 87.8532 225.084 87.4994C225.187 87.1457 224.934 86.7401 224.732 86.3864C224.531 86.0326 224.183 86.1879 224.029 86.1319C223.874 86.0844 223.376 86.2354 223.179 86.0326C222.973 85.8299 222.969 85.269 222.926 84.8722C222.874 84.4623 223.526 84.0093 223.874 83.5521C224.226 83.0991 223.677 82.4951 223.526 81.8351C223.376 81.1793 222.874 81.6366 222.578 81.7358C222.273 81.8351 222.166 82.2924 222.166 82.6461V84.2639Z" fill="#6E7781"/>
<path fill-rule="evenodd" clip-rule="evenodd" d="M223.93 89.3686C223.977 89.1141 223.724 88.6611 223.724 88.6611C223.724 88.6611 223.123 88.6611 223.076 89.0623C223.025 89.4679 222.926 90.1279 223.226 89.9726C223.527 89.8216 223.874 89.6189 223.93 89.3686Z" fill="#6E7781"/>
<path fill-rule="evenodd" clip-rule="evenodd" d="M191.117 90.8818C191.117 90.8818 190.666 91.9905 190.567 92.2451C190.469 92.4996 190.619 93.7075 190.919 94.2209C191.224 94.7257 191.675 94.4237 192.078 94.1174C192.477 93.8154 192.477 93.2589 192.177 92.2494C191.876 91.2399 191.121 90.8861 191.121 90.8861L191.117 90.8818Z" fill="#6E7781"/>
<path fill-rule="evenodd" clip-rule="evenodd" d="M215.338 80.7262C215.282 80.3725 214.582 80.8772 214.033 81.1317C213.479 81.3819 213.132 81.7357 213.132 81.7357C213.132 81.7357 213.484 82.3957 213.733 82.5942C213.986 82.8013 214.385 82.4993 214.84 82.2448C215.286 81.9902 215.385 81.0843 215.338 80.7262Z" fill="#6E7781"/>
<path fill-rule="evenodd" clip-rule="evenodd" d="M223.47 77.043C223.676 76.5383 223.676 76.0853 223.621 75.6798C223.573 75.2743 223.573 75.0241 223.329 75.1233C223.076 75.2225 222.466 76.0853 222.32 76.4822C222.166 76.8877 222.217 78.1043 222.217 78.1043C222.217 78.1043 223.273 77.5435 223.47 77.043Z" fill="#6E7781"/>
<path fill-rule="evenodd" clip-rule="evenodd" d="M230.461 66.4385L229.658 67.0424C229.658 67.0424 230.156 67.3962 230.062 67.8017C229.963 68.2072 229.358 69.014 229.86 69.2167C230.362 69.4195 230.611 69.3203 230.71 69.014C230.813 68.712 231.362 68.1037 231.062 67.448C230.765 66.7965 230.461 66.4385 230.461 66.4385Z" fill="#6E7781"/>
<path fill-rule="evenodd" clip-rule="evenodd" d="M236.388 62.1887C236.041 62.6977 235.487 63.4009 235.187 63.4009C234.886 63.4009 234.534 63.0472 234.483 63.2499C234.436 63.4527 234.436 64.0092 234.182 64.363C233.929 64.7167 233.775 64.5139 233.328 64.6175C232.873 64.7167 232.32 64.9669 232.019 65.174C231.719 65.3768 231.161 65.7823 231.161 65.7823C231.161 65.7823 232.071 65.8297 232.522 65.7305C232.972 65.627 233.624 65.9333 233.624 65.9333C233.624 65.9333 233.474 66.74 233.929 66.589C234.38 66.438 234.882 65.9807 234.882 65.9807C234.882 65.9807 235.586 65.929 236.139 65.627C236.693 65.3293 237.401 65.1222 237.543 64.6218C237.697 64.117 237.946 63.004 237.946 62.5511C237.946 62.0981 238.105 61.5933 238.251 61.4898C238.401 61.3863 239.049 60.1783 238.796 59.7728C238.547 59.3673 238.444 58.9143 238.101 58.8151C237.744 58.7072 237.341 58.7072 237.289 59.721C237.238 60.7305 236.736 61.6882 236.384 62.193L236.388 62.1887Z" fill="#6E7781"/>
<path fill-rule="evenodd" clip-rule="evenodd" d="M231.621 66.6372C231.621 66.6372 231.771 67.7977 231.969 67.9487C232.17 68.0997 232.269 67.4439 232.471 67.1419C232.673 66.8356 233.123 66.8356 233.179 66.4819C233.23 66.1325 232.771 66.1325 232.372 66.0764C231.973 66.0246 231.621 66.6329 231.621 66.6329V66.6372Z" fill="#6E7781"/>
<path fill-rule="evenodd" clip-rule="evenodd" d="M238.299 56.23C237.948 56.3335 237.596 56.4328 237.596 56.4328C237.596 56.4328 237.244 56.9418 237.295 57.2438C237.342 57.5458 237.596 57.9513 237.596 57.9513L238.051 57.8003C238.051 57.8003 237.746 57.2956 238.106 57.1489C238.45 56.9936 238.45 57.2999 239.008 57.3473C239.557 57.3991 240.059 57.0928 240.51 56.8426C240.964 56.5924 241.66 56.7434 241.613 56.3853C241.565 56.0359 241.866 55.777 241.063 55.5268C240.256 55.2723 239.754 55.2248 239.351 54.6209C238.947 54.0126 238.947 53.3051 238.699 53.8141C238.445 54.3189 238.544 54.5216 238.6 55.0221C238.651 55.5268 238.651 56.1351 238.299 56.2343V56.23Z" fill="#6E7781"/>
<path fill-rule="evenodd" clip-rule="evenodd" d="M243.577 54.2071C243.319 54.3581 242.873 54.8154 242.873 54.8154C242.873 54.8154 244.229 54.4142 244.276 54.0561C244.324 53.7024 244.126 53.4004 244.126 53.4004C244.126 53.4004 243.821 54.0561 243.577 54.2028V54.2071Z" fill="#6E7781"/>
<path fill-rule="evenodd" clip-rule="evenodd" d="M245.129 52.7464C244.88 52.7938 244.679 53.6048 244.679 53.6048C244.679 53.6048 245.284 53.4539 245.734 52.9491C246.185 52.4444 245.383 52.6946 245.129 52.7464Z" fill="#6E7781"/>
<path fill-rule="evenodd" clip-rule="evenodd" d="M239.355 52.642L240.157 53.1467C240.157 53.1467 239.762 52.038 239.762 51.4297C239.762 50.8214 240.059 49.7084 240.059 49.7084L240.861 49.6092C240.861 49.6092 240.612 48.5479 240.458 47.9914C240.312 47.4349 240.509 46.5764 240.312 46.0717C240.11 45.5669 239.96 45.2132 239.96 45.0104C239.96 44.8077 240.11 43.9966 239.861 43.9492C239.608 43.8974 239.359 44.5574 239.359 44.9112C239.359 45.2649 239.059 45.3685 239.059 46.1234C239.059 46.8784 239.11 48.1942 239.11 48.6989C239.11 49.2037 239.157 50.5669 239.157 50.9724C239.157 51.378 239.059 52.9396 239.059 52.9396L239.359 52.6334L239.355 52.642Z" fill="#6E7781"/>
<path fill-rule="evenodd" clip-rule="evenodd" d="M225.737 18.2459C226.239 18.1466 226.943 17.6893 226.994 17.4909C227.046 17.2925 226.14 16.5289 225.436 16.5806C224.728 16.6324 224.132 16.8826 224.432 17.3442C224.518 17.4736 225.235 18.3537 225.737 18.2502V18.2459Z" fill="#6E7781"/>
<path fill-rule="evenodd" clip-rule="evenodd" d="M240.312 16.8316C239.861 16.5296 239.355 16.0249 238.908 16.2794C238.449 16.5296 237.951 17.3881 237.951 17.3881C237.951 17.3881 238.509 17.5909 239.41 17.6427C240.312 17.6901 240.762 17.1379 240.312 16.8316Z" fill="#6E7781"/>
<path fill-rule="evenodd" clip-rule="evenodd" d="M170.967 20.4724C171.165 20.8779 170.714 21.4862 170.916 21.5854C171.117 21.6846 172.576 21.5854 172.83 21.6372C173.079 21.6846 174.134 21.387 174.134 21.387C174.134 21.387 172.778 20.5802 172.628 19.972C172.478 19.3637 172.98 17.3965 173.182 17.0427C173.383 16.689 174.289 15.4249 175.542 14.9202C176.799 14.4155 179.211 13.8115 180.112 13.4577C181.018 13.1083 181.576 13.0048 181.576 12.5992C181.576 12.1937 182.275 11.538 180.821 12.047C179.361 12.5518 177.958 13.0565 177.005 13.0565C176.053 13.0565 176.302 13.2593 174.589 13.7123C172.885 14.1696 171.577 14.4715 171.079 15.481C170.577 16.4905 170.675 17.3533 170.07 18.2593C169.469 19.1695 168.663 19.5233 169.014 20.0798C169.366 20.632 170.77 20.0798 170.976 20.481L170.967 20.4724Z" fill="#6E7781"/>
<path fill-rule="evenodd" clip-rule="evenodd" d="M165.206 115.268C164.407 115.596 162.957 116.238 163.437 117.213C163.918 118.184 163.279 119.634 162.472 120.768C161.669 121.898 162.472 123.352 164.244 124.966C166.008 126.584 165.206 123.999 165.849 122.218C166.493 120.445 167.454 118.344 167.781 116.402C168.098 114.465 167.613 112.528 167.613 112.528C167.613 112.528 166.008 114.953 165.206 115.272V115.268Z" fill="#6E7781"/>
<path fill-rule="evenodd" clip-rule="evenodd" d="M125.67 42.5776C125.67 42.5776 126.636 43.2204 127.116 43.8718C127.601 44.5146 125.67 44.5146 125.67 44.5146C125.67 44.5146 126.155 46.4516 126.636 46.4516C127.116 46.4516 125.352 48.229 125.352 48.229C125.352 48.229 127.279 47.5819 127.923 47.2583C128.562 46.9391 130.172 46.292 130.172 46.292C130.172 46.292 130.172 45.3213 129.846 44.5146C129.528 43.7036 128.399 42.418 127.76 41.2834C127.116 40.1531 128.241 38.5353 128.241 38.5353L126.799 38.8589C126.799 38.8589 126.636 36.9219 125.992 36.9219C125.348 36.9219 124.704 38.8589 124.867 39.9892C125.026 41.1194 125.67 42.5733 125.67 42.5733V42.5776Z" fill="#6E7781"/>
<path fill-rule="evenodd" clip-rule="evenodd" d="M123.904 45.1599C124.869 44.1892 124.226 43.87 124.547 42.8993C124.865 41.933 123.904 42.0883 123.904 42.0883L122.779 42.2479C122.779 42.2479 121.977 43.2186 121.977 44.1849C121.977 45.1513 121.496 45.8027 121.818 46.4455C122.136 47.0926 122.938 46.1262 123.904 45.1556V45.1599Z" fill="#6E7781"/>
<path fill-rule="evenodd" clip-rule="evenodd" d="M275.787 28.7036C275.238 28.1471 274.474 27.4914 273.878 27.4396C273.281 27.3921 273.024 27.3404 272.826 27.7459C272.625 28.1514 272.221 27.8969 272.273 27.6424C272.32 27.3921 272.625 26.9866 272.174 26.8356C271.719 26.6846 269.762 25.0669 268.955 24.5104C268.153 23.9538 268.35 23.5009 267.702 23.2981C267.046 23.0997 266.29 23.4534 265.986 23.2506C265.685 23.0479 265.488 22.4914 265.033 22.3922C264.582 22.2929 261.715 22.2929 261.415 22.2412C261.115 22.1937 261.218 22.5431 261.218 23.1471C261.218 23.7511 261.368 24.4111 260.818 24.4629C260.265 24.5104 259.81 24.3119 259.758 24.1091C259.711 23.9064 259.557 22.9487 259.359 22.9012C259.162 22.8494 256.445 22.9487 255.587 23.0997C254.737 23.2507 254.231 23.9064 254.136 24.0617C254.033 24.2127 253.63 23.4016 253.377 23.0479C253.124 22.6985 253.733 22.2412 252.926 21.8356C252.926 21.8356 249.961 21.1281 249.36 21.1281C248.759 21.1281 245.493 21.6329 244.991 21.5854C244.489 21.5337 244.54 20.8305 244.592 20.4724C244.639 20.1186 244.837 19.5664 244.141 19.3637C243.433 19.1609 242.532 20.5759 242.18 20.7269C241.828 20.8779 241.781 20.3214 241.528 19.9159C241.279 19.5147 241.021 18.8546 240.67 18.8029C240.318 18.7511 238.61 18.6001 237.957 18.6001C237.305 18.6001 236.902 19.0056 237.052 19.5104C237.202 20.0151 237.76 20.8218 237.352 20.7226C236.949 20.6191 236.7 20.3214 236.198 20.5199C235.691 20.7226 235.391 20.8262 234.94 20.5199C234.49 20.2136 234.039 19.9116 233.782 19.9116C233.524 19.9116 232.679 20.5673 232.378 20.6708C232.078 20.7658 231.322 20.9211 231.267 21.1756C231.219 21.4258 231.322 22.3878 230.915 22.0815C230.52 21.7839 229.769 20.9728 228.958 20.5673C228.155 20.1618 227.001 19.3033 226.396 19.1523C225.799 19.0013 223.477 18.393 222.782 18.393C222.087 18.393 220.967 17.8883 220.718 17.7373C220.469 17.5863 221.117 17.129 220.418 16.978C219.709 16.827 218.306 16.525 217.851 16.7235C217.401 16.9262 216.899 17.1765 216.542 17.2282C216.199 17.28 214.435 17.28 214.036 17.6338C213.633 17.9875 213.384 17.0298 213.384 17.0298C213.384 17.0298 213.482 16.3223 213.933 16.1195C214.388 15.9211 215.744 15.6191 216.504 15.4163C217.246 15.2093 217.452 15.1618 217.302 14.7045C217.147 14.2515 217.199 13.7468 216.898 13.3456C216.598 12.9401 216.246 12.0816 215.598 11.9306C214.942 11.7839 214.135 12.0341 213.684 12.1851C213.233 12.3361 212.525 12.4871 212.525 12.4871C212.525 12.4871 212.68 11.7278 211.92 11.6286C211.169 11.5294 211.216 10.7701 210.869 10.8219C210.517 10.8736 209.002 10.8219 208.504 11.1282C208.006 11.4301 207.453 11.9349 207.251 12.293C207.049 12.6424 206.191 12.5949 206.045 12.7934C205.895 12.9961 205.745 13.2507 205.29 13.5009C204.835 13.7554 204.084 13.8546 204.084 13.8546C204.084 13.8546 204.44 13.1989 204.234 13.0997C204.028 12.9961 202.522 13.3499 201.62 13.4017C200.719 13.4534 198.955 13.9582 198.509 14.1609C198.058 14.3637 197.101 15.0712 196.895 15.425C196.698 15.7744 196.895 16.1281 196.895 16.4862C196.895 16.8443 196.196 17.0427 195.797 16.8917C195.389 16.7364 195.243 16.1799 194.338 16.5337C193.428 16.8917 192.479 16.4819 192.329 17.3447C192.175 18.1989 191.874 18.6519 192.329 18.9064C192.78 19.1609 193.484 18.7036 193.63 19.4111C193.78 20.1186 193.428 20.3214 193.029 20.2696C192.625 20.2179 191.926 19.6657 191.321 19.4111C190.716 19.1566 190.364 18.9582 189.814 19.4111C189.265 19.8641 188.707 20.0712 188.66 20.2179C188.608 20.3732 188.209 21.4301 187.905 21.0764C187.604 20.7226 187.3 19.8641 186.849 20.2179C186.394 20.5716 186.446 21.1281 186.549 21.5854C186.651 22.0384 186.549 23.0004 186.849 23.2032C187.145 23.406 187.703 23.104 188.205 23.2032C188.703 23.3024 189.359 23.3585 189.656 23.8115C189.96 24.2645 190.012 25.0712 189.905 25.4249C189.81 25.7744 189.261 26.0289 189.153 25.6277C189.059 25.2222 188.548 23.7554 188.098 24.0617C187.647 24.3637 186.943 24.3119 187.042 24.8641C187.136 25.4249 187.136 26.1799 186.785 26.4344C186.437 26.6846 185.879 26.4862 185.879 26.1324C185.879 25.7787 186.287 25.1704 185.785 24.4672C185.278 23.7597 185.381 22.9487 185.231 22.1937C185.085 21.4344 185.179 20.9297 185.381 20.3257C185.583 19.7131 186.484 18.7554 185.531 18.3542C184.574 17.9444 183.068 18.3542 182.965 18.7036C182.871 19.0574 181.257 20.5199 181.407 21.2274C181.562 21.9392 181.858 22.8451 182.115 23.5526C182.364 24.2601 182.716 24.7174 182.313 25.2222C181.909 25.7269 180.802 23.9107 180.248 23.7079C179.699 23.5052 177.686 22.9487 177.034 23.104C176.382 23.255 176.588 24.1652 176.433 24.4154C176.279 24.6657 175.382 24.7174 175.129 24.5664C174.88 24.4154 173.322 24.6139 172.97 24.6657C172.618 24.7174 168.348 25.1704 167.189 25.9297C166.035 26.6889 166.387 27.6467 165.58 27.6467C164.773 27.6467 165.073 26.8399 164.374 26.7364C163.67 26.6329 163.267 27.2411 162.966 27.5949C162.662 27.9487 162.211 27.6467 161.859 27.6467C161.507 27.6467 160.7 27.9487 160.606 28.3542C160.507 28.7597 161.408 29.4629 160.653 29.5664C159.902 29.67 157.743 30.7787 157.237 30.4767C156.735 30.1747 156.786 28.7597 156.538 28.5095C156.284 28.255 155.332 27.6467 155.126 27.2972C154.928 26.9435 155.43 26.5897 155.98 26.7407C156.542 26.8917 157.748 27.4439 158.297 27.5992C158.851 27.7545 160.456 27.3965 160.705 26.8443C160.958 26.2877 160.559 25.481 159.752 24.9245C158.949 24.368 154.426 22.7545 153.422 22.3447C152.413 21.9435 150.152 21.4344 149.804 21.5897C149.452 21.7407 149.199 22.5992 148.899 22.4008C148.602 22.198 148.045 21.8917 147.697 21.9478C147.345 21.9996 146.186 22.5 145.985 22.5518C145.783 22.6035 143.375 23.8158 142.972 24.4715C142.573 25.1273 140.912 28.0565 140.157 28.5656C139.401 29.066 138.2 31.1885 137.341 31.443C136.487 31.6932 135.436 32.4051 134.831 33.3628C134.226 34.3205 133.874 35.3861 133.977 36.141C134.08 36.9003 133.427 37.9616 134.277 38.2636C135.135 38.5699 136.286 37.7588 136.989 37.6078C137.693 37.4568 138.397 37.5086 138.552 37.8106C138.697 38.1169 139.208 39.6829 139.453 39.9849C139.706 40.2868 139.401 40.8434 139.959 40.9943C140.513 41.1453 141.062 41.1453 141.714 40.3343C142.367 39.5276 142.371 38.5698 142.671 37.9141C142.976 37.2584 143.98 36.3481 143.521 35.7398C143.075 35.1359 142.972 34.6268 142.817 34.1738C142.671 33.7209 142.817 33.1126 143.328 32.4525C143.826 31.7968 145.637 30.9901 145.787 30.4292C145.937 29.877 146.092 28.7122 146.744 28.4103C147.396 28.1083 148.251 27.5992 148.56 28.311C148.856 29.0142 149.358 28.9668 148.199 30.4292C147.045 31.896 146.392 31.1367 146.744 32.6035C147.096 34.0703 147.847 35.2308 148.049 35.481C148.251 35.7355 149.959 35.33 150.559 35.2308C151.169 35.1316 151.967 35.4335 152.37 35.4335C152.774 35.4335 153.027 34.3766 153.43 34.1177C153.834 33.8632 154.237 34.1695 154.435 34.424C154.636 34.6786 154.585 35.4335 154.435 35.5371C154.284 35.6363 150.92 36.4991 150.16 36.8011C149.405 37.0988 148.002 37.0988 147.903 37.6078C147.796 38.1169 147.903 39.5276 147.397 39.7303C146.894 39.9331 146.791 38.8244 146.341 39.3766C145.886 39.9288 145.388 41.9521 145.088 42.5086C144.787 43.0651 144.285 43.4188 143.079 43.4706C141.869 43.5181 139.612 43.4706 139.109 43.5698C138.685 43.6561 138.384 43.6691 137.874 43.6345C137.822 43.3024 137.423 43.1773 137.243 42.6553C137.019 41.978 137.303 41.6975 137.526 40.9598C137.753 40.2264 137.642 40.0582 137.466 39.7174C137.303 39.3766 137.135 39.3766 136.736 39.7778C136.346 40.1747 135.895 40.2825 135.672 40.6794C135.444 41.0763 135.891 42.0944 136.174 42.8278C136.346 43.2808 136.286 43.8201 136.213 44.1652C134.814 44.9029 132.882 46.1669 132.47 46.5465C131.865 47.103 130.41 47.6078 130.162 48.2635C129.904 48.9236 128.754 49.3765 128.501 49.273C128.248 49.1738 128.248 49.5793 127.745 49.9287C127.243 50.2825 126.69 49.7778 126.235 50.1315C125.784 50.4853 126.291 50.9382 126.939 51.7967C127.595 52.6552 128.2 52.9572 128.398 53.7683C128.599 54.5793 129.003 55.99 128.093 55.9382C127.192 55.8865 124.93 55.5845 124.025 55.6362C123.119 55.6837 122.72 56.7967 122.57 57.2497C122.42 57.7027 122.321 60.1272 122.269 60.6319C122.218 61.1367 121.965 61.7967 122.621 62.2454C123.274 62.7027 124.076 62.6509 124.278 62.8019C124.479 62.9529 124.377 63.3066 125.08 63.3066C125.784 63.3066 126.488 63.5612 127.192 63.1599C127.891 62.7501 129.003 61.7924 129.153 61.3394C129.303 60.8864 129.655 60.0236 129.857 59.6224C130.059 59.2212 131.462 57.858 131.715 57.6035C131.968 57.3489 131.715 56.6932 132.269 56.4387C132.822 56.1884 133.676 56.2359 134.127 56.1367C134.578 56.0374 135.582 55.0236 135.887 54.9244C136.183 54.8252 137.341 55.6837 137.543 56.0374C137.745 56.3869 138.749 57.9054 139.8 58.7639C140.852 59.6181 141.208 59.7734 141.41 60.0279C141.607 60.2825 141.757 60.6837 141.607 61.1884C141.457 61.6932 141.105 62.1505 141.058 62.3015C141.006 62.4481 141.706 62.858 142.011 62.4007C142.315 61.9477 142.517 60.8864 142.517 60.8864L142.259 59.726C142.259 59.726 142.766 59.8252 143.015 59.8769C143.259 59.9244 143.616 59.1694 142.963 58.8157C142.315 58.4576 140.951 58.0564 140.65 57.7027C140.354 57.3489 139.444 56.0892 139.2 55.5845C138.946 55.0797 139.2 54.424 139.35 54.2687C139.496 54.1134 140.298 54.3205 140.65 54.7734C141.006 55.2264 141.959 56.1884 142.362 56.594C142.77 56.9952 143.817 57.5042 144.019 57.7544C144.221 58.0047 144.071 59.1177 144.422 59.3679C144.774 59.6181 145.628 61.0849 145.877 61.6414C146.13 62.1936 145.83 63.16 146.435 63.009C147.036 62.858 147.993 62.1461 148.143 61.9995C148.293 61.8485 147.693 61.0374 147.444 60.4292C147.191 59.8252 147.791 58.7165 148.396 58.82C149.002 58.9192 150.152 59.122 150.152 59.122L151.053 57.9097L151.409 56.2963C151.508 55.8908 152.164 53.7683 152.812 53.3627C153.465 52.9572 154.422 52.707 155.173 52.9572C155.928 53.2117 157.688 52.6509 157.834 52.6035C157.834 52.6035 158.434 52.7545 158.688 53.5137C158.937 54.2687 159.739 55.537 160.4 56.292C161.048 57.0469 162.357 57.1505 161.554 57.9054C160.752 58.6647 159.19 58.8675 158.336 58.5094C157.482 58.1556 156.782 57.2497 155.628 57.7544C154.473 58.2549 153.568 58.1082 152.512 58.8675C151.456 59.6224 150.757 59.726 150.65 60.6837C150.555 61.6457 150.353 62.4007 150.856 62.9054C151.358 63.4102 152.164 64.3722 152.564 64.1694C152.963 63.9667 153.263 63.16 153.821 63.3066C154.366 63.4619 155.426 63.5612 155.928 63.4102C156.43 63.2592 156.829 63.4619 157.035 63.5094C157.233 63.5612 157.13 64.9244 157.186 65.1272C157.233 65.3299 156.632 67.4481 156.28 68.0089C155.928 68.5611 154.07 69.0184 153.418 69.0184C152.765 69.0184 147.942 68.1082 146.783 67.6552C145.628 67.1979 144.826 68.2117 144.577 68.8631C144.324 69.5232 144.324 70.5801 143.521 70.0754C142.719 69.5663 140.002 67.8536 138.998 67.6509C137.989 67.4438 137.487 66.2876 137.286 65.5801C137.088 64.8726 136.882 63.2549 136.882 63.2549C136.882 63.2549 135.427 63.1039 133.814 63.2549C132.213 63.4058 129.144 64.5189 128.342 64.6181C127.535 64.7173 126.08 64.8726 125.475 64.7691C124.87 64.6656 124.621 65.3731 124.321 65.5758C124.02 65.7786 122.561 66.9391 122.214 67.2928C121.857 67.6466 121.913 69.0098 121.857 69.8208C121.81 70.6276 120.853 72.2453 120.102 72.5516C119.347 72.8536 117.437 75.8821 116.879 77.1461C116.33 78.4101 116.278 78.9666 116.437 79.7734C116.583 80.5844 116.931 83.1556 116.63 84.0658C116.33 84.9761 116.029 85.2263 116.18 85.9856C116.33 86.7449 116.931 87.9571 117.433 88.7682C117.935 89.5749 118.39 91.2444 119.445 92.4524C120.501 93.6646 121.806 95.4851 123.063 95.5326C124.321 95.5844 124.973 95.0796 125.776 95.1357C126.582 95.1788 129.647 94.2729 130.097 94.0227C130.556 93.7682 132.26 93.9666 132.818 93.9666C133.376 93.9666 133.166 95.0279 133.921 95.3859C134.676 95.7354 136.032 95.4851 136.384 95.8907C136.732 96.2962 136.882 97.6551 136.586 98.7681C136.281 99.8812 136.032 100.636 136.329 101.042C136.633 101.447 138.693 103.82 138.994 105.688C139.29 107.556 139.998 109.074 139.946 109.778C139.895 110.485 140.049 112.155 139.243 113.466C138.44 114.782 138.285 116.499 138.384 117.103C138.487 117.711 139.59 120.136 140.045 121.244C140.496 122.357 140.946 124.631 140.998 125.438C141.049 126.244 141.903 127.353 142.255 128.57C142.607 129.778 143.259 130.74 143.208 131.344C143.156 131.948 142.654 133.061 143.255 133.716C143.86 134.372 145.066 134.424 146.169 134.174C147.276 133.919 148.783 133.665 149.74 133.009C150.692 132.357 152.203 130.537 152.954 129.523C153.705 128.518 154.216 127.254 154.315 126.697C154.413 126.141 154.117 125.075 154.615 124.825C155.113 124.57 156.426 124.118 156.529 123.816C156.628 123.514 156.327 121.443 156.173 120.886C156.023 120.334 156.173 118.816 156.379 118.514C156.576 118.212 156.98 117.504 157.28 117.353C157.576 117.202 159.537 116.037 159.842 115.632C160.147 115.231 160.645 112.957 160.546 111.995C160.447 111.033 160.198 109.368 160.048 108.962C159.894 108.557 159.945 107.599 159.894 107.448C159.842 107.297 159.64 106.434 159.494 106.184C159.344 105.929 160.095 102.901 161.803 100.83C163.507 98.7595 165.37 97.3963 165.674 96.8872C165.975 96.3825 166.979 94.2643 167.43 93.3022C167.88 92.3402 168.786 90.9252 168.635 90.0192C168.49 89.109 167.932 89.0572 167.533 89.1607C167.133 89.26 165.773 89.8208 165.219 89.7173C164.666 89.618 164.164 90.1228 163.511 89.6655C162.863 89.2082 162.46 87.9959 162.005 87.543C161.554 87.09 160.245 85.1702 159.945 84.6655C159.645 84.1651 159.945 82.9485 158.988 81.939C158.035 80.9295 158.434 80.2781 158.035 79.2643C157.636 78.2548 157.186 76.637 156.782 76.0331C156.379 75.4248 156.126 74.5663 155.623 73.505C155.623 73.505 155.22 72.1893 155.774 72.3402C156.327 72.4912 156.984 72.241 157.383 73.3497C157.786 74.4628 159.091 75.9295 159.494 77.241C159.894 78.5525 160.696 79.864 161.202 80.6189C161.705 81.3782 162.404 83.3023 162.61 84.3635C162.812 85.4248 162.962 86.486 163.314 86.8872C163.662 87.2928 165.773 87.0382 166.73 86.3782C167.683 85.7224 169.09 84.3592 170.047 83.8027C170.996 83.2462 172.361 82.543 173.064 81.7319C173.764 80.9252 174.219 80.2738 174.669 79.411C175.12 78.5525 175.828 78.3023 175.223 77.694C174.618 77.0857 173.764 76.6845 173.262 75.9252C172.76 75.166 172.408 74.9157 172.408 74.9157C172.408 74.9157 171.605 76.2272 170.803 76.3307C169.996 76.43 168.837 76.1798 168.837 75.9252C168.837 75.6707 168.889 74.8122 168.743 74.713C168.588 74.6138 168.236 74.6612 168.082 74.3549C167.932 74.0529 166.88 72.034 166.73 71.6802C166.58 71.3264 166.627 70.5672 166.927 70.3644C167.232 70.1617 168.082 69.9632 168.288 70.2652C168.49 70.5672 169.09 71.6802 169.545 72.3359C169.996 72.9917 171.155 73.8027 171.906 73.6474C172.661 73.4964 173.416 73.1944 173.661 73.6C173.914 74.0055 175.073 75.015 175.678 75.2177C176.279 75.4205 179.643 74.9675 180.047 75.015C180.45 75.0667 180.995 75.0667 181.652 75.9727C182.304 76.8829 183.261 77.4395 183.459 77.4912C183.66 77.5387 183.51 77.6422 183.36 78.3454C183.21 79.0529 183.21 79.713 183.961 79.8122C184.716 79.9114 185.42 78.2462 185.42 78.2462C185.42 78.2462 185.926 79.6612 185.772 80.0667C185.622 80.4722 186.076 83.9062 186.424 85.0149C186.772 86.128 187.78 89.2082 188.081 89.9157C188.385 90.6232 188.381 91.788 189.085 91.5852C189.789 91.3825 190.741 89.9157 190.793 89.5102C190.844 89.1047 191.243 87.5904 191.093 86.6802C190.947 85.7699 191.14 84.7086 191.351 84.6612C191.544 84.6094 194.312 81.9304 195.269 81.279C196.222 80.6189 196.02 80.1659 196.775 79.562C197.531 78.958 198.685 78.6992 199.136 78.4533C199.591 78.1987 200.243 78.1038 200.646 78.807C201.05 79.5145 201.449 80.373 201.749 80.6232C202.05 80.8778 202.655 82.1935 202.552 83.0046C202.449 83.8113 201.801 84.3678 202.406 84.4153C203.007 84.467 203.612 83.5568 203.766 83.4576C203.912 83.3583 204.874 83.5568 205.015 84.3678C205.165 85.1746 205.672 87.4481 205.77 88.4058C205.873 89.3678 206.079 89.8208 205.826 90.524C205.577 91.2358 205.826 91.9908 206.23 92.6508C206.633 93.3065 206.878 94.3678 207.084 94.8726C207.285 95.3816 207.187 96.6413 207.689 96.8915C208.191 97.146 208.543 98.052 208.895 98.1555C209.247 98.2548 209.749 98.3065 209.749 98.1555C209.749 98.0046 209.247 97.4998 209.294 96.5895C209.345 95.6793 209.599 95.1745 208.989 94.7216C208.393 94.2686 207.388 92.8018 207.084 92.5473C206.783 92.2927 206.333 91.0848 206.333 90.9295C206.333 90.7742 206.835 89.1607 206.882 88.5093C206.938 87.8493 206.985 87.1461 206.985 87.1461C206.985 87.1461 207.59 87.1935 207.942 87.6465C208.294 88.1038 208.946 88.9105 209.195 89.2643C209.448 89.618 209.903 89.8682 210.105 90.1228C210.307 90.373 210.354 91.2833 210.354 91.4386C210.354 91.5939 210.354 92.0382 210.663 91.7405C210.959 91.4386 211.062 91.0287 211.015 90.8303C210.959 90.6232 210.959 90.071 210.959 90.071C210.959 90.071 211.766 90.4248 212.264 90.1702C212.77 89.92 213.723 89.3117 213.77 88.8588C213.821 88.4015 213.821 87.5947 213.671 86.939C213.521 86.279 213.169 85.1702 212.77 84.6137C212.362 84.0529 211.766 83.5568 211.513 83.1987C211.264 82.845 210.757 82.1375 210.856 81.6845C210.955 81.2272 211.513 80.4248 211.804 80.1185C212.105 79.8165 212.813 79.109 213.216 79.0572C213.615 79.0055 213.916 79.1565 213.972 79.5102C214.019 79.864 214.221 80.4205 214.371 80.4722C214.521 80.5197 214.62 79.9114 214.723 79.7647C214.826 79.6137 215.731 79.0572 216.032 78.9062C216.336 78.7509 216.989 78.5007 217.092 78.3497C217.186 78.1987 217.491 77.7458 217.491 77.7458C217.491 77.7458 217.589 78.3023 217.89 78.147C218.19 77.996 219.044 78.0477 219.147 77.7458C219.246 77.4438 219.8 76.8873 219.8 76.8873C219.8 76.8873 220.452 76.1798 220.954 75.9295C221.456 75.675 221.705 75.4248 221.757 74.9675C221.812 74.5102 221.86 73.807 222.259 73.0995C222.662 72.392 223.113 71.3308 223.366 71.0288C223.611 70.7268 223.714 70.2738 223.417 70.0711C223.113 69.8726 222.817 69.6181 222.817 69.6181C222.817 69.6181 222.508 68.5051 222.769 68.5051C223.031 68.5051 222.868 67.4438 222.512 66.9908C222.16 66.5335 221.709 65.9296 221.761 65.2738C221.817 64.6181 222.615 63.7553 222.868 63.5051C223.121 63.2549 224.774 63.3541 224.023 62.8493C223.271 62.3446 222.718 62.392 222.267 62.5948C221.817 62.7976 221.362 63.3023 221.109 63.0003C220.86 62.694 220.306 61.6328 220.306 61.4818C220.306 61.3308 220.907 61.2273 221.263 60.77C221.615 60.317 222.516 59.6095 222.774 59.2557C223.023 58.902 223.22 58.9537 223.52 59.0055C223.825 59.0573 223.465 59.6095 223.37 59.9632C223.271 60.317 222.868 61.128 223.37 60.9727C223.868 60.8217 224.877 60.2652 225.13 60.2178C225.383 60.166 226.185 59.9158 226.082 60.4723C225.984 61.0245 225.43 61.5853 225.731 61.9391C226.031 62.2928 226.786 62.6466 226.786 62.6466L227.241 62.4956C227.241 62.4956 227.49 63.1039 227.391 63.6086C227.293 64.1134 227.391 64.9718 227.241 65.3256C227.087 65.675 226.889 66.2316 227.336 66.0806C227.786 65.9296 228.542 65.4248 228.696 65.2264C228.851 65.0236 229.245 64.3161 229.095 63.5568C228.945 62.8019 228.494 61.7924 228.245 61.4386C227.988 61.0849 227.936 60.3774 227.936 60.2264C227.936 60.0754 228.838 59.5707 229.147 59.1134C229.447 58.6604 229.297 58.2031 229.649 57.6984C229.992 57.1936 230.756 56.6932 231.005 56.4343C231.254 56.1798 231.559 56.4343 231.859 56.5896C232.164 56.7406 232.46 57.4007 232.915 56.8399C233.365 56.2877 235.374 53.8589 235.829 53.3023C236.279 52.7458 237.035 51.1324 237.335 50.5241C237.635 49.9158 237.893 48.6087 237.94 48.1557C237.992 47.6984 238.442 47.3446 238.146 46.3351C237.841 45.3257 237.588 44.4154 237.082 44.4154C236.575 44.4154 236.429 45.1229 235.829 45.0711C235.224 45.0237 235.026 43.9106 234.923 43.7597C234.824 43.6087 233.919 43.5569 233.867 43.4059C233.816 43.2506 236.631 40.2739 237.687 39.1609C238.738 38.0522 239.343 36.9909 240.446 36.7881C241.558 36.5854 243.159 36.6328 243.665 36.8917C244.167 37.1419 245.279 36.6372 245.575 36.5379C245.871 36.4387 246.879 36.2359 247.081 36.4387C247.283 36.6372 246.476 37.4956 246.879 37.651C247.283 37.8019 248.437 37.4482 248.888 37.1462C249.338 36.8399 248.639 36.085 249.09 35.6277C249.544 35.1747 250.549 34.217 251.051 34.0617C251.553 33.9107 252.806 33.6087 253.008 33.8071C253.214 34.0099 253.214 34.6656 253.463 35.0194C253.712 35.3731 254.716 34.4111 254.965 34.1048C255.222 33.8028 255.42 33.1989 255.823 32.8969C256.222 32.5949 256.93 32.7459 257.076 32.8451C257.231 32.9443 256.673 33.0953 256.424 33.9538C256.175 34.8123 255.973 35.0668 255.218 35.468C254.467 35.8736 253.308 37.1376 253.055 37.487C252.806 37.8408 251.497 38.6 251.197 39.2558C250.901 39.9115 250.948 40.5716 250.699 40.6665C250.446 40.77 249.939 40.8736 249.841 41.6803C249.738 42.4913 250.09 44.355 250.141 44.8123C250.193 45.2653 250.343 46.2791 250.441 46.7795C250.544 47.2885 250.493 47.8925 250.896 47.7415C251.295 47.5905 251.793 47.1376 251.845 46.6803C251.896 46.2273 252.098 45.6233 252.45 45.468C252.802 45.317 252.952 44.8123 253.051 44.4068C253.154 44.0012 253.664 43.9495 254.059 43.5483C254.463 43.1427 254.162 42.3878 254.364 41.8313C254.566 41.2748 255.518 41.4775 255.368 40.921C255.214 40.3688 255.368 39.7605 255.269 39.355C255.166 38.9495 254.96 38.242 255.063 37.94C255.162 37.638 256.068 36.1195 256.068 36.1195C256.068 36.1195 256.969 35.9685 257.377 35.6622C257.776 35.3645 258.381 35.5155 258.681 35.412C258.986 35.3127 260.042 35.3127 260.295 35.5155C260.544 35.7139 260.595 36.6242 261.046 36.3697C261.501 36.1195 261.801 35.0064 262.604 34.5492C263.411 34.0962 265.668 33.0867 266.17 33.0349C266.676 32.9832 267.277 33.3844 267.526 33.0867C267.779 32.7847 267.526 32.5819 267.277 31.8744C267.028 31.1669 266.621 30.3602 266.973 30.3602C267.324 30.3602 268.234 30.4077 268.432 29.9547C268.629 29.5017 268.736 28.6432 268.831 28.4922C268.934 28.3369 269.234 28.3369 269.384 28.7942C269.535 29.2472 270.187 29.2472 270.689 29.1954C271.187 29.1436 271.693 29.7002 271.843 29.9547C271.998 30.2092 272.702 30.5112 273.303 30.7657C273.899 31.0159 274.251 30.7657 274.2 30.261C274.148 29.7562 274.354 29.4025 274.607 29.4499C274.856 29.5017 275.461 29.6527 275.611 29.4499C275.762 29.2472 276.311 29.2472 275.762 28.695L275.787 28.7036Z" fill="#6E7781"/>
<path fill-rule="evenodd" clip-rule="evenodd" d="M135.846 57.9656C135.962 58.246 136.408 58.0217 136.743 57.5687C137.086 57.1157 136.691 56.3823 136.691 56.3823C136.241 56.2701 135.738 57.6808 135.846 57.9656Z" fill="#6E7781"/>
<path fill-rule="evenodd" clip-rule="evenodd" d="M135.958 59.1016C135.958 59.1016 135.898 60.5684 136.293 60.9653C136.688 61.3622 136.739 60.7366 136.911 60.1758C137.083 59.6107 137.023 59.1577 136.739 58.7047C136.461 58.2517 135.954 59.1059 135.954 59.1059L135.958 59.1016Z" fill="#6E7781"/>
<path fill-rule="evenodd" clip-rule="evenodd" d="M84.5314 49.5229C85.497 50.4935 86.4626 50.006 87.0978 50.3296C87.7458 50.6488 89.677 52.107 89.5139 51.4599C89.3551 50.8128 88.5483 48.8758 87.7458 48.7118C86.939 48.5479 86.1364 48.0647 86.1364 48.0647V46.7705C86.1364 46.7705 83.5658 48.5479 84.5314 49.5186V49.5229Z" fill="#6E7781"/>
<path fill-rule="evenodd" clip-rule="evenodd" d="M67.9751 77.1457C67.34 76.6625 64.9238 76.8221 64.9238 76.8221L68.782 79.2466C68.782 79.2466 70.8719 79.8894 71.6745 80.0534C72.477 80.2173 71.3569 79.4106 70.8719 79.0827C70.3913 78.7635 68.6189 77.6332 67.9751 77.1457Z" fill="#6E7781"/>
<path fill-rule="evenodd" clip-rule="evenodd" d="M73.2793 80.0543C73.2793 80.0543 73.923 81.9914 74.8886 81.8317C75.8542 81.6721 76.498 80.8654 76.013 80.5418C75.5324 80.2183 73.7642 79.8947 73.2793 80.0587V80.0543Z" fill="#6E7781"/>
<path fill-rule="evenodd" clip-rule="evenodd" d="M80.0295 28.8473C80.6733 28.0363 81.4758 26.4228 81.4758 26.4228C81.4758 26.4228 78.5833 26.0992 77.7808 25.4521C76.9739 24.805 76.9739 23.3512 76.9739 22.868C76.9739 22.3848 76.8151 20.9224 75.532 20.2839C74.2445 19.6368 71.6738 18.9897 70.8713 18.6661C70.0645 18.3426 70.3907 17.2123 69.5838 16.5652C68.7813 15.9181 66.8587 16.082 66.8587 16.082L65.0906 16.4056L63.64 18.6661L63.1551 16.2416C63.1551 16.2416 61.5543 16.082 60.9063 17.2123C60.2626 18.3426 59.7819 19.1536 60.4256 19.8007C61.0651 20.4478 62.3568 21.2502 62.992 21.0906C63.6357 20.9267 66.5325 22.3848 66.5325 22.3848C66.5325 22.3848 66.6913 21.9017 67.82 21.9017C68.9487 21.9017 70.2319 22.3848 71.0301 23.032C71.8369 23.6791 72.4764 23.8387 72.7982 24.969C73.1158 26.0992 72.7982 26.906 72.6437 27.717C72.4764 28.5281 69.2663 30.3054 69.2663 30.3054C69.2663 30.3054 72.3219 29.6583 72.9656 30.3054C73.6093 30.9482 73.9269 32.0785 75.0513 32.4021C75.9697 32.6652 78.167 32.8205 78.6863 32.868C78.064 32.6954 75.0985 29.9948 76.5019 30.4651C77.9481 30.9482 79.2313 30.9482 78.5876 30.1415C77.9438 29.3348 76.8194 28.3641 76.8194 28.3641L75.2101 27.5531L77.622 27.3935C77.622 27.3935 79.3944 29.654 80.0338 28.8473H80.0295Z" fill="#6E7781"/>
<path fill-rule="evenodd" clip-rule="evenodd" d="M78.6826 32.8662C78.712 32.8746 78.7329 32.883 78.7497 32.883C78.8335 32.883 78.8 32.8788 78.6826 32.8662Z" fill="#6E7781"/>
<path fill-rule="evenodd" clip-rule="evenodd" d="M111.208 20.925C110.406 20.2823 110.247 19.6351 111.208 19.4755C112.174 19.3159 112.976 19.6351 112.818 18.5049C112.659 17.3746 113.457 17.051 113.788 16.5635C114.105 16.0804 114.26 14.9501 114.26 14.9501V13.0088C114.26 13.0088 114.26 12.202 114.101 11.7189C113.938 11.2314 114.26 10.5843 114.423 9.94147C114.581 9.29437 116.028 7.51698 116.028 7.51698L117.148 5.90352C117.148 5.90352 117.95 4.93286 118.44 4.76893C118.916 4.60931 119.882 3.9622 119.882 3.9622C119.882 3.9622 117.792 3.15547 116.191 3.80258C114.581 4.44969 112.972 5.26073 112.17 4.93286C111.367 4.60931 112.17 3.47903 111.689 3.47903H108.153C108.153 3.47903 114.581 2.34443 113.135 2.02519C111.689 1.70164 109.762 1.05453 108.638 0.73529C107.513 0.411736 105.106 -0.235372 102.685 0.0881822C100.278 0.407422 99.149 0.89491 97.8701 1.05453C96.5869 1.21415 95.1363 1.37377 94.4969 1.86126C93.8532 2.34443 94.4969 3.47903 94.0162 3.79827C93.5356 4.12182 92.7288 3.63433 92.0893 3.15116C91.4413 2.66798 90.3212 2.8276 90.3212 2.8276C90.3212 2.8276 89.5187 4.12182 88.8792 3.95789C88.2312 3.79827 87.1025 3.15116 87.1025 3.15116C87.1025 3.15116 83.4118 3.63433 82.768 3.79827C82.1286 3.95789 81.9698 5.25642 81.0042 5.09248C80.0386 4.92855 78.2705 5.89921 77.9529 6.3867C77.631 6.86987 79.5579 6.05883 79.5579 6.86987C79.5579 7.68091 79.7167 8.64294 78.7597 8.48333C77.7941 8.3237 76.6697 8.3237 75.3822 8.81119C74.0948 9.29437 72.3309 9.94147 73.4553 10.1011C74.5797 10.265 78.5966 10.4246 78.5966 10.4246L74.7342 12.0381L76.9873 13.0088C76.9873 13.0088 80.3648 12.5256 81.4849 12.8448C82.6135 13.1684 85.1885 14.2987 85.9824 14.9501C86.7892 15.5929 87.5961 18.3409 87.2742 18.988C86.948 19.6351 88.5531 18.988 89.1968 19.9587C89.8405 20.925 89.686 21.5765 89.1968 21.8957C88.7162 22.2193 87.2742 22.2193 87.9136 22.8707C88.5531 23.5135 90.3212 23.3539 89.9993 23.9967C89.6818 24.6438 88.3943 24.9673 88.3943 25.774C88.3943 26.5808 89.6861 29.6524 89.9993 30.4634C90.3255 31.2701 91.6087 33.3711 92.0936 33.6946C92.5743 34.0182 93.6987 34.8249 93.6987 34.8249C93.6987 34.8249 94.6643 35.3081 95.6299 35.636C96.5955 35.9552 97.0718 32.8879 97.5568 31.9173C98.0374 30.9466 101.569 27.2322 102.535 26.9043C103.505 26.5808 106.071 24.4841 106.071 24.4841C107.359 24.3202 109.925 23.0303 111.213 22.5428C112.496 22.0596 112.015 21.5722 111.213 20.925H111.208Z" fill="#6E7781"/>
<path fill-rule="evenodd" clip-rule="evenodd" d="M118.597 29.0039C118.919 27.8736 118.279 27.3904 117.477 27.2265C116.674 27.0625 114.104 28.8442 114.104 28.8442L112.49 28.0332C111.048 28.3568 110.885 29.0039 111.048 29.651C111.207 30.2981 113.456 31.4327 114.906 31.2687C116.353 31.1048 118.284 30.1385 118.601 29.0039H118.597Z" fill="#6E7781"/>
<path fill-rule="evenodd" clip-rule="evenodd" d="M36.3198 18.9916C36.9636 18.668 37.9292 19.6387 38.5729 20.1219C39.2081 20.605 40.3325 20.605 41.4611 21.0882C42.5855 21.5757 39.0536 22.0589 39.0536 22.0589C39.0536 22.0589 40.178 22.706 40.8217 23.0295C41.4611 23.3531 43.2293 23.9959 44.1949 23.9959C45.1605 23.9959 47.5723 22.542 47.5723 22.542C47.5723 22.542 48.6967 23.0252 49.9842 23.1892C51.2674 23.3488 51.2674 22.2185 50.7867 21.4118C50.3061 20.6007 49.4992 20.9243 48.8598 20.6007C48.2118 20.2815 47.8942 18.1805 47.8942 18.1805L46.6024 16.8863C46.6024 16.8863 45.8085 17.6931 45.4823 17.0503C45.1562 16.4032 44.5167 17.3738 43.873 17.6931C43.2293 18.0209 42.4224 18.1805 41.4611 17.0503C40.4998 15.9157 39.6973 15.7604 38.5729 15.1132C37.4442 14.4661 36.4786 14.3022 35.0367 14.6301C33.5861 14.9536 33.1054 15.2772 32.9467 15.92C32.7836 16.5671 33.1054 18.668 34.071 19.4748C35.0367 20.2858 35.6761 19.3151 36.3198 18.9916Z" fill="#6E7781"/>
<path fill-rule="evenodd" clip-rule="evenodd" d="M53.1937 15.7606C52.2324 15.9202 51.4256 15.9202 51.4256 16.5673V17.2144L50.46 17.8615C50.46 17.8615 51.4256 19.3197 52.5542 19.6389C53.6786 19.9624 55.9274 19.1557 55.1249 18.5086C54.3224 17.8615 53.5199 16.7312 53.5199 16.7312C53.5199 16.7312 54.1636 15.6009 53.198 15.7606H53.1937Z" fill="#6E7781"/>
<path fill-rule="evenodd" clip-rule="evenodd" d="M58.6589 17.0513C58.3413 16.2402 56.2513 16.2402 56.2513 16.2402C56.2513 16.2402 56.4058 17.6941 56.2513 18.6647C56.0926 19.6354 55.127 20.9253 55.127 20.9253C55.127 20.9253 55.7707 21.7363 56.2513 22.0599C56.732 22.3791 58.3413 21.0892 58.3413 21.0892L56.8951 19.6354L57.3714 18.0219C57.3714 18.0219 58.9808 17.858 58.6589 17.0513Z" fill="#6E7781"/>
<path fill-rule="evenodd" clip-rule="evenodd" d="M55.1232 23.0298C55.4407 22.5466 53.84 22.2188 53.84 22.2188C53.84 22.2188 52.7113 23.0298 53.1962 23.1894C53.6812 23.349 54.8013 23.513 55.1232 23.0298Z" fill="#6E7781"/>
<path fill-rule="evenodd" clip-rule="evenodd" d="M56.0196 11.8085C55.5175 11.7441 55.127 11.7227 55.127 11.7227C55.2085 11.8857 55.5475 11.89 56.0196 11.8085Z" fill="#6E7781"/>
<path fill-rule="evenodd" clip-rule="evenodd" d="M56.7292 7.52178C57.3687 7.84533 57.8536 8.97561 58.0167 9.29917C58.1755 9.62272 58.1755 10.2698 59.2999 9.78234C60.4243 9.29917 61.8663 9.62272 61.8663 9.62272C61.8663 9.62272 60.7419 10.2698 60.2612 10.4295C59.9007 10.5459 57.3987 11.564 56.0125 11.8056C56.8279 11.9092 57.9094 12.1249 58.0124 12.5261C58.1712 13.1732 58.4931 14.7866 58.9737 14.9506C59.4501 15.1102 62.9864 14.627 62.9864 14.627C62.9864 14.627 65.5656 14.4674 66.205 14.4674C66.8445 14.4674 69.1018 13.4967 67.8101 13.3371C66.5226 13.1732 63.1451 13.4967 62.5057 13.4967C61.8662 13.4967 60.5745 12.8496 60.5745 12.8496C60.5745 12.8496 61.5444 11.7237 62.3469 11.8833C63.1451 12.0472 65.5613 12.0472 66.6857 11.7237C67.8101 11.4001 68.6126 11.7237 68.6126 11.0766C68.6126 10.4295 69.1018 10.2698 69.9001 9.78234C70.7026 9.29917 71.1832 8.64775 71.1832 8.64775C71.0202 7.84102 70.8614 6.87467 71.5008 6.87467C72.1403 6.87467 73.7496 6.55112 73.7496 6.55112C73.7496 6.55112 76.3246 4.77373 76.8009 4.44586C77.2859 4.12662 78.569 3.79875 79.3759 3.47951C80.1784 3.15164 81.4616 2.66847 81.4616 2.66847C81.4616 2.66847 80.9809 2.1853 78.7364 1.70212C76.4833 1.21895 73.9127 2.66847 72.4664 2.66847C71.0202 2.66847 69.252 2.50885 67.6427 2.8324C66.0377 3.15596 64.5957 2.1853 62.8233 2.8324C61.0509 3.47951 60.2483 3.63913 59.9307 4.12662C59.6089 4.61411 58.6433 4.44586 57.6777 4.44586C56.7121 4.44586 54.7809 5.90401 55.4246 6.38718C56.0726 6.87036 56.0726 7.19391 56.7121 7.51746L56.7292 7.52178Z" fill="#6E7781"/>
<path fill-rule="evenodd" clip-rule="evenodd" d="M56.2502 13.3363C56.2502 13.3363 54.9627 14.4666 55.4434 14.6262C55.9284 14.7859 56.894 15.1094 56.894 15.1094L56.2502 13.332V13.3363Z" fill="#6E7781"/>
<path fill-rule="evenodd" clip-rule="evenodd" d="M48.3744 11.7227C48.3744 11.7227 48.5332 12.5294 48.8551 13.1765C49.1726 13.8236 50.4558 13.664 50.9408 14.1472C51.4214 14.6303 52.872 14.4707 53.6745 13.9832C54.477 13.5 53.0308 12.0462 53.0308 12.0462L51.4214 12.2101L48.3701 11.727L48.3744 11.7227Z" fill="#6E7781"/>
<path fill-rule="evenodd" clip-rule="evenodd" d="M41.3019 13.9792C41.3019 13.9792 41.7868 15.2734 42.4263 14.9498C43.07 14.6263 44.5163 14.1388 45.16 14.2984C45.808 14.4624 46.9238 13.8152 46.9238 12.685C46.9238 11.5547 45.16 11.5547 45.16 11.5547L43.8768 13.0085C43.8768 13.0085 42.1044 12.5253 41.3019 12.2018C40.5036 11.8782 39.5338 12.5253 39.6968 13.3321C39.8556 14.1388 41.3019 13.9749 41.3019 13.9749V13.9792Z" fill="#6E7781"/>
<path fill-rule="evenodd" clip-rule="evenodd" d="M34.5535 13.337C35.6779 14.1437 35.9997 12.8495 36.4804 12.2067C36.9654 11.5596 37.931 12.5303 38.7335 11.7235C39.536 10.9125 39.3772 9.78223 39.3772 9.78223C39.3772 9.78223 35.6779 10.7486 34.8754 11.2361C34.0728 11.7235 33.4291 12.5303 34.5535 13.337Z" fill="#6E7781"/>
<path fill-rule="evenodd" clip-rule="evenodd" d="M42.7474 11.4014C43.55 11.7249 43.713 11.0778 44.3568 10.435C44.9962 9.7879 44.8331 8.97685 44.3568 8.6533C43.8718 8.32975 41.46 9.7879 41.46 9.7879C41.46 9.7879 41.9449 11.0821 42.7474 11.4014Z" fill="#6E7781"/>
<path fill-rule="evenodd" clip-rule="evenodd" d="M48.2075 9.46353C48.8555 9.29959 50.4606 9.95101 51.4262 10.4342C52.3918 10.9174 52.8724 10.5938 52.8724 9.95101C52.8724 9.30822 51.9025 8.65249 51.1 8.17363C50.2975 7.69045 48.2032 8.00969 48.2032 8.00969C48.2032 8.00969 47.568 9.62746 48.2032 9.46353H48.2075Z" fill="#6E7781"/>
<path fill-rule="evenodd" clip-rule="evenodd" d="M56.5621 11.0757C57.6907 11.2354 57.8538 10.1051 57.3646 9.78152C56.8882 9.45797 56.0857 8.97048 56.0857 8.97048L53.6738 8.4873C53.6738 8.4873 55.4377 10.9118 56.5621 11.0757Z" fill="#6E7781"/>
<path fill-rule="evenodd" clip-rule="evenodd" d="M98.6723 103.156C97.7024 102.672 94.9773 101.378 93.6898 100.567C92.4109 99.7604 90.8016 100.895 90.8016 100.895L90.6385 98.4705C90.6385 98.4705 89.9947 96.0503 89.0334 94.4325C88.0678 92.819 86.2997 93.6258 84.8534 93.7854C83.4072 93.9493 83.0853 92.3316 82.4416 92.008C81.8021 91.6845 81.6391 90.5542 81.6391 90.5542C81.6391 90.5542 80.0297 90.071 79.2272 89.7474C78.4247 89.4282 75.854 88.7768 75.206 88.6172C74.5665 88.4532 74.2447 90.3945 73.7597 90.2306C73.2748 90.071 73.4422 88.4532 72.7984 88.4532C72.1547 88.4532 70.0647 91.0417 70.0647 91.0417L69.9059 92.008L68.3008 90.3946L65.7259 90.7181C65.7259 90.7181 65.2452 89.5878 64.6058 88.7811C63.9621 87.9744 64.6058 87.4869 64.9234 86.197C65.2452 84.9028 63.9621 85.0667 62.9922 84.7431C62.0309 84.4196 60.9065 84.4196 60.9065 84.4196L61.3871 82.3186C61.3871 82.3186 62.0309 79.4153 61.8678 78.9235C61.709 78.4403 60.0996 78.9235 59.7778 79.411C59.4559 79.8898 58.3358 81.348 58.3358 81.348C58.3358 81.348 56.2458 81.9951 55.6021 81.5076C54.9583 81.0287 54.7953 80.2177 54.1601 79.411C53.5164 78.5999 53.3533 76.8225 53.1945 75.2091C53.0357 73.5913 53.3533 72.625 53.6795 72.1418C53.997 71.6543 55.7695 70.688 56.7308 70.2048C57.6964 69.7173 59.3014 70.2048 59.3014 70.2048C59.3014 70.2048 60.9065 69.8812 62.1896 69.5577C63.4771 69.2341 64.4427 70.8519 64.9234 71.6543C65.404 72.4654 66.0478 74.5663 67.1722 73.9149C68.3008 73.2678 67.1722 72.2971 67.0134 71.4947C66.8546 70.688 67.3352 69.0702 67.494 67.6164C67.6528 66.1625 68.6184 66.4861 69.7428 64.8726C70.8715 63.2549 70.0647 63.2549 70.0647 62.4481C70.0647 61.6414 70.5496 60.9943 71.5109 60.3472C72.4765 59.7001 72.3178 59.7001 73.9228 58.4059C75.5321 57.116 74.5665 56.9563 75.6909 55.1746C76.4763 53.9365 77.1887 53.7122 77.9783 53.1427L78.7508 53.7208C78.7508 53.7208 78.429 54.8511 78.5877 55.6621C78.7508 56.4689 79.7078 54.8554 80.1971 54.3679C80.6777 53.8804 81.6433 53.2376 81.8021 52.4309C81.9609 51.6242 80.8365 52.7501 80.3559 52.4309C80.0726 52.2368 79.6778 51.883 79.3988 51.6242C80.1027 50.4206 79.1585 50.0452 78.5877 49.0357C77.944 47.9055 75.8583 49.8468 75.8583 49.8468C75.8583 49.8468 77.3046 48.0651 77.7852 47.7458C78.2659 47.4266 80.1971 47.7458 81.9652 47.7458C83.7333 47.7458 84.0552 45.9728 85.4972 45.4853C86.9434 45.0021 86.2997 44.355 85.819 43.7079C85.3384 43.0608 83.729 42.5776 82.9308 41.9348C82.124 41.2877 81.3215 40.9641 81.1584 38.5397C80.9953 36.1152 79.0684 35.7916 79.0684 35.7916C79.0684 35.7916 77.4591 37.7329 76.3347 37.4051C75.206 37.0858 75.6909 35.632 75.206 34.6613C74.721 33.6907 72.6439 33.2032 71.5109 33.3714C70.3908 33.5353 69.2622 33.2075 68.7815 34.3421C68.3008 35.4724 69.2622 37.0901 70.0647 38.0565C70.8715 39.0271 69.584 41.6113 69.1077 42.0944C68.6184 42.5776 68.7815 45.8088 67.494 46.1324C66.2109 46.4516 65.8933 42.254 65.2495 41.9348C64.6058 41.6069 59.7821 39.5103 58.9795 38.6993C58.1727 37.8925 56.4046 37.2498 55.7652 35.7916C55.1214 34.3378 59.4559 31.9133 60.0996 31.4301C60.7434 30.9426 61.8678 31.4301 62.8377 31.7493C63.799 32.0686 64.2839 31.9133 64.7603 31.2662C65.2495 30.6191 65.2495 29.9719 65.2495 29.9719C65.2495 29.9719 61.5545 29.9719 62.1939 29.8123C62.842 29.6527 64.1209 28.5224 64.1209 28.5224C64.1209 28.5224 65.5714 27.2282 66.8589 26.0979C68.1421 24.9676 66.5327 24.8037 66.0521 23.6734C65.5757 22.5431 64.1209 23.1903 64.1209 23.1903L63.1553 25.9383C63.1553 25.9383 61.8721 25.7744 61.5545 25.2912C61.2326 24.808 59.7821 23.3542 58.8165 22.871C57.8552 22.3835 57.2114 23.3542 56.8896 23.997C56.5634 24.6441 54.1558 24.6441 54.1558 24.6441C54.1558 24.6441 52.2246 24.9676 51.5852 25.2912C50.9414 25.6148 48.0446 24.4845 46.7572 24.3249C45.4783 24.1652 46.5941 26.7493 46.2808 27.2325C45.9546 27.7157 44.5084 26.2619 43.7058 25.9426C42.9033 25.6191 40.9721 25.1316 40.9721 25.1316C40.9721 25.1316 38.5688 23.6777 37.4402 23.1946C36.3158 22.7114 32.7795 22.3835 31.6551 21.4172C30.5307 20.4465 29.2433 21.5768 28.5995 21.4172C27.9601 21.2532 26.3507 22.8753 25.7113 23.0306C25.0676 23.1903 23.4625 22.7071 21.3725 22.7071C19.2825 22.7071 15.9093 21.2532 14.4588 20.4465C13.0125 19.6355 8.0343 21.0893 7.0687 21.2532C6.10309 21.4172 3.69552 21.7407 3.53244 23.0306C3.37366 24.3249 0.639924 24.9676 0.639924 24.9676L4.65684 26.5811C4.65684 26.5811 3.69123 27.3878 3.20628 27.3878C2.72134 27.3878 1.28366 26.0979 0.639924 26.5811C0.00048003 27.0686 -0.1626 28.0349 0.16356 28.6864C0.481136 29.3335 2.41234 29.3335 3.8586 29.0056C5.30057 28.6864 4.81992 29.9763 4.983 30.6234C5.14607 31.2705 2.893 31.1065 2.25356 31.4344C1.60982 31.7536 1.60982 33.3714 2.25356 34.3421C2.893 35.3084 4.02168 36.2791 5.14607 36.607C6.27047 36.9305 6.9142 37.2541 6.9142 37.2541C6.9142 37.2541 5.46794 39.3507 5.9486 39.9978C6.42925 40.6449 7.71673 38.544 8.36046 38.0565C9.0042 37.5733 10.4505 35.7959 10.4505 35.7959L11.901 33.2075L11.5791 35.7959C11.5791 35.7959 12.3817 36.607 13.6648 35.3084C14.9523 34.0185 14.4674 33.3714 14.4674 33.3714C14.4674 33.3714 17.6818 35.1445 18.3255 34.9849C18.9692 34.8209 21.3811 35.468 22.3467 36.4387C23.308 37.4051 24.4324 39.5103 24.9173 39.5103C25.4023 39.5103 24.5955 38.2204 25.398 38.38C26.2005 38.544 27.8056 40.9641 28.4493 42.2584C29.0888 43.5526 30.3762 46.4603 30.7024 47.1074C31.02 47.7502 31.6637 47.5905 32.1486 48.3973C32.6293 49.204 33.4318 51.3049 33.4318 52.1117C33.4318 52.9184 33.11 55.6664 33.7494 58.2549C34.3888 60.839 35.1957 64.0702 36.6419 65.2005C38.0882 66.3308 38.8907 68.2721 39.2083 68.9149C39.5344 69.562 40.6588 72.6336 41.4614 74.2471C42.2639 75.8648 43.3883 76.9908 43.5514 75.8648C43.7144 74.7345 40.0194 68.4317 40.0194 68.4317C40.0194 68.4317 40.6588 67.7889 41.1395 67.7889C41.6201 67.7889 42.5858 71.1798 42.5858 71.1798C42.5858 71.1798 46.4439 76.348 46.7614 76.9908C47.0833 77.6422 47.0833 80.0624 48.0489 81.3566C49.0145 82.6465 55.6021 83.9407 56.087 83.7768C56.5634 83.6172 57.6921 85.3946 58.1727 85.8777C58.6534 86.3609 61.2283 87.172 62.0309 87.8191C62.8377 88.4619 63.1552 90.0796 63.9621 91.2099C64.7603 92.3402 65.4083 92.0166 66.3739 92.1763C67.3395 92.3402 67.6571 91.6931 67.6571 91.6931L68.7858 93.3065C68.7858 93.3065 68.9446 95.5714 68.7858 96.0546C68.6227 96.5378 67.8202 98.3151 67.1765 99.6094C66.537 100.904 66.8589 101.87 66.8589 102.677C66.8589 103.483 66.6958 105.42 67.8202 106.551C68.9446 107.681 69.5883 111.076 70.069 112.206C70.5539 113.337 72.6439 115.438 73.4464 116.085C74.249 116.728 74.5708 118.505 74.8927 119.799C75.2103 121.089 74.5708 124.001 74.5708 124.648C74.5708 125.295 73.9271 133.207 73.764 134.014C73.6095 134.825 72.6439 138.699 72.6439 139.51C72.6439 140.321 72.159 142.422 72.159 142.422C72.159 142.422 72.8027 143.229 72.3221 144.519C71.8414 145.813 71.5152 147.431 71.3564 148.561C71.1934 149.691 71.3564 153.086 71.8371 153.893C72.3178 154.7 73.4421 156.473 74.8884 157.439C76.3347 158.414 76.8153 156.473 76.8153 156.473C76.8153 156.473 75.8583 154.217 75.5321 153.242C75.206 152.271 76.0128 151.464 76.9741 149.851C77.9397 148.233 77.4548 148.397 76.6565 147.59C75.854 146.784 77.3003 145.813 78.429 144.519C79.5491 143.224 78.7508 142.746 79.0684 142.094C79.3903 141.451 80.1971 140.64 80.1971 140.157C80.1971 139.674 82.2828 139.35 83.566 138.863C84.8534 138.38 85.1796 137.249 84.6904 135.796C84.2097 134.342 84.0509 133.052 84.0509 133.052C84.0509 133.052 86.1366 134.182 87.746 132.888C89.351 131.598 89.1879 130.791 90.4754 129.014C91.7629 127.241 90.9604 126.594 91.1234 125.14C91.2779 123.686 93.531 123.035 95.4622 122.228C97.3891 121.421 97.226 121.585 98.3504 119.644C99.4748 117.707 99.153 115.446 98.9942 114.148C98.8354 112.858 100.119 111.728 101.084 110.438C102.045 109.143 102.685 106.883 102.372 105.425C102.05 103.975 99.6379 103.647 98.6723 103.164V103.156Z" fill="#6E7781"/>
<path fill-rule="evenodd" clip-rule="evenodd" d="M210.385 9.06658C209.643 8.31594 208.617 8.31594 208.239 8.22534C207.874 8.13043 206.75 9.91214 206.75 9.91214C206.75 9.91214 208.334 9.53681 208.99 9.4419C209.643 9.34699 211.127 9.81291 210.385 9.06658Z" fill="#6E7781"/>
<path fill-rule="evenodd" clip-rule="evenodd" d="M202.005 8.03417C202.378 7.93926 202.842 8.31459 203.498 8.31459C204.155 8.31459 205.266 8.68991 205.266 8.68991L206.562 8.03849C206.562 8.03849 206.472 7.66316 206.103 7.47766C205.73 7.29215 205.73 6.91252 205.361 6.6321C204.992 6.35601 204.893 6.07128 204.245 5.60536C203.588 5.13944 203.777 5.32495 203.211 5.60536C202.653 5.89009 202.374 6.2611 201.915 6.73133C201.443 7.20156 200.327 6.82192 200.606 7.75807C200.885 8.69422 201.631 8.13771 202 8.0428L202.005 8.03417Z" fill="#6E7781"/>
<path fill-rule="evenodd" clip-rule="evenodd" d="M139.887 9.62671C140.261 9.81221 140.819 10.1875 140.819 10.1875C140.819 10.1875 139.887 11.4041 139.887 11.7794C139.887 12.1547 140.819 12.2453 142.123 12.6207C143.428 12.996 143.801 11.7794 143.801 11.7794C143.801 11.7794 144.08 11.0288 144.355 10.9339C144.638 10.8433 145.286 11.1194 145.754 11.5896C146.222 12.0555 146.78 11.9606 147.801 11.4947C148.831 11.0245 146.78 10.744 146.78 10.744C146.78 10.744 145.475 10.1832 145.097 9.62239C144.724 9.06157 143.986 8.68624 143.612 8.40583C143.239 8.12542 142.497 7.09436 142.497 7.09436C142.497 7.09436 141.376 7.46968 141.007 7.37477C140.638 7.27986 140.261 6.71904 139.793 6.90454C139.329 7.09436 138.866 7.27555 138.952 8.12542C139.05 8.96666 139.51 9.43689 139.887 9.62239V9.62671Z" fill="#6E7781"/>
<path fill-rule="evenodd" clip-rule="evenodd" d="M145.386 8.12959C145.948 8.12959 147.618 8.41 148.738 8.5955C149.858 8.78101 150.785 7.37894 150.601 7.00362C150.412 6.6283 149.201 7.09853 148.923 7.09853C148.644 7.09853 147.06 6.7232 146.318 6.16238C145.571 5.59724 144.549 6.44279 144.549 6.44279L144.086 7.09853C144.086 7.09853 144.828 8.12959 145.391 8.12959H145.386Z" fill="#6E7781"/>
</g>
</svg>
