<svg width="121" height="30" viewBox="0 0 121 30" fill="none" xmlns="http://www.w3.org/2000/svg">
<path d="M113.896 7.79398C115.184 9.27372 116.309 12.7544 116.726 16.2459C116.905 17.7343 118.674 18.4321 119.813 17.4543C119.819 17.4478 119.828 17.4413 119.835 17.4349C121.228 16.2222 121.26 5.33422 119.244 3.01661C117.228 0.699005 106.442 -0.778576 105.046 0.434074C105.014 0.462075 104.981 0.49223 104.949 0.522385C103.863 1.52611 104.309 3.33539 105.739 3.71879C109.211 4.64712 112.595 6.29917 113.898 7.79613L113.896 7.79398Z" fill="#FFB600"/>
<path d="M57.5325 29.9978H61.653C61.8899 29.9978 62.0838 29.804 62.0838 29.5671V14.4165C62.1161 14.1106 62.2453 13.8801 62.4715 13.7272C62.6976 13.5743 63.0035 13.4558 63.3912 13.3697C63.7789 13.2857 64.2312 13.2426 64.746 13.2426C65.6485 13.2426 66.3507 13.4386 66.8525 13.8306C67.3522 14.2226 67.6021 14.8774 67.6021 15.7971V29.5692C67.6021 29.8061 67.7959 30 68.0329 30H74.4343C74.6712 30 74.8651 29.8061 74.8651 29.5692V14.774C74.8651 14.4337 74.9943 14.1451 75.2528 13.906C75.5112 13.6669 75.8408 13.4795 76.2457 13.3438C76.6485 13.2081 77.0771 13.1392 77.5294 13.1392C78.4642 13.1392 79.1664 13.3438 79.636 13.7531C80.1034 14.1623 80.3532 15.0303 80.3855 16.3593V29.5692C80.3855 29.8061 80.5794 30 80.8163 30H84.9863C85.9857 30 86.6728 29.8557 87.0433 29.5649C87.4137 29.2763 87.6011 28.5676 87.6011 27.4455V16.6156C87.6011 14.7439 87.319 13.2878 86.7546 12.2475C86.1903 11.2093 85.262 10.4942 83.9696 10.1022C82.6773 9.71017 80.9197 9.51416 78.6926 9.51416C78.111 9.51416 77.4648 9.56585 76.7562 9.66709C76.0454 9.76832 75.3195 9.9471 74.5764 10.2034C73.8333 10.4597 73.1872 10.8604 72.6401 11.4031C72.3407 11.7004 72.0822 12.0493 71.8604 12.4478C71.5243 11.8468 71.1474 11.3622 70.7274 10.996C70.0661 10.4166 69.267 10.0246 68.3301 9.82217C67.3931 9.61755 66.2796 9.51631 64.9894 9.51631C64.1494 9.51631 63.2383 9.55939 62.2539 9.64339C61.2696 9.72955 60.3089 9.8394 59.372 9.9751C58.435 10.1108 57.5713 10.2551 56.7808 10.4102C56.1454 10.533 55.607 10.6622 55.1697 10.7957C54.9888 10.8517 54.8682 11.0176 54.8682 11.2071V27.187C54.8682 28.3802 55.0383 29.1449 55.3765 29.4852C55.7147 29.8255 56.4341 29.9957 57.5304 29.9957L57.5325 29.9978Z" fill="#24292F"/>
<path d="M13.1496 17.9668C12.6671 18.2016 12.3634 18.5893 12.2385 19.13C12.1373 19.5693 12.077 19.5823 12.0576 20.0841C12.049 20.3275 12.245 20.53 12.4884 20.53H19.9904V22.5331C19.9581 23.4399 19.7729 24.8098 19.4304 25.3655C19.0879 25.9212 18.5042 26.3089 17.6793 26.5286C16.8543 26.7483 15.7106 26.8582 14.246 26.8582C12.7813 26.8582 11.5363 26.6816 10.6037 26.3305C9.67105 25.9794 8.97534 25.3418 8.52517 24.4199C8.07285 23.4981 7.84884 21.5229 7.84884 19.7654C7.84884 17.8915 8.09008 16.4806 8.57256 15.5286C9.05503 14.5766 9.82613 13.9326 10.8837 13.5966C11.9413 13.2605 13.3736 13.0925 15.1807 13.0925C15.6158 13.0925 16.2469 13.1012 17.0719 13.1141C17.8968 13.1292 18.8079 13.1658 19.803 13.2239C20.7981 13.2821 21.7717 13.3639 22.7216 13.4652C22.9908 13.4953 23.2493 13.5255 23.4991 13.5578C23.749 13.5901 23.9859 13.3919 23.9859 13.1313V12.1664C23.9859 10.8352 22.9736 9.72168 21.6489 9.59244C21.0868 9.53859 20.4901 9.49121 19.943 9.46752C18.1984 9.39428 16.1909 9.35767 13.9186 9.35767C11.8637 9.35767 9.97906 9.47398 8.2667 9.70875C6.55434 9.94353 5.08322 10.4109 3.85334 11.1131C2.62346 11.8153 1.67359 12.8621 1.00372 14.2535C0.333856 15.6449 0 17.4801 0 19.7632C0 21.8719 0.256315 23.5907 0.771099 24.9218C1.28588 26.2551 2.0936 27.2933 3.19855 28.0385C4.30351 28.7859 5.72724 29.2964 7.47191 29.5764C9.21442 29.8543 11.3166 29.9943 13.7764 29.9943C16.5786 29.9943 18.8747 29.8543 20.6646 29.5764C22.4545 29.2986 23.8395 28.8678 24.8216 28.2819C25.8017 27.696 26.4715 26.9206 26.8291 25.9557C27.1866 24.9907 27.3654 23.819 27.3654 22.4427L27.4085 18.0487C27.4106 17.8096 27.2168 17.6136 26.9777 17.6136H15.5038C14.414 17.6136 13.6278 17.7299 13.1453 17.9647L13.1496 17.9668Z" fill="#24292F"/>
<path d="M50.9534 13.6752C50.6281 12.482 50.0832 11.5816 49.3164 10.9764C48.5496 10.3711 47.4942 9.95113 46.1523 9.7142C44.8104 9.47943 43.1498 9.36096 41.1746 9.36096C39.6109 9.36096 38.1591 9.39542 36.8173 9.4622L36.7483 9.4665C35.3741 9.53543 34.295 10.6705 34.295 12.0469V12.9537C34.295 13.2057 34.5104 13.4038 34.7603 13.3823C35.4323 13.3263 36.6686 13.2294 37.3924 13.2057C38.4112 13.1734 39.4343 13.1561 40.4681 13.1561C41.3232 13.1561 42.0448 13.2057 42.6371 13.3069C43.2273 13.4082 43.699 13.6192 44.0522 13.938C44.4055 14.259 44.6639 14.7199 44.8276 15.3251C44.9892 15.9304 45.071 17.1 45.071 18.1424C44.8061 18.0757 44.3258 18.0003 43.6322 17.9163C42.9387 17.8323 42.1288 17.7741 41.1983 17.7397C40.27 17.7074 39.3244 17.6815 38.3659 17.6643C37.4074 17.647 36.5588 17.6384 35.8222 17.6384C34.5837 17.6384 33.595 17.8064 32.8584 18.1424C32.1217 18.4785 31.6048 19.0923 31.3097 19.984C31.0146 20.8758 30.8682 22.1789 30.8682 23.8955C30.8682 25.175 30.9866 26.2175 31.2214 27.023C31.4562 27.8307 31.9214 28.4532 32.615 28.8905C33.3085 29.3277 34.2886 29.6228 35.5572 29.7736C36.8259 29.9243 38.493 29.9997 40.5564 29.9997C43.5935 29.9997 46.0511 29.8726 47.9228 29.6206C49.6115 29.3923 50.7294 29.0628 51.2808 28.632C51.3841 28.5501 51.4401 28.4252 51.4401 28.2938V18.444C51.4401 16.4602 51.2786 14.8707 50.9534 13.6752ZM45.0689 26.2131C44.832 26.3488 44.5089 26.4652 44.0953 26.5664C43.6818 26.6676 43.1885 26.743 42.6134 26.7925C42.0383 26.8421 41.3362 26.8679 40.5112 26.8679C39.6863 26.8679 39.109 26.7602 38.6976 26.5405C38.2841 26.323 38.0041 25.9525 37.8576 25.4313C37.709 24.91 37.6357 24.2294 37.6357 23.3872C37.6357 22.4115 37.7305 21.6899 37.9244 21.2182C38.1161 20.7465 38.4327 20.445 38.8764 20.3093C39.3179 20.1757 39.8952 20.1068 40.6017 20.1068C40.9269 20.1068 41.3835 20.124 41.9737 20.1564C42.5639 20.1908 43.1454 20.2404 43.7205 20.3071C44.2956 20.3761 44.7458 20.4579 45.071 20.5591V26.211L45.0689 26.2131Z" fill="#24292F"/>
<path d="M111.118 13.6752C110.793 12.482 110.248 11.5816 109.481 10.9764C108.715 10.3711 107.659 9.95113 106.317 9.7142C104.975 9.47943 103.315 9.36096 101.34 9.36096C99.7759 9.36096 98.3242 9.39542 96.9823 9.4622L96.9134 9.4665C95.5392 9.53543 94.4601 10.6705 94.4601 12.0469V12.9537C94.4601 13.2057 94.6755 13.4038 94.9253 13.3823C95.5973 13.3263 96.8337 13.2294 97.5574 13.2057C98.5762 13.1734 99.5993 13.1561 100.633 13.1561C101.488 13.1561 102.21 13.2057 102.802 13.3069C103.392 13.4082 103.864 13.6192 104.217 13.938C104.571 14.259 104.829 14.7199 104.993 15.3251C105.154 15.9304 105.236 17.1 105.236 18.1424C104.971 18.0757 104.491 18.0003 103.797 17.9163C103.104 17.8323 102.294 17.7741 101.363 17.7397C100.435 17.7074 99.4894 17.6815 98.531 17.6643C97.5725 17.647 96.7238 17.6384 95.9872 17.6384C94.7487 17.6384 93.76 17.8064 93.0234 18.1424C92.2868 18.4785 91.7698 19.0923 91.4748 19.984C91.1797 20.8758 91.0332 22.1789 91.0332 23.8955C91.0332 25.175 91.1517 26.2175 91.3864 27.023C91.6212 27.8307 92.0865 28.4532 92.78 28.8905C93.4736 29.3277 94.4536 29.6228 95.7223 29.7736C96.9909 29.9243 98.658 29.9997 100.721 29.9997C103.758 29.9997 106.216 29.8726 108.088 29.6206C109.777 29.3923 110.894 29.0628 111.446 28.632C111.549 28.5501 111.605 28.4252 111.605 28.2938V18.444C111.605 16.4602 111.444 14.8707 111.118 13.6752ZM105.234 26.2131C104.997 26.3488 104.674 26.4652 104.26 26.5664C103.847 26.6676 103.354 26.743 102.778 26.7925C102.203 26.8421 101.501 26.8679 100.676 26.8679C99.8513 26.8679 99.2741 26.7602 98.8627 26.5405C98.4491 26.323 98.1691 25.9525 98.0226 25.4313C97.874 24.91 97.8008 24.2294 97.8008 23.3872C97.8008 22.4115 97.8956 21.6899 98.0894 21.2182C98.2811 20.7465 98.5977 20.445 99.0414 20.3093C99.483 20.1757 100.06 20.1068 100.767 20.1068C101.092 20.1068 101.549 20.124 102.139 20.1564C102.729 20.1908 103.31 20.2404 103.886 20.3071C104.461 20.3761 104.911 20.4579 105.236 20.5591V26.211L105.234 26.2131Z" fill="#24292F"/>
</svg>
