<svg width="144" height="144" viewBox="0 0 144 144" fill="none" xmlns="http://www.w3.org/2000/svg">
<g clip-path="url(#clip0_2761_5410)">
<path d="M35.1157 33.0761C29.0092 33.0761 24.0581 28.125 24.0581 22.0185C24.0581 15.912 29.0092 10.9609 35.1157 10.9609C41.2222 10.9609 46.1732 15.912 46.1732 22.0185C46.1732 28.125 41.2222 33.0761 35.1157 33.0761Z" fill="#EBEBEB"/>
<path d="M32.3914 19.5566H30.103V26.9509H32.3914V19.5566Z" fill="white"/>
<path d="M31.2361 18.5879C31.9849 18.5879 32.5885 17.9779 32.5885 17.2227C32.5885 16.4674 31.9817 15.8574 31.2361 15.8574C30.4906 15.8574 29.8838 16.4674 29.8838 17.2227C29.8838 17.9779 30.4906 18.5879 31.2361 18.5879Z" fill="white"/>
<path d="M36.0484 23.0676C36.0484 22.0283 36.5261 21.4086 37.4427 21.4086C38.2851 21.4086 38.6886 22.0025 38.6886 23.0676V26.9471H40.9672V22.2671C40.9672 20.2854 39.844 19.3301 38.2787 19.3301C36.7133 19.3301 36.0517 20.5501 36.0517 20.5501V19.5528H33.8569V26.9471H36.0517V23.0676H36.0484Z" fill="white"/>
<path d="M49.9363 0L51.45 2.76923L54.2192 4.28295L51.45 5.79666L49.9363 8.5659L48.4226 5.79666L45.6533 4.28295L48.4226 2.76923L49.9363 0Z" fill="#F5F5F5"/>
<path d="M113.083 75.0049L114.219 77.0802L116.294 78.2163L114.219 79.3524L113.083 81.4277L111.947 79.3524L109.872 78.2163L111.947 77.0802L113.083 75.0049Z" fill="#EBEBEB"/>
<path d="M116.294 64.751L116.808 65.687L117.744 66.2001L116.808 66.7133L116.294 67.6493L115.781 66.7133L114.845 66.2001L115.781 65.687L116.294 64.751Z" fill="#E0E0E0"/>
<path d="M39.121 1.04297L39.6342 1.97896L40.5702 2.49213L39.6342 3.00209L39.121 3.9413L38.6079 3.00209L37.6719 2.49213L38.6079 1.97896L39.121 1.04297Z" fill="#E0E0E0"/>
<path d="M13.436 88.0702C14.5915 87.5667 15.4016 86.3596 15.3919 84.9492C15.3758 83.0998 13.9557 81.6119 12.2225 81.6281C10.4893 81.641 9.09822 83.1547 9.11436 85.0008C9.12727 86.4242 9.97611 87.6281 11.1542 88.0993C6.33222 88.89 6.61947 94.138 6.61947 94.138L18.0417 94.0444C18.0417 94.0444 18.2322 88.7351 13.436 88.0735V88.0702Z" fill="#E0E0E0"/>
<path d="M123.011 122.663C122.85 121.84 122.04 121.197 121.2 121.23C120.371 121.259 119.616 121.946 119.503 122.769C119.383 121.949 118.622 121.268 117.792 121.246C116.956 121.223 116.149 121.872 115.994 122.695C115.882 123.295 116.088 123.918 116.424 124.428C116.763 124.935 117.221 125.348 117.676 125.755C118.315 126.323 118.906 126.859 119.542 127.427C120.174 126.852 120.713 126.313 121.346 125.739C121.798 125.329 122.256 124.912 122.588 124.402C122.921 123.892 123.121 123.266 123.005 122.666L123.011 122.663Z" fill="#EBEBEB"/>
<path d="M130.45 54.6297L131.673 54.3877L133.607 50.1338L133.123 47.6905C133.123 47.6905 134.991 47.1999 135.404 50.4436C135.818 53.6873 135.895 52.8255 135.895 52.8255C135.895 52.8255 139.917 52.0445 140.32 52.3285C140.614 52.5351 141.514 56.5017 141.985 58.6577C142.221 59.7422 141.756 60.8879 140.794 61.3463C140.659 61.4108 140.517 61.4624 140.375 61.4915C139.374 61.6916 134.091 61.8917 134.091 61.8917L131.977 62.3113L130.453 54.633L130.45 54.6297Z" fill="#E0E0E0"/>
<path d="M126.813 54.6558L129.227 62.8796L131.325 62.4632L129.698 54.2588L126.813 54.6558Z" fill="#E0E0E0"/>
<path d="M142.971 143.768C142.971 143.813 110.963 143.851 71.4902 143.851C32.0174 143.851 0.00341797 143.813 0.00341797 143.768C0.00341797 143.722 32.0045 143.684 71.4902 143.684C110.976 143.684 142.971 143.722 142.971 143.768Z" fill="#263238"/>
<path d="M118.105 51.4021C111.592 54.5683 103.746 51.8572 100.576 45.344C97.4102 38.8308 100.121 30.9847 106.635 27.8152C113.148 24.649 120.994 27.3601 124.163 33.8733C127.33 40.3865 124.618 48.2326 118.105 51.4021Z" fill="#FFB600"/>
<path d="M109.129 42.542C109.349 42.5291 109.481 42.3742 109.436 42.145C109.404 41.9869 109.32 41.5867 109.284 41.4188C109.239 41.1897 109.184 41.1316 108.952 41.0283C108.442 40.8024 107.993 40.4086 107.654 39.7082C106.667 37.6749 107.303 35.1154 109.743 33.9277C111.902 32.8755 113.732 33.6211 114.59 35.3833C115.72 37.7039 115.643 40.1601 114.119 40.9024C113.277 41.3123 112.309 40.9218 112.096 39.9697C111.844 38.8336 111.776 37.5038 111.418 36.7679C111.098 36.1095 110.475 35.7319 109.746 36.0869C108.884 36.5065 108.626 37.733 109.207 38.9239C109.575 39.6824 110.082 40.0729 110.082 40.0729C110.082 40.0729 111.014 44.2332 111.179 44.9594C111.505 46.4086 112.541 47.8771 112.641 48.0288C112.702 48.1192 112.835 48.0805 112.854 47.9837C112.883 47.8416 113.293 46.0762 113.025 44.6431C112.951 44.2365 112.515 42.1579 112.515 42.1579C113.054 42.5549 114.1 42.6259 114.968 42.2031C117.553 40.9444 118.163 37.733 116.627 34.5797C115.465 32.1945 112.363 30.9551 109.294 32.4495C105.473 34.3086 104.879 37.988 105.989 40.2731C106.664 41.6577 107.784 42.6324 109.133 42.5452L109.129 42.542Z" fill="white"/>
<path d="M131.203 88.3929C126.535 86.6113 124.199 81.3827 125.984 76.7157C127.765 72.0487 132.994 69.7119 137.661 71.4967C142.328 73.2784 144.665 78.507 142.88 83.174C141.098 87.841 135.87 90.1778 131.203 88.3929Z" fill="#FFB600"/>
<path fill-rule="evenodd" clip-rule="evenodd" d="M139.152 81.4799C140.023 79.014 138.761 76.2868 136.286 75.3411C133.839 74.4083 131.115 75.5606 130.089 77.9231C130.063 77.9877 130.034 78.0522 130.008 78.12C129.682 78.9753 129.615 79.8629 129.77 80.702L128.023 82.8096L130.851 82.971C131.367 83.5778 132.039 84.0684 132.836 84.3718C135.35 85.3336 138.158 84.0877 139.11 81.5928C139.126 81.5541 139.139 81.5154 139.152 81.4767V81.4799ZM133.11 83.652C132.332 83.3551 131.7 82.8484 131.245 82.219L129.595 82.1254L130.612 80.8989C130.392 80.0985 130.415 79.2238 130.735 78.3944C130.783 78.2717 130.835 78.1491 130.896 78.0329C131.819 76.1835 134.03 75.3024 136.012 76.0608C138.019 76.829 139.081 79.0044 138.487 81.0183C138.458 81.1184 138.426 81.2184 138.387 81.3185C137.587 83.4132 135.221 84.4589 133.11 83.652Z" fill="white"/>
<path fill-rule="evenodd" clip-rule="evenodd" d="M136.299 81.5666C136.209 81.4698 135.763 80.9889 135.673 80.9147C135.586 80.8372 135.518 80.792 135.402 80.8727C135.286 80.9534 134.976 81.1212 134.882 81.1696C134.789 81.2181 134.721 81.2019 134.63 81.1051C134.54 81.0083 134.224 80.7533 133.943 80.2143C133.723 79.7979 133.636 79.3493 133.614 79.2138C133.591 79.0782 133.672 79.0395 133.749 79.0072C133.82 78.9749 133.911 78.92 133.991 78.8781C134.014 78.8652 134.033 78.8523 134.053 78.8394C134.095 78.8071 134.127 78.778 134.172 78.7329C134.24 78.6715 134.243 78.6005 134.237 78.536C134.23 78.4714 134.214 77.8388 134.204 77.5806C134.198 77.3256 134.088 77.3256 134.024 77.2998C133.959 77.274 133.888 77.2353 133.814 77.2095C133.74 77.1804 133.607 77.161 133.462 77.2353C133.317 77.3063 132.926 77.4644 132.72 78.0099C132.671 78.139 132.645 78.2745 132.633 78.4101C132.597 78.8426 132.716 79.2589 132.739 79.3299C132.768 79.4235 133.042 80.8501 134.004 81.7312C134.972 82.6059 135.027 82.4574 135.24 82.5188C135.45 82.5801 136.002 82.5058 136.193 82.2799C136.386 82.0572 136.47 81.8377 136.46 81.7797C136.451 81.7248 136.386 81.6667 136.296 81.5699L136.299 81.5666Z" fill="white"/>
<path d="M13.5975 46.5894C9.78895 46.5894 6.7002 43.5007 6.7002 39.6922C6.7002 35.8837 9.78895 32.7949 13.5975 32.7949C17.406 32.7949 20.4947 35.8837 20.4947 39.6922C20.4947 43.5007 17.406 46.5894 13.5975 46.5894Z" fill="#FFB600"/>
<path d="M9.9212 42.0031C10.5893 42.4324 11.38 42.6809 12.2321 42.6809C15.0304 42.6809 16.6119 40.3151 16.5183 38.1946C16.812 37.9816 17.067 37.717 17.2703 37.4136C16.9992 37.533 16.7087 37.6137 16.4053 37.6524C16.7152 37.4652 16.954 37.1715 17.067 36.8197C16.7765 36.994 16.4537 37.1166 16.1084 37.1844C15.8341 36.8907 15.4403 36.71 15.0078 36.71C14.0363 36.71 13.3198 37.6169 13.5393 38.5626C12.287 38.5012 11.1735 37.9009 10.4311 36.9875C10.0374 37.6653 10.2278 38.5529 10.8991 39.0015C10.6506 38.9951 10.4182 38.9273 10.2149 38.8143C10.1988 39.5115 10.699 40.1667 11.4252 40.3119C11.2122 40.37 10.9798 40.3829 10.7442 40.3377C10.9346 40.938 11.493 41.3738 12.1514 41.3834C11.5188 41.8805 10.7184 42.1032 9.91797 42.0064L9.9212 42.0031Z" fill="white"/>
<path d="M25.9911 123.85C19.6103 125.37 13.2036 121.43 11.6835 115.049C10.1633 108.668 14.1041 102.261 20.485 100.741C26.8658 99.2209 33.2725 103.162 34.7927 109.543C36.3128 115.923 32.372 122.33 25.9911 123.85Z" fill="#455A64"/>
<path d="M22.0017 107.099C23.6929 106.696 23.8963 106.654 24.5708 106.528C25.1937 106.408 25.5552 106.431 25.8005 106.467C26.1233 106.512 26.3686 106.599 26.6429 106.767C26.9172 106.935 27.1044 107.115 27.2916 107.383C27.4304 107.586 27.6144 107.896 27.7887 108.506C27.9791 109.168 28.034 109.365 28.4342 111.056C28.8376 112.747 28.8796 112.951 29.0087 113.625C29.1281 114.248 29.1055 114.61 29.07 114.855C29.0248 115.178 28.9377 115.423 28.7698 115.697C28.602 115.972 28.4213 116.159 28.1534 116.346C27.9501 116.485 27.6402 116.669 27.0302 116.843C26.3686 117.033 26.1717 117.085 24.4804 117.489C22.7892 117.892 22.5859 117.934 21.9113 118.063C21.2884 118.182 20.9269 118.16 20.6816 118.124C20.3589 118.079 20.1136 117.992 19.8392 117.824C19.5649 117.656 19.3777 117.476 19.1905 117.208C19.0517 117.004 18.8677 116.695 18.6935 116.085C18.503 115.423 18.4482 115.226 18.048 113.532C17.6445 111.84 17.6026 111.637 17.4735 110.962C17.354 110.336 17.3766 109.978 17.4121 109.733C17.4573 109.41 17.5445 109.165 17.7123 108.89C17.8801 108.616 18.0609 108.429 18.3287 108.242C18.5321 108.103 18.8419 107.919 19.4519 107.745C20.1136 107.554 20.3105 107.499 22.0017 107.099ZM21.7306 105.957C20.0103 106.366 19.7973 106.425 19.126 106.618C18.4578 106.809 18.0254 107.028 17.6574 107.28C17.2798 107.541 16.9764 107.841 16.7085 108.277C16.4406 108.713 16.3083 109.12 16.2438 109.575C16.1824 110.014 16.1857 110.501 16.3148 111.182C16.4439 111.866 16.4891 112.082 16.8989 113.803C17.3088 115.523 17.3669 115.736 17.5606 116.407C17.751 117.075 17.9673 117.508 18.2222 117.876C18.4837 118.253 18.7838 118.557 19.2196 118.825C19.6553 119.093 20.0619 119.225 20.517 119.29C20.956 119.351 21.4433 119.348 22.1243 119.219C22.8086 119.089 23.0248 119.044 24.7451 118.634C26.4654 118.224 26.6784 118.166 27.3497 117.973C28.0178 117.782 28.4503 117.563 28.8183 117.311C29.1959 117.05 29.4993 116.749 29.7672 116.314C30.035 115.878 30.1674 115.471 30.2319 115.016C30.2932 114.577 30.29 114.09 30.1609 113.409C30.0318 112.725 29.9866 112.508 29.5767 110.788C29.1668 109.068 29.1087 108.855 28.9151 108.184C28.7247 107.515 28.5052 107.083 28.2534 106.715C27.992 106.337 27.6918 106.034 27.2561 105.766C26.8204 105.498 26.4137 105.366 25.9587 105.301C25.5197 105.24 25.0324 105.243 24.3513 105.372C23.6671 105.501 23.4509 105.547 21.7306 105.957Z" fill="white"/>
<path d="M22.4631 109.042C20.6653 109.472 19.555 111.273 19.9843 113.07C20.4136 114.868 22.2145 115.975 24.0123 115.549C25.81 115.12 26.9171 113.319 26.491 111.521C26.0618 109.723 24.2608 108.613 22.4631 109.042ZM23.7412 114.407C22.576 114.684 21.4044 113.964 21.1269 112.799C20.8493 111.634 21.569 110.463 22.7342 110.185C23.8993 109.907 25.0709 110.627 25.3485 111.792C25.6261 112.957 24.9063 114.129 23.7412 114.407Z" fill="white"/>
<path d="M26.5749 107.925C26.675 108.345 26.4168 108.768 25.9972 108.868C25.5776 108.968 25.1548 108.71 25.0547 108.29C24.9547 107.871 25.2129 107.448 25.6325 107.348C26.052 107.248 26.4748 107.506 26.5749 107.925Z" fill="white"/>
<path d="M115.965 113.396C112.906 113.396 110.427 110.918 110.427 107.858C110.427 104.798 112.906 102.319 115.965 102.319C119.025 102.319 121.504 104.798 121.504 107.858C121.504 110.918 119.025 113.396 115.965 113.396Z" fill="#455A64"/>
<path d="M115.123 111.205H116.472V107.829H117.411L117.511 106.699H116.469V106.054C116.469 105.786 116.524 105.683 116.779 105.683H117.508V104.508H116.575C115.572 104.508 115.12 104.95 115.12 105.796V106.696H114.419V107.842H115.12V111.205H115.123Z" fill="white"/>
<path d="M97.075 144L52.5704 143.974C47.2192 143.974 42.8813 139.63 42.8813 134.279L42.9039 22.706C42.9039 17.3515 47.2482 13.0104 52.6027 13.0137L97.1073 13.0395C102.459 13.0395 106.796 17.3838 106.796 22.735L106.774 134.308C106.774 139.662 102.429 144.003 97.075 144Z" fill="#263238"/>
<path d="M97.0591 16.9871L88.4319 16.9806C87.2764 16.9806 86.3372 17.9618 86.3372 19.1689V20.7342C86.3372 21.9446 85.398 22.9225 84.2425 22.9225L67.4238 22.9128C66.2683 22.9128 65.3291 21.9316 65.3291 20.7213V19.156C65.3291 17.9456 64.3931 16.9645 63.2344 16.9645H60.2006L52.6481 16.958C48.8977 16.958 45.8541 19.9951 45.8541 23.7455L45.8315 132.646C45.8315 136.396 48.8687 139.434 52.6158 139.437L97.03 139.463C100.78 139.463 103.821 136.425 103.824 132.675L103.847 23.7713C103.847 20.0242 100.809 16.9838 97.0623 16.9806L97.0591 16.9871Z" fill="white"/>
<path d="M97.7106 25.8331C97.7106 25.8622 96.5874 25.8944 95.206 25.9074C93.8214 25.9203 92.6982 25.9074 92.6982 25.8751C92.6982 25.846 93.8214 25.8138 95.2028 25.8008C96.5874 25.7879 97.7106 25.8008 97.7106 25.8331Z" fill="#263238"/>
<path d="M97.7204 27.1144C97.7204 27.1434 96.5972 27.1757 95.2158 27.1886C93.8312 27.2015 92.708 27.1886 92.708 27.1563C92.708 27.1273 93.828 27.095 95.2126 27.0821C96.5972 27.0692 97.7204 27.0821 97.7204 27.1144Z" fill="#263238"/>
<path d="M97.7301 28.3986C97.7301 28.4276 96.607 28.4599 95.2256 28.4728C93.841 28.4857 92.7178 28.4728 92.7178 28.4405C92.7178 28.4115 93.8377 28.3792 95.2223 28.3663C96.607 28.3534 97.7301 28.3663 97.7301 28.3986Z" fill="#263238"/>
<path d="M50.5176 29.6483C50.5176 29.6483 50.566 29.6418 50.6499 29.6386C50.7532 29.6354 50.8726 29.6322 51.0146 29.6257C51.36 29.616 51.8086 29.6063 52.3638 29.5934L52.325 29.6322C52.3218 29.332 52.3153 29.006 52.3089 28.6542C52.3089 28.4735 52.2927 28.3024 52.3089 28.0926C52.3444 27.8828 52.5316 27.6989 52.7607 27.6763C52.977 27.673 53.1706 27.6634 53.4062 27.673C53.6483 27.7021 53.8549 27.9377 53.8484 28.1927C53.8549 28.6478 53.8581 29.1254 53.8646 29.6192L53.8032 29.5579C54.3487 29.5515 54.92 29.5482 55.5041 29.5418L55.4396 29.6063C55.4331 28.9221 55.4267 28.212 55.4202 27.4858C55.4202 27.3051 55.4202 27.1244 55.417 26.9468C55.417 26.779 55.3137 26.6693 55.1782 26.5434C54.9264 26.2949 54.6779 26.0496 54.4326 25.8108C54.1905 25.5719 53.9485 25.3331 53.7161 25.1039C53.5999 24.9877 53.4837 24.8748 53.3675 24.7618C53.2481 24.6456 53.1545 24.5262 53.0157 24.5004C52.8802 24.4649 52.7349 24.4939 52.6252 24.5746C52.5219 24.6617 52.4122 24.7844 52.3089 24.8844C52.0991 25.0942 51.8958 25.3008 51.6989 25.5009C51.3148 25.9011 50.9146 26.2658 50.6241 26.608C50.5015 26.7984 50.5466 27.0308 50.537 27.2438C50.537 27.4536 50.537 27.6537 50.537 27.8441C50.537 28.212 50.5337 28.5348 50.5305 28.8091C50.5305 29.0544 50.524 29.261 50.524 29.4256C50.524 29.5676 50.5176 29.6451 50.5144 29.6483C50.5111 29.6515 50.5079 29.5805 50.5015 29.445C50.4982 29.2804 50.4918 29.0802 50.4853 28.8382C50.4789 28.5606 50.4724 28.2346 50.4627 27.8635C50.4595 27.6698 50.4563 27.4665 50.4498 27.2535C50.4498 27.1437 50.4466 27.034 50.4434 26.9178C50.4434 26.7984 50.4724 26.6725 50.537 26.5628C50.8533 26.1787 51.2277 25.8366 51.615 25.4234C51.8118 25.2233 52.0119 25.0168 52.2217 24.8038C52.3315 24.6972 52.4186 24.5907 52.5509 24.4778C52.6865 24.3745 52.8737 24.3358 53.0448 24.3809C53.2255 24.4197 53.3449 24.5681 53.4547 24.6747C53.5708 24.7876 53.687 24.9006 53.8032 25.0168C54.0388 25.2459 54.2777 25.4815 54.523 25.7236C54.7683 25.9624 55.0168 26.2077 55.2685 26.4563C55.3299 26.5208 55.4009 26.5725 55.459 26.6628C55.5138 26.7467 55.5461 26.8468 55.5493 26.9501C55.5493 27.1308 55.5493 27.3116 55.5558 27.4923C55.5622 28.2185 55.5655 28.9286 55.5719 29.6128V29.6773H55.5074C54.92 29.6806 54.3519 29.6838 53.8065 29.687H53.7451V29.6257C53.7451 29.1319 53.7387 28.6542 53.7387 28.1991C53.7451 27.9926 53.587 27.8118 53.3933 27.786C53.1965 27.7763 52.9673 27.7828 52.7769 27.786C52.5929 27.8021 52.4412 27.9474 52.4089 28.1152C52.3928 28.2863 52.4057 28.4864 52.4025 28.6574C52.4025 29.0092 52.4025 29.3352 52.4025 29.6354V29.6741H52.3638C51.8022 29.6709 51.3438 29.6677 50.992 29.6644C50.8533 29.6644 50.7371 29.6612 50.6338 29.658C50.5531 29.658 50.5144 29.6548 50.5176 29.6515V29.6483Z" fill="#263238"/>
<path d="M79.8757 114.746C79.8757 114.746 79.7111 114.769 79.4109 114.778C79.0785 114.785 78.6524 114.794 78.1393 114.804C77.0645 114.82 75.583 114.83 73.9435 114.83C72.3039 114.83 70.8224 114.82 69.7476 114.804C69.2345 114.794 68.8084 114.785 68.476 114.778C68.1758 114.769 68.0112 114.756 68.0112 114.746C68.0112 114.736 68.1758 114.723 68.476 114.714C68.8084 114.707 69.2345 114.698 69.7476 114.688C70.8224 114.672 72.3039 114.662 73.9435 114.662C75.583 114.662 77.0645 114.672 78.1393 114.688C78.6524 114.698 79.0785 114.707 79.4109 114.714C79.7111 114.723 79.8757 114.736 79.8757 114.746Z" fill="#455A64"/>
<path d="M98.5274 117.667C98.5274 117.712 91.6947 117.751 83.2676 117.751C74.8405 117.751 68.0078 117.712 68.0078 117.667C68.0078 117.622 74.8405 117.583 83.2676 117.583C91.6947 117.583 98.5274 117.622 98.5274 117.667Z" fill="#455A64"/>
<path d="M88.9901 120.414C88.9901 120.459 84.294 120.498 78.5005 120.498C72.7071 120.498 68.0078 120.459 68.0078 120.414C68.0078 120.369 72.7039 120.33 78.5005 120.33C84.2972 120.33 88.9901 120.369 88.9901 120.414Z" fill="#455A64"/>
<path d="M99.1309 125.759L98.182 124.807L97.2783 125.707V122.986H99.1342V125.756L99.1309 125.759ZM98.1788 124.69L98.2079 124.72L99.0438 125.559V123.073H97.3655V125.51L98.182 124.694L98.1788 124.69Z" fill="#263238"/>
<path d="M73.8819 125.404L73.5462 125.255C73.3849 125.342 73.2428 125.387 73.1137 125.387C72.6006 125.391 72.181 124.978 72.1778 124.464C72.1745 123.951 72.5877 123.532 73.1008 123.528C73.614 123.525 74.0336 123.938 74.0368 124.451C74.0368 124.681 73.9561 124.9 73.8044 125.071L73.8819 125.407V125.404ZM73.1008 123.59C72.6232 123.593 72.2391 123.983 72.2423 124.461C72.2455 124.939 72.6361 125.323 73.1137 125.32C73.2364 125.32 73.3719 125.274 73.5301 125.187L73.543 125.181L73.7883 125.291L73.7334 125.049L73.7431 125.036C73.8916 124.874 73.9723 124.664 73.969 124.448C73.9658 123.971 73.5753 123.586 73.0976 123.59H73.1008Z" fill="#263238"/>
<path d="M76.0311 125.261L75.647 124.325L74.9272 123.67L76.6701 123.657L76.0278 125.261H76.0311ZM75.0919 123.731L75.7051 124.293L76.0311 125.09L76.5798 123.719L75.0919 123.731Z" fill="#263238"/>
<path d="M76.6329 123.665L75.6807 124.284L75.7159 124.338L76.6681 123.719L76.6329 123.665Z" fill="#263238"/>
<path d="M71.1351 123.864C71.0867 123.615 70.8382 123.421 70.5832 123.431C70.3314 123.441 70.1023 123.65 70.07 123.899C70.0313 123.65 69.8021 123.444 69.5504 123.437C69.2954 123.431 69.0533 123.631 69.0081 123.88C68.9759 124.06 69.0372 124.251 69.1405 124.406C69.2438 124.561 69.3825 124.683 69.5213 124.806C69.715 124.977 69.8957 125.138 70.0894 125.309C70.2798 125.135 70.4444 124.971 70.6348 124.796C70.7704 124.67 70.9092 124.545 71.0092 124.39C71.1093 124.235 71.1706 124.044 71.1319 123.864H71.1351Z" fill="#FFB600"/>
<path d="M101.074 128.166C101.074 128.166 101.071 128.063 101.067 127.863C101.067 127.66 101.064 127.366 101.061 126.978C101.061 126.201 101.054 125.055 101.048 123.57C101.041 120.604 101.032 116.289 101.019 110.876L101.074 110.931C88.6542 110.938 70.1184 110.947 49.4589 110.96H49.4557L49.5396 110.876C49.5396 116.886 49.5396 122.715 49.5396 128.166L49.4589 128.086C64.3185 128.102 77.2093 128.115 86.3917 128.124C90.9877 128.134 94.651 128.14 97.1749 128.147C98.4336 128.15 99.4051 128.157 100.067 128.157C100.396 128.157 100.644 128.16 100.816 128.163C100.983 128.163 101.074 128.169 101.074 128.169C101.074 128.169 100.993 128.173 100.825 128.176C100.654 128.176 100.409 128.176 100.086 128.182C99.4277 128.182 98.4627 128.189 97.2104 128.192C94.6929 128.198 91.0329 128.205 86.4465 128.215C77.2513 128.224 64.3379 128.237 49.4557 128.253H49.375V128.173C49.375 122.721 49.375 116.892 49.375 110.883V110.799H49.4621C70.1216 110.812 88.6574 110.821 101.077 110.828H101.132V110.883C101.119 116.311 101.109 120.636 101.103 123.612C101.096 125.09 101.093 126.233 101.09 127.008C101.09 127.388 101.087 127.682 101.083 127.882C101.083 128.079 101.077 128.176 101.077 128.176L101.074 128.166Z" fill="#263238"/>
<path d="M51.6098 113.774L51.5439 125.206L65.8417 125.288L65.9076 113.857L51.6098 113.774Z" fill="#EBEBEB"/>
<path d="M65.8998 113.846C65.8998 113.846 65.874 113.846 65.8288 113.849C65.7771 113.849 65.7094 113.849 65.6255 113.849C65.4383 113.849 65.1801 113.849 64.8444 113.852C64.1569 113.852 63.1661 113.852 61.9138 113.856C59.3995 113.849 55.8363 113.843 51.6018 113.836L51.676 113.762C51.6599 117.164 51.6405 121.066 51.6211 125.191C51.6373 125.21 51.463 125.033 51.5405 125.107H51.5437H51.5501H51.5663H51.5986H51.6599H51.7825H52.031L52.5249 125.11C52.8541 125.11 53.1801 125.113 53.5028 125.117C54.1515 125.12 54.7938 125.123 55.4296 125.129C56.6981 125.139 57.9374 125.146 59.1381 125.152C61.5394 125.168 63.7922 125.184 65.8352 125.2L65.7642 125.271C65.7997 121.841 65.8288 118.991 65.8482 116.993C65.8611 115.999 65.8707 115.214 65.8804 114.672C65.8869 114.411 65.8901 114.204 65.8933 114.059C65.8966 113.92 65.903 113.843 65.903 113.843C65.903 113.843 65.9062 113.907 65.9095 114.043C65.9095 114.188 65.9095 114.388 65.9127 114.643C65.9127 115.182 65.9127 115.96 65.9192 116.948C65.9192 118.958 65.9127 121.821 65.9095 125.271V125.342H65.8385C63.7954 125.333 61.5426 125.326 59.1413 125.313C57.9407 125.307 56.7013 125.3 55.4329 125.294C54.797 125.291 54.1548 125.288 53.506 125.284C53.18 125.284 52.8541 125.281 52.5281 125.278H52.0343L51.7858 125.275H51.6631H51.6018H51.5695H51.5534H51.5469H51.5437C51.6179 125.349 51.4372 125.171 51.4565 125.188C51.4824 121.059 51.5082 117.161 51.5308 113.759V113.685H51.605C55.8589 113.723 59.4383 113.759 61.9654 113.781C63.2113 113.798 64.1957 113.81 64.8799 113.817C65.2091 113.823 65.4641 113.827 65.6448 113.83C65.7255 113.83 65.7901 113.833 65.8385 113.836C65.8804 113.836 65.903 113.839 65.8998 113.839V113.846Z" fill="#263238"/>
<path d="M52.0961 114.497L52.0386 124.489L65.3326 124.566L65.3902 114.574L52.0961 114.497Z" fill="#E0E0E0"/>
<path d="M52.0342 124.481L56.7141 118.297L59.5673 122.199L61.5296 120.133L65.3284 124.555L52.0342 124.481Z" fill="#F5F5F5"/>
<path d="M60.8131 117.558C60.8099 118.136 60.3387 118.601 59.761 118.597C59.1832 118.594 58.7185 118.123 58.7217 117.545C58.7249 116.967 59.1961 116.503 59.7739 116.506C60.3516 116.509 60.8164 116.98 60.8131 117.558Z" fill="#F5F5F5"/>
<path d="M75.712 39.6952C75.712 39.6952 75.6604 39.7082 75.5603 39.7114C75.4409 39.7146 75.2957 39.7211 75.1214 39.7275C74.7147 39.734 74.1692 39.7437 73.5108 39.7533C72.152 39.7695 70.2736 39.7792 68.1983 39.7792C66.123 39.7792 64.2445 39.7695 62.8858 39.7533C62.2273 39.7437 61.6819 39.734 61.2752 39.7275C61.1009 39.7211 60.9557 39.7146 60.8363 39.7114C60.7362 39.7049 60.6846 39.7017 60.6846 39.6952C60.6846 39.6888 60.7362 39.6823 60.8363 39.6791C60.9557 39.6759 61.1009 39.6694 61.2752 39.663C61.6819 39.6565 62.2273 39.6468 62.8858 39.6371C64.2445 39.621 66.123 39.6113 68.1983 39.6113C70.2736 39.6113 72.152 39.621 73.5108 39.6371C74.1692 39.6468 74.7147 39.6565 75.1214 39.663C75.2957 39.6694 75.4409 39.6759 75.5603 39.6791C75.6604 39.6856 75.712 39.6888 75.712 39.6952Z" fill="#263238"/>
<path d="M96.8366 102.884L95.4262 101.471L94.0835 102.81L94.0899 98.7627H96.8398L96.8334 102.884H96.8366ZM95.4294 101.296L95.4746 101.341L96.7139 102.587L96.7204 98.895H94.2191L94.2126 102.513L95.4294 101.3V101.296Z" fill="#263238"/>
<path d="M61.0556 102.459L60.3972 102.165C60.0777 102.336 59.8001 102.423 59.5452 102.423C58.5349 102.43 57.7087 101.617 57.7022 100.61C57.6926 99.5994 58.5091 98.7731 59.5161 98.7667C60.5231 98.757 61.3526 99.5736 61.359 100.581C61.3623 101.029 61.2009 101.462 60.904 101.801L61.0556 102.459ZM59.5161 98.8926C58.5769 98.899 57.8184 99.6704 57.8249 100.61C57.8313 101.549 58.6027 102.307 59.5419 102.301C59.784 102.301 60.0519 102.214 60.3617 102.043L60.3876 102.026L60.8717 102.243L60.7619 101.765L60.7845 101.742C61.075 101.423 61.2332 101.013 61.2299 100.584C61.2235 99.6446 60.4521 98.8861 59.5129 98.8926H59.5161Z" fill="#263238"/>
<path d="M65.2903 102.175L64.5351 100.332L63.1182 99.0408L66.5523 99.0117L65.2903 102.171V102.175ZM63.4409 99.1634L64.648 100.27L65.2903 101.839L66.3683 99.1408L63.4409 99.1634Z" fill="#263238"/>
<path d="M66.4893 99.0134L64.6172 100.231L64.6858 100.337L66.5579 99.1189L66.4893 99.0134Z" fill="#263238"/>
<path d="M55.6529 99.428C55.5561 98.9374 55.0687 98.5565 54.5685 98.5759C54.0747 98.5953 53.6228 99.0084 53.5582 99.499C53.484 99.0084 53.0289 98.6049 52.5319 98.592C52.0316 98.5791 51.5539 98.9697 51.4636 99.4635C51.399 99.8217 51.5217 100.193 51.725 100.496C51.9283 100.8 52.2027 101.045 52.477 101.284C52.8611 101.623 53.2129 101.939 53.597 102.278C53.9746 101.933 54.2941 101.61 54.6718 101.268C54.9396 101.022 55.214 100.774 55.4109 100.467C55.6077 100.161 55.7272 99.7862 55.6562 99.4312L55.6529 99.428Z" fill="#FFB600"/>
<path d="M55.3401 42.0258C56.627 42.0258 57.6703 40.9825 57.6703 39.6955C57.6703 38.4085 56.627 37.3652 55.3401 37.3652C54.0531 37.3652 53.0098 38.4085 53.0098 39.6955C53.0098 40.9825 54.0531 42.0258 55.3401 42.0258Z" fill="#EBEBEB"/>
<path d="M95.9553 89.5214C95.9553 89.5666 86.1888 89.6053 74.1436 89.6053C62.0984 89.6053 52.3286 89.5666 52.3286 89.5214C52.3286 89.4762 62.0919 89.4375 74.1436 89.4375C86.1952 89.4375 95.9553 89.4762 95.9553 89.5214Z" fill="#455A64"/>
<path d="M95.9553 85.8876C95.9553 85.9328 86.1888 85.9715 74.1436 85.9715C62.0984 85.9715 52.3286 85.9328 52.3286 85.8876C52.3286 85.8424 62.0919 85.8037 74.1436 85.8037C86.1952 85.8037 95.9553 85.8424 95.9553 85.8876Z" fill="#455A64"/>
<path d="M76.0771 93.2011C76.0771 93.2463 70.7613 93.285 64.2062 93.285C57.651 93.285 52.332 93.2463 52.332 93.2011C52.332 93.1559 57.6478 93.1172 64.2062 93.1172C70.7645 93.1172 76.0771 93.1559 76.0771 93.2011Z" fill="#455A64"/>
<path d="M73.1461 132.782C73.1461 133.301 72.7265 133.721 72.2166 133.718C71.7034 133.718 71.2902 133.292 71.2935 132.772C71.2935 132.252 71.7131 131.833 72.223 131.836C72.7362 131.836 73.1493 132.262 73.1461 132.782Z" fill="#263238"/>
<path d="M76.0186 132.794C76.0186 133.314 75.5991 133.734 75.0891 133.73C74.5759 133.73 74.1628 133.304 74.166 132.785C74.166 132.265 74.5856 131.845 75.0956 131.849C75.6087 131.849 76.0219 132.275 76.0186 132.794Z" fill="#263238"/>
<path d="M78.8912 132.811C78.8912 133.331 78.4716 133.75 77.9617 133.747C77.4485 133.747 77.0354 133.321 77.0386 132.801C77.0386 132.282 77.4582 131.862 77.9681 131.865C78.4813 131.865 78.8944 132.291 78.8912 132.811Z" fill="#263238"/>
<path d="M101.384 44.3047H49.7656V75.87H101.384V44.3047Z" fill="#E0E0E0"/>
<path d="M54.5293 75.8768L69.3211 56.0791L78.4906 68.46L84.7068 61.837L96.894 75.8639L54.5293 75.8768Z" fill="#F5F5F5"/>
<path d="M82.3769 53.6514C82.3769 55.4944 80.8858 56.9887 79.0428 56.9887C77.1999 56.9887 75.7056 55.4976 75.7056 53.6547C75.7056 51.8117 77.1967 50.3174 79.0396 50.3174C80.8825 50.3174 82.3769 51.8085 82.3769 53.6514Z" fill="#F5F5F5"/>
<path d="M101.245 105.209C101.245 104.534 101.213 76.0157 101.168 33.8027L101.245 33.8801C85.6785 33.8801 68.1336 33.8866 49.6333 33.8866H49.6269L49.7108 33.8027C49.7043 60.5073 49.7011 85.2206 49.6947 105.209L49.6269 105.141C80.9276 105.183 100.68 105.209 101.245 105.209C100.683 105.209 80.9308 105.235 49.6269 105.277H49.5591V105.209C49.5559 85.2206 49.5494 60.5073 49.543 33.8027V33.7188H49.6269H49.6333C68.1336 33.7188 85.6785 33.7252 101.245 33.7252H101.322V33.8027C101.306 54.9302 101.293 72.7914 101.284 85.3691C101.274 91.6499 101.268 96.6139 101.264 100.006C101.261 101.697 101.258 103.001 101.255 103.879C101.255 104.315 101.251 104.647 101.251 104.873C101.251 105.096 101.248 105.206 101.248 105.206L101.245 105.209Z" fill="#263238"/>
<path d="M76.9899 114.064L78.1324 110.227C78.3325 109.394 78.5972 108.413 78.9522 107.293C79.2717 106.286 80.0947 105.227 80.8435 104.466C82.0087 103.281 82.5638 103.271 83.3481 102.642C83.4191 102.597 83.4998 102.532 83.5676 102.494C83.729 102.406 83.8484 102.29 83.9484 102.164C84.623 101.435 83.9743 100.305 82.6025 100.412C81.5697 100.493 79.8882 100.789 77.148 103.614C77.1125 103.656 77.077 103.691 77.0447 103.736C75.6085 105.605 74.2594 100.273 74.0141 98.2881C73.8559 97.0003 72.4648 96.2096 71.2029 96.6743L64.5348 99.7921C63.9829 99.5985 63.3309 99.6308 62.5886 99.8567C61.6074 100.218 61.0619 101.228 61.3169 102.21L64.0216 113.006L56.0786 139.436H73.2007L76.9899 114.058V114.064Z" fill="#FFBE9D"/>
<path d="M90.142 89.7896L84.8488 100.16L82.2022 99.4238L68.8983 110.246C67.7654 111.166 66.1065 111.02 65.1543 109.913L60.0903 104.026C60.0903 104.026 70.3023 99.6272 72.1904 95.9865C74.0785 92.3458 71.8967 91.5196 71.8967 91.5196L76.7025 86.0586L90.1387 89.7896H90.142Z" fill="#FFB600"/>
<path d="M83.2772 68.6042C83.2772 68.6042 75.5311 66.8904 64.6285 56.4073C53.7258 45.9242 48.6037 32.0006 47.2707 32.0684C45.9378 32.1362 40.1088 29.4315 29.0287 53.538C17.9453 77.6445 22.3122 83.2443 24.5166 83.1991C26.721 83.1539 41.6968 78.9807 51.047 80.0426C60.4004 81.1044 72.423 85.9813 72.423 85.9813L83.2804 68.6042H83.2772Z" fill="#FFB600"/>
<path d="M99.7377 81.7433L97.0944 86.7686L95.9099 89.0182C94.2864 92.1069 90.5295 93.3818 87.3601 91.9229L70.7544 86.136L80.4241 64.0596L97.0137 72.8998C100.199 74.5975 101.413 78.548 99.7345 81.74L99.7377 81.7433Z" fill="#FFB600"/>
<g opacity="0.4">
<path d="M99.7377 81.7433L97.0944 86.7686L95.9099 89.0182C94.2864 92.1069 90.5295 93.3818 87.3601 91.9229L70.7544 86.136L80.4241 64.0596L97.0137 72.8998C100.199 74.5975 101.413 78.548 99.7345 81.74L99.7377 81.7433Z" fill="black"/>
</g>
<path d="M29.9226 53.9772C24.0258 67.0359 21.5697 78.6744 24.439 79.9686C27.3083 81.2661 34.4153 71.7287 40.312 58.6701C46.2087 45.6115 48.6649 33.9729 45.7956 32.6787C42.9263 31.3812 35.8193 40.9186 29.9226 53.9772Z" fill="#FFB600"/>
<g opacity="0.5">
<path d="M29.9226 53.9772C24.0258 67.0359 21.5697 78.6744 24.439 79.9686C27.3083 81.2661 34.4153 71.7287 40.312 58.6701C46.2087 45.6115 48.6649 33.9729 45.7956 32.6787C42.9263 31.3812 35.8193 40.9186 29.9226 53.9772Z" fill="black"/>
</g>
<path d="M101.161 89.005L96.6616 87.5913L99.447 82.2949L102.823 84.3928L101.161 89.005Z" fill="#FFB600"/>
<g opacity="0.6">
<path d="M99.447 82.2949L96.6616 87.5913L97.5847 87.8818L99.8504 82.5467L99.447 82.2949Z" fill="black"/>
</g>
<path d="M96.3454 83.5153C96.2808 83.6605 94.0344 82.7891 91.3298 81.5659C88.6218 80.3426 86.4852 79.2356 86.5498 79.0871C86.6143 78.9419 88.8607 79.8133 91.5654 81.0365C94.27 82.2598 96.4099 83.3668 96.3454 83.5121V83.5153Z" fill="#FFB600"/>
<path d="M97.7301 80.3619C97.6591 80.5072 95.6258 79.6486 93.189 78.448C90.7522 77.2474 88.8318 76.1597 88.9028 76.0144C88.9738 75.8724 91.0039 76.7277 93.4439 77.9284C95.8807 79.129 97.7979 80.2167 97.7301 80.3587V80.3619Z" fill="#FFB600"/>
<path d="M94.5996 86.8237C94.577 86.9011 94.0412 86.7785 93.1891 86.5138C92.7631 86.3815 92.2596 86.2169 91.698 86.0232C91.1428 85.8231 90.5684 85.5294 89.9487 85.2518C87.486 84.1093 85.6076 82.9893 85.6689 82.857C85.7432 82.6989 87.7507 83.5961 90.1907 84.7258C90.804 85.0033 91.3688 85.3099 91.9046 85.5326C92.4403 85.7489 92.9245 85.9522 93.3247 86.1297C94.1283 86.488 94.6189 86.7494 94.5963 86.8237H94.5996Z" fill="#FFB600"/>
<path d="M41.9455 51.072C41.9455 51.072 35.2129 46.8956 31.527 55.994C27.8444 65.0925 34.9288 66.5868 34.9288 66.5868C37.8272 62.0909 40.1833 56.9397 41.9455 51.072Z" fill="#FFB600"/>
<g opacity="0.5">
<path d="M49.1071 40.2308C49.1458 40.2373 49.0522 40.857 48.8425 41.9705C48.6294 43.0807 48.3293 44.6945 47.8968 46.6762C47.6128 47.6509 47.2997 48.716 46.9673 49.8586C46.7994 50.4298 46.6251 51.0237 46.4444 51.6305C46.354 51.9339 46.2637 52.2437 46.1701 52.5568C46.07 52.8666 45.9377 53.1733 45.8215 53.4863C45.3373 54.7386 44.8274 56.0522 44.3013 57.411C44.169 57.7499 44.0366 58.0953 43.9011 58.4406C43.7688 58.7892 43.5848 59.1152 43.4266 59.4573C43.0974 60.1351 42.765 60.8258 42.4261 61.5197C42.0872 62.2168 41.7515 62.9043 41.4223 63.5821C41.2513 63.9177 41.106 64.2663 40.9156 64.5826C40.7252 64.9021 40.5412 65.2184 40.354 65.5347C39.6117 66.7903 38.8919 68.0038 38.2077 69.1593C38.0334 69.4465 37.8753 69.737 37.6913 70.0081C37.5009 70.276 37.3169 70.5407 37.1329 70.7989C36.765 71.3185 36.4067 71.822 36.0614 72.3094C35.3675 73.2776 34.722 74.1846 34.1313 75.0108C32.8435 76.5697 31.7655 77.8026 31.0232 78.6547C30.2776 79.5068 29.8484 79.9619 29.8193 79.9393C29.787 79.9134 30.1582 79.4067 30.8489 78.5127C31.5687 77.6025 32.5756 76.3212 33.815 74.7526C34.3831 73.9167 35.006 73.0065 35.6741 72.0286C36.0097 71.5412 36.3551 71.0345 36.7134 70.5148C36.8909 70.2566 37.0748 69.992 37.2588 69.7241C37.4363 69.453 37.5912 69.1593 37.7591 68.8752C38.4304 67.723 39.134 66.5127 39.8602 65.2604C40.0442 64.9473 40.2281 64.631 40.4121 64.3115C40.6025 63.9952 40.7413 63.6499 40.9124 63.3142C41.2384 62.6396 41.5708 61.9554 41.9065 61.2647C42.2421 60.574 42.5746 59.8898 42.9038 59.2184C43.0619 58.8796 43.2459 58.5536 43.3782 58.2115C43.5138 57.8693 43.6461 57.5272 43.7817 57.1915C44.3174 55.8457 44.8306 54.545 45.3244 53.3056C45.4439 52.9957 45.5794 52.6924 45.6827 52.3857C45.7795 52.0759 45.8731 51.7693 45.9667 51.4691C46.1539 50.8656 46.3379 50.2814 46.5154 49.7166C46.8704 48.5869 47.2029 47.5347 47.5063 46.5697C47.9742 44.63 48.3551 43.0485 48.6262 41.922C48.9006 40.8247 49.0716 40.2211 49.1103 40.2276L49.1071 40.2308Z" fill="black"/>
</g>
<g opacity="0.4">
<path d="M61.7076 103.304C62.3209 104.417 62.9502 105.55 63.8572 106.441C64.7673 107.332 66.0132 107.964 67.2816 107.835C68.5468 107.706 69.7474 106.657 69.7603 105.382C70.3671 105.84 71.2999 105.592 71.8034 105.021C72.3069 104.449 72.4715 103.659 72.5296 102.9C73.3558 103.387 74.5048 103 75.0535 102.216C75.6054 101.432 75.6377 100.376 75.373 99.4531C75.1052 98.5332 74.5726 97.7166 74.0465 96.913C74.6823 96.9646 75.3569 97.0098 75.925 96.7193C76.493 96.4321 76.8771 95.6801 76.5446 95.1346C76.351 94.8151 75.9766 94.6569 75.6183 94.544C74.621 94.2309 73.9239 93.9824 72.8846 94.1018C72.6425 94.1018 73.301 96.8388 66.791 100.576C62.947 102.784 61.7012 103.294 61.7012 103.294L61.7076 103.304Z" fill="black"/>
</g>
<path d="M76.367 107.254C76.3638 107.283 75.9281 107.202 75.2277 107.218C74.5306 107.234 73.5526 107.386 72.5876 107.851C71.6225 108.312 70.8931 108.977 70.4413 109.513C69.9862 110.049 69.7796 110.439 69.7538 110.423C69.7441 110.417 69.7861 110.317 69.8797 110.139C69.9733 109.965 70.1282 109.72 70.3477 109.436C70.7802 108.871 71.5193 108.174 72.5134 107.696C73.5042 107.221 74.5112 107.083 75.2245 107.096C75.5827 107.102 75.87 107.134 76.0669 107.17C76.2638 107.205 76.3703 107.238 76.367 107.247V107.254Z" fill="#EB996E"/>
<path d="M62.1304 101.571C63.1793 102.578 63.8958 103.691 64.9964 104.705C65.4967 105.166 66.2713 106.038 66.9426 106.154C67.614 106.27 68.0432 106.18 68.3079 105.554C68.5241 105.047 68.1368 104.353 67.8722 103.937C67.1718 102.836 66.5005 101.977 65.9776 101.122C65.7323 100.722 66.0486 100.638 66.1648 100.825C66.6683 101.348 67.4235 101.803 67.8754 102.371C68.4951 103.152 68.608 104.185 70.225 103.856C70.4381 103.814 70.6543 103.74 70.8254 103.607C71.4354 103.139 71.4612 102.329 71.203 101.68C71.0029 101.171 70.6479 100.738 70.3025 100.315C70.9932 101.093 71.7452 101.913 72.8394 102.003C73.4752 102.055 74.1175 101.758 74.3757 101.174C74.6984 100.438 74.2337 99.7246 73.7689 99.1501C72.9426 98.1302 72.0196 97.1877 71.0158 96.3389C70.6414 96.0226 70.167 95.8451 69.6764 95.8419C69.1083 95.8386 68.3983 95.9451 68.0497 96.439C67.4139 97.333 67.6107 98.127 67.6107 98.127C67.6107 98.127 66.1874 97.4072 65.0448 98.1592C63.9023 98.9145 63.6183 100.209 63.6183 100.209L62.1304 101.571Z" fill="#FFBE9D"/>
<path d="M69.6988 95.5281C69.2599 95.0859 69.1566 94.2758 69.4987 93.6045C69.7408 93.13 70.0442 92.6685 70.354 92.5652C71.7064 92.1101 77.616 93.13 77.5643 94.4436C77.5095 95.7895 77.0802 96.3834 73.872 95.9186C73.3072 95.8379 72.4229 95.7249 72.4229 95.7249L71.6483 96.8869L69.7021 95.5248L69.6988 95.5281Z" fill="#FFBE9D"/>
<path d="M70.7575 101.022C70.7091 101.051 70.2604 100.134 69.3438 99.3111C68.4336 98.4784 67.4783 98.1201 67.5009 98.0717C67.5073 98.0523 67.7559 98.1169 68.127 98.2912C68.4982 98.4654 68.9888 98.7656 69.4568 99.1884C69.9215 99.6112 70.2701 100.07 70.4767 100.425C70.6865 100.776 70.7736 101.018 70.7575 101.025V101.022Z" fill="#EB996E"/>
<path d="M71.7517 96.99C71.7226 97.0191 71.3321 96.6995 70.7996 96.3735C70.5349 96.2122 70.2896 96.0734 70.1056 95.9927C69.9217 95.9055 69.8022 95.883 69.8022 95.8571C69.8022 95.8345 69.941 95.8184 70.1476 95.8797C70.3542 95.9378 70.6156 96.0637 70.8899 96.2315C71.4354 96.564 71.7936 96.9545 71.7517 96.99Z" fill="#EB996E"/>
<path d="M72.7423 95.7708C72.7391 95.8063 72.2227 95.8224 71.603 95.6416C71.2964 95.5481 71.0349 95.3996 70.8735 95.2608C70.7122 95.122 70.6444 95.0058 70.6605 94.9929C70.6928 94.9639 71.0575 95.3124 71.6514 95.4803C72.2388 95.6513 72.7487 95.7127 72.7391 95.7675L72.7423 95.7708Z" fill="#EB996E"/>
<path d="M67.0009 102.645C66.9816 102.658 66.7718 102.393 66.4619 101.945C66.1456 101.509 65.7422 100.857 65.0838 100.376C64.4253 99.8952 63.6507 99.7823 63.1311 99.8597C62.6018 99.934 62.3242 100.153 62.3081 100.121C62.3016 100.115 62.3629 100.053 62.4953 99.9727C62.6276 99.8888 62.8374 99.7984 63.1117 99.7435C63.654 99.6306 64.4834 99.7338 65.1838 100.241C65.881 100.751 66.2715 101.428 66.5652 101.88C66.8492 102.345 67.0235 102.632 67.0042 102.645H67.0009Z" fill="#EB996E"/>
<path d="M71.5226 115.717C71.5291 115.762 70.4446 115.917 69.1084 116.065C67.769 116.21 66.6781 116.291 66.6748 116.246C66.6684 116.201 67.7496 116.046 69.089 115.897C70.4285 115.752 71.5161 115.671 71.5226 115.717Z" fill="#EB996E"/>
<path d="M122.366 8.37891L122.731 9.04378L123.396 9.40849L122.731 9.7732L122.366 10.4381L122.001 9.7732L121.336 9.40849L122.001 9.04378L122.366 8.37891Z" fill="#FFB600"/>
<path d="M129.983 24.8945L130.347 25.5594L131.016 25.9241L130.347 26.2888L129.983 26.9537L129.618 26.2888L128.953 25.9241L129.618 25.5594L129.983 24.8945Z" fill="#FFB600"/>
<path d="M7.87529 68.957L8.24 69.6219L8.90488 69.9866L8.24 70.3513L7.87529 71.0162L7.51058 70.3513L6.8457 69.9866L7.51058 69.6219L7.87529 68.957Z" fill="#FFB600"/>
<path d="M112.37 12.4844L113.213 14.0207L114.749 14.8631L113.213 15.7055L112.37 17.2418L111.528 15.7055L109.992 14.8631L111.528 14.0207L112.37 12.4844Z" fill="#FFB600"/>
<path d="M14.7046 58.4863L15.5437 60.0226L17.08 60.8618L15.5437 61.701L14.7046 63.2373L13.8654 61.701L12.3291 60.8618L13.8654 60.0226L14.7046 58.4863Z" fill="#FFB600"/>
<path d="M132.055 95.1094L132.897 96.6457L134.43 97.4849L132.897 98.324L132.055 99.8571L131.216 98.324L129.683 97.4849L131.216 96.6457L132.055 95.1094Z" fill="#FFB600"/>
</g>
<defs>
<clipPath id="clip0_2761_5410">
<rect width="143.477" height="144" fill="white"/>
</clipPath>
</defs>
</svg>
