<svg width="196" height="144" viewBox="0 0 196 144" fill="none" xmlns="http://www.w3.org/2000/svg">
<g clip-path="url(#clip0_2761_5546)">
<path d="M176.024 134.41H163.065V134.508H176.024V134.41Z" fill="#EBEBEB"/>
<path d="M129.59 135.475H126.19V135.572H129.59V135.475Z" fill="#EBEBEB"/>
<path d="M162.675 130.779H155.167V130.877H162.675V130.779Z" fill="#EBEBEB"/>
<path d="M37.423 131.437H20.5249V131.534H37.423V131.437Z" fill="#EBEBEB"/>
<path d="M43.3858 131.437H40.9092V131.534H43.3858V131.437Z" fill="#EBEBEB"/>
<path d="M88.0904 133.088H51.438V133.186H88.0904V133.088Z" fill="#EBEBEB"/>
<path d="M92.7304 110.665H17.1798C15.9474 110.665 14.9458 109.664 14.9458 108.431V2.23404C14.9458 1.0016 15.9474 0 17.1798 0H92.7304C93.9629 0 94.9645 1.0016 94.9645 2.23404V108.431C94.9645 109.664 93.9629 110.665 92.7304 110.665ZM17.1798 0.0978128C16.0022 0.0978128 15.0436 1.05638 15.0436 2.23404V108.431C15.0436 109.609 16.0022 110.568 17.1798 110.568H92.7304C93.9081 110.568 94.8667 109.609 94.8667 108.431V2.23404C94.8667 1.05638 93.9081 0.0978128 92.7304 0.0978128H17.1798Z" fill="#EBEBEB"/>
<path d="M177.358 110.665H101.807C100.575 110.665 99.5732 109.664 99.5732 108.431V2.23404C99.5732 1.0016 100.575 0 101.807 0H177.358C178.59 0 179.592 1.0016 179.592 2.23404V108.431C179.592 109.664 178.59 110.665 177.358 110.665ZM101.807 0.0978128C100.63 0.0978128 99.6711 1.05638 99.6711 2.23404V108.431C99.6711 109.609 100.63 110.568 101.807 110.568H177.358C178.536 110.568 179.494 109.609 179.494 108.431V2.23404C179.494 1.05638 178.536 0.0978128 177.358 0.0978128H101.807Z" fill="#EBEBEB"/>
<path d="M195.626 128.115H0V128.213H195.626V128.115Z" fill="#EBEBEB"/>
<path d="M28.7413 125.798H61.9312L61.9312 81.6334H28.7413L28.7413 125.798Z" fill="#F0F0F0"/>
<path d="M22.4069 125.798H28.7373L28.7373 81.6334H22.4069L22.4069 125.798Z" fill="#E6E6E6"/>
<path d="M30.8969 95.6367H59.6108V84.9125H30.8969V95.6367Z" fill="#FAFAFA"/>
<path d="M48.9964 84.9121L48.8712 86.3402C48.8281 86.8136 48.4369 87.1735 47.9596 87.1735H42.5407C42.0673 87.1735 41.6721 86.8136 41.6291 86.3402L41.5039 84.9121H48.9925H48.9964Z" fill="#EBEBEB"/>
<path d="M30.8969 107.534H59.6108V96.81H30.8969V107.534Z" fill="#FAFAFA"/>
<path d="M48.9964 96.8066L48.8712 98.2347C48.8281 98.7081 48.4369 99.0681 47.9596 99.0681H42.5407C42.0673 99.0681 41.6721 98.7081 41.6291 98.2347L41.5039 96.8066H48.9925H48.9964Z" fill="#EBEBEB"/>
<path d="M30.8969 119.429H59.6108V108.705H30.8969V119.429Z" fill="#FAFAFA"/>
<path d="M48.9964 108.704L48.8712 110.132C48.8281 110.606 48.4369 110.966 47.9596 110.966H42.5407C42.0673 110.966 41.6721 110.606 41.6291 110.132L41.5039 108.704H48.9925H48.9964Z" fill="#EBEBEB"/>
<path d="M30.8931 128.005H59.2588L59.607 125.794H30.8931V128.005Z" fill="#E6E6E6"/>
<path d="M24.9654 128.005H30.8929V125.794H24.6172L24.9654 128.005Z" fill="#E0E0E0"/>
<path d="M44.2271 81.6812H55.5617L54.3057 67.3066H42.9712L44.2271 81.6812Z" fill="#FAFAFA"/>
<path d="M44.227 81.6812H43.6871L42.4272 67.3066H42.9711L44.227 81.6812Z" fill="#EBEBEB"/>
<path d="M45.256 80.2175H54.2782L53.2766 68.7734H44.2544L45.256 80.2175Z" fill="#F0F0F0"/>
<path d="M45.9174 79.2751H53.4529L52.6156 69.7168H45.0801L45.9174 79.2751Z" fill="#E6E6E6"/>
<path d="M41.042 81.6812L41.8206 72.7842H30.5369L29.7583 81.6812H41.042Z" fill="#F0F0F0"/>
<path d="M41.042 81.6812L41.8206 72.7842H42.427L41.6484 81.6812H41.042Z" fill="#E0E0E0"/>
<path d="M39.9699 80.773L40.592 73.6914H31.6089L30.9907 80.773H39.9699Z" fill="#EBEBEB"/>
<path d="M39.2854 80.1901L39.8019 74.2744H32.2977L31.7812 80.1901H39.2854Z" fill="#F5F5F5"/>
<path d="M90.79 88.8301H93.4584V127.599C93.4584 127.853 93.251 128.065 92.9928 128.065H91.2517C90.9974 128.065 90.7861 127.857 90.7861 127.599V88.8301H90.79Z" fill="#F0F0F0"/>
<path d="M168.359 85.3436H162.225V84.7998C162.225 83.7317 163.121 82.8787 164.189 82.9374L166.591 83.0665C167.581 83.1213 168.356 83.939 168.356 84.9289V85.3436H168.359Z" fill="#F0F0F0"/>
<path d="M151.806 72.6674C151.782 72.1862 151.383 71.8066 150.902 71.8066H144.705C144.219 71.8066 143.824 72.1862 143.801 72.6674L145.272 85.5826H154.521L151.806 72.6674Z" fill="#E0E0E0"/>
<path d="M168.637 52.8076H166.329L163.735 77.2021H166.043C166.427 77.2021 166.771 76.893 166.81 76.5096L169.259 53.504C169.298 53.1206 169.025 52.8115 168.641 52.8115L168.637 52.8076Z" fill="#E0E0E0"/>
<path d="M165.065 77.2021H130.455C130.072 77.2021 129.794 76.893 129.837 76.5096L132.286 53.504C132.325 53.1206 132.67 52.8115 133.053 52.8115H167.663C168.047 52.8115 168.324 53.1206 168.281 53.504L165.832 76.5096C165.793 76.893 165.449 77.2021 165.065 77.2021Z" fill="#EBEBEB"/>
<path d="M164.416 74.9481H131.778C131.445 74.9481 131.203 74.6782 131.238 74.3417L133.374 54.2705C133.409 53.9379 133.71 53.6641 134.043 53.6641H166.681C167.014 53.6641 167.256 53.934 167.221 54.2705L165.085 74.3417C165.05 74.6742 164.748 74.9481 164.416 74.9481Z" fill="#E0E0E0"/>
<path d="M154.99 84.5771H143.362C143.155 84.5771 142.987 84.7453 142.987 84.9528V85.2032C142.987 85.4106 143.155 85.5788 143.362 85.5788H154.99C155.198 85.5788 155.366 85.4106 155.366 85.2032V84.9528C155.366 84.7453 155.198 84.5771 154.99 84.5771Z" fill="#E0E0E0"/>
<path d="M131.66 74.948L141.359 66.5166C142.279 65.7184 143.456 65.7184 143.992 66.5166L149.611 74.948H131.66Z" fill="#EBEBEB"/>
<path d="M141.359 66.5165L131.66 74.948H140.96C140.033 74.4785 137.85 74.2281 138.108 73.156C138.444 71.7593 142.772 72.2483 143.093 70.922C143.413 69.5957 140.33 70.0143 140.718 68.4062C140.921 67.5611 141.719 66.6495 142.435 65.9648C142.071 66.0431 141.7 66.227 141.359 66.5204V66.5165Z" fill="#F5F5F5"/>
<path d="M145.933 74.9487L150.233 70.6958C150.64 70.2928 151.164 70.2928 151.399 70.6958L153.891 74.9487H145.933Z" fill="#EBEBEB"/>
<path d="M150.229 70.6958L145.929 74.9487H150.053C149.642 74.71 148.676 74.5848 148.789 74.0449C148.938 73.3406 150.855 73.5871 151 72.9181C151.141 72.249 149.775 72.4603 149.947 71.6504C150.037 71.2239 150.393 70.7623 150.706 70.418C150.546 70.4571 150.382 70.551 150.229 70.6997V70.6958Z" fill="#FAFAFA"/>
<path d="M153.289 74.9487L159.31 70.6958C159.881 70.2928 160.613 70.2928 160.945 70.6958L164.435 74.9487H153.289Z" fill="#EBEBEB"/>
<path d="M159.31 70.6958L153.289 74.9487H159.063C158.488 74.71 157.131 74.5848 157.291 74.0449C157.502 73.3406 160.186 73.5871 160.386 72.9181C160.585 72.249 158.668 72.4603 158.911 71.6504C159.036 71.2239 159.533 70.7623 159.975 70.418C159.748 70.4571 159.517 70.551 159.31 70.6997V70.6958Z" fill="#FAFAFA"/>
<path d="M160.836 62.2132C160.382 64.3534 158.277 66.0905 156.137 66.0905C153.997 66.0905 152.631 64.3534 153.085 62.2132C153.539 60.0731 155.644 58.3359 157.784 58.3359C159.924 58.3359 161.29 60.0731 160.836 62.2132Z" fill="#F0F0F0"/>
<path opacity="0.8" d="M160.836 62.2132C160.382 64.3534 158.277 66.0905 156.137 66.0905C153.997 66.0905 152.631 64.3534 153.085 62.2132C153.539 60.0731 155.644 58.3359 157.784 58.3359C159.924 58.3359 161.29 60.0731 160.836 62.2132Z" fill="white"/>
<path d="M173.371 85.3438H150.249V88.8337H173.371V85.3438Z" fill="#E6E6E6"/>
<path d="M107.316 88.8301H109.985V127.599C109.985 127.853 109.777 128.065 109.519 128.065H107.778C107.524 128.065 107.312 127.857 107.312 127.599V88.8301H107.316Z" fill="#E6E6E6"/>
<path d="M169.162 88.8301H171.83V127.599C171.83 127.853 171.623 128.065 171.364 128.065H169.623C169.369 128.065 169.158 127.857 169.158 127.599V88.8301H169.162Z" fill="#E6E6E6"/>
<path d="M156.841 85.3438H89.2485V88.8337H156.841V85.3438Z" fill="#F5F5F5"/>
<path d="M152.635 88.8301H155.304V127.599C155.304 127.853 155.096 128.065 154.838 128.065H153.097C152.843 128.065 152.631 127.857 152.631 127.599V88.8301H152.635Z" fill="#F0F0F0"/>
<path d="M133.863 84.5264H132.998C132.908 84.5264 132.834 84.4521 132.834 84.3621V83.4505C132.834 83.3605 132.908 83.2861 132.998 83.2861H133.616C133.691 83.2861 133.757 83.337 133.777 83.4074L134.019 84.319C134.047 84.4247 133.969 84.5264 133.859 84.5264H133.863Z" fill="#F5F5F5"/>
<path d="M135.056 84.5264H134.192C134.102 84.5264 134.027 84.4521 134.027 84.3621V83.4505C134.027 83.3605 134.102 83.2861 134.192 83.2861H134.81C134.884 83.2861 134.951 83.337 134.97 83.4074L135.213 84.319C135.24 84.4247 135.162 84.5264 135.052 84.5264H135.056Z" fill="#F5F5F5"/>
<path d="M136.25 84.5264H135.385C135.295 84.5264 135.221 84.4521 135.221 84.3621V83.4505C135.221 83.3605 135.295 83.2861 135.385 83.2861H136.003C136.078 83.2861 136.144 83.337 136.164 83.4074L136.406 84.319C136.434 84.4247 136.355 84.5264 136.246 84.5264H136.25Z" fill="#F5F5F5"/>
<path d="M137.443 84.5264H136.578C136.488 84.5264 136.414 84.4521 136.414 84.3621V83.4505C136.414 83.3605 136.488 83.2861 136.578 83.2861H137.197C137.271 83.2861 137.337 83.337 137.357 83.4074L137.6 84.319C137.627 84.4247 137.549 84.5264 137.439 84.5264H137.443Z" fill="#F5F5F5"/>
<path d="M138.636 84.5264H137.772C137.682 84.5264 137.607 84.4521 137.607 84.3621V83.4505C137.607 83.3605 137.682 83.2861 137.772 83.2861H138.39C138.464 83.2861 138.531 83.337 138.55 83.4074L138.793 84.319C138.82 84.4247 138.742 84.5264 138.632 84.5264H138.636Z" fill="#F5F5F5"/>
<path d="M139.83 84.5264H138.965C138.875 84.5264 138.801 84.4521 138.801 84.3621V83.4505C138.801 83.3605 138.875 83.2861 138.965 83.2861H139.583C139.658 83.2861 139.724 83.337 139.744 83.4074L139.986 84.319C140.014 84.4247 139.935 84.5264 139.826 84.5264H139.83Z" fill="#F5F5F5"/>
<path d="M141.019 84.5264H140.154C140.064 84.5264 139.99 84.4521 139.99 84.3621V83.4505C139.99 83.3605 140.064 83.2861 140.154 83.2861H140.772C140.847 83.2861 140.913 83.337 140.933 83.4074L141.175 84.319C141.203 84.4247 141.124 84.5264 141.015 84.5264H141.019Z" fill="#F5F5F5"/>
<path d="M142.212 84.5264H141.347C141.257 84.5264 141.183 84.4521 141.183 84.3621V83.4505C141.183 83.3605 141.257 83.2861 141.347 83.2861H141.966C142.04 83.2861 142.106 83.337 142.126 83.4074L142.369 84.319C142.396 84.4247 142.318 84.5264 142.208 84.5264H142.212Z" fill="#F5F5F5"/>
<path d="M143.405 84.5264H142.541C142.451 84.5264 142.376 84.4521 142.376 84.3621V83.4505C142.376 83.3605 142.451 83.2861 142.541 83.2861H143.159C143.233 83.2861 143.3 83.337 143.319 83.4074L143.562 84.319C143.589 84.4247 143.511 84.5264 143.402 84.5264H143.405Z" fill="#F5F5F5"/>
<path d="M144.599 84.5264H143.734C143.644 84.5264 143.57 84.4521 143.57 84.3621V83.4505C143.57 83.3605 143.644 83.2861 143.734 83.2861H144.352C144.427 83.2861 144.493 83.337 144.513 83.4074L144.755 84.319C144.783 84.4247 144.704 84.5264 144.595 84.5264H144.599Z" fill="#F5F5F5"/>
<path d="M145.792 84.5264H144.928C144.838 84.5264 144.763 84.4521 144.763 84.3621V83.4505C144.763 83.3605 144.838 83.2861 144.928 83.2861H145.546C145.62 83.2861 145.687 83.337 145.706 83.4074L145.949 84.319C145.976 84.4247 145.898 84.5264 145.788 84.5264H145.792Z" fill="#F5F5F5"/>
<path d="M146.986 84.5264H146.121C146.031 84.5264 145.957 84.4521 145.957 84.3621V83.4505C145.957 83.3605 146.031 83.2861 146.121 83.2861H146.739C146.813 83.2861 146.88 83.337 146.899 83.4074L147.142 84.319C147.169 84.4247 147.091 84.5264 146.982 84.5264H146.986Z" fill="#F5F5F5"/>
<path d="M148.179 84.5264H147.314C147.224 84.5264 147.15 84.4521 147.15 84.3621V83.4505C147.15 83.3605 147.224 83.2861 147.314 83.2861H147.932C148.007 83.2861 148.073 83.337 148.093 83.4074L148.335 84.319C148.363 84.4247 148.285 84.5264 148.175 84.5264H148.179Z" fill="#F5F5F5"/>
<path d="M149.368 84.5264H148.504C148.414 84.5264 148.339 84.4521 148.339 84.3621V83.4505C148.339 83.3605 148.414 83.2861 148.504 83.2861H149.122C149.196 83.2861 149.263 83.337 149.282 83.4074L149.525 84.319C149.552 84.4247 149.474 84.5264 149.364 84.5264H149.368Z" fill="#F5F5F5"/>
<path d="M150.562 84.5264H149.697C149.607 84.5264 149.533 84.4521 149.533 84.3621V83.4505C149.533 83.3605 149.607 83.2861 149.697 83.2861H150.315C150.39 83.2861 150.456 83.337 150.476 83.4074L150.718 84.319C150.746 84.4247 150.667 84.5264 150.558 84.5264H150.562Z" fill="#F5F5F5"/>
<path d="M151.43 83.9043H132.134V85.3402H151.43V83.9043Z" fill="#EBEBEB"/>
<path d="M96.3104 144C138.207 144 172.17 142.017 172.17 139.571C172.17 137.125 138.207 135.142 96.3104 135.142C54.4142 135.142 20.4507 137.125 20.4507 139.571C20.4507 142.017 54.4142 144 96.3104 144Z" fill="#F5F5F5"/>
<path d="M28.8704 90.1283H137.865L132.172 8.73242H23.1777L28.8704 90.1283Z" fill="#FFB600"/>
<g opacity="0.6">
<path d="M28.8704 90.1283H137.865L132.172 8.73242H23.1777L28.8704 90.1283Z" fill="white"/>
</g>
<path d="M114.292 18.9128C114.343 18.9128 114.398 18.8971 114.445 18.8697L116.194 17.7625C116.276 17.7116 116.323 17.6216 116.327 17.5238C116.327 17.426 116.28 17.336 116.197 17.2852L114.362 16.084C114.233 15.9979 114.057 16.0371 113.971 16.1662C113.885 16.2992 113.92 16.4714 114.053 16.5574L115.521 17.516L114.143 18.3885C114.01 18.4706 113.971 18.6467 114.057 18.7797C114.112 18.8658 114.202 18.9128 114.296 18.9128H114.292Z" fill="#263238"/>
<path d="M113.341 17.8095H116.037C116.193 17.8095 116.319 17.6843 116.319 17.5278C116.319 17.3713 116.193 17.2461 116.037 17.2461H113.341C113.185 17.2461 113.06 17.3713 113.06 17.5278C113.06 17.6843 113.185 17.8095 113.341 17.8095Z" fill="#263238"/>
<path d="M109.073 18.9126C109.167 18.9126 109.257 18.8656 109.311 18.7835C109.397 18.6504 109.362 18.4783 109.229 18.3922L107.762 17.4336L109.139 16.5612C109.272 16.479 109.311 16.3029 109.225 16.1699C109.143 16.0369 108.967 15.9978 108.834 16.0838L107.085 17.1911C107.003 17.2419 106.956 17.3319 106.952 17.4297C106.952 17.5275 106.999 17.6175 107.081 17.6684L108.916 18.8695C108.963 18.9008 109.018 18.9165 109.073 18.9165V18.9126Z" fill="#263238"/>
<path d="M107.238 17.7157H109.933C110.09 17.7157 110.215 17.5905 110.215 17.434C110.215 17.2775 110.09 17.1523 109.933 17.1523H107.238C107.081 17.1523 106.956 17.2775 106.956 17.434C106.956 17.5905 107.081 17.7157 107.238 17.7157Z" fill="#263238"/>
<path d="M102.351 19.492C102.832 19.492 103.271 19.3042 103.588 18.9639C103.908 18.6235 104.065 18.1696 104.03 17.6884C103.963 16.7142 103.114 15.9199 102.14 15.9199C101.659 15.9199 101.22 16.1077 100.904 16.4481C100.583 16.7885 100.426 17.2424 100.461 17.7236C100.473 17.8801 100.606 17.9936 100.763 17.9857C100.919 17.974 101.037 17.841 101.025 17.6845C101.001 17.3597 101.107 17.0585 101.318 16.8315C101.53 16.6085 101.819 16.4833 102.144 16.4833C102.828 16.4833 103.423 17.0389 103.47 17.7236C103.494 18.0483 103.388 18.3496 103.177 18.5765C102.965 18.7995 102.676 18.9247 102.351 18.9247C102.195 18.9247 102.069 19.0499 102.069 19.2064C102.069 19.3629 102.195 19.4881 102.351 19.4881V19.492Z" fill="#263238"/>
<path d="M100.743 18.0213C100.77 18.0213 100.798 18.0213 100.821 18.0096L101.733 17.7435C101.882 17.7005 101.968 17.544 101.925 17.3914C101.882 17.2427 101.721 17.1566 101.573 17.1997L100.868 17.407L100.54 16.871C100.457 16.738 100.281 16.695 100.148 16.7771C100.015 16.8593 99.9723 17.0314 100.054 17.1684L100.497 17.8883C100.547 17.9744 100.641 18.0213 100.739 18.0213H100.743Z" fill="#263238"/>
<path d="M54.2784 18.3571C53.9889 18.0871 53.8167 17.7115 53.801 17.3281C53.7893 16.9681 53.9145 16.6277 54.1532 16.3695C54.3918 16.1113 54.7205 15.9626 55.0844 15.9509C55.4756 15.9391 55.8551 16.0839 56.1446 16.3538C56.4342 16.6238 56.6102 16.9994 56.622 17.3867C56.6337 17.7467 56.5085 18.0871 56.2698 18.3453C56.0312 18.6035 55.7025 18.7522 55.3387 18.764C55.323 18.764 55.3074 18.764 55.2917 18.764C54.9239 18.764 54.5562 18.6192 54.2784 18.3571ZM55.1039 16.5143C54.8966 16.5221 54.7048 16.6082 54.5679 16.7529C54.431 16.8977 54.3605 17.0933 54.3684 17.3046C54.3762 17.5393 54.4857 17.7741 54.6657 17.9423C54.8457 18.1106 55.0844 18.2045 55.3191 18.1966C55.5265 18.1888 55.7182 18.1027 55.8551 17.958C55.9921 17.8132 56.0625 17.6176 56.0547 17.4063C56.0468 17.1716 55.9373 16.9368 55.7573 16.7686C55.5852 16.6082 55.3582 16.5143 55.1352 16.5143C55.1235 16.5143 55.1157 16.5143 55.1078 16.5143H55.1039Z" fill="#263238"/>
<path d="M53.4879 19.4921C53.5623 19.4921 53.6405 19.4608 53.6953 19.4021L54.6773 18.3457C54.783 18.2323 54.7791 18.0523 54.6617 17.9466C54.5482 17.841 54.3682 17.8488 54.2626 17.9623L53.2806 19.0187C53.1749 19.1321 53.1788 19.3121 53.2962 19.4177C53.351 19.4686 53.4214 19.4921 53.4879 19.4921Z" fill="#263238"/>
<path d="M23.4986 13.3101H132.493L132.172 8.73242H23.1777L23.4986 13.3101Z" fill="#FFB600"/>
<path opacity="0.4" d="M23.4986 13.3101H132.493L132.172 8.73242H23.1777L23.4986 13.3101Z" fill="black"/>
<path d="M34.0549 11.0217C34.1097 11.7768 34.7631 12.3911 35.5182 12.3911C36.2733 12.3911 36.8445 11.7768 36.7937 11.0217C36.7389 10.2666 36.0855 9.65234 35.3304 9.65234C34.5753 9.65234 34.004 10.2666 34.0549 11.0217Z" fill="white"/>
<path d="M29.8567 11.0217C29.9114 11.7768 30.5648 12.3911 31.3199 12.3911C32.0751 12.3911 32.6463 11.7768 32.5954 11.0217C32.5406 10.2666 31.8873 9.65234 31.1321 9.65234C30.377 9.65234 29.8058 10.2666 29.8567 11.0217Z" fill="white"/>
<path d="M25.6584 11.0217C25.7132 11.7768 26.3666 12.3911 27.1217 12.3911C27.8768 12.3911 28.448 11.7768 28.3972 11.0217C28.3424 10.2666 27.689 9.65234 26.9339 9.65234C26.1788 9.65234 25.6076 10.2666 25.6584 11.0217Z" fill="white"/>
<path d="M124.136 15.9121L127.603 15.9669" stroke="#263238" stroke-width="1.5" stroke-linecap="round" stroke-linejoin="round"/>
<path d="M124.273 17.4697L127.736 17.5245" stroke="#263238" stroke-width="1.5" stroke-linecap="round" stroke-linejoin="round"/>
<path d="M124.41 19.0264L127.873 19.0811" stroke="#263238" stroke-width="1.5" stroke-linecap="round" stroke-linejoin="round"/>
<path d="M61.5126 19.2106H94.7298C95.6845 19.2106 96.4005 18.4398 96.334 17.4852C96.2675 16.5305 95.4419 15.7598 94.4873 15.7598H61.27C60.3154 15.7598 59.5994 16.5305 59.6659 17.4852C59.7324 18.4398 60.558 19.2106 61.5126 19.2106Z" fill="white"/>
<g opacity="0.5">
<path d="M79.6316 24.3004H81.2279L81.0714 22.0703H79.4751L79.6316 24.3004Z" fill="black"/>
<path d="M78.853 24.2852L80.5393 25.8619L82.0065 24.2852H78.853Z" fill="black"/>
<path d="M77.2371 26.9692H83.994L83.8062 24.2813H82.9572L83.0863 26.1202H78.0274L77.8983 24.2656H77.0493L77.2371 26.9692Z" fill="black"/>
<g opacity="0.5">
<path d="M79.6316 24.3004H81.2279L81.0714 22.0703H79.4751L79.6316 24.3004Z" fill="black"/>
<path d="M78.853 24.2852L80.5393 25.8619L82.0065 24.2852H78.853Z" fill="black"/>
<path d="M77.2371 26.9692H83.994L83.8062 24.2813H82.9572L83.0863 26.1202H78.0274L77.8983 24.2656H77.0493L77.2371 26.9692Z" fill="black"/>
</g>
</g>
<path opacity="0.1" d="M115.321 8.73242L137.583 90.2457H132.344L110.254 8.73242H115.321Z" fill="white"/>
<path opacity="0.1" d="M42.263 8.73242L64.5252 90.2457H59.2863L37.1963 8.73242H42.263Z" fill="white"/>
<path opacity="0.1" d="M107.234 8.73242L129.5 90.2457H117.215L95.1211 8.73242H107.234Z" fill="white"/>
<path d="M65.2452 41.3394H97.9225C99.9296 41.3394 101.44 39.7157 101.299 37.7086L101.056 34.2421C100.916 32.235 99.1784 30.6113 97.1713 30.6113H64.494C62.4869 30.6113 60.9767 32.235 61.1175 34.2421L61.3601 37.7086C61.5009 39.7157 63.2381 41.3394 65.2452 41.3394Z" fill="#FFB600"/>
<path d="M72.2681 35.9238C72.1938 35.2079 72.6868 34.6914 73.4223 34.6914C73.8136 34.6914 74.1618 34.8323 74.4122 35.0905L74.154 35.3604C73.9583 35.1726 73.7353 35.0787 73.4849 35.0787C72.988 35.0787 72.6672 35.427 72.7181 35.9199C72.7689 36.4129 73.1641 36.7611 73.661 36.7611C73.9114 36.7611 74.1148 36.6672 74.2713 36.4755L74.5883 36.7494C74.3926 37.0115 74.0718 37.1485 73.6806 37.1485C72.9489 37.1485 72.3464 36.632 72.2721 35.916L72.2681 35.9238Z" fill="white"/>
<path d="M74.7446 34.5781H75.1711L75.4371 37.1213H75.0107L74.7446 34.5781Z" fill="white"/>
<path d="M75.6954 34.7348C75.6797 34.59 75.7854 34.4766 75.9419 34.4766C76.0984 34.4766 76.2275 34.5822 76.2431 34.723C76.2588 34.8756 76.1571 34.9891 75.9966 34.9891C75.8362 34.9891 75.711 34.8756 75.6954 34.7309V34.7348ZM75.8128 35.2943H76.2392L76.4309 37.1253H76.0045L75.8128 35.2943Z" fill="white"/>
<path d="M76.7439 36.2056C76.6852 35.6578 77.0569 35.2705 77.6359 35.2705C77.992 35.2705 78.2893 35.4192 78.4615 35.697L78.1524 35.8887C78.0233 35.7126 77.8511 35.6344 77.6711 35.6344C77.3581 35.6344 77.139 35.8535 77.1782 36.2056C77.2173 36.5616 77.4794 36.7768 77.7924 36.7768C77.9724 36.7768 78.1289 36.6986 78.2189 36.5225L78.5671 36.7142C78.4575 36.9881 78.1876 37.1407 77.8315 37.1407C77.2525 37.1407 76.8026 36.7494 76.7439 36.2017V36.2056Z" fill="white"/>
<path d="M79.6275 36.3388L79.3418 36.64L79.3927 37.1213H78.9662L78.7002 34.5781H79.1267L79.2871 36.1118L80.0852 35.2902H80.5978L79.917 36.0571L80.8638 37.1173H80.3435L79.6275 36.3309V36.3388Z" fill="white"/>
<path d="M84.0019 34.7227L84.2523 37.121H83.8063L83.6968 36.092H82.4565L82.5661 37.121H82.12L81.8696 34.7227H82.3157L82.4213 35.7125H83.6616L83.5559 34.7227H84.0019Z" fill="white"/>
<path d="M86.4863 36.3425H85.0543C85.1326 36.6086 85.3752 36.7807 85.6921 36.7807C85.8955 36.7807 86.052 36.7142 86.1655 36.5812L86.4237 36.8433C86.2789 37.039 86.0325 37.1407 85.7195 37.1407C85.1091 37.1407 84.667 36.7455 84.6122 36.2017C84.5535 35.6579 84.9135 35.2666 85.4573 35.2666C86.0012 35.2666 86.4198 35.6383 86.4785 36.2134C86.4785 36.2486 86.4824 36.2995 86.4863 36.3386V36.3425ZM85.0191 36.0569H86.0559C85.9933 35.7948 85.7742 35.6109 85.4925 35.6109C85.2108 35.6109 85.0309 35.7909 85.0191 36.0569Z" fill="white"/>
<path d="M87.8479 35.2705L87.8909 35.6774C87.8518 35.6696 87.8205 35.6657 87.7892 35.6657C87.4645 35.6657 87.2806 35.8574 87.3197 36.2291L87.4136 37.1172H86.9871L86.7954 35.2862H87.2023L87.2297 35.5522C87.3314 35.3605 87.5466 35.2627 87.8479 35.2627V35.2705Z" fill="white"/>
<path d="M90.019 36.3425H88.587C88.6653 36.6086 88.9079 36.7807 89.2248 36.7807C89.4282 36.7807 89.5847 36.7142 89.6982 36.5812L89.9564 36.8433C89.8117 37.039 89.5652 37.1407 89.2522 37.1407C88.6418 37.1407 88.1997 36.7455 88.1449 36.2017C88.0862 35.6579 88.4462 35.2666 88.99 35.2666C89.5339 35.2666 89.9525 35.6383 90.0112 36.2134C90.0112 36.2486 90.0151 36.2995 90.019 36.3386V36.3425ZM88.5518 36.0569H89.5886C89.526 35.7948 89.3069 35.6109 89.0252 35.6109C88.7435 35.6109 88.5636 35.7909 88.5518 36.0569Z" fill="white"/>
<path d="M102.465 45.2753L98.967 43.546C98.967 43.546 98.0476 42.4857 99.014 42.0318C99.3935 41.8557 99.8395 41.8949 100.207 42.0944L101.502 42.7987L95.7235 37.0199C95.3949 36.6912 95.3949 36.1552 95.7235 35.8266C96.0522 35.4979 96.5882 35.4979 96.9169 35.8266L100.958 39.8682L99.1196 38.0293L99.7299 37.419C100.023 37.1255 100.505 37.1255 100.798 37.419L102.351 38.9722L100.712 37.3329L101.42 36.6247C101.714 36.3313 102.195 36.3313 102.488 36.6247L103.842 37.9784L102.551 36.6873L102.962 36.2765C103.255 35.9831 103.736 35.9831 104.03 36.2765L107.289 39.5356C107.442 39.6882 107.575 39.8604 107.688 40.0443L108.232 40.952C108.451 41.3158 108.564 41.7305 108.564 42.1531L105.258 45.4592L103.795 45.5452C103.337 45.5726 102.883 45.4787 102.473 45.2753H102.465Z" fill="white"/>
<path d="M93.2783 33.3848L94.4716 34.5781" stroke="white" stroke-width="2" stroke-linecap="round" stroke-linejoin="round"/>
<path d="M91.9795 36.5146H93.6619" stroke="white" stroke-width="2" stroke-linecap="round" stroke-linejoin="round"/>
<path d="M98.3413 34.582L99.5385 33.3848" stroke="white" stroke-width="2" stroke-linecap="round" stroke-linejoin="round"/>
<path d="M93.2783 39.6445L94.4677 38.4551" stroke="white" stroke-width="2" stroke-linecap="round" stroke-linejoin="round"/>
<path d="M96.4043 33.78V32.0898" stroke="white" stroke-width="2" stroke-linecap="round" stroke-linejoin="round"/>
<path d="M68.1288 76.8416H102.363L99.7027 46.457H65.4722L68.1288 76.8416Z" fill="#FFB600"/>
<path opacity="0.9" d="M68.1288 76.8416H102.363L99.7027 46.457H65.4722L68.1288 76.8416Z" fill="white"/>
<path d="M68.4928 66.0662H100.075L98.4861 47.9082H66.9043L68.4928 66.0662Z" fill="#FFB600"/>
<path d="M90.1722 69.302H98.4197L98.2476 67.334H89.9961L90.1722 69.302Z" fill="#FFB600"/>
<path d="M80.4612 69.302H88.7127L88.5405 67.334H80.2891L80.4612 69.302Z" fill="#FFB600"/>
<path d="M70.7542 69.302H79.0057L78.8296 67.334H70.582L70.7542 69.302Z" fill="#FFB600"/>
<path opacity="0.5" d="M90.1722 69.302H98.4197L98.2476 67.334H89.9961L90.1722 69.302Z" fill="white"/>
<path opacity="0.5" d="M80.4612 69.302H88.7127L88.5405 67.334H80.2891L80.4612 69.302Z" fill="white"/>
<path opacity="0.5" d="M70.582 67.334L70.7542 69.302H79.0057L78.8296 67.334" fill="white"/>
<path d="M94.8864 72.1346H96.158L96.0601 71.0078H94.7886L94.8864 72.1346Z" fill="#FFB600"/>
<path d="M89.4284 72.1346H94.1469L94.0491 71.0078H89.3267L89.4284 72.1346Z" fill="#FFB600"/>
<path d="M83.8727 72.1346H88.5912L88.4934 71.0078H83.7749L83.8727 72.1346Z" fill="#FFB600"/>
<path d="M73.5163 72.1346H75.8794L75.7777 71.0078H73.4185L73.5163 72.1346Z" fill="#FFB600"/>
<path d="M76.568 72.1346H83.008L82.9102 71.0078H76.4702L76.568 72.1346Z" fill="#FFB600"/>
<path d="M79.5297 74.0594H74.8073L74.7095 72.9326H79.4319L79.5297 74.0594Z" fill="#FFB600"/>
<path d="M85.0854 74.0594H80.3629L80.2651 72.9326H84.9875L85.0854 74.0594Z" fill="#FFB600"/>
<path d="M95.438 74.0594H93.0788L92.981 72.9326H95.3402L95.438 74.0594Z" fill="#FFB600"/>
<path d="M92.3864 74.0594H85.9464L85.8486 72.9326H92.2886L92.3864 74.0594Z" fill="#FFB600"/>
<g opacity="0.6">
<path d="M94.8864 72.1346H96.158L96.0601 71.0078H94.7886L94.8864 72.1346Z" fill="white"/>
<path d="M89.4284 72.1346H94.1469L94.0491 71.0078H89.3267L89.4284 72.1346Z" fill="white"/>
<path d="M83.8727 72.1346H88.5912L88.4934 71.0078H83.7749L83.8727 72.1346Z" fill="white"/>
<path d="M73.5163 72.1346H75.8794L75.7777 71.0078H73.4185L73.5163 72.1346Z" fill="white"/>
<path d="M76.568 72.1346H83.008L82.9102 71.0078H76.4702L76.568 72.1346Z" fill="white"/>
</g>
<g opacity="0.6">
<path d="M79.5297 74.0594H74.8073L74.7095 72.9326H79.4319L79.5297 74.0594Z" fill="white"/>
<path d="M85.0854 74.0594H80.3629L80.2651 72.9326H84.9875L85.0854 74.0594Z" fill="white"/>
<path d="M95.438 74.0594H93.0788L92.981 72.9326H95.3402L95.438 74.0594Z" fill="white"/>
<path d="M92.3864 74.0594H85.9464L85.8486 72.9326H92.2886L92.3864 74.0594Z" fill="white"/>
</g>
<path d="M100.078 66.1019L88.8417 56.1367L84.3071 66.1019H100.078Z" fill="white"/>
<path d="M88.9942 66.1018L74.3888 53.1475L68.4966 66.1018H88.9942Z" fill="white"/>
<path d="M80.7312 53.2763C80.8485 54.5948 82.0105 55.6668 83.333 55.6668C84.6554 55.6668 85.6296 54.5948 85.5162 53.2763C85.3988 51.9578 84.2368 50.8857 82.9143 50.8857C81.5919 50.8857 80.6177 51.9578 80.7312 53.2763Z" fill="white"/>
<path d="M164.196 128.139L163.868 128.178C163.848 128.014 161.865 111.421 165.953 97.8637C170.018 84.3891 167.221 75.8011 167.189 75.7189L167.502 75.6133C167.53 75.6994 170.363 84.3851 166.27 97.9616C162.201 111.452 164.173 127.974 164.196 128.139Z" fill="#FFB600"/>
<path d="M167.776 77.5696C167.072 76.7245 166.094 76.122 165.021 75.8716L165.096 75.5508C166.234 75.8168 167.279 76.4585 168.03 77.3584L167.776 77.5696Z" fill="#FFB600"/>
<path d="M169.177 78.9434L168.234 79.4766L168.396 79.7627L169.339 79.2295L169.177 78.9434Z" fill="#FFB600"/>
<path d="M167.42 86.5881C166.61 84.7297 165.068 83.2351 163.187 82.48L163.308 82.1748C165.268 82.9612 166.876 84.5223 167.721 86.4551L167.42 86.5881Z" fill="#FFB600"/>
<path d="M166.54 96.9561H166.211C166.196 95.622 165.558 94.3269 164.509 93.4975L164.713 93.2393C165.84 94.1313 166.524 95.5203 166.54 96.9561Z" fill="#FFB600"/>
<path d="M165.804 99.6047L165.499 99.4834C165.828 98.6461 166.528 97.9536 167.373 97.6367L167.49 97.9458C166.735 98.2314 166.105 98.8535 165.808 99.6047H165.804Z" fill="#FFB600"/>
<path d="M163.672 116.421L163.417 116.209C163.817 115.728 164.122 113.885 164.282 112.899C164.321 112.665 164.353 112.461 164.38 112.316L164.705 112.379C164.677 112.524 164.646 112.719 164.607 112.954C164.364 114.429 164.09 115.912 163.668 116.421H163.672Z" fill="#FFB600"/>
<path d="M163.48 121.699C163.054 120.4 161.704 119.465 160.338 119.531L160.323 119.203C161.833 119.132 163.324 120.161 163.793 121.597L163.48 121.699Z" fill="#FFB600"/>
<path d="M166.002 125.153L163.681 127.749L163.926 127.968L166.247 125.372L166.002 125.153Z" fill="#FFB600"/>
<path d="M167.635 108.212C168.16 109.914 164.494 113.154 164.494 113.154C164.494 113.154 159.638 112.547 159.114 110.845C158.59 109.143 159.818 106.358 162.17 105.634C164.521 104.906 167.107 106.514 167.635 108.216V108.212Z" fill="#FFB600"/>
<path d="M171.705 87.5623C171.239 89.3698 167.765 90.6531 167.765 90.6531C167.765 90.6531 165.343 87.8518 165.808 86.0442C166.274 84.2366 168.195 82.2452 169.823 82.6638C171.45 83.0824 172.17 85.7547 171.705 87.5623Z" fill="#FFB600"/>
<path d="M157.772 114.57C159.951 115.419 161.289 119.277 161.289 119.277C161.289 119.277 157.698 121.214 155.515 120.365C153.335 119.516 151.027 117.121 151.649 115.525C152.271 113.925 155.589 113.721 157.772 114.574V114.57Z" fill="#FFB600"/>
<path d="M162.553 93.3491C163.015 93.6894 163.488 94.0416 164.044 94.1902C164.599 94.3389 165.257 94.2489 165.632 93.8146C166.098 93.2786 165.973 92.4453 165.679 91.7958C165.096 90.5125 162.948 88.3332 161.297 88.9592C158.914 89.863 161.489 92.5587 162.553 93.3491Z" fill="#FFB600"/>
<path d="M167.428 96.6193C167.115 97.0066 166.783 97.4957 166.955 97.9613C167.107 98.376 167.616 98.5677 168.054 98.5012C168.492 98.4347 168.872 98.1765 169.232 97.9261C170.073 97.3431 171.798 96.1146 170.695 94.9682C169.553 93.7788 168.085 95.8016 167.428 96.6193Z" fill="#FFB600"/>
<path d="M160.389 80.3085C160.029 80.3477 159.666 80.5902 159.603 80.9463C159.533 81.3649 159.877 81.7288 160.213 81.987C161.047 82.6326 163.559 84.3697 164.118 82.6913C164.646 81.1067 161.497 80.1872 160.389 80.3085Z" fill="#FFB600"/>
<path d="M165.018 74.7957C164.502 74.8466 163.985 74.6588 163.465 74.6901C162.944 74.7214 162.369 75.14 162.487 75.6486C162.592 76.1181 163.175 76.2746 163.656 76.3059C164.474 76.3568 165.3 76.302 166.106 76.1377C166.293 76.0986 166.497 76.0438 166.603 75.8873C166.814 75.5782 166.477 75.1635 166.121 75.0539C165.765 74.9444 165.362 74.9796 165.038 74.7957H165.022H165.018Z" fill="#FFB600"/>
<path d="M170.081 78.3597C170.601 78.3754 171.106 78.1523 171.626 78.1523C172.147 78.1523 172.749 78.5279 172.667 79.0444C172.593 79.5178 172.021 79.7134 171.544 79.776C170.73 79.8817 169.905 79.8778 169.091 79.7682C168.903 79.7408 168.696 79.7017 168.578 79.5491C168.348 79.2557 168.653 78.8175 169.005 78.6844C169.353 78.5514 169.76 78.5632 170.069 78.3558H170.085L170.081 78.3597Z" fill="#FFB600"/>
<path d="M169.568 116.679C169.697 116.57 169.842 116.46 170.01 116.46C170.233 116.46 170.409 116.671 170.452 116.89C170.495 117.109 170.433 117.332 170.37 117.548C170.018 118.725 166.059 127.27 165.151 125.737C164.611 124.829 165.937 121.828 166.325 120.975C167.08 119.332 168.187 117.845 169.572 116.679H169.568Z" fill="#FFB600"/>
<path d="M167.201 75.1207C167.514 74.4164 167.855 73.677 168.481 73.2231C169.107 72.7693 170.104 72.7341 170.558 73.3601C171.067 74.0565 170.558 75.1168 169.78 75.4885C169.001 75.8602 168.089 75.7467 167.232 75.6293C167.225 75.5041 167.217 75.375 167.213 75.2498L167.201 75.1207Z" fill="#FFB600"/>
<g opacity="0.6">
<path d="M164.196 128.139L163.868 128.178C163.848 128.014 161.865 111.421 165.953 97.8637C170.018 84.3891 167.221 75.8011 167.189 75.7189L167.502 75.6133C167.53 75.6994 170.363 84.3851 166.27 97.9616C162.201 111.452 164.173 127.974 164.196 128.139Z" fill="white"/>
<path d="M167.776 77.5696C167.072 76.7245 166.094 76.122 165.021 75.8716L165.096 75.5508C166.234 75.8168 167.279 76.4585 168.03 77.3584L167.776 77.5696Z" fill="white"/>
<path d="M169.177 78.9434L168.234 79.4766L168.396 79.7627L169.339 79.2295L169.177 78.9434Z" fill="white"/>
<path d="M167.42 86.5881C166.61 84.7297 165.068 83.2351 163.187 82.48L163.308 82.1748C165.268 82.9612 166.876 84.5223 167.721 86.4551L167.42 86.5881Z" fill="white"/>
<path d="M166.54 96.9561H166.211C166.196 95.622 165.558 94.3269 164.509 93.4975L164.713 93.2393C165.84 94.1313 166.524 95.5203 166.54 96.9561Z" fill="white"/>
<path d="M165.804 99.6047L165.499 99.4834C165.828 98.6461 166.528 97.9536 167.373 97.6367L167.49 97.9458C166.735 98.2314 166.105 98.8535 165.808 99.6047H165.804Z" fill="white"/>
<path d="M163.672 116.421L163.417 116.209C163.817 115.728 164.122 113.885 164.282 112.899C164.321 112.665 164.353 112.461 164.38 112.316L164.705 112.379C164.677 112.524 164.646 112.719 164.607 112.954C164.364 114.429 164.09 115.912 163.668 116.421H163.672Z" fill="white"/>
<path d="M163.48 121.699C163.054 120.4 161.704 119.465 160.338 119.531L160.323 119.203C161.833 119.132 163.324 120.161 163.793 121.597L163.48 121.699Z" fill="white"/>
<path d="M166.002 125.153L163.681 127.749L163.926 127.968L166.247 125.372L166.002 125.153Z" fill="white"/>
<path d="M167.635 108.212C168.16 109.914 164.494 113.154 164.494 113.154C164.494 113.154 159.638 112.547 159.114 110.845C158.59 109.143 159.818 106.358 162.17 105.634C164.521 104.906 167.107 106.514 167.635 108.216V108.212Z" fill="white"/>
<path d="M171.705 87.5623C171.239 89.3698 167.765 90.6531 167.765 90.6531C167.765 90.6531 165.343 87.8518 165.808 86.0442C166.274 84.2366 168.195 82.2452 169.823 82.6638C171.45 83.0824 172.17 85.7547 171.705 87.5623Z" fill="white"/>
<path d="M157.772 114.57C159.951 115.419 161.289 119.277 161.289 119.277C161.289 119.277 157.698 121.214 155.515 120.365C153.335 119.516 151.027 117.121 151.649 115.525C152.271 113.925 155.589 113.721 157.772 114.574V114.57Z" fill="white"/>
<path d="M162.553 93.3491C163.015 93.6894 163.488 94.0416 164.044 94.1902C164.599 94.3389 165.257 94.2489 165.632 93.8146C166.098 93.2786 165.973 92.4453 165.679 91.7958C165.096 90.5125 162.948 88.3332 161.297 88.9592C158.914 89.863 161.489 92.5587 162.553 93.3491Z" fill="white"/>
<path d="M167.428 96.6193C167.115 97.0066 166.783 97.4957 166.955 97.9613C167.107 98.376 167.616 98.5677 168.054 98.5012C168.492 98.4347 168.872 98.1765 169.232 97.9261C170.073 97.3431 171.798 96.1146 170.695 94.9682C169.553 93.7788 168.085 95.8016 167.428 96.6193Z" fill="white"/>
<path d="M160.389 80.3085C160.029 80.3477 159.666 80.5902 159.603 80.9463C159.533 81.3649 159.877 81.7288 160.213 81.987C161.047 82.6326 163.559 84.3697 164.118 82.6913C164.646 81.1067 161.497 80.1872 160.389 80.3085Z" fill="white"/>
<path d="M165.018 74.7957C164.502 74.8466 163.985 74.6588 163.465 74.6901C162.944 74.7214 162.369 75.14 162.487 75.6486C162.592 76.1181 163.175 76.2746 163.656 76.3059C164.474 76.3568 165.3 76.302 166.106 76.1377C166.293 76.0986 166.497 76.0438 166.603 75.8873C166.814 75.5782 166.477 75.1635 166.121 75.0539C165.765 74.9444 165.362 74.9796 165.038 74.7957H165.022H165.018Z" fill="white"/>
<path d="M170.081 78.3597C170.601 78.3754 171.106 78.1523 171.626 78.1523C172.147 78.1523 172.749 78.5279 172.667 79.0444C172.593 79.5178 172.021 79.7134 171.544 79.776C170.73 79.8817 169.905 79.8778 169.091 79.7682C168.903 79.7408 168.696 79.7017 168.578 79.5491C168.348 79.2557 168.653 78.8175 169.005 78.6844C169.353 78.5514 169.76 78.5632 170.069 78.3558H170.085L170.081 78.3597Z" fill="white"/>
<path d="M169.568 116.679C169.697 116.57 169.842 116.46 170.01 116.46C170.233 116.46 170.409 116.671 170.452 116.89C170.495 117.109 170.433 117.332 170.37 117.548C170.018 118.725 166.059 127.27 165.151 125.737C164.611 124.829 165.937 121.828 166.325 120.975C167.08 119.332 168.187 117.845 169.572 116.679H169.568Z" fill="white"/>
<path d="M167.201 75.1207C167.514 74.4164 167.855 73.677 168.481 73.2231C169.107 72.7693 170.104 72.7341 170.558 73.3601C171.067 74.0565 170.558 75.1168 169.78 75.4885C169.001 75.8602 168.089 75.7467 167.232 75.6293C167.225 75.5041 167.217 75.375 167.213 75.2498L167.201 75.1207Z" fill="white"/>
</g>
<path d="M169.881 139.345C165.765 140.323 161.36 140.323 157.244 139.345L155.28 124.837H171.845L169.881 139.345Z" fill="#263238"/>
<g opacity="0.8">
<path d="M169.881 139.345C165.765 140.323 161.36 140.323 157.244 139.345L155.28 124.837H171.845L169.881 139.345Z" fill="white"/>
</g>
<path d="M124.363 56.4464C123.503 59.1499 124.445 65.7621 121.754 67.4796C119.363 69.0055 118.119 71.4078 118.201 74.2444C119.954 71.8225 122.869 70.4414 125.819 69.9445C128.769 69.4476 131.789 69.7411 134.759 70.0893C136.16 70.2536 142.701 72.3312 142.345 73.6966C144.45 70.5627 142.052 56.4659 141.101 52.8116C140.815 51.7122 141.371 50.1629 140.283 49.8303C137.775 49.0635 132.349 47.5258 126.852 51.0588C124.645 52.4791 124.907 54.7131 124.359 56.4464H124.363Z" fill="#FFB600"/>
<g opacity="0.5">
<path d="M124.363 56.4464C123.503 59.1499 124.445 65.7621 121.754 67.4796C119.363 69.0055 118.119 71.4078 118.201 74.2444C119.954 71.8225 122.869 70.4414 125.819 69.9445C128.769 69.4476 131.789 69.7411 134.759 70.0893C136.16 70.2536 142.701 72.3312 142.345 73.6966C144.45 70.5627 142.052 56.4659 141.101 52.8116C140.815 51.7122 141.371 50.1629 140.283 49.8303C137.775 49.0635 132.349 47.5258 126.852 51.0588C124.645 52.4791 124.907 54.7131 124.359 56.4464H124.363Z" fill="black"/>
</g>
<path d="M111.135 52.0479L109.687 48.3701L107.911 51.1284C107.911 51.1284 108.846 52.9986 109.985 53.069L111.135 52.0479Z" fill="#DD8C6A"/>
<path d="M107.207 47.5483L106.655 48.1743C106.322 48.5538 106.307 49.1172 106.624 49.5084L107.915 51.1204L109.691 48.366L108.682 47.4622C108.251 47.0788 107.594 47.1179 107.211 47.5483H107.207Z" fill="#DD8C6A"/>
<path d="M108.384 50.6936L107.926 50.4197C107.696 50.2828 107.484 50.1146 107.296 49.9189L107.23 49.5981C107.343 49.4338 107.555 49.3634 107.746 49.426L108.134 49.559L110.07 49.8289V50.6506L109.444 51.4957H109.245C108.795 51.48 108.427 51.1357 108.384 50.6897V50.6936Z" fill="#DD8C6A"/>
<path d="M123.581 53.1361C123.581 53.1361 119.887 55.9296 117.062 58.5197C117.062 58.5197 111.804 53.0774 111.053 51.7119L109.574 52.9952C110.063 54.6385 111.017 57.1112 111.886 58.5901C112.356 59.3883 112.931 60.1199 113.592 60.7616C113.991 61.145 114.453 61.4619 114.953 61.6966C115.587 61.9979 116.299 62.0957 116.988 61.9783C117.168 61.947 117.344 61.9001 117.516 61.8375L117.849 61.7162L118.447 61.4854C118.85 61.3367 119.242 61.1528 119.637 60.9846C120.427 60.6246 121.194 60.2216 121.941 59.7795C122.692 59.3296 123.416 58.8366 124.113 58.3045C124.476 58.0267 124.801 57.745 125.134 57.4359C125.302 57.2833 125.466 57.1229 125.631 56.9586L125.873 56.7004C125.959 56.6026 126.026 56.5321 126.147 56.3835L123.577 53.1322L123.581 53.1361Z" fill="#FFB600"/>
<path d="M127.192 51.0231C125.858 50.6944 116.421 59.0829 116.421 59.0829L117.849 61.7238C117.849 61.7238 126.413 58.1517 129.039 54.3018C128.82 52.4551 129.137 51.5043 127.188 51.0192L127.192 51.0231Z" fill="#FFB600"/>
<path opacity="0.2" d="M126.98 53.9219L125.854 57.3258C121.21 60.5458 119.641 60.9918 119.641 60.9918L126.98 53.9219Z" fill="black"/>
<path d="M128.17 137.302L124.954 137.415L124.402 129.943L127.622 129.825L128.17 137.302Z" fill="#DD8C6A"/>
<path d="M123.647 137.83C123.679 137.826 123.706 137.803 123.71 137.771C123.71 137.74 123.698 137.709 123.671 137.689C123.53 137.611 122.262 136.911 121.859 137.114C121.781 137.153 121.73 137.228 121.722 137.314C121.699 137.451 121.746 137.591 121.847 137.689C122.074 137.85 122.348 137.928 122.626 137.912C122.966 137.912 123.311 137.885 123.647 137.826V137.83ZM122.074 137.231C122.544 137.318 122.99 137.482 123.405 137.72C122.685 137.814 122.157 137.767 121.965 137.587C121.898 137.521 121.871 137.431 121.883 137.337C121.883 137.302 121.906 137.271 121.937 137.255C121.98 137.235 122.031 137.228 122.082 137.231H122.07H122.074Z" fill="#FFB600"/>
<path d="M123.694 137.814C123.694 137.814 123.721 137.767 123.718 137.744C123.714 137.708 123.667 136.836 123.275 136.488C123.158 136.386 123.005 136.335 122.853 136.355C122.638 136.37 122.587 136.48 122.559 136.562C122.485 136.926 123.225 137.646 123.604 137.834L123.631 137.841C123.655 137.841 123.678 137.838 123.694 137.818V137.814ZM122.908 136.503C123.005 136.496 123.103 136.527 123.178 136.589C123.408 136.879 123.538 137.231 123.553 137.599C123.166 137.36 122.669 136.797 122.716 136.578C122.716 136.558 122.728 136.507 122.869 136.492L122.912 136.507H122.904L122.908 136.503Z" fill="#FFB600"/>
<path d="M125.193 136.136L128.08 136.437C128.209 136.445 128.311 136.554 128.315 136.683L128.753 140.749C128.753 141.038 128.514 141.269 128.225 141.269C128.205 141.269 128.186 141.269 128.166 141.269C126.914 141.124 126.316 140.995 124.723 140.839C123.749 140.745 120.725 140.909 119.426 140.526C118.127 140.142 118.444 138.831 119.019 138.878C120.869 139.031 123.08 137.959 124.242 136.613C124.41 136.504 124.993 136.116 125.193 136.144V136.136Z" fill="#263238"/>
<path opacity="0.2" d="M124.402 129.943L124.688 133.792L127.904 133.683L127.626 129.829L124.402 129.943Z" fill="black"/>
<path d="M124.915 54.7121C122.892 57.7012 124.962 60.4635 126.245 69.8613L138.288 70.6478C138.405 65.6319 138.679 61.5903 141.429 51.8873C141.684 51.003 141.175 50.0836 140.291 49.8293C140.177 49.798 140.06 49.7745 139.939 49.7667C138.941 49.7041 137.689 49.661 136.414 49.7119C134.399 49.751 132.388 49.9271 130.392 50.2401C128.694 50.5374 128.275 50.7331 127.196 51.0226C126.566 51.1947 125.713 52.8341 124.919 54.7121H124.915Z" fill="white"/>
<path d="M125.76 70.46C125.76 70.46 117.395 86.5287 118.878 109.151C118.631 114.542 124.203 131.479 124.203 131.479L128.553 131.495C128.553 131.495 128.808 106.928 129.496 100.551C130.615 90.1086 134.931 70.863 134.931 70.863L125.764 70.4561L125.76 70.46Z" fill="#FFB600"/>
<path d="M129.344 132.677L123.213 132.658L122.771 130.787L129.633 130.584L129.344 132.677Z" fill="#FFB600"/>
<path opacity="0.4" d="M129.344 132.677L123.213 132.658L122.771 130.787L129.633 130.584L129.344 132.677Z" fill="white"/>
<path opacity="0.2" d="M129.042 108.455C127.622 107.845 123.76 104.777 124.868 97.2536L129.179 79.1191L129.042 108.455Z" fill="black"/>
<path d="M137.947 103.701C134.332 92.8515 142.975 78.7469 138.429 71.0705L130.909 70.9453C130.909 70.9453 121.272 104.53 132.208 109.1L137.944 103.697L137.947 103.701Z" fill="#FFB600"/>
<path d="M155.033 64.9009C155.499 65.6912 158.124 65.3391 158.124 65.3391L158.875 62.1582L155.608 63.2341L155.029 64.897L155.033 64.9009Z" fill="#DD8C6A"/>
<path d="M158.875 62.1309L158.124 65.3391L160.065 65.8477C160.276 65.879 160.479 65.7499 160.538 65.5426L161.418 63.1951C161.45 63.0816 161.387 62.9603 161.278 62.9251L158.875 62.1309Z" fill="#DD8C6A"/>
<path d="M155.609 63.2342L155.033 64.901C155.033 64.901 150.82 65.214 147.592 64.7719C147.584 64.7719 147.576 64.7719 147.564 64.768C146.434 64.6545 143.57 64.138 142.357 61.9588C140.631 58.8561 138.562 54.9319 138.53 53.6408C138.464 50.9098 139.661 49.1609 140.862 50.006C143.323 51.7236 145.428 57.8898 146.625 60.3859L149.489 61.2936L155.605 63.2382L155.609 63.2342Z" fill="#FFB600"/>
<path d="M155.049 125.333L152.588 127.422L146.907 122.457L149.141 119.797L155.049 125.333Z" fill="#DD8C6A"/>
<path d="M151.583 126.269L153.206 123.858C153.277 123.749 153.418 123.71 153.531 123.768L157.326 125.29C157.581 125.427 157.674 125.744 157.537 125.999C157.53 126.014 157.518 126.034 157.506 126.049C156.79 127.086 156.395 127.556 155.511 128.886C154.971 129.7 153.695 132.45 152.745 133.417C151.794 134.383 150.788 133.491 151.097 133.002C152.099 131.441 152.193 128.984 151.551 127.329C151.532 127.129 151.465 126.433 151.583 126.269Z" fill="#263238"/>
<path opacity="0.2" d="M147.529 118.209L145.154 120.987L148.856 124.16L151.234 121.762L147.529 118.209Z" fill="black"/>
<path d="M128.733 105.489C129.262 111.784 146.825 123.909 146.825 123.909L150.135 120.513C150.135 120.513 137.724 106.064 137.947 103.697L128.733 105.485V105.489Z" fill="#FFB600"/>
<path d="M150.761 119.868L146.496 124.328L144.688 123.405L149.767 118.1L150.761 119.868Z" fill="#FFB600"/>
<path opacity="0.4" d="M150.761 119.868L146.496 124.328L144.688 123.405L149.767 118.1L150.761 119.868Z" fill="white"/>
<path d="M151.688 127.211C151.7 127.183 151.696 127.152 151.68 127.128C151.661 127.105 151.629 127.093 151.598 127.101C151.484 127.136 150.35 127.461 150.232 127.856C150.205 127.946 150.229 128.044 150.291 128.11C150.381 128.232 150.53 128.298 150.679 128.283C150.69 128.275 150.714 128.263 150.714 128.263C151.085 128.193 151.477 127.574 151.684 127.207L151.688 127.211ZM151.449 127.301C151.168 127.805 150.87 128.099 150.663 128.126C150.561 128.134 150.467 128.087 150.409 128.009C150.377 127.981 150.366 127.938 150.373 127.895C150.432 127.68 151.011 127.438 151.457 127.297H151.449V127.301Z" fill="#FFB600"/>
<path d="M151.641 127.258C151.665 127.246 151.684 127.227 151.692 127.199C151.692 127.172 151.68 127.145 151.657 127.133C151.626 127.109 150.925 126.499 150.46 126.558C150.342 126.566 150.233 126.624 150.162 126.722C150.084 126.82 150.08 126.957 150.154 127.058C150.366 127.317 151.121 127.36 151.516 127.282C151.559 127.278 151.602 127.27 151.645 127.262L151.641 127.258ZM150.452 126.699C150.452 126.699 150.467 126.699 150.475 126.699C150.761 126.659 151.195 126.953 151.438 127.145C151.05 127.211 150.413 127.145 150.276 126.961C150.256 126.929 150.237 126.886 150.291 126.808C150.327 126.749 150.385 126.71 150.452 126.699Z" fill="#FFB600"/>
<path d="M138.37 70.0418L138.628 71.2352C138.667 71.3291 138.554 71.4151 138.405 71.4034L125.975 70.6092C125.858 70.6092 125.764 70.5348 125.76 70.4644L125.717 69.2828C125.717 69.2046 125.822 69.138 125.952 69.1498L138.162 69.9284C138.245 69.9284 138.323 69.9714 138.366 70.0418H138.37Z" fill="#263238"/>
<path d="M135.905 71.3523L136.265 71.3758C136.335 71.3758 136.39 71.3484 136.386 71.3054L136.32 69.7717C136.32 69.7286 136.257 69.6895 136.187 69.6856L135.827 69.6582C135.756 69.6582 135.701 69.6856 135.705 69.7325L135.772 71.2623C135.772 71.3054 135.838 71.3484 135.905 71.3523Z" fill="#FFB600"/>
<path d="M126.93 70.7888L127.29 70.8123C127.36 70.8123 127.415 70.7849 127.411 70.7419L127.344 69.2121C127.344 69.1651 127.282 69.126 127.215 69.1221L126.855 69.0986C126.785 69.0986 126.73 69.126 126.734 69.1691L126.801 70.6988C126.801 70.7458 126.859 70.7849 126.93 70.7888Z" fill="#FFB600"/>
<path d="M131.042 71.0388L131.401 71.0623C131.472 71.0623 131.527 71.0349 131.523 70.9919L131.456 69.4621C131.456 69.4151 131.394 69.376 131.327 69.3721L130.967 69.3486C130.897 69.3486 130.842 69.376 130.846 69.4191L130.912 70.9488C130.912 70.9958 130.971 71.0349 131.042 71.0388Z" fill="#FFB600"/>
<path d="M136.261 43.1201C135.757 45.0568 135.158 48.5781 136.422 49.7323C136.422 49.7323 135.764 51.712 132.169 52.025C128.198 52.3732 130.4 50.2605 130.4 50.2605C132.595 49.5445 132.638 47.9951 132.36 46.5436L136.261 43.1201Z" fill="#DD8C6A"/>
<path d="M136.41 49.7126C134.395 49.7439 132.705 49.826 130.713 50.143L128.675 50.6125C128.135 51.5475 128.088 53.7464 130.322 54.2628C130.322 54.2628 134.896 55.1901 137.294 51.168C137.685 50.5107 137.173 49.6813 136.41 49.7087V49.7126Z" fill="#DD8C6A"/>
<path opacity="0.2" d="M134.669 44.5166L132.36 46.5433C132.431 46.8837 132.47 47.228 132.478 47.5762C133.311 47.3884 134.688 46.5668 134.829 45.706C134.857 45.303 134.802 44.9 134.669 44.5166Z" fill="black"/>
<path d="M134.062 34.5473C133.741 35.232 133.28 35.7798 132.618 36.085C132.231 36.261 131.057 36.7736 130.69 37.1805C130.075 37.8534 129.704 34.8995 131.288 34.117C132.873 33.3345 134.856 32.8532 134.062 34.5473Z" fill="#263238"/>
<path d="M132.501 46.7743C132.11 47.06 131.582 47.1421 131.124 46.9974C130.662 46.8526 130.283 46.477 130.126 46.0231C129.488 46.0857 128.929 45.9332 128.518 45.4402C128.107 44.9472 127.963 44.2469 128.143 43.6326C128.35 42.9283 128.921 42.4041 129.485 41.9385C130.024 43.6874 131.022 45.2954 132.364 46.5396L132.501 46.7743Z" fill="#263238"/>
<path d="M138.82 40.7877C137.665 43.7769 137.243 45.068 135.193 46.1439C132.129 47.7637 128.694 45.694 128.948 42.4231C129.16 39.477 131.01 35.0872 134.391 34.8172C136.793 34.6098 138.91 36.39 139.117 38.7962C139.176 39.4731 139.074 40.1578 138.824 40.7916L138.82 40.7877Z" fill="#DD8C6A"/>
<path d="M131.578 39.8564C131.202 40.3729 130.756 40.8346 130.255 41.2297C130.467 41.484 130.78 41.6327 131.108 41.6366L131.578 39.8604V39.8564Z" fill="#DE5753"/>
<path d="M139 43.3704C138.617 43.8555 138.057 44.1724 137.443 44.2507C136.625 44.3407 136.363 43.5817 136.684 42.8813C136.985 42.2514 137.771 41.4415 138.538 41.6763C139.09 41.8562 139.391 42.447 139.215 42.9987C139.172 43.1356 139.098 43.2647 139 43.3743V43.3704Z" fill="#DD8C6A"/>
<path d="M135.091 39.3131C135.025 39.3131 134.966 39.2779 134.942 39.2153C134.688 38.5385 133.812 38.3193 133.804 38.3154C133.722 38.2959 133.675 38.2137 133.694 38.1315C133.714 38.0494 133.796 38.0024 133.878 38.022C133.921 38.0298 134.919 38.2998 135.228 39.1175C135.259 39.1958 135.22 39.2818 135.142 39.3131H135.091Z" fill="#263238"/>
<path d="M130.49 37.6967C130.435 37.6967 130.388 37.6693 130.361 37.6224C130.318 37.552 130.341 37.4581 130.412 37.415C130.834 37.1607 131.355 37.1294 131.805 37.325C131.879 37.3642 131.91 37.4542 131.871 37.5324C131.832 37.6067 131.742 37.638 131.664 37.5989C131.304 37.4463 130.893 37.4776 130.564 37.6811C130.541 37.6928 130.514 37.6967 130.486 37.7006L130.49 37.6967Z" fill="#263238"/>
<path d="M130.56 38.9252C130.388 38.8822 130.196 39.0661 130.134 39.3282C130.071 39.5903 130.161 39.8446 130.329 39.8838C130.502 39.9229 130.693 39.7429 130.756 39.4808C130.822 39.2265 130.728 38.9682 130.56 38.9252Z" fill="#263238"/>
<path d="M130.044 38.6279L130.635 38.9644C130.251 39.1992 130.044 38.6279 130.044 38.6279Z" fill="#263238"/>
<path d="M133.538 39.7309C133.366 39.6878 133.174 39.8717 133.111 40.1339C133.049 40.396 133.139 40.6503 133.307 40.6894C133.479 40.7286 133.671 40.5486 133.733 40.2864C133.8 40.0321 133.706 39.7739 133.538 39.7309Z" fill="#263238"/>
<path d="M133.021 39.4375L133.612 39.774C133.229 40.0087 133.021 39.4375 133.021 39.4375Z" fill="#263238"/>
<path d="M130.709 42.791C130.787 43.2957 130.748 44.1878 130.748 44.1878C130.83 44.2073 130.909 44.223 130.991 44.2386C132.086 44.4538 132.665 44.1917 132.974 43.8357C133.143 43.64 133.229 43.4131 133.276 43.2253C133.33 43.0062 133.319 42.838 133.319 42.838C132.669 43.0688 131.636 42.9475 131.085 42.8575C130.854 42.8223 130.709 42.791 130.709 42.791Z" fill="#263238"/>
<path d="M131.084 42.8575L131.108 43.2683C132.141 43.4678 132.892 43.4717 133.275 43.2213C133.33 43.0022 133.319 42.834 133.319 42.834C132.669 43.0648 131.636 42.9435 131.084 42.8535V42.8575Z" fill="white"/>
<path d="M130.991 44.2347C132.086 44.4499 132.665 44.1878 132.974 43.8317C132.599 43.7731 132.137 43.7418 131.711 43.8317C131.382 43.8983 131.155 44.0587 130.991 44.2308V44.2347Z" fill="#DE5753"/>
<path d="M134.336 33.5617C135.033 32.92 136.152 32.9435 137.001 33.3621C137.85 33.7808 138.491 34.5163 139.106 35.2362C140.17 36.4804 141.246 37.7754 141.754 39.3326C142.263 40.8898 142.071 42.7874 140.862 43.8907C140.506 44.2154 140.084 44.458 139.743 44.7945C139.403 45.1349 139.145 45.6161 139.258 46.0856C139.368 46.5512 139.986 46.8799 140.362 46.5864C139.829 47.2281 138.789 47.3728 138.1 46.8955C137.595 47.4002 136.778 47.5606 136.116 47.2828C135.459 47.0051 134 46.0739 134.313 44.6575C135.087 44.5284 137.224 42.7835 137.365 41.7545C137.505 40.7255 137.337 38.6636 136.891 37.7246C136.774 38.1041 136.261 38.0571 135.917 37.8576C135.573 37.6581 135.381 37.2825 135.209 36.9264C135.033 36.5704 134.782 36.273 134.489 36.007C133.522 35.1267 132.896 36.183 132.619 36.0813C132.83 35.0836 133.593 34.2464 134.34 33.5577L134.336 33.5617Z" fill="#263238"/>
<path opacity="0.2" d="M134.853 72.2334C134.853 72.2334 135.256 73.8806 135.322 75.8016C135.412 78.2978 135.193 78.6656 135.212 78.9981C135.968 76.6663 135.772 74.4244 134.853 72.2334Z" fill="black"/>
<path opacity="0.2" d="M127.908 71.8145C127.051 73.9976 126.198 76.1808 125.341 78.364C125.584 75.9617 126.492 73.8059 127.908 71.8145Z" fill="black"/>
<path d="M138.26 53.7887C138.26 53.7887 141.316 59.9783 142.016 66.7391C142.654 72.9052 142.349 73.6916 142.349 73.6916C142.349 73.6916 143.585 72.5101 143.296 66.0974C143.147 62.854 142.654 58.4798 141.105 52.8066C141.105 52.8066 140.338 52.9866 138.256 53.7887H138.26Z" fill="#FFB600"/>
<path d="M138.323 53.9886L136.41 49.7123L135.905 48.8906C135.905 48.8906 138.612 49.2662 140.287 49.8296C140.287 49.8296 139.782 50.6513 139.148 52.5566C138.996 53.0144 138.839 54.0238 138.323 53.9925V53.9886Z" fill="#FFB600"/>
<path d="M125.216 54.0198C125.216 54.0198 128.725 50.2129 132.211 49C132.211 49 129.876 49.1722 126.859 51.058C126.859 51.058 125.443 52.5917 125.216 54.0198Z" fill="#FFB600"/>
</g>
<defs>
<clipPath id="clip0_2761_5546">
<rect width="195.626" height="144" fill="white"/>
</clipPath>
</defs>
</svg>
