<svg width="194" height="144" viewBox="0 0 194 144" fill="none" xmlns="http://www.w3.org/2000/svg">
<g clip-path="url(#clip0_2924_7692)">
<path d="M193.574 126.547H0V126.643H193.574V126.547Z" fill="#EBEBEB"/>
<path d="M174.178 132.766H161.355V132.862H174.178V132.766Z" fill="#EBEBEB"/>
<path d="M128.231 133.816H124.867V133.913H128.231V133.816Z" fill="#EBEBEB"/>
<path d="M160.968 129.179H153.539V129.275H160.968V129.179Z" fill="#EBEBEB"/>
<path d="M37.0305 129.828H20.3096V129.925H37.0305V129.828Z" fill="#EBEBEB"/>
<path d="M42.9306 129.828H40.48V129.925H42.9306V129.828Z" fill="#EBEBEB"/>
<path d="M87.1664 131.459H50.8984V131.556H87.1664V131.459Z" fill="#EBEBEB"/>
<path d="M91.7579 109.311H16.9997C15.7802 109.311 14.7891 108.322 14.7891 107.104V2.2067C14.7891 0.989346 15.7802 0 16.9997 0H91.7579C92.9774 0 93.9685 0.989346 93.9685 2.2067V107.104C93.9685 108.322 92.9774 109.311 91.7579 109.311ZM16.9997 0.0966158C15.8344 0.0966158 14.8858 1.04345 14.8858 2.2067V107.104C14.8858 108.268 15.8344 109.214 16.9997 109.214H91.7579C92.9232 109.214 93.8717 108.268 93.8717 107.104V2.2067C93.8717 1.04345 92.9232 0.0966158 91.7579 0.0966158H16.9997Z" fill="#EBEBEB"/>
<path d="M175.498 109.311H100.739C99.5199 109.311 98.5288 108.322 98.5288 107.104V2.2067C98.5288 0.989346 99.5199 0 100.739 0H175.498C176.717 0 177.708 0.989346 177.708 2.2067V107.104C177.708 108.322 176.717 109.311 175.498 109.311ZM100.739 0.0966158C99.5741 0.0966158 98.6256 1.04345 98.6256 2.2067V107.104C98.6256 108.268 99.5741 109.214 100.739 109.214H175.498C176.663 109.214 177.611 108.268 177.611 107.104V2.2067C177.611 1.04345 176.663 0.0966158 175.498 0.0966158H100.739Z" fill="#EBEBEB"/>
<path d="M93.8217 45.958H38.8545V126.408H93.8217V45.958Z" fill="#F0F0F0"/>
<path d="M91.8781 48.4932H40.7939V63.3527H91.8781V48.4932Z" fill="#E0E0E0"/>
<path d="M43.6976 50.8965H40.7939V63.3483H43.6976V50.8965Z" fill="#EBEBEB"/>
<path d="M57.7317 50.8965H54.8281V63.3483H57.7317V50.8965Z" fill="#EBEBEB"/>
<path d="M73.6583 50.5838L70.7969 51.0762L72.9158 63.3471L75.7772 62.8547L73.6583 50.5838Z" fill="#EBEBEB"/>
<path d="M47.2942 52.5391H44.3906V63.3523H47.2942V52.5391Z" fill="#EBEBEB"/>
<path d="M53.9646 52.5391H51.061V63.3523H53.9646V52.5391Z" fill="#EBEBEB"/>
<path d="M70.8016 52.5391H67.8979V63.3523H70.8016V52.5391Z" fill="#EBEBEB"/>
<path d="M61.5449 52.1641L58.7104 52.793L61.0605 63.3487L63.895 62.7198L61.5449 52.1641Z" fill="#EBEBEB"/>
<path d="M49.8029 50.2783H48.3511V63.3485H49.8029V50.2783Z" fill="#EBEBEB"/>
<path d="M67.0617 50.2783H65.6099V63.3485H67.0617V50.2783Z" fill="#EBEBEB"/>
<path d="M40.7977 80.5615H91.8818V65.702H40.7977V80.5615Z" fill="#E0E0E0"/>
<path d="M88.9743 80.5576H91.8779V68.1058H88.9743V80.5576Z" fill="#EBEBEB"/>
<path d="M74.944 80.5576H77.8477V68.1058H74.944V80.5576Z" fill="#EBEBEB"/>
<path d="M56.8959 80.0672L59.7573 80.5596L61.8762 68.2887L59.0148 67.7963L56.8959 80.0672Z" fill="#EBEBEB"/>
<path d="M85.3776 80.5615H88.2812V69.7483H85.3776V80.5615Z" fill="#EBEBEB"/>
<path d="M78.7111 80.5615H81.6147V69.7483H78.7111V80.5615Z" fill="#EBEBEB"/>
<path d="M61.8742 80.5615H64.7778V69.7483H61.8742V80.5615Z" fill="#EBEBEB"/>
<path d="M68.7891 79.9307L71.6235 80.5596L73.9736 70.0039L71.1392 69.3751L68.7891 79.9307Z" fill="#EBEBEB"/>
<path d="M82.869 80.5576H84.3208V67.4874H82.869V80.5576Z" fill="#EBEBEB"/>
<path d="M65.6141 80.5576H67.0659V67.4874H65.6141V80.5576Z" fill="#EBEBEB"/>
<path d="M43.6976 68.1094H40.7939V80.5612H43.6976V68.1094Z" fill="#EBEBEB"/>
<path d="M47.2942 69.748H44.3906V80.5613H47.2942V69.748Z" fill="#EBEBEB"/>
<path d="M53.9646 69.748H51.061V80.5613H53.9646V69.748Z" fill="#EBEBEB"/>
<path d="M49.8029 67.4912H48.3511V80.5614H49.8029V67.4912Z" fill="#EBEBEB"/>
<path d="M91.8781 82.915H40.7939V97.7745H91.8781V82.915Z" fill="#E0E0E0"/>
<path d="M73.0203 85.3184H70.1167V97.7702H73.0203V85.3184Z" fill="#EBEBEB"/>
<path d="M88.9488 85.0086L86.0874 85.501L88.2063 97.7719L91.0677 97.2795L88.9488 85.0086Z" fill="#EBEBEB"/>
<path d="M62.5828 86.9609H59.6792V97.7742H62.5828V86.9609Z" fill="#EBEBEB"/>
<path d="M69.2532 86.9609H66.3496V97.7742H69.2532V86.9609Z" fill="#EBEBEB"/>
<path d="M86.0901 86.9609H83.1865V97.7742H86.0901V86.9609Z" fill="#EBEBEB"/>
<path d="M76.8349 86.586L74.0005 87.2148L76.3506 97.7705L79.185 97.1417L76.8349 86.586Z" fill="#EBEBEB"/>
<path d="M65.0915 84.7002H63.6396V97.7704H65.0915V84.7002Z" fill="#EBEBEB"/>
<path d="M82.3502 84.7002H80.8984V97.7704H82.3502V84.7002Z" fill="#EBEBEB"/>
<path d="M55.5665 85.0076L52.7051 85.5L54.824 97.7709L57.6854 97.2785L55.5665 85.0076Z" fill="#EBEBEB"/>
<path d="M52.7029 86.9609H49.7993V97.7742H52.7029V86.9609Z" fill="#EBEBEB"/>
<path d="M43.4487 86.586L40.6143 87.2148L42.9644 97.7705L45.7988 97.1417L43.4487 86.586Z" fill="#EBEBEB"/>
<path d="M48.9669 84.7002H47.5151V97.7704H48.9669V84.7002Z" fill="#EBEBEB"/>
<path d="M29.3694 126.62H38.8545L38.8545 45.9614H29.3694L29.3694 126.62Z" fill="#E0E0E0"/>
<path d="M125.994 124.515H117.937L122.172 90.077C122.35 88.6201 123.682 87.4375 125.142 87.4375H160.299L155.146 124.515H125.997H125.994Z" fill="#F5F5F5"/>
<path d="M151.545 124.515H159.602L163.837 90.077C164.015 88.6201 162.978 87.4375 161.518 87.4375H158.75C157.291 87.4375 155.959 88.6201 155.781 90.077L151.545 124.515Z" fill="#F0F0F0"/>
<path d="M148.58 124.476L150.039 107.819C150.105 107.077 150.682 106.478 151.421 106.382L152.021 106.304C153.016 106.177 153.791 105.377 153.876 104.376L154.143 101.338C154.251 100.094 153.268 99.0234 152.017 99.0234H165.482C166.733 99.0234 167.716 100.094 167.608 101.338L167.341 104.376C167.252 105.373 166.481 106.177 165.486 106.304L164.886 106.382C164.143 106.474 163.57 107.073 163.504 107.819L162.045 124.476C161.94 125.689 160.918 126.621 159.698 126.621H146.233C147.453 126.621 148.475 125.689 148.58 124.476Z" fill="#E6E6E6"/>
<path d="M111.522 103.649C111.294 101.033 109.098 99.0273 106.47 99.0273H118.193C120.821 99.0273 123.016 101.033 123.245 103.649L124.402 116.851H112.68L111.522 103.649Z" fill="#E6E6E6"/>
<path d="M101.263 99.0273H106.47C109.098 99.0273 111.294 101.033 111.522 103.649L112.68 116.851H140.601L141.758 103.649C141.987 101.033 144.182 99.0273 146.81 99.0273H152.018C153.268 99.0273 154.251 100.098 154.143 101.342L153.876 104.38C153.787 105.377 153.016 106.181 152.021 106.308L151.421 106.386C150.678 106.478 150.105 107.077 150.039 107.823L148.58 124.48C148.475 125.693 147.453 126.625 146.234 126.625H107.05C105.831 126.625 104.809 125.693 104.704 124.48L103.245 107.823C103.179 107.081 102.602 106.482 101.863 106.386L101.263 106.308C100.268 106.181 99.4933 105.381 99.4081 104.38L99.141 101.342C99.0326 100.098 100.016 99.0273 101.266 99.0273H101.263Z" fill="#F0F0F0"/>
<path d="M39.5509 41.9388C39.5509 41.9388 39.1212 39.1176 41.1847 37.3051C43.2482 35.4965 43.0662 34.4183 42.4778 34.2791C41.8893 34.14 41.3434 35.9486 40.4375 36.4472C40.4375 36.4472 40.4104 33.8695 41.3279 32.9188C42.2493 31.9681 42.7333 29.5218 41.8544 29.4793C40.9795 29.4367 40.8866 30.9324 40.7046 31.9951C40.5227 33.0579 39.547 34.5497 39.547 34.5497C39.547 34.5497 39.3573 32.2425 38.7611 31.2918C38.1649 30.3411 39.7522 28.1691 39.1405 27.2184C38.5289 26.2677 37.441 28.0764 37.53 30.1131C37.6191 32.1497 38.9818 34.3216 38.6644 36.4472C38.6644 36.4472 38.0643 34.9554 37.5261 34.8202C36.988 34.6849 36.4421 33.6956 36.0821 33.3323C35.7182 32.9652 35.2652 34.2327 36.0821 35.4115C36.899 36.5902 38.9818 39.736 38.6644 42.2789L39.547 41.9427L39.5509 41.9388Z" fill="#E6E6E6"/>
<path d="M40.7818 40.6562L41.4555 44.888C41.6645 46.1943 40.6541 47.3768 39.3261 47.3768H38.6061C37.282 47.3768 36.2716 46.1943 36.4767 44.888L37.1504 40.6562H40.7741H40.7818Z" fill="#E6E6E6"/>
<path d="M81.3201 46.5459H83.4224V37.522H81.3201V46.5459Z" fill="#EBEBEB"/>
<path d="M71.1536 46.5459H73.2559V37.522H71.1536V46.5459Z" fill="#EBEBEB"/>
<path d="M58.0758 46.1875L60.1475 46.5439L61.683 37.6512L59.6114 37.2947L58.0758 46.1875Z" fill="#EBEBEB"/>
<path d="M78.7147 46.5459H80.8169V38.7123H78.7147V46.5459Z" fill="#EBEBEB"/>
<path d="M73.8831 46.5459H75.9854V38.7123H73.8831V46.5459Z" fill="#EBEBEB"/>
<path d="M61.6805 46.5459H63.7827V38.7123H61.6805V46.5459Z" fill="#EBEBEB"/>
<path d="M66.6935 46.0877L68.7456 46.543L70.4481 38.8959L68.396 38.4407L66.6935 46.0877Z" fill="#EBEBEB"/>
<path d="M76.8952 46.5459H77.9482V37.0737H76.8952V46.5459Z" fill="#EBEBEB"/>
<path d="M64.3864 46.5459H65.4395V37.0737H64.3864V46.5459Z" fill="#EBEBEB"/>
<path d="M56.8913 39.3848H46.6436V46.4454H56.8913V39.3848Z" fill="#EBEBEB"/>
<path d="M92.0367 42.2754H83.4536V47.5467H92.0367V42.2754Z" fill="#EBEBEB"/>
<path d="M90.0313 37.6416H85.7378V42.913H90.0313V37.6416Z" fill="#EBEBEB"/>
<path d="M161.754 30.666H151.545V73.1306H161.754V30.666Z" fill="#E0E0E0"/>
<path d="M122.478 73.2422H160.659V30.6655L122.478 30.6655V73.2422Z" fill="#E0E0E0"/>
<path d="M121.247 73.2422H160.86V30.6655L121.247 30.6655V73.2422Z" fill="#F0F0F0"/>
<path d="M122.943 71.291H159.234V32.0264L122.943 32.0264V71.291Z" fill="white"/>
<path d="M122.939 71.291H123.613V32.0264H122.939V71.291Z" fill="#E0E0E0"/>
<path d="M123.5 60.2614V61.3203H159.327V60.2614H123.5Z" fill="#E0E0E0"/>
<path d="M122.939 60.2617L159.799 60.2617V58.484L122.939 58.484V60.2617Z" fill="#F0F0F0"/>
<path d="M96.7867 144C138.243 144 171.851 142.041 171.851 139.625C171.851 137.209 138.243 135.25 96.7867 135.25C55.33 135.25 21.7227 137.209 21.7227 139.625C21.7227 142.041 55.33 144 96.7867 144Z" fill="#F5F5F5"/>
<path d="M124.642 37.8232H55.3774C53.8122 37.8232 52.5435 39.0898 52.5435 40.6522V122.064C52.5435 123.627 53.8122 124.893 55.3774 124.893H124.642C126.207 124.893 127.476 123.627 127.476 122.064V40.6522C127.476 39.0898 126.207 37.8232 124.642 37.8232Z" fill="#FFB600"/>
<path opacity="0.6" d="M124.642 37.8232H55.3774C53.8122 37.8232 52.5435 39.0898 52.5435 40.6522V122.064C52.5435 123.627 53.8122 124.893 55.3774 124.893H124.642C126.207 124.893 127.476 123.627 127.476 122.064V40.6522C127.476 39.0898 126.207 37.8232 124.642 37.8232Z" fill="white"/>
<path d="M115.339 77.7529H64.6846V86.4097H115.339V77.7529Z" fill="white"/>
<g opacity="0.4">
<path d="M69.2142 82.9269V83.1549H67.4565V80.6738H69.16V80.9018H67.7198V81.783H69.0051V82.0071H67.7198V82.9269H69.2142Z" fill="#263238"/>
<path d="M69.5664 82.0811H70.4956V82.3013H69.5664V82.0811Z" fill="#263238"/>
<path d="M74.1428 82.0735V83.1556H73.8912V82.1005C73.8912 81.7063 73.6937 81.5054 73.3569 81.5054C72.9736 81.5054 72.7336 81.7527 72.7336 82.1778V83.1556H72.4819V82.1005C72.4819 81.7063 72.2845 81.5054 71.9438 81.5054C71.5644 81.5054 71.3205 81.7527 71.3205 82.1778V83.1556H71.0688V81.2928H71.3089V81.6329C71.4405 81.4087 71.6805 81.2773 71.9941 81.2773C72.3077 81.2773 72.5439 81.4087 72.6561 81.6715C72.7917 81.4319 73.0588 81.2773 73.3956 81.2773C73.8486 81.2773 74.1467 81.5401 74.1467 82.0735H74.1428Z" fill="#263238"/>
<path d="M76.2408 81.9962V83.1517H76.0008V82.8618C75.8885 83.0551 75.6679 83.171 75.3581 83.171C74.9361 83.171 74.6768 82.9507 74.6768 82.63C74.6768 82.344 74.8626 82.1005 75.3969 82.1005H75.9892V81.9884C75.9892 81.6677 75.8072 81.4976 75.4588 81.4976C75.2188 81.4976 74.9903 81.5826 74.8394 81.7179L74.7271 81.5285C74.9168 81.3701 75.1917 81.2773 75.4859 81.2773C75.9698 81.2773 76.2408 81.5169 76.2408 82V81.9962ZM75.9892 82.5913V82.286H75.4046C75.0407 82.286 74.9245 82.429 74.9245 82.6184C74.9245 82.8348 75.0987 82.9701 75.3969 82.9701C75.695 82.9701 75.8885 82.8348 75.9892 82.5913Z" fill="#263238"/>
<path d="M76.8682 80.7012C76.8682 80.6046 76.9495 80.5234 77.054 80.5234C77.1585 80.5234 77.2398 80.6007 77.2398 80.6973C77.2398 80.8017 77.1624 80.8828 77.054 80.8828C76.9456 80.8828 76.8682 80.8017 76.8682 80.7012ZM76.9262 81.2886H77.1779V83.1514H76.9262V81.2886Z" fill="#263238"/>
<path d="M77.8784 80.5234H78.1301V83.1514H77.8784V80.5234Z" fill="#263238"/>
</g>
<path d="M115.339 89.582H64.6846V98.2388H115.339V89.582Z" fill="white"/>
<g opacity="0.4">
<path d="M69.4 93.361C69.4 93.8904 69.0167 94.2073 68.3857 94.2073H67.7198V94.9918H67.4565V92.5107H68.3857C69.0167 92.5107 69.4 92.8315 69.4 93.361ZM69.1368 93.361C69.1368 92.9629 68.8735 92.7388 68.3779 92.7388H67.7159V93.9793H68.3779C68.8735 93.9793 69.1368 93.7513 69.1368 93.361Z" fill="#263238"/>
<path d="M71.3087 93.837V94.9925H71.0687V94.7027C70.9564 94.8959 70.7357 95.0118 70.426 95.0118C70.004 95.0118 69.7446 94.7915 69.7446 94.4708C69.7446 94.1848 69.9305 93.9413 70.4647 93.9413H71.0571V93.8293C71.0571 93.5085 70.8751 93.3385 70.5267 93.3385C70.2866 93.3385 70.0582 93.4235 69.9034 93.5587L69.7911 93.3694C69.9808 93.2109 70.2557 93.1182 70.5499 93.1182C71.0338 93.1182 71.3048 93.3578 71.3048 93.8409L71.3087 93.837ZM71.0571 94.4321V94.1268H70.4725C70.1085 94.1268 69.9924 94.2698 69.9924 94.4592C69.9924 94.6756 70.1666 94.8109 70.4647 94.8109C70.7628 94.8109 70.9564 94.6756 71.0571 94.4321Z" fill="#263238"/>
<path d="M71.7344 94.7799L71.8467 94.5828C71.9976 94.6988 72.2493 94.7915 72.5087 94.7915C72.8648 94.7915 73.0081 94.6717 73.0081 94.4862C73.0081 93.9993 71.7963 94.3819 71.7963 93.6476C71.7963 93.3423 72.0596 93.1143 72.5358 93.1143C72.7758 93.1143 73.0391 93.18 73.1978 93.2882L73.0894 93.4891C72.9268 93.3771 72.7293 93.3307 72.5396 93.3307C72.2028 93.3307 72.0518 93.4621 72.0518 93.6398C72.0518 94.1422 73.2636 93.7635 73.2636 94.4785C73.2636 94.7992 72.981 95.0118 72.4932 95.0118C72.1835 95.0118 71.8854 94.9113 71.7344 94.7799Z" fill="#263238"/>
<path d="M73.4688 94.7799L73.581 94.5828C73.732 94.6988 73.9837 94.7915 74.243 94.7915C74.5992 94.7915 74.7425 94.6717 74.7425 94.4862C74.7425 93.9993 73.5307 94.3819 73.5307 93.6476C73.5307 93.3423 73.794 93.1143 74.2701 93.1143C74.5102 93.1143 74.7734 93.18 74.9322 93.2882L74.8238 93.4891C74.6612 93.3771 74.4637 93.3307 74.274 93.3307C73.9372 93.3307 73.7862 93.4621 73.7862 93.6398C73.7862 94.1422 74.998 93.7635 74.998 94.4785C74.998 94.7992 74.7154 95.0118 74.2276 95.0118C73.9178 95.0118 73.6197 94.9113 73.4688 94.7799Z" fill="#263238"/>
<path d="M78.1688 93.1289L77.4642 94.9917H77.228L76.6396 93.4651L76.0511 94.9917H75.815L75.1104 93.1289H75.3504L75.935 94.7134L76.5351 93.1289H76.7519L77.3481 94.7134L77.9404 93.1289H78.1727H78.1688Z" fill="#263238"/>
<path d="M78.3081 94.0611C78.3081 93.5084 78.7146 93.1143 79.2605 93.1143C79.8064 93.1143 80.209 93.5084 80.209 94.0611C80.209 94.6137 79.8064 95.0118 79.2605 95.0118C78.7146 95.0118 78.3081 94.6137 78.3081 94.0611ZM79.9535 94.0611C79.9535 93.6244 79.6592 93.3345 79.2605 93.3345C78.8617 93.3345 78.5636 93.6244 78.5636 94.0611C78.5636 94.4978 78.8617 94.7876 79.2605 94.7876C79.6592 94.7876 79.9535 94.4978 79.9535 94.0611Z" fill="#263238"/>
<path d="M81.6649 93.1143V93.3577C81.6455 93.3577 81.6223 93.3577 81.6029 93.3577C81.2119 93.3577 80.9758 93.6051 80.9758 94.0456V94.9963H80.7241V93.1336H80.9642V93.4969C81.0803 93.2495 81.3203 93.1181 81.6649 93.1181V93.1143Z" fill="#263238"/>
<path d="M83.8058 92.3603V94.9883H83.5658V94.6211C83.4148 94.8723 83.1554 95.0076 82.8457 95.0076C82.3114 95.0076 81.9165 94.6211 81.9165 94.0569C81.9165 93.4927 82.3153 93.11 82.8457 93.11C83.1438 93.11 83.3993 93.2376 83.5541 93.4772V92.3564H83.8058V92.3603ZM83.558 94.0569C83.558 93.6202 83.2599 93.3303 82.865 93.3303C82.4701 93.3303 82.1682 93.6202 82.1682 94.0569C82.1682 94.4936 82.4663 94.7834 82.865 94.7834C83.2638 94.7834 83.558 94.4936 83.558 94.0569Z" fill="#263238"/>
</g>
<path opacity="0.2" d="M115.339 107.069H64.6846V115.726H115.339V107.069Z" fill="#24292F"/>
<g opacity="0.5">
<path d="M77.0037 103.089H76.1752L75.9971 103.483H75.8345L76.512 102.003H76.6668L77.3443 103.483H77.1779L76.9998 103.089H77.0037ZM76.9456 102.961L76.5894 102.165L76.2332 102.961H76.9456Z" fill="#24292F"/>
<path d="M77.561 101.914H77.712V103.483H77.561V101.914Z" fill="#24292F"/>
<path d="M78.6956 102.366V102.513C78.6956 102.513 78.6685 102.513 78.6608 102.513C78.4285 102.513 78.2853 102.66 78.2853 102.923V103.491H78.1343V102.378H78.2775V102.594C78.3472 102.447 78.4905 102.366 78.6956 102.366Z" fill="#24292F"/>
<path d="M79.9268 102.977H78.9938C79.0092 103.209 79.1873 103.363 79.4312 103.363C79.5667 103.363 79.6868 103.313 79.7719 103.216L79.8571 103.313C79.7564 103.433 79.6016 103.495 79.4274 103.495C79.0789 103.495 78.8428 103.259 78.8428 102.927C78.8428 102.594 79.0751 102.362 79.3887 102.362C79.7022 102.362 79.9307 102.594 79.9307 102.927C79.9307 102.938 79.9307 102.957 79.9307 102.973L79.9268 102.977ZM78.9938 102.865H79.7835C79.7642 102.648 79.6055 102.494 79.3887 102.494C79.1719 102.494 79.0131 102.644 78.9938 102.865Z" fill="#24292F"/>
<path d="M81.0453 102.795V103.487H80.9021V103.313C80.8324 103.429 80.7008 103.499 80.5188 103.499C80.2672 103.499 80.1123 103.367 80.1123 103.174C80.1123 103.004 80.2207 102.857 80.542 102.857H80.8982V102.791C80.8982 102.602 80.7898 102.498 80.5808 102.498C80.4375 102.498 80.302 102.548 80.2091 102.629L80.1394 102.517C80.2517 102.42 80.4182 102.366 80.5924 102.366C80.8827 102.366 81.0453 102.509 81.0453 102.799V102.795ZM80.8943 103.151V102.969H80.5459C80.3291 102.969 80.2594 103.054 80.2594 103.17C80.2594 103.298 80.364 103.379 80.542 103.379C80.7201 103.379 80.8363 103.298 80.8982 103.151H80.8943Z" fill="#24292F"/>
<path d="M82.4781 101.914V103.483H82.3349V103.263C82.242 103.414 82.0871 103.495 81.9051 103.495C81.5877 103.495 81.3477 103.263 81.3477 102.927C81.3477 102.59 81.5838 102.362 81.9051 102.362C82.0832 102.362 82.2342 102.44 82.331 102.583V101.914H82.482H82.4781ZM82.331 102.927C82.331 102.668 82.1529 102.494 81.9168 102.494C81.6806 102.494 81.5025 102.668 81.5025 102.927C81.5025 103.186 81.6806 103.359 81.9168 103.359C82.1529 103.359 82.331 103.186 82.331 102.927Z" fill="#24292F"/>
<path d="M83.8369 102.374L83.2794 103.622C83.1865 103.839 83.0665 103.912 82.9077 103.912C82.8032 103.912 82.7025 103.877 82.6367 103.812L82.7064 103.7C82.7606 103.754 82.8303 103.785 82.9116 103.785C83.0123 103.785 83.0781 103.738 83.1439 103.599L83.1942 103.491L82.6948 102.378H82.8535L83.2755 103.325L83.6936 102.378H83.8407L83.8369 102.374Z" fill="#24292F"/>
<path d="M85.4472 102.795V103.487H85.3039V103.313C85.2343 103.429 85.1026 103.499 84.9207 103.499C84.669 103.499 84.5142 103.367 84.5142 103.174C84.5142 103.004 84.6226 102.857 84.9439 102.857H85.2962V102.791C85.2962 102.602 85.1878 102.498 84.9787 102.498C84.8355 102.498 84.7 102.548 84.6071 102.629L84.5374 102.517C84.6497 102.42 84.8161 102.366 84.9903 102.366C85.2807 102.366 85.4433 102.509 85.4433 102.799L85.4472 102.795ZM85.2962 103.151V102.969H84.9478C84.731 102.969 84.6613 103.054 84.6613 103.17C84.6613 103.298 84.7658 103.379 84.9439 103.379C85.122 103.379 85.2381 103.298 85.2962 103.151Z" fill="#24292F"/>
<path d="M88.254 102.842V103.487H88.103V102.857C88.103 102.621 87.983 102.501 87.7817 102.501C87.5533 102.501 87.41 102.648 87.41 102.903V103.487H87.259V102.857C87.259 102.621 87.139 102.501 86.9377 102.501C86.7093 102.501 86.566 102.648 86.566 102.903V103.487H86.415V102.374H86.5583V102.579C86.6357 102.447 86.7828 102.366 86.9687 102.366C87.1545 102.366 87.2977 102.443 87.3635 102.602C87.4449 102.459 87.6036 102.366 87.8049 102.366C88.0759 102.366 88.254 102.525 88.254 102.842Z" fill="#24292F"/>
<path d="M89.6402 102.977H88.7071C88.7226 103.209 88.9007 103.363 89.1446 103.363C89.2801 103.363 89.4001 103.313 89.4853 103.216L89.5705 103.313C89.4698 103.433 89.315 103.495 89.1407 103.495C88.7923 103.495 88.5562 103.259 88.5562 102.927C88.5562 102.594 88.7884 102.362 89.102 102.362C89.4156 102.362 89.644 102.594 89.644 102.927C89.644 102.938 89.644 102.957 89.644 102.973L89.6402 102.977ZM88.7071 102.865H89.4969C89.4776 102.648 89.3188 102.494 89.102 102.494C88.8852 102.494 88.7265 102.644 88.7071 102.865Z" fill="#24292F"/>
<path d="M91.7926 102.842V103.487H91.6416V102.857C91.6416 102.621 91.5216 102.501 91.3202 102.501C91.0918 102.501 90.9486 102.648 90.9486 102.903V103.487H90.7976V102.857C90.7976 102.621 90.6776 102.501 90.4763 102.501C90.2478 102.501 90.1046 102.648 90.1046 102.903V103.487H89.9536V102.374H90.0969V102.579C90.1743 102.447 90.3214 102.366 90.5072 102.366C90.6931 102.366 90.8363 102.443 90.9021 102.602C90.9834 102.459 91.1422 102.366 91.3435 102.366C91.6145 102.366 91.7926 102.525 91.7926 102.842Z" fill="#24292F"/>
<path d="M93.3336 102.931C93.3336 103.267 93.0974 103.499 92.7761 103.499C92.5903 103.499 92.4354 103.417 92.3464 103.267V103.487H92.2031V101.918H92.3541V102.587C92.447 102.444 92.6019 102.366 92.78 102.366C93.0974 102.366 93.3375 102.594 93.3375 102.931H93.3336ZM93.1826 102.931C93.1826 102.672 93.0006 102.498 92.7684 102.498C92.5361 102.498 92.3541 102.672 92.3541 102.931C92.3541 103.189 92.5322 103.363 92.7684 103.363C93.0045 103.363 93.1826 103.189 93.1826 102.931Z" fill="#24292F"/>
<path d="M94.6148 102.977H93.6817C93.6972 103.209 93.8753 103.363 94.1192 103.363C94.2547 103.363 94.3747 103.313 94.4599 103.216L94.5451 103.313C94.4444 103.433 94.2896 103.495 94.1154 103.495C93.7669 103.495 93.5308 103.259 93.5308 102.927C93.5308 102.594 93.7631 102.362 94.0766 102.362C94.3902 102.362 94.6186 102.594 94.6186 102.927C94.6186 102.938 94.6186 102.957 94.6186 102.973L94.6148 102.977ZM93.6817 102.865H94.4715C94.4522 102.648 94.2934 102.494 94.0766 102.494C93.8598 102.494 93.7011 102.644 93.6817 102.865Z" fill="#24292F"/>
<path d="M95.4862 102.366V102.513C95.4862 102.513 95.4591 102.513 95.4513 102.513C95.219 102.513 95.0758 102.66 95.0758 102.923V103.491H94.9248V102.378H95.068V102.594C95.1377 102.447 95.281 102.366 95.4862 102.366Z" fill="#24292F"/>
<path d="M96.4615 102.385C96.4615 102.235 96.3376 102.126 96.1208 102.126C95.9389 102.126 95.8072 102.184 95.7143 102.297L95.6021 102.211C95.7182 102.072 95.8924 101.991 96.1286 101.991C96.4267 101.991 96.6164 102.134 96.6164 102.358C96.6164 102.722 96.2292 102.737 96.2292 103.039H96.0705C96.0705 102.691 96.4576 102.656 96.4576 102.382L96.4615 102.385ZM96.0434 103.39C96.0434 103.328 96.0937 103.282 96.1518 103.282C96.2099 103.282 96.2641 103.328 96.2641 103.39C96.2641 103.452 96.2137 103.502 96.1518 103.502C96.0899 103.502 96.0434 103.452 96.0434 103.39Z" fill="#24292F"/>
<path d="M97.5107 102.003H97.8553V103.205H98.5986V103.483H97.5107V102.003Z" fill="#24292F"/>
<path d="M98.6763 102.918C98.6763 102.575 98.9395 102.331 99.3034 102.331C99.6674 102.331 99.9306 102.575 99.9306 102.918C99.9306 103.262 99.6674 103.506 99.3034 103.506C98.9395 103.506 98.6763 103.262 98.6763 102.918ZM99.5938 102.918C99.5938 102.721 99.4699 102.602 99.3034 102.602C99.137 102.602 99.0092 102.721 99.0092 102.918C99.0092 103.116 99.137 103.235 99.3034 103.235C99.4699 103.235 99.5938 103.116 99.5938 102.918Z" fill="#24292F"/>
<path d="M101.328 102.346V103.293C101.328 103.718 101.1 103.912 100.689 103.912C100.472 103.912 100.263 103.858 100.128 103.753L100.26 103.517C100.356 103.595 100.515 103.645 100.662 103.645C100.894 103.645 100.999 103.541 100.999 103.332V103.282C100.914 103.378 100.786 103.425 100.639 103.425C100.321 103.425 100.07 103.208 100.07 102.876C100.07 102.544 100.325 102.327 100.639 102.327C100.798 102.327 100.929 102.381 101.018 102.489V102.343H101.332L101.328 102.346ZM101.003 102.88C101.003 102.714 100.879 102.602 100.705 102.602C100.531 102.602 100.403 102.714 100.403 102.88C100.403 103.046 100.531 103.158 100.705 103.158C100.879 103.158 101.003 103.046 101.003 102.88Z" fill="#24292F"/>
<path d="M102.199 102.003C102.199 101.899 102.281 101.817 102.404 101.817C102.528 101.817 102.61 101.895 102.61 101.995C102.61 102.103 102.528 102.185 102.404 102.185C102.281 102.185 102.199 102.103 102.199 101.999V102.003ZM102.238 102.347H102.567V103.487H102.238V102.347Z" fill="#24292F"/>
<path d="M104.042 102.833V103.487H103.713V102.884C103.713 102.698 103.628 102.613 103.481 102.613C103.322 102.613 103.206 102.71 103.206 102.918V103.483H102.877V102.343H103.194V102.478C103.283 102.381 103.419 102.327 103.574 102.327C103.845 102.327 104.046 102.486 104.046 102.83L104.042 102.833Z" fill="#24292F"/>
</g>
<path d="M115.339 106.54H64.6846V115.197H115.339V106.54Z" fill="#FFB600"/>
<path d="M83.469 112.213L82.8302 111.301C82.7721 111.305 82.7063 111.309 82.6444 111.309H81.9088V112.209H81.4829V109.245H82.6405C83.4109 109.245 83.8794 109.635 83.8794 110.277C83.8794 110.733 83.6432 111.065 83.2251 111.212L83.9297 112.205H83.469V112.213ZM83.4574 110.281C83.4574 109.856 83.1747 109.616 82.6289 109.616H81.9088V110.949H82.6289C83.1709 110.949 83.4574 110.702 83.4574 110.281Z" fill="white"/>
<path d="M86.5351 111.228H84.7117C84.762 111.623 85.0795 111.885 85.5247 111.885C85.788 111.885 86.0086 111.797 86.1751 111.615L86.3996 111.878C86.1945 112.113 85.8847 112.241 85.5131 112.241C84.7891 112.241 84.3052 111.762 84.3052 111.093C84.3052 110.425 84.7852 109.949 85.4318 109.949C86.0783 109.949 86.5429 110.417 86.5429 111.105C86.5429 111.14 86.539 111.19 86.5351 111.228ZM84.7117 110.935H86.1519C86.1093 110.556 85.8267 110.289 85.4318 110.289C85.0369 110.289 84.7543 110.552 84.7117 110.935Z" fill="white"/>
<path d="M89.2605 109.969V111.909C89.2605 112.701 88.8579 113.06 88.0952 113.06C87.6848 113.06 87.2667 112.944 87.0228 112.724L87.2164 112.411C87.4254 112.589 87.7506 112.705 88.0797 112.705C88.6101 112.705 88.8501 112.461 88.8501 111.951V111.773C88.6566 112.005 88.3623 112.121 88.041 112.121C87.3906 112.121 86.8989 111.681 86.8989 111.031C86.8989 110.382 87.3906 109.949 88.041 109.949C88.3778 109.949 88.6798 110.073 88.8734 110.316V109.969H89.2605ZM88.8618 111.031C88.8618 110.595 88.5404 110.305 88.0913 110.305C87.6422 110.305 87.317 110.598 87.317 111.031C87.317 111.464 87.6384 111.766 88.0913 111.766C88.5443 111.766 88.8618 111.464 88.8618 111.031Z" fill="white"/>
<path d="M89.9653 109.276C89.9653 109.13 90.0853 109.01 90.2402 109.01C90.3951 109.01 90.5151 109.126 90.5151 109.269C90.5151 109.419 90.3989 109.539 90.2402 109.539C90.0815 109.539 89.9653 109.423 89.9653 109.276ZM90.0389 109.972H90.4454V112.217H90.0389V109.972Z" fill="white"/>
<path d="M90.937 111.978L91.1073 111.657C91.297 111.793 91.6029 111.889 91.8971 111.889C92.2765 111.889 92.4314 111.773 92.4314 111.584C92.4314 111.082 91.0105 111.518 91.0105 110.622C91.0105 110.22 91.3706 109.949 91.9474 109.949C92.2417 109.949 92.5707 110.027 92.7643 110.154L92.5901 110.475C92.3849 110.343 92.1604 110.297 91.9397 110.297C91.5835 110.297 91.4093 110.428 91.4093 110.606C91.4093 111.136 92.834 110.703 92.834 111.576C92.834 111.982 92.4623 112.241 91.8623 112.241C91.4906 112.241 91.1189 112.125 90.9331 111.978H90.937Z" fill="white"/>
<path d="M94.6112 112.082C94.4873 112.187 94.3015 112.241 94.1196 112.241C93.6666 112.241 93.4072 111.99 93.4072 111.537V110.305H93.0239V109.968H93.4072V109.478H93.8137V109.968H94.4602V110.305H93.8137V111.518C93.8137 111.758 93.9415 111.897 94.166 111.897C94.286 111.897 94.3983 111.858 94.4835 111.792L94.6112 112.086V112.082Z" fill="white"/>
<path d="M97.0503 111.228H95.2268C95.2771 111.623 95.5946 111.885 96.0398 111.885C96.3031 111.885 96.5238 111.797 96.6902 111.615L96.9148 111.878C96.7096 112.113 96.3999 112.241 96.0282 112.241C95.3042 112.241 94.8203 111.762 94.8203 111.093C94.8203 110.425 95.3004 109.949 95.9469 109.949C96.5934 109.949 97.058 110.417 97.058 111.105C97.058 111.14 97.0542 111.19 97.0503 111.228ZM95.2268 110.935H96.6709C96.6283 110.556 96.3457 110.289 95.9508 110.289C95.5559 110.289 95.2733 110.552 95.2307 110.935H95.2268Z" fill="white"/>
<path d="M98.8349 109.949V110.343C98.8 110.34 98.7729 110.34 98.7419 110.34C98.3045 110.34 98.0335 110.606 98.0335 111.097V112.214H97.627V109.969H98.018V110.347C98.1612 110.084 98.4438 109.949 98.8349 109.949Z" fill="white"/>
<g opacity="0.6">
<path d="M81.1421 47.4032L81.3124 47.0399C81.5524 47.2563 81.9667 47.4148 82.3848 47.4148C82.9462 47.4148 83.1862 47.1984 83.1862 46.9124C83.1862 46.1201 81.2195 46.6187 81.2195 45.4168C81.2195 44.9144 81.6105 44.4893 82.4622 44.4893C82.8416 44.4893 83.2365 44.5897 83.5075 44.7752L83.3527 45.1462C83.0701 44.9646 82.7487 44.8834 82.4622 44.8834C81.9086 44.8834 81.6724 45.1153 81.6724 45.3974C81.6724 46.1897 83.6392 45.695 83.6392 46.8853C83.6392 47.38 83.2404 47.809 82.3809 47.809C81.8854 47.809 81.3976 47.6428 81.1382 47.3993L81.1421 47.4032Z" fill="#263238"/>
<path d="M84.1812 44.5554C84.1812 44.3931 84.3128 44.2617 84.4831 44.2617C84.6535 44.2617 84.7851 44.3854 84.7851 44.5438C84.7851 44.71 84.6612 44.8414 84.4831 44.8414C84.305 44.8414 84.1812 44.7177 84.1812 44.5554ZM84.2586 45.3168H84.7038V47.7747H84.2586V45.3168Z" fill="#263238"/>
<path d="M87.9094 45.3171V47.4388C87.9094 48.3045 87.4681 48.6987 86.6318 48.6987C86.1827 48.6987 85.7259 48.575 85.4588 48.3315L85.6717 47.9876C85.9001 48.1808 86.2563 48.3084 86.6202 48.3084C87.2009 48.3084 87.4642 48.0378 87.4642 47.4852V47.292C87.2513 47.547 86.9299 47.6707 86.5776 47.6707C85.8692 47.6707 85.3271 47.1876 85.3271 46.4804C85.3271 45.7732 85.8653 45.2939 86.5776 45.2939C86.9454 45.2939 87.2784 45.4292 87.4874 45.6959V45.3171H87.9094ZM87.4719 46.4804C87.4719 46.0012 87.1196 45.6843 86.628 45.6843C86.1363 45.6843 85.7801 46.005 85.7801 46.4804C85.7801 46.9557 86.1324 47.2804 86.628 47.2804C87.1235 47.2804 87.4719 46.9519 87.4719 46.4804Z" fill="#263238"/>
<path d="M91.0996 46.3605V47.775H90.6544V46.4108C90.6544 45.9277 90.4144 45.692 89.9924 45.692C89.5201 45.692 89.2104 45.9741 89.2104 46.5074V47.7711H88.7651V45.3132H89.191V45.6842C89.373 45.433 89.6865 45.29 90.0776 45.29C90.6776 45.29 91.0996 45.634 91.0996 46.3567V46.3605Z" fill="#263238"/>
<path d="M95.4704 45.3164V47.7743H95.0484V47.4033C94.8665 47.6584 94.5606 47.8014 94.2122 47.8014C93.5773 47.8014 93.1553 47.4535 93.1553 46.7309V45.3164H93.6005V46.6806C93.6005 47.1637 93.8405 47.4033 94.2664 47.4033C94.731 47.4033 95.0291 47.1173 95.0291 46.5879V45.3164H95.4743H95.4704Z" fill="#263238"/>
<path d="M98.8697 46.5461C98.8697 47.3036 98.3432 47.8021 97.627 47.8021C97.2785 47.8021 96.9727 47.6669 96.7675 47.4041V48.6755H96.3223V45.321H96.7481V45.7114C96.9494 45.437 97.263 45.2979 97.627 45.2979C98.347 45.2979 98.8697 45.8003 98.8697 46.55V46.5461ZM98.4206 46.5461C98.4206 46.0283 98.0644 45.6843 97.5882 45.6843C97.112 45.6843 96.7636 46.0283 96.7636 46.5461C96.7636 47.064 97.1198 47.4118 97.5882 47.4118C98.0567 47.4118 98.4206 47.0679 98.4206 46.5461Z" fill="#263238"/>
</g>
<path d="M115.339 65.9268H64.6846V74.5835H115.339V65.9268Z" fill="white"/>
<g opacity="0.4">
<path d="M67.4565 68.8447H67.7198V71.0978H69.1097V71.3258H67.4565V68.8447Z" fill="#263238"/>
<path d="M70.9098 70.17V71.3255H70.6697V71.0356C70.5575 71.2289 70.3368 71.3448 70.0271 71.3448C69.6051 71.3448 69.3457 71.1245 69.3457 70.8038C69.3457 70.5178 69.5315 70.2743 70.0658 70.2743H70.6581V70.1622C70.6581 69.8415 70.4762 69.6676 70.1277 69.6676C69.8877 69.6676 69.6593 69.7526 69.5044 69.8878L69.3922 69.6985C69.5819 69.54 69.8567 69.4473 70.151 69.4473C70.6349 69.4473 70.9059 69.6869 70.9059 70.17H70.9098ZM70.6581 70.7651V70.4598H70.0735C69.7096 70.4598 69.5935 70.6028 69.5935 70.7922C69.5935 71.0086 69.7677 71.1438 70.0658 71.1438C70.3639 71.1438 70.5575 71.0086 70.6581 70.7651Z" fill="#263238"/>
<path d="M71.3359 71.1129L71.4482 70.9158C71.5992 71.0318 71.8508 71.1245 72.1102 71.1245C72.4664 71.1245 72.6097 71.0047 72.6097 70.8192C72.6097 70.3323 71.3979 70.7149 71.3979 69.9806C71.3979 69.6753 71.6611 69.4473 72.1373 69.4473C72.3774 69.4473 72.6406 69.513 72.7994 69.6212L72.691 69.8221C72.5284 69.7101 72.3309 69.6637 72.1412 69.6637C71.8044 69.6637 71.6534 69.7951 71.6534 69.9729C71.6534 70.4753 72.8652 70.0965 72.8652 70.8115C72.8652 71.1322 72.5826 71.3448 72.0947 71.3448C71.785 71.3448 71.4869 71.2443 71.3359 71.1129Z" fill="#263238"/>
<path d="M74.3167 71.2141C74.216 71.303 74.0689 71.3455 73.9218 71.3455C73.5695 71.3455 73.3759 71.1484 73.3759 70.8044V69.676H73.043V69.4634H73.3759V69.0576H73.6276V69.4634H74.1967V69.676H73.6276V70.789C73.6276 71.0093 73.7398 71.1291 73.9489 71.1291C74.0534 71.1291 74.1541 71.0981 74.2276 71.0324L74.3167 71.2141Z" fill="#263238"/>
<path d="M77.8319 68.8447V71.3258H77.6151L76.0162 69.3123V71.3258H75.7529V68.8447H75.9697L77.5725 70.8582V68.8447H77.8319Z" fill="#263238"/>
<path d="M80.0001 70.17V71.3255H79.7601V71.0356C79.6478 71.2289 79.4271 71.3448 79.1174 71.3448C78.6954 71.3448 78.436 71.1245 78.436 70.8038C78.436 70.5178 78.6219 70.2743 79.1561 70.2743H79.7485V70.1622C79.7485 69.8415 79.5665 69.6676 79.2181 69.6676C78.978 69.6676 78.7496 69.7526 78.5986 69.8878L78.4864 69.6985C78.6761 69.54 78.9509 69.4473 79.2452 69.4473C79.7291 69.4473 80.0001 69.6869 80.0001 70.17ZM79.7485 70.7651V70.4598H79.1639C78.7999 70.4598 78.6838 70.6028 78.6838 70.7922C78.6838 71.0086 78.858 71.1438 79.1561 71.1438C79.4542 71.1438 79.6478 71.0086 79.7485 70.7651Z" fill="#263238"/>
<path d="M83.7668 70.2434V71.3255H83.5152V70.2704C83.5152 69.8762 83.3177 69.6753 82.9809 69.6753C82.5976 69.6753 82.3576 69.9226 82.3576 70.3477V71.3255H82.106V70.2704C82.106 69.8762 81.9085 69.6753 81.5678 69.6753C81.1884 69.6753 80.9445 69.9226 80.9445 70.3477V71.3255H80.6929V69.4627H80.9329V69.8028C81.0645 69.5787 81.3046 69.4473 81.6182 69.4473C81.9317 69.4473 82.1679 69.5787 82.2802 69.8415C82.4157 69.6019 82.6828 69.4473 83.0196 69.4473C83.4726 69.4473 83.7707 69.7101 83.7707 70.2434H83.7668Z" fill="#263238"/>
<path d="M86.0863 70.4714H84.5222C84.5493 70.8617 84.8474 71.1207 85.2578 71.1207C85.4862 71.1207 85.6875 71.0395 85.8307 70.8772L85.974 71.0395C85.8075 71.2366 85.5481 71.3448 85.2539 71.3448C84.6732 71.3448 84.2744 70.9467 84.2744 70.3941C84.2744 69.8415 84.6616 69.4473 85.1881 69.4473C85.7146 69.4473 86.094 69.8337 86.094 70.3941C86.094 70.4134 86.094 70.4443 86.094 70.4714H86.0863ZM84.5222 70.282H85.8462C85.8153 69.9188 85.5481 69.6637 85.1842 69.6637C84.8203 69.6637 84.557 69.9188 84.5222 70.282Z" fill="#263238"/>
</g>
<path d="M115.339 54.1006H64.6846V62.7574H115.339V54.1006Z" fill="white"/>
<g opacity="0.4">
<path d="M67.7198 57.2417V58.2156H69.0051V58.4436H67.7198V59.4948H67.4565V57.0137H69.16V57.2417H67.7198Z" fill="#263238"/>
<path d="M69.5586 57.045C69.5586 56.9483 69.6399 56.8672 69.7444 56.8672C69.849 56.8672 69.9303 56.9445 69.9303 57.0411C69.9303 57.1454 69.8528 57.2266 69.7444 57.2266C69.636 57.2266 69.5586 57.1454 69.5586 57.045ZM69.6167 57.6324H69.8683V59.4951H69.6167V57.6324Z" fill="#263238"/>
<path d="M71.5101 57.6211V57.8646C71.4908 57.8646 71.4675 57.8646 71.4482 57.8646C71.0571 57.8646 70.821 58.1119 70.821 58.5525V59.5032H70.5693V57.6404H70.8094V58.0037C70.9255 57.7564 71.1655 57.625 71.5101 57.625V57.6211Z" fill="#263238"/>
<path d="M71.7192 59.2867L71.8315 59.0896C71.9825 59.2056 72.2341 59.2983 72.4935 59.2983C72.8497 59.2983 72.993 59.1785 72.993 58.993C72.993 58.5061 71.7812 58.8887 71.7812 58.1544C71.7812 57.8491 72.0444 57.6211 72.5206 57.6211C72.7607 57.6211 73.0239 57.6868 73.1827 57.795L73.0743 57.996C72.9117 57.8839 72.7142 57.8375 72.5245 57.8375C72.1877 57.8375 72.0367 57.9689 72.0367 58.1467C72.0367 58.6491 73.2485 58.2704 73.2485 58.9853C73.2485 59.3061 72.9659 59.5186 72.478 59.5186C72.1683 59.5186 71.8702 59.4181 71.7192 59.2867Z" fill="#263238"/>
<path d="M74.7 59.383C74.5993 59.4719 74.4522 59.5144 74.3051 59.5144C73.9528 59.5144 73.7592 59.3173 73.7592 58.9734V57.8449H73.4263V57.6323H73.7592V57.2266H74.0109V57.6323H74.58V57.8449H74.0109V58.9579C74.0109 59.1782 74.1231 59.298 74.3322 59.298C74.4367 59.298 74.5374 59.2671 74.6109 59.2014L74.7 59.383Z" fill="#263238"/>
<path d="M78.2152 57.0176V59.4987H77.9984L76.3995 57.4852V59.4987H76.1362V57.0176H76.353L77.9558 59.0311V57.0176H78.2152Z" fill="#263238"/>
<path d="M80.3834 58.3438V59.4993H80.1434V59.2095C80.0311 59.4027 79.8104 59.5187 79.5007 59.5187C79.0787 59.5187 78.8193 59.2984 78.8193 58.9776C78.8193 58.6916 79.0052 58.4482 79.5394 58.4482H80.1318V58.3361C80.1318 58.0153 79.9498 57.8453 79.6014 57.8453C79.3613 57.8453 79.1329 57.9303 78.9781 58.0656L78.8658 57.8762C79.0555 57.7177 79.3304 57.625 79.6246 57.625C80.1085 57.625 80.3795 57.8646 80.3795 58.3477L80.3834 58.3438ZM80.1318 58.939V58.6337H79.5472C79.1833 58.6337 79.0671 58.7767 79.0671 58.966C79.0671 59.1824 79.2413 59.3177 79.5394 59.3177C79.8375 59.3177 80.0311 59.1824 80.1318 58.939Z" fill="#263238"/>
<path d="M84.1501 58.4172V59.4993H83.8985V58.4443C83.8985 58.0501 83.701 57.8491 83.3642 57.8491C82.9809 57.8491 82.7409 58.0964 82.7409 58.5215V59.4993H82.4893V58.4443C82.4893 58.0501 82.2918 57.8491 81.9511 57.8491C81.5717 57.8491 81.3278 58.0964 81.3278 58.5215V59.4993H81.0762V57.6365H81.3162V57.9766C81.4478 57.7525 81.6879 57.6211 82.0015 57.6211C82.315 57.6211 82.5512 57.7525 82.6635 58.0153C82.799 57.7757 83.0661 57.6211 83.4029 57.6211C83.8559 57.6211 84.154 57.8839 84.154 58.4172H84.1501Z" fill="#263238"/>
<path d="M86.4696 58.6452H84.9055C84.9326 59.0355 85.2307 59.2945 85.6411 59.2945C85.8695 59.2945 86.0708 59.2133 86.214 59.051L86.3573 59.2133C86.1908 59.4104 85.9314 59.5186 85.6372 59.5186C85.0565 59.5186 84.6577 59.1206 84.6577 58.5679C84.6577 58.0153 85.0449 57.6211 85.5714 57.6211C86.0979 57.6211 86.4773 58.0076 86.4773 58.5679C86.4773 58.5873 86.4773 58.6182 86.4773 58.6452H86.4696ZM84.9055 58.4558H86.2295C86.1986 58.0926 85.9314 57.8375 85.5675 57.8375C85.2036 57.8375 84.9403 58.0926 84.9055 58.4558Z" fill="#263238"/>
</g>
<path d="M52.8224 112.307C52.8224 112.307 50.2594 110.173 48.0604 112.307C45.8614 114.44 45.4395 127.653 45.4395 127.653" stroke="#0A8A0F" stroke-width="0.94" stroke-miterlimit="10"/>
<path d="M45.2574 130.203C45.2574 130.203 46.7673 114.694 41.0801 108.179" stroke="#0A8A0F" stroke-width="0.94" stroke-miterlimit="10"/>
<path d="M45.7993 128.569C45.7993 128.569 44.6339 110.915 48.9003 107" stroke="#0A8A0F" stroke-width="0.94" stroke-miterlimit="10"/>
<path d="M45.2573 128.568C45.2573 128.568 45.1566 116.901 41.9897 115.088C38.819 113.276 37.2046 119.189 37.2046 119.189" stroke="#0A8A0F" stroke-width="0.94" stroke-miterlimit="10"/>
<path d="M46.5115 128.568C46.5115 128.568 45.9927 119.614 48.4511 116.41C50.9056 113.21 53.4918 117.782 53.4918 117.782" stroke="#0A8A0F" stroke-width="0.94" stroke-miterlimit="10"/>
<path d="M45.6562 129.77C45.6562 129.77 47.2435 108.828 44.6147 105.276" stroke="#0A8A0F" stroke-width="0.94" stroke-miterlimit="10"/>
<path d="M39.2759 116.79C39.2759 116.79 40.8555 117.373 40.387 118.745C39.9186 120.117 34.9205 122.378 34.9205 122.378C34.9205 122.378 32.826 120.461 34.7501 117.346C36.6743 114.231 39.2372 115.804 39.2798 116.79H39.2759Z" fill="#0A8A0F"/>
<path d="M46.148 114.177C46.148 114.177 44.4639 114.107 44.3671 115.556C44.2703 117.006 48.014 121.009 48.014 121.009C48.014 121.009 50.6853 120.047 50.1123 116.434C49.5394 112.82 46.5661 113.288 46.148 114.181V114.177Z" fill="#0A8A0F"/>
<path d="M47.5724 107.244C47.5724 107.244 46.4497 107.124 46.5387 106.44C46.6278 105.756 50.9019 104.001 53.4222 106.842C53.4222 106.842 51.8078 109.609 49.4733 109.643C47.1388 109.678 47.5685 107.24 47.5685 107.24L47.5724 107.244Z" fill="#0A8A0F"/>
<path d="M45.482 105.586C45.482 105.586 46.4963 106.076 46.7828 105.45C47.0693 104.824 44.3709 101.076 40.7278 102.158C40.7278 102.158 40.631 105.358 42.5939 106.621C44.5567 107.885 45.482 105.59 45.482 105.59V105.586Z" fill="#0A8A0F"/>
<path d="M50.7934 116.237C50.7934 116.237 50.0191 115.611 50.8553 115.309C51.6916 115.004 55.7915 115.093 55.834 119.147C55.834 119.147 51.0566 119.939 50.4643 118.393C49.872 116.848 50.7895 116.237 50.7895 116.237H50.7934Z" fill="#0A8A0F"/>
<path d="M41.0529 107.143C41.0529 107.143 41.8272 106.517 40.9909 106.216C40.1547 105.91 36.0548 105.999 36.0122 110.053C36.0122 110.053 40.7896 110.846 41.3819 109.3C41.9743 107.754 41.0567 107.143 41.0567 107.143H41.0529Z" fill="#0A8A0F"/>
<path d="M43.5769 110.409C43.5769 110.409 43.6466 109.652 43.031 109.949C42.4154 110.247 40.2784 112.55 42.4967 114.734C42.4967 114.734 45.4817 112.527 44.9435 111.379C44.4054 110.231 43.5808 110.409 43.5808 110.409H43.5769Z" fill="#0A8A0F"/>
<path d="M51.4865 111.491C51.4865 111.491 51.0219 110.885 51.7033 110.811C52.3808 110.738 55.4199 111.545 54.7114 114.575C54.7114 114.575 51.0103 114.297 50.8516 113.041C50.6928 111.785 51.4865 111.495 51.4865 111.495V111.491Z" fill="#0A8A0F"/>
<path d="M39.5506 139.81H51.5174L53.1086 128.193H37.9595L39.5506 139.81Z" fill="#FFB600"/>
<path d="M54.611 127.251V128.356C54.611 129.094 54.0109 129.693 53.2715 129.693H37.6501C36.9106 129.693 36.3105 129.094 36.3105 128.356V127.251H54.611Z" fill="#A38200"/>
<path d="M154.325 17.1396H143.202C141.309 17.1396 139.776 18.67 139.776 20.5598V30.2214C139.776 32.1112 141.309 33.6416 143.202 33.6416H146.45L145.664 36.6908L148.754 33.6416H154.325C156.218 33.6416 157.751 32.1112 157.751 30.2214V20.5598C157.751 18.67 156.218 17.1396 154.325 17.1396Z" fill="#FFB600"/>
<path opacity="0.7" d="M154.325 17.1396H143.202C141.309 17.1396 139.776 18.67 139.776 20.5598V30.2214C139.776 32.1112 141.309 33.6416 143.202 33.6416H146.45L145.664 36.6908L148.754 33.6416H154.325C156.218 33.6416 157.751 32.1112 157.751 30.2214V20.5598C157.751 18.67 156.218 17.1396 154.325 17.1396Z" fill="white"/>
<path d="M152.67 29.2435C154.826 27.0914 154.826 23.602 152.67 21.4498C150.514 19.2977 147.018 19.2977 144.862 21.4498C142.706 23.602 142.706 27.0914 144.862 29.2435C147.018 31.3957 150.514 31.3957 152.67 29.2435Z" fill="#FFB600"/>
<path d="M148.184 27.81C148.037 27.81 147.894 27.7443 147.797 27.6323L145.633 25.0855C145.451 24.8729 145.478 24.5521 145.691 24.3705C145.904 24.1889 146.225 24.2159 146.407 24.4285L148.188 26.5192L151.127 23.0643C151.309 22.8517 151.63 22.8247 151.843 23.0063C152.056 23.1879 152.083 23.5087 151.901 23.7213L148.575 27.6323C148.478 27.7443 148.339 27.81 148.188 27.81H148.184Z" fill="white"/>
<path d="M152.397 76.7522C152.397 76.7522 145.657 75.9058 135.444 78.6999C135.444 78.6999 133.798 60.4821 133.996 57.9816C134.193 55.4812 149.761 56.2116 149.761 56.2116C149.761 56.2116 150.163 63.5042 151.166 67.9021C152.169 72.3001 152.912 75.9097 152.397 76.7522Z" fill="#FFB600"/>
<path opacity="0.2" d="M152.397 76.7522C152.397 76.7522 145.657 75.9058 135.444 78.6999C135.444 78.6999 133.798 60.4821 133.996 57.9816C134.193 55.4812 149.761 56.2116 149.761 56.2116C149.761 56.2116 150.163 63.5042 151.166 67.9021C152.169 72.3001 152.912 75.9097 152.397 76.7522Z" fill="#24292F"/>
<path d="M130.519 137.067L133.268 137.844L133.922 133.573L134.274 131.289L131.526 130.513L131.057 133.573L130.519 137.067Z" fill="#E4897B"/>
<path d="M146.322 137.291L149.156 137.666L149.183 133.573L149.203 131.03L146.365 130.659L146.345 133.573L146.322 137.291Z" fill="#E4897B"/>
<path opacity="0.2" d="M146.365 130.659L146.346 133.573H149.183L149.203 131.03L146.365 130.659Z" fill="#24292F"/>
<path opacity="0.2" d="M131.057 133.573H133.922L134.274 131.289L131.526 130.513L131.057 133.573Z" fill="#24292F"/>
<path d="M118.316 59.462L115.587 58.6582L116.086 61.7692C116.086 61.7692 118.564 62.3412 118.804 61.0543L118.316 59.462Z" fill="#E4897B"/>
<path d="M112.861 59.377L114.201 61.9083L116.086 61.7653L115.587 58.6543L112.861 59.377Z" fill="#E4897B"/>
<path d="M122.083 60.2539L117.6 59.2529L117.193 61.4287L121.262 62.4181L122.083 60.2539Z" fill="#E4897B"/>
<path d="M135.645 58.2943C135.645 58.2943 135.548 58.4103 135.382 58.6074C134.817 59.2682 133.434 60.8643 132.017 62.2401C130.856 63.3609 129.679 64.3386 128.913 64.5357C126.717 65.0999 118.738 62.7541 118.738 62.7541L119.563 59.5233C119.563 59.5233 126.996 60.5088 127.573 60.5088C128.01 60.5088 132.532 53.9698 133.628 53.4326L135.645 58.2943Z" fill="#FFB600"/>
<path opacity="0.2" d="M135.382 58.6073C134.817 59.2682 133.435 60.8643 132.018 62.2401C132.304 59.9754 133.136 57.8963 134.232 56.5823C134.348 56.4432 134.464 56.3272 134.58 56.2422L135.382 58.6073Z" fill="#24292F"/>
<path d="M130.554 136.639L133.674 136.554C133.791 136.554 133.895 136.627 133.926 136.739L134.58 139.247C134.65 139.506 134.457 139.761 134.186 139.765C133.059 139.777 131.429 139.754 130.012 139.792C128.359 139.839 127.306 139.757 125.362 139.808C124.189 139.839 123.822 138.668 124.309 138.548C126.528 138.003 127.98 138.111 129.869 136.874C130.074 136.739 130.302 136.643 130.55 136.635L130.554 136.639Z" fill="#263238"/>
<path d="M130.283 137.04C130.283 137.04 130.279 137.04 130.275 137.04C129.818 137.145 129.001 137.276 128.68 137.01C128.583 136.928 128.537 136.82 128.541 136.685C128.541 136.604 128.579 136.542 128.645 136.503C128.986 136.298 130.155 136.851 130.287 136.913C130.314 136.925 130.329 136.952 130.326 136.983C130.326 137.01 130.306 137.029 130.283 137.037V137.04ZM128.738 136.612C128.738 136.612 128.723 136.619 128.715 136.623C128.688 136.639 128.676 136.662 128.676 136.697C128.676 136.789 128.703 136.859 128.765 136.909C128.947 137.06 129.42 137.075 130.047 136.952C129.586 136.751 128.955 136.53 128.742 136.612H128.738Z" fill="#FFB600"/>
<path d="M130.283 137.04C130.283 137.04 130.248 137.048 130.233 137.04C129.881 136.897 129.176 136.298 129.219 135.977C129.226 135.9 129.281 135.807 129.463 135.784C129.602 135.765 129.73 135.804 129.842 135.889C130.217 136.175 130.322 136.94 130.326 136.971C130.326 136.994 130.318 137.017 130.299 137.032C130.295 137.036 130.287 137.04 130.283 137.04ZM129.412 135.931C129.358 135.95 129.354 135.981 129.35 135.993C129.327 136.186 129.807 136.658 130.167 136.859C130.121 136.634 130.005 136.182 129.757 135.993C129.672 135.927 129.579 135.9 129.478 135.916C129.451 135.916 129.428 135.923 129.408 135.931H129.412Z" fill="#FFB600"/>
<path d="M146.435 136.639L149.555 136.554C149.671 136.554 149.776 136.627 149.807 136.739L150.461 139.247C150.531 139.506 150.337 139.761 150.066 139.765C148.94 139.777 147.31 139.754 145.893 139.792C144.24 139.839 143.187 139.757 141.243 139.808C140.07 139.839 139.702 138.668 140.19 138.548C142.409 138.003 143.86 138.111 145.75 136.874C145.955 136.739 146.183 136.643 146.431 136.635L146.435 136.639Z" fill="#263238"/>
<path d="M146.168 137.04C146.168 137.04 146.164 137.04 146.16 137.04C145.703 137.145 144.886 137.276 144.565 137.01C144.468 136.928 144.422 136.82 144.426 136.685C144.426 136.604 144.464 136.542 144.53 136.503C144.871 136.298 146.04 136.851 146.172 136.913C146.199 136.925 146.214 136.952 146.21 136.983C146.21 137.01 146.191 137.029 146.168 137.037V137.04ZM144.623 136.612C144.623 136.612 144.607 136.619 144.6 136.623C144.573 136.639 144.561 136.662 144.561 136.697C144.561 136.789 144.588 136.859 144.65 136.909C144.832 137.06 145.304 137.075 145.932 136.952C145.471 136.751 144.84 136.53 144.627 136.612H144.623Z" fill="#FFB600"/>
<path d="M146.168 137.04C146.168 137.04 146.133 137.048 146.117 137.04C145.765 136.897 145.06 136.298 145.103 135.977C145.111 135.9 145.165 135.807 145.347 135.784C145.486 135.765 145.614 135.804 145.726 135.889C146.102 136.175 146.206 136.94 146.21 136.971C146.21 136.994 146.202 137.017 146.183 137.032C146.179 137.036 146.171 137.04 146.168 137.04ZM145.296 135.931C145.242 135.95 145.238 135.981 145.235 135.993C145.211 136.186 145.691 136.658 146.051 136.859C146.005 136.634 145.889 136.182 145.641 135.993C145.556 135.927 145.463 135.9 145.362 135.916C145.335 135.916 145.312 135.923 145.293 135.931H145.296Z" fill="#FFB600"/>
<path d="M152.169 75.0898C153.671 81.5902 151.092 132.7 151.092 132.7H146.114L143.984 90.1039L136.141 132.7L130.817 132.313C134.298 99.3172 137.372 79.6192 137.372 79.6192L137.364 77.1304L152.165 75.0937L152.169 75.0898Z" fill="#263238"/>
<path opacity="0.4" d="M130.821 132.313L136.145 132.7L142.316 99.1704L143.984 90.1078L146.114 132.7H151.092C151.092 132.7 153.671 81.5902 152.169 75.0938L137.368 77.1304L137.376 79.6192C137.376 79.6192 134.302 99.3173 130.821 132.313Z" fill="white"/>
<path d="M149.486 51.0289C149.308 54.2134 149.443 57.3862 149.722 60.3427C149.927 62.5069 150.217 64.5513 150.523 66.3947C151.239 70.7192 152.052 73.9616 152.169 75.094C150.001 75.3916 141.824 76.52 137.368 77.1306C131.971 62.0663 134.004 53.3013 134.004 53.3013C134.004 53.3013 135.548 52.6443 137.399 52.1419C137.643 52.0762 137.891 52.0144 138.146 51.9564C139.788 51.5777 142.536 51.2608 144.437 51.0908C144.836 51.056 145.246 51.0289 145.641 51.0096C147.662 50.9168 149.486 51.0328 149.486 51.0328V51.0289Z" fill="#263238"/>
<path d="M141.565 44.25C141.673 46.3176 141.894 50.1977 143.617 51.1831C143.617 51.1831 142.544 53.2198 140.225 53.4285C138.471 53.5869 138.588 51.8595 138.588 51.8595C139.602 51.102 139.358 49.8228 138.588 48.3813L141.569 44.25H141.565Z" fill="#E4897B"/>
<path opacity="0.2" d="M140.349 45.9346L138.583 48.377C138.769 48.7171 138.932 49.0688 139.048 49.4205C139.865 49.0958 140.794 47.8901 140.662 46.9896C140.597 46.5413 140.473 46.1201 140.349 45.9346Z" fill="#24292F"/>
<path d="M134.015 40.0881C133.678 41.1625 133.864 43.3653 135.362 42.6465C136.861 41.9277 134.596 38.2447 134.015 40.0881Z" fill="#263238"/>
<path d="M141.758 41.5378C141.925 44.2933 142.161 45.901 140.941 47.4623C139.11 49.8081 135.564 48.9347 134.573 46.2759C133.682 43.8837 133.562 39.7756 136.121 38.3882C138.642 37.0201 141.592 38.7862 141.758 41.5417V41.5378Z" fill="#E4897B"/>
<path d="M139.822 40.0377V36.9576C139.822 36.9576 143.105 36.7142 142.962 38.3914C144.782 39.2919 143.922 42.1169 141.479 43.5005C140.14 42.43 140.295 39.8561 140.295 39.8561C140.151 39.9218 139.993 39.9798 139.826 40.0377H139.822Z" fill="#263238"/>
<path d="M143.094 43.6902C142.962 44.4207 142.501 45.0197 141.99 45.3559C141.22 45.8622 140.55 45.24 140.523 44.3704C140.5 43.5859 140.868 42.3763 141.754 42.2217C142.629 42.0671 143.249 42.8555 143.094 43.6902Z" fill="#E4897B"/>
<path d="M137.681 42.7704C137.709 42.9945 137.612 43.1878 137.465 43.2032C137.318 43.2187 137.178 43.0525 137.151 42.8284C137.124 42.6042 137.221 42.411 137.368 42.3955C137.515 42.3801 137.654 42.5462 137.681 42.7704Z" fill="#263238"/>
<path d="M135.149 43.0526C135.176 43.2768 135.08 43.47 134.932 43.4855C134.785 43.5009 134.646 43.3347 134.619 43.1106C134.592 42.8864 134.688 42.6932 134.836 42.6778C134.983 42.6623 135.122 42.8285 135.149 43.0526Z" fill="#263238"/>
<path d="M135.966 43.0713C135.966 43.0713 135.595 44.3659 135.103 45.0307C135.537 45.336 136.191 45.0925 136.191 45.0925L135.966 43.0713Z" fill="#DE5753"/>
<path d="M137.496 45.8121C137.407 45.8353 137.31 45.8508 137.205 45.8623C137.17 45.8662 137.136 45.8392 137.132 45.8044C137.128 45.7696 137.155 45.7348 137.19 45.731C138.173 45.6189 138.549 44.8885 138.553 44.8807C138.568 44.8498 138.607 44.8344 138.642 44.8498C138.676 44.8653 138.688 44.9039 138.673 44.9387C138.657 44.9696 138.336 45.5996 137.496 45.8121Z" fill="#263238"/>
<path d="M138.363 41.8701C138.316 41.8817 138.27 41.8701 138.235 41.8315C137.825 41.4064 137.345 41.4875 137.341 41.4875C137.267 41.4991 137.198 41.4527 137.186 41.3832C137.17 41.3136 137.221 41.244 137.29 41.2286C137.318 41.2247 137.918 41.1204 138.429 41.6498C138.479 41.7039 138.479 41.7851 138.429 41.8353C138.413 41.8508 138.39 41.8624 138.371 41.8662L138.363 41.8701Z" fill="#263238"/>
<path d="M133.953 42.3067C133.93 42.3144 133.903 42.3106 133.876 42.3067C133.806 42.2835 133.771 42.2062 133.794 42.1367C134.034 41.4488 134.623 41.3058 134.65 41.2942C134.72 41.2787 134.793 41.3212 134.812 41.3908C134.832 41.4604 134.789 41.5338 134.716 41.5493C134.692 41.5531 134.236 41.6729 134.046 42.2256C134.03 42.2681 133.996 42.299 133.953 42.3106V42.3067Z" fill="#263238"/>
<path d="M141.278 41.1818C141.278 41.1818 139.354 40.4785 138.459 39.3577C138.459 39.3577 136.702 39.8176 136.342 40.5287C136.342 40.5287 135.734 40.0186 136.187 39.3577C136.187 39.3577 134.871 39.636 134.611 40.5287C134.611 40.5287 133.953 40.3045 133.996 39.3577C133.996 39.3577 133.411 39.578 133.225 40.5287C133.225 40.5287 131.77 37.5104 136.566 36.6447C136.566 36.6447 136.187 36.4863 135.444 36.4554C135.444 36.4554 138.789 35.1066 141.444 36.3433C144.1 37.5761 143.612 39.949 141.278 41.1857V41.1818Z" fill="#263238"/>
<path d="M153.31 77.6915L148.669 78.3098C148.669 78.3098 146.752 64.9421 145.908 60.6253V51.4043L148.336 50.7666L150.206 51.4043C150.655 52.8999 151.05 54.8631 151.394 57.0466C151.622 58.492 151.828 60.0378 152.01 61.603C152.261 63.7363 152.47 65.9082 152.648 67.941C152.927 71.2221 153.113 74.1283 153.214 75.8983C153.279 77.0268 153.31 77.6915 153.31 77.6915Z" fill="#FFB600"/>
<path d="M145.908 60.6249C145.908 60.6249 146.296 54.1208 148.336 50.7663C148.336 50.7663 148.285 49.8078 147.875 49.6533C147.469 49.4987 145.908 50.4185 145.908 50.4185C145.908 50.4185 144.937 49.7576 144.72 50.0629C144.503 50.3682 143.988 52.4358 145.908 60.6288V60.6249Z" fill="#FFB600"/>
<path opacity="0.7" d="M145.908 60.6249C145.908 60.6249 146.296 54.1208 148.336 50.7663C148.336 50.7663 148.285 49.8078 147.875 49.6533C147.469 49.4987 145.908 50.4185 145.908 50.4185C145.908 50.4185 144.937 49.7576 144.72 50.0629C144.503 50.3682 143.988 52.4358 145.908 60.6288V60.6249Z" fill="white"/>
<path d="M135.347 79.48L135.877 79.8626C135.877 79.8626 135.111 75.5535 135.42 64.6553C135.436 64.1297 135.455 63.6234 135.475 63.1403C135.87 53.9193 137.302 52.2421 137.395 52.1416L136.055 52.5976L133.628 53.4324C132.912 61.3008 135.347 79.48 135.347 79.48Z" fill="#FFB600"/>
<path d="M135.556 61.5524C135.556 61.5524 134.216 55.2337 134.615 53.0541C135.014 50.8744 136.443 51.8444 136.443 51.8444C136.443 51.8444 137.755 50.7855 138.146 51.9526C138.146 51.9526 136.342 53.2202 135.556 61.5562V61.5524Z" fill="#FFB600"/>
<path opacity="0.7" d="M135.556 61.5524C135.556 61.5524 134.216 55.2337 134.615 53.0541C135.014 50.8744 136.443 51.8444 136.443 51.8444C136.443 51.8444 137.755 50.7855 138.146 51.9526C138.146 51.9526 136.342 53.2202 135.556 61.5562V61.5524Z" fill="white"/>
<path opacity="0.2" d="M152.01 61.6023C150.027 60.4931 149.764 57.5985 149.764 57.5985C149.884 57.5522 150.62 57.301 151.394 57.0459C151.622 58.4913 151.828 60.0371 152.01 61.6023Z" fill="#24292F"/>
<path opacity="0.2" d="M142.315 99.1711L143.984 90.1085L143.663 85.3125C143.663 85.3125 141.375 93.6292 142.315 99.1711Z" fill="#24292F"/>
<path opacity="0.2" d="M153.214 75.8977C151.967 75.8127 150.887 75.7315 150.887 75.7315L150.651 70.6727C150.651 70.6727 151.054 70.3365 151.956 70.4331C151.956 70.4331 152.362 69.4438 152.649 67.9404C152.927 71.2215 153.113 74.1277 153.214 75.8977Z" fill="#24292F"/>
<path d="M153.639 67.9365L151.212 71.8282L153.132 72.9296L155.412 69.4244L153.639 67.9365Z" fill="#E4897B"/>
<path d="M150.109 51.3574C151.742 51.5352 158.688 61.0499 158.994 63.9175C159.3 66.785 154.913 71.7356 154.913 71.7356L151.983 70.0159C151.983 70.0159 154.96 65.4517 155.111 64.2344C155.262 63.017 149.671 58.0239 149.671 58.0239C149.671 58.0239 149.06 56.5554 148.982 54.4453C148.905 52.3352 150.105 51.3613 150.105 51.3613L150.109 51.3574Z" fill="#FFB600"/>
<path d="M150.651 70.6729C150.651 70.6729 153.148 71.2062 154.154 72.7752C154.154 72.7752 153.113 76.0408 152.366 76.3964C151.619 76.7519 149.764 76.7519 149.764 76.7519C149.764 76.7519 149.644 73.1192 150.651 70.6729Z" fill="#FFB600"/>
</g>
<defs>
<clipPath id="clip0_2924_7692">
<rect width="193.574" height="144" fill="white"/>
</clipPath>
</defs>
</svg>
