<svg width="84" height="84" viewBox="0 0 84 84" fill="none" xmlns="http://www.w3.org/2000/svg">
<g filter="url(#filter0_d_3174_15547)">
<path d="M32 70H64C69.5228 70 74 65.5228 74 60V38V26L56 6H46H32C26.4772 6 22 10.4772 22 16V60C22 65.5228 26.4772 70 32 70Z" fill="#FC4F3B"/>
<path d="M60 26H74L56 6V22C56 24.2091 57.7909 26 60 26Z" fill="#DB301D"/>
<rect x="11" y="35" width="37" height="16" rx="8" fill="white" stroke="#FC4F3B" stroke-width="2"/>
<path d="M19.6989 46.0923C19.4645 46.0923 19.2633 46.0095 19.0952 45.8438C18.9295 45.6757 18.8466 45.4744 18.8466 45.2401C18.8466 45.008 18.9295 44.8092 19.0952 44.6435C19.2633 44.4777 19.4645 44.3949 19.6989 44.3949C19.9261 44.3949 20.125 44.4777 20.2955 44.6435C20.4659 44.8092 20.5511 45.008 20.5511 45.2401C20.5511 45.3963 20.5109 45.5395 20.4304 45.6697C20.3523 45.7976 20.2493 45.9006 20.1214 45.9787C19.9936 46.0545 19.8527 46.0923 19.6989 46.0923ZM21.8216 46V38.7273H24.6909C25.2425 38.7273 25.7124 38.8326 26.1007 39.0433C26.4889 39.2517 26.7849 39.5417 26.9885 39.9134C27.1944 40.2827 27.2974 40.7088 27.2974 41.1918C27.2974 41.6747 27.1932 42.1009 26.9849 42.4702C26.7766 42.8395 26.4747 43.1271 26.0794 43.3331C25.6864 43.5391 25.2105 43.642 24.6518 43.642H22.823V42.4098H24.4032C24.6992 42.4098 24.943 42.3589 25.1348 42.2571C25.3289 42.1529 25.4733 42.0097 25.568 41.8274C25.6651 41.6428 25.7136 41.4309 25.7136 41.1918C25.7136 40.9503 25.6651 40.7396 25.568 40.5597C25.4733 40.3774 25.3289 40.2365 25.1348 40.1371C24.9406 40.0353 24.6944 39.9844 24.3961 39.9844H23.3592V46H21.8216ZM30.8743 46H28.2962V38.7273H30.8956C31.6271 38.7273 32.2569 38.8729 32.7848 39.1641C33.3127 39.4529 33.7188 39.8684 34.0028 40.4105C34.2893 40.9527 34.4325 41.6013 34.4325 42.3565C34.4325 43.1141 34.2893 43.7652 34.0028 44.3097C33.7188 44.8542 33.3104 45.272 32.7777 45.5632C32.2474 45.8544 31.6129 46 30.8743 46ZM29.8338 44.6825H30.8104C31.2649 44.6825 31.6473 44.602 31.9574 44.4411C32.2699 44.2777 32.5043 44.0256 32.6605 43.6847C32.8191 43.3414 32.8984 42.8987 32.8984 42.3565C32.8984 41.8191 32.8191 41.38 32.6605 41.0391C32.5043 40.6982 32.2711 40.4472 31.9609 40.2862C31.6508 40.1252 31.2685 40.0447 30.8139 40.0447H29.8338V44.6825ZM35.5716 46V38.7273H40.3869V39.995H37.1092V41.728H40.0673V42.9957H37.1092V46H35.5716Z" fill="#FC4F3B"/>
</g>
<defs>
<filter id="filter0_d_3174_15547" x="0" y="0" width="84" height="84" filterUnits="userSpaceOnUse" color-interpolation-filters="sRGB">
<feFlood flood-opacity="0" result="BackgroundImageFix"/>
<feColorMatrix in="SourceAlpha" type="matrix" values="0 0 0 0 0 0 0 0 0 0 0 0 0 0 0 0 0 0 127 0" result="hardAlpha"/>
<feOffset dy="4"/>
<feGaussianBlur stdDeviation="5"/>
<feComposite in2="hardAlpha" operator="out"/>
<feColorMatrix type="matrix" values="0 0 0 0 0 0 0 0 0 0 0 0 0 0 0 0 0 0 0.2 0"/>
<feBlend mode="normal" in2="BackgroundImageFix" result="effect1_dropShadow_3174_15547"/>
<feBlend mode="normal" in="SourceGraphic" in2="effect1_dropShadow_3174_15547" result="shape"/>
</filter>
</defs>
</svg>
