<svg width="312" height="260" viewBox="0 0 312 260" fill="none" xmlns="http://www.w3.org/2000/svg">
<g clip-path="url(#clip0_2171_20172)">
<path d="M234 0H78L0 130L78 260H234L312 130L234 0Z" fill="url(#paint0_radial_2171_20172)"/>
<path d="M158.129 19.4402C122.681 19.4402 93.8589 47.1908 93.8589 81.2849C93.8589 86.5629 94.5573 91.677 95.8519 96.5616H111.523C110.178 92.7916 109.343 88.8085 109.036 84.6779H116.395V79.8588H108.917C109.684 54.9111 130.568 34.7661 156.46 33.9302V41.3063H161.468V34.0121C186.594 35.6349 206.592 55.4684 207.341 79.8752H201.533V84.6943H207.222C206.915 88.8249 206.064 92.808 204.735 96.578H220.407C221.701 91.6934 222.4 86.5629 222.4 81.3012C222.4 47.1908 193.561 19.4566 158.129 19.4566V19.4402Z" fill="white"/>
<path d="M177.327 61.5169L159.492 76.8756C159.066 76.7445 158.606 76.6625 158.129 76.6625C156.767 76.6625 155.54 77.2198 154.671 78.105L127.842 71.7123L126.633 76.3839L153.615 82.8093C154.28 84.5959 156.034 85.8909 158.129 85.8909C160.787 85.8909 162.933 83.8255 162.933 81.2685C162.933 80.9898 162.899 80.7112 162.848 80.4489L180.683 65.0902L177.344 61.5005L177.327 61.5169Z" fill="white"/>
<path d="M80.8958 219.776C79.1583 217.874 78.2214 214.94 78.0681 210.957L84.6604 209.842C84.7285 212.219 85.0522 213.973 85.6654 215.088C86.2616 216.219 87.1815 216.776 88.3909 216.776C89.2937 216.776 89.941 216.497 90.3498 215.924C90.7587 215.35 90.9631 214.629 90.9631 213.727C90.9631 212.252 90.6224 210.99 89.958 209.957C89.2937 208.924 88.2546 207.793 86.8237 206.564L82.9229 203.188C81.3728 201.893 80.1804 200.499 79.3627 199.024C78.5451 197.549 78.1362 195.779 78.1362 193.697C78.1362 190.648 79.0391 188.288 80.8617 186.649C82.6674 184.993 85.1714 184.174 88.3739 184.174C91.7807 184.174 94.1485 185.157 95.4772 187.108C96.8058 189.058 97.5724 191.55 97.7597 194.582L91.1164 195.549C91.0482 193.582 90.8268 192.123 90.435 191.173C90.0432 190.222 89.2767 189.763 88.1354 189.763C87.3007 189.763 86.6534 190.074 86.1764 190.714C85.7165 191.353 85.478 192.091 85.478 192.959C85.478 194.189 85.7506 195.238 86.2957 196.09C86.8408 196.942 87.6925 197.877 88.8678 198.893L92.6835 202.22C94.4892 203.794 95.886 205.45 96.908 207.187C97.9301 208.925 98.4411 210.973 98.4411 213.317C98.4411 215.104 98.0323 216.71 97.2317 218.104C96.4311 219.513 95.2898 220.612 93.8078 221.415C92.3428 222.218 90.6394 222.611 88.7145 222.611C85.2396 222.611 82.6333 221.661 80.9128 219.759L80.8958 219.776Z" fill="white"/>
<path d="M102.461 184.632H118.865V189.91H110.076V199.86H116.855V205.187H110.076V216.94H118.95V222.12H102.444V184.649L102.461 184.632Z" fill="white"/>
<path d="M122.868 184.632H132.629C136.683 184.632 139.732 185.37 141.793 186.845C143.837 188.321 144.86 190.878 144.86 194.516C144.86 196.959 144.519 198.926 143.838 200.417C143.156 201.909 141.947 203.04 140.209 203.81L145.422 222.087H137.569L133.293 205.105H130.5V222.087H122.885V184.616L122.868 184.632ZM132.765 200.598C134.554 200.598 135.831 200.155 136.547 199.286C137.279 198.401 137.637 197.024 137.637 195.139C137.637 193.254 137.313 191.927 136.666 191.074C136.019 190.206 134.843 189.779 133.14 189.779H130.483V200.598H132.765Z" fill="white"/>
<path d="M147.909 184.632H154.552L159.015 210.531L163.205 184.632H170.138L162.984 222.103H155.08L147.926 184.632H147.909Z" fill="white"/>
<path d="M174.039 184.632H181.671V222.103H174.039V184.632Z" fill="white"/>
<path d="M189.336 219.399C187.667 217.251 186.832 214.17 186.832 210.121V196.713C186.832 192.582 187.667 189.452 189.319 187.353C190.971 185.239 193.816 184.19 197.853 184.19C201.89 184.19 204.411 185.124 206.013 186.993C207.614 188.861 208.414 191.533 208.414 195.025V198.172H200.97V194.697C200.97 193.582 200.919 192.697 200.8 192.009C200.698 191.337 200.408 190.763 199.965 190.32C199.523 189.878 198.824 189.648 197.904 189.648C196.508 189.648 195.605 190.091 195.213 190.992C194.804 191.894 194.617 193.205 194.617 194.926V211.957C194.617 213.711 194.855 215.022 195.315 215.891C195.775 216.76 196.644 217.186 197.921 217.186C199.199 217.186 200.051 216.743 200.425 215.874C200.8 214.989 200.988 213.694 200.988 211.973V208.318H208.432V211.416C208.432 214.989 207.648 217.759 206.064 219.726C204.48 221.693 201.754 222.66 197.887 222.66C194.02 222.66 191.057 221.595 189.387 219.448L189.336 219.399Z" fill="white"/>
<path d="M213.082 184.632H229.486V189.91H220.696V199.86H227.476V205.187H220.696V216.94H229.571V222.12H213.065V184.649L213.082 184.632Z" fill="white"/>
<path d="M82.1053 166.061L99.6847 139.163L101.03 137.114C103.177 133.803 104.761 131.033 105.8 128.803C106.839 126.591 107.367 124.165 107.367 121.575C107.367 119.264 106.924 117.51 106.021 116.297C105.136 115.084 103.824 114.477 102.104 114.477C99.6676 114.477 97.9642 115.428 97.0103 117.313C96.0564 119.214 95.5794 121.821 95.5794 125.132V128.41H82.1053V124.853C82.1053 118.1 83.6895 112.756 86.8749 108.822C90.0603 104.888 95.0343 102.921 101.814 102.921C108.066 102.921 112.818 104.561 116.089 107.855C119.359 111.134 120.995 115.805 120.995 121.837C120.995 125.509 120.313 128.803 118.95 131.737C117.588 134.672 115.441 138.294 112.529 142.621L111.541 144.129L97.6235 164.914H119.036V175.748H82.1053V166.077V166.061Z" fill="#FFB600"/>
<path d="M144.297 158.865H122.357V148.211L141.18 103.807H157.158V148.473H164.211V158.865H157.158V175.732H144.314V158.865H144.297ZM144.297 148.473V117.936L133.242 148.473H144.297Z" fill="#FFB600"/>
<path d="M188.28 103.823H196.218L174.533 175.748H166.681L188.263 103.823H188.28Z" fill="#FFB600"/>
<path d="M218.618 114.297H198.995V103.823H232.092V112.789L216.829 175.748H203.441L218.601 114.297H218.618Z" fill="#FFB600"/>
</g>
<defs>
<radialGradient id="paint0_radial_2171_20172" cx="0" cy="0" r="1" gradientUnits="userSpaceOnUse" gradientTransform="translate(135.406 59.1565) scale(263.043 253.116)">
<stop stop-color="#333333"/>
<stop offset="1"/>
</radialGradient>
<clipPath id="clip0_2171_20172">
<rect width="312" height="260" fill="white"/>
</clipPath>
</defs>
</svg>
