<svg width="100" height="100" viewBox="0 0 100 100" fill="none" xmlns="http://www.w3.org/2000/svg">
<path d="M71.7317 12.9852C52.3317 1.93327 26.9983 7.92528 16.1317 31.627C8.59833 47.9386 12.065 76.2342 29.5317 86.354C46.9983 96.5405 70.465 88.0185 81.1983 68.0451C93.3983 45.4086 89.265 22.9719 71.7317 12.9852ZM49.465 77.7655C48.7317 78.3647 47.7983 78.631 46.9317 78.631C46.465 78.631 45.9983 78.5644 45.5317 78.4313C44.865 78.2315 44.1983 77.8986 43.7317 77.366C43.3317 76.9 43.1317 76.3674 42.9983 75.7682C42.865 74.7029 43.065 73.7042 43.665 72.8387C44.3317 71.8401 45.465 71.1743 46.665 71.1743C46.865 71.1743 47.065 71.1743 47.265 71.2409C47.9317 71.374 48.465 71.6403 48.9983 72.0398H49.065C49.9983 72.7722 50.5983 73.904 50.5983 75.169C50.665 76.1676 50.1983 77.1663 49.465 77.7655ZM75.1983 43.9439C74.5317 49.137 71.3317 53.9306 66.1317 57.1263C61.9983 59.6563 56.465 60.655 51.1317 60.7216C51.065 61.5871 50.9317 64.5165 50.7983 64.9825C50.7317 65.5152 50.465 65.9812 50.1317 66.4473C49.5317 67.1796 48.5317 67.7122 47.5317 67.9785C46.865 68.1783 46.1317 68.3114 45.3983 68.3114H45.1317C44.5317 68.2449 43.9317 67.9785 43.465 67.5125C43.065 67.0465 42.7983 66.4473 42.7983 65.8481L42.7317 65.2488C42.665 64.7828 42.065 39.4832 42.1983 39.9492C42.265 36.9532 47.1983 36.4206 49.865 36.9532C52.5317 37.4859 51.865 40.7482 51.7983 44.6763C51.7983 44.6763 51.665 49.8694 51.3983 55.3953C54.3983 55.2622 57.3317 54.4632 59.9983 53.0651C65.065 50.5351 67.7983 46.6736 67.7983 40.9479C67.7983 35.2222 62.265 28.8307 51.9983 28.8307C41.7317 28.8307 37.3983 31.4273 32.3983 35.4885C31.265 36.4206 30.3983 37.3527 29.5983 37.9519C28.7983 38.5511 26.5983 38.6843 26.065 37.2196C25.3983 35.4885 26.665 33.5578 27.465 32.6257C28.665 31.161 31.665 28.2315 34.9317 26.5005C38.7317 24.5698 43.3317 22.4393 49.7317 22.2395C55.5317 22.1064 64.7317 22.5724 71.3317 30.0291L71.3983 30.0957C74.7317 33.8241 75.7983 39.4166 75.1983 43.9439Z" fill="#007FA3"/>
</svg>
