<svg width="100" height="100" viewBox="0 0 100 100" fill="none" xmlns="http://www.w3.org/2000/svg">
<path d="M77.8945 37.595C80.5136 40.5558 82.7998 47.5203 83.6494 54.5064C84.013 57.4845 87.6087 58.8808 89.9256 56.9242C89.9387 56.9113 89.9562 56.8984 89.9694 56.8854C92.803 54.459 92.8687 32.6732 88.7693 28.0359C84.6699 23.3986 62.7363 20.4421 59.8982 22.8685C59.8325 22.9246 59.7668 22.9849 59.7011 23.0452C57.4938 25.0536 58.4004 28.6738 61.3085 29.4409C68.3686 31.2984 75.2491 34.604 77.8989 37.5993L77.8945 37.595Z" fill="#FFB600"/>
<path d="M36.138 54.1301C35.1056 54.5959 34.4557 55.3653 34.1884 56.438C33.9718 57.3099 33.8427 57.3356 33.8012 58.3314C33.7828 58.8144 34.2022 59.2161 34.723 59.2161H50.7762V63.191C50.7071 64.9903 50.3107 67.7086 49.5779 68.8113C48.845 69.914 47.596 70.6833 45.8307 71.1193C44.0655 71.5552 41.6181 71.7732 38.484 71.7732C35.3499 71.7732 32.6859 71.4227 30.6901 70.726C28.6944 70.0294 27.2057 68.7643 26.2425 66.935C25.2746 65.1057 24.7952 61.1865 24.7952 57.6989C24.7952 53.9805 25.3114 51.181 26.3439 49.2919C27.3763 47.4028 29.0263 46.1249 31.2893 45.4581C33.5523 44.7914 36.6173 44.458 40.4843 44.458C41.4153 44.458 42.7658 44.4751 44.531 44.5007C46.2963 44.5307 48.2459 44.6033 50.3752 44.7187C52.5046 44.8341 54.5879 44.9965 56.6204 45.1974C57.1966 45.2572 57.7496 45.3171 58.2843 45.3812C58.8189 45.4453 59.3259 45.0521 59.3259 44.5349V42.6202C59.3259 39.9788 57.1597 37.7692 54.3252 37.5127C53.1222 37.4059 51.8455 37.3119 50.6748 37.2648C46.9415 37.1195 42.6459 37.0469 37.7834 37.0469C33.3864 37.0469 29.3535 37.2777 25.6894 37.7435C22.0252 38.2094 18.8773 39.1369 16.2455 40.5302C13.6138 41.9235 11.5812 44.0007 10.1478 46.7617C8.7144 49.5227 8 53.1642 8 57.6946C8 61.8789 8.54847 65.2895 9.65002 67.9308C10.7516 70.5765 12.48 72.6365 14.8444 74.1153C17.2088 75.5984 20.2554 76.6114 23.9887 77.167C27.7173 77.7183 32.2157 77.9961 37.4792 77.9961C43.4755 77.9961 48.3887 77.7183 52.2188 77.167C56.0489 76.6156 59.0125 75.7608 61.1142 74.5983C63.2113 73.4358 64.6447 71.8971 65.4098 69.9824C66.1749 68.0676 66.5575 65.7426 66.5575 63.0115L66.6496 54.2925C66.6542 53.8181 66.2394 53.4291 65.7278 53.4291H41.1756C38.8435 53.4291 37.1612 53.6599 36.1288 54.1258L36.138 54.1301Z" fill="#24292F"/>
</svg>
