<svg width="100" height="100" viewBox="0 0 100 100" fill="none" xmlns="http://www.w3.org/2000/svg">
<rect width="100" height="100" fill="#000055"/>
<g clip-path="url(#clip0_22494_23968)">
<path d="M56.5365 83.8572C67.5952 83.8572 76.7581 81.7717 84.6177 77.4402L85.9605 76.7183L77.627 68.0554L76.8766 68.4965C70.8338 72.066 65.0675 73.6702 58.1558 73.6702C57.7213 73.6702 57.2474 73.6702 56.7735 73.6301C41.8442 73.1489 31.8124 63.8442 31.8124 50.4086C31.8124 36.973 41.8442 27.6282 56.7735 27.1871H58.1558C65.0675 27.1871 70.8338 28.7913 76.9161 32.4009L77.6665 32.8421L84.9336 25.262L86 24.1791L84.6967 23.4572C76.8371 19.1257 67.6347 17.0001 56.5365 17.0001C31.1015 16.96 14 30.3956 14 50.4086C14 70.4216 31.1015 83.8572 56.5365 83.8572Z" fill="white"/>
</g>
<defs>
<clipPath id="clip0_22494_23968">
<rect width="72" height="66.8571" fill="white" transform="translate(14 17)"/>
</clipPath>
</defs>
</svg>
