<svg width="100" height="100" viewBox="0 0 100 100" fill="none" xmlns="http://www.w3.org/2000/svg">
<g clip-path="url(#clip0_22494_23963)">
<path d="M49.8322 8C36.6368 8 25.9023 18.6601 25.9023 31.7671C25.9023 44.8741 36.6368 55.5342 49.8352 55.5342C63.0335 55.5342 73.768 44.8741 73.768 31.7671C73.768 18.6601 63.0305 8 49.8322 8ZM51.3218 24.0154C53.9019 23.9177 56.4463 23.6159 58.9459 23.113C59.7443 25.474 60.227 27.8705 60.3968 30.2878H51.3218V24.0154ZM51.3218 21.0537V11.0179C51.5155 11.0327 51.7121 11.0445 51.9058 11.0622C54.4501 14.0712 56.4314 17.1601 57.8435 20.3111C55.7044 20.7164 53.5265 20.965 51.3218 21.0537ZM48.3425 21.0803C46.1289 21.0271 43.9421 20.8111 41.791 20.4413C43.2121 17.3702 45.2113 14.2369 47.7854 11.0593C47.9701 11.0415 48.1578 11.0297 48.3425 11.0179V21.0803ZM48.3425 24.039V30.2848H39.2258C39.3361 27.983 39.8128 25.6308 40.6529 23.2402C43.1764 23.7106 45.7416 23.9799 48.3425 24.039ZM36.2435 30.2848H28.9383C29.1855 26.8113 30.2938 23.5716 32.0546 20.7726C33.9107 21.5034 35.8056 22.1129 37.7272 22.5981C36.8483 25.1959 36.3538 27.7611 36.2465 30.2848H36.2435ZM36.2823 33.2435C36.464 36.1519 37.0569 39.0248 38.0579 41.8444C36.2197 42.3267 34.4113 42.9243 32.6326 43.6314C30.5352 40.6432 29.2094 37.0868 28.9353 33.2435H36.2793H36.2823ZM39.2675 33.2435H48.3425V40.3266C45.8548 40.4213 43.3998 40.7053 40.9866 41.1757C40.0273 38.5691 39.4552 35.9211 39.2675 33.2435ZM48.3425 43.2882V52.5134C48.1489 52.4986 47.9522 52.4868 47.7586 52.469C45.4139 49.6967 43.5488 46.8564 42.1664 43.9628C44.1953 43.5959 46.257 43.3711 48.3425 43.2882ZM51.3218 43.2616C53.4103 43.3119 55.478 43.5101 57.5128 43.8445C56.1215 46.673 54.2416 49.5547 51.879 52.4749C51.6942 52.4927 51.5066 52.5045 51.3218 52.5164V43.2616ZM51.3218 40.3029V33.2465H60.4385C60.3164 35.7909 59.7503 38.3946 58.7344 41.0515C56.3003 40.6136 53.8274 40.3621 51.3218 40.3029ZM63.4208 33.2465H70.7261C70.4609 36.9921 69.1977 40.4686 67.1896 43.4095C65.3812 42.7202 63.543 42.1432 61.6749 41.6817C62.7207 38.8295 63.3016 36.0158 63.4178 33.2494L63.4208 33.2465ZM63.3821 30.2878C63.2152 27.6338 62.7088 25.0095 61.8597 22.4295C63.7575 21.9176 65.6285 21.2904 67.4608 20.5419C69.3079 23.394 70.4728 26.7166 70.7261 30.2878H63.3821ZM65.6017 18.0891C64.0286 18.7016 62.4287 19.2223 60.805 19.6454C59.6937 17.0565 58.2398 14.5121 56.4343 12.0209C60.0155 13.2043 63.1706 15.3227 65.6047 18.0862L65.6017 18.0891ZM43.3462 11.9853C41.4633 14.6186 39.9498 17.2341 38.8117 19.8199C37.1433 19.4116 35.4987 18.9057 33.8809 18.3021C36.3627 15.4056 39.628 13.1925 43.3492 11.9853H43.3462ZM34.6139 46.0457C36.1154 45.4865 37.6408 45.0102 39.1841 44.6167C40.2477 46.954 41.5974 49.2529 43.233 51.5104C39.914 50.4127 36.9645 48.5133 34.6139 46.0457ZM56.3211 51.5489C58.0283 49.1642 59.4285 46.7943 60.5249 44.4451C62.1218 44.8238 63.6979 45.2883 65.2471 45.8416C62.8399 48.4393 59.7771 50.4275 56.3211 51.5459V51.5489Z" fill="#060505"/>
<path d="M62.7828 82.9922H36.8867C36.8241 82.9922 36.7734 83.0425 36.7734 83.1046V90.4096C36.7734 90.4717 36.8241 90.522 36.8867 90.522H62.7828C62.8454 90.522 62.896 90.4717 62.896 90.4096V83.1046C62.896 83.0425 62.8454 82.9922 62.7828 82.9922Z" fill="#EAB126"/>
<path d="M40.1432 82.8366C47.4336 80.662 45.0442 72.2031 45.0442 72.2031H54.6257C54.6257 72.2031 52.2392 80.662 59.5266 82.8366C59.5415 82.8426 59.5415 82.8633 59.5266 82.8633H40.1462C40.1283 82.8633 40.1283 82.8426 40.1462 82.8366H40.1432Z" fill="#EAB126"/>
<path d="M65.8989 89.0438H64.3854V83.1057C64.3854 82.227 63.6674 81.5139 62.7825 81.5139H60.262L59.9552 81.4222C54.1723 79.6973 55.9807 72.8894 56.0582 72.6053L56.5885 70.7266H43.0773L43.6077 72.6053C43.6881 72.8923 45.5323 79.6855 39.7107 81.4222L39.4068 81.5139H36.8834C35.9985 81.5139 35.2805 82.227 35.2805 83.1057V89.0438H33.767C32.9447 89.0438 32.2773 89.7065 32.2773 90.5231C32.2773 91.3397 32.9447 92.0025 33.767 92.0025H65.8959C66.7182 92.0025 67.3856 91.3397 67.3856 90.5231C67.3856 89.7065 66.7182 89.0438 65.8959 89.0438H65.8989ZM46.8432 73.6852H52.8286C52.5545 76.0522 52.8465 79.0819 54.6758 81.3867H45.002C46.8283 79.0848 47.1203 76.0552 46.8462 73.6852H46.8432ZM38.2628 89.0438V84.4726H61.4061V89.0438H38.2628Z" fill="#050606"/>
<path d="M32.2773 56.1081C32.2773 65.5256 40.1368 73.159 49.8315 73.159C59.5261 73.159 67.3856 65.5256 67.3856 56.1081V52.3654C67.3856 52.3003 67.3349 52.25 67.2694 52.25H32.3935C32.328 52.25 32.2773 52.3003 32.2773 52.3654V56.1081Z" fill="#EAB126"/>
<path d="M77.6596 54.8387L77.5822 53.4392H68.8766V52.3682C68.8766 51.4894 68.1556 50.7734 67.2708 50.7734H32.3949C31.5101 50.7734 30.7891 51.4894 30.7891 52.3682V53.4392H22.0865L22.0091 54.8387C21.9942 55.1138 21.6933 61.6141 26.2308 66.3716C29.1505 69.4339 33.3453 71.0286 38.6992 71.1292C41.8334 73.3364 45.6797 74.6411 49.8358 74.6411C53.992 74.6411 57.8383 73.3364 60.9725 71.1292C66.3263 71.0286 70.5212 69.4339 73.4409 66.3716C77.9784 61.6141 77.6775 55.1109 77.6626 54.8387H77.6596ZM25.039 56.3979H30.798C30.8666 60.7117 32.4545 64.6733 35.0674 67.7947C32.3056 67.2415 30.077 66.0935 28.4146 64.3568C25.8881 61.7206 25.2148 58.2855 25.039 56.3949V56.3979ZM33.7684 56.1109V53.7321H65.8973V56.1109C65.8973 64.697 58.6904 71.6825 49.8329 71.6825C40.9754 71.6825 33.7684 64.697 33.7684 56.1109ZM64.5983 67.7947C67.2112 64.6733 68.7992 60.7117 68.8677 56.3979H74.6267C74.4539 58.2885 73.7776 61.7235 71.2511 64.3597C69.5887 66.0935 67.3602 67.2444 64.5983 67.7977V67.7947Z" fill="#050606"/>
<path d="M36.8594 55.5938C36.8594 55.5938 36.8594 62.6946 43.4079 67.1237Z" fill="#EAB126"/>
<path d="M41.2466 67.3575C37.1411 63.9639 35.9017 59.6412 35.5263 57.292C35.3833 56.3985 36.0894 55.5938 37.001 55.5938H36.9891C37.725 55.5908 38.3536 56.1174 38.4669 56.8394C38.7588 58.7033 39.7569 62.2804 43.1563 65.0882C43.7492 65.5793 43.8773 66.4314 43.4453 67.0646C42.9477 67.7924 41.9288 67.9226 41.2466 67.3604V67.3575Z" fill="#FCDE75"/>
</g>
<defs>
<clipPath id="clip0_22494_23963">
<rect width="55.6684" height="84" fill="white" transform="translate(22 8)"/>
</clipPath>
</defs>
</svg>
