<svg width="84" height="84" viewBox="0 0 84 84" fill="none" xmlns="http://www.w3.org/2000/svg">
<g filter="url(#filter0_d_3174_15557)">
<path d="M32 70H64C69.5228 70 74 65.5228 74 60V38V26L56 6H46L32 6C26.4772 6 22 10.4772 22 16L22 60C22 65.5228 26.4772 70 32 70Z" fill="#446CB2"/>
<path d="M60 26H74L56 6V22C56 24.2091 57.7909 26 60 26Z" fill="#2A5297"/>
<rect x="11" y="35" width="37" height="16" rx="8" fill="white" stroke="#446CB2" stroke-width="2"/>
<path d="M18.1901 46.0923C17.9557 46.0923 17.7545 46.0095 17.5864 45.8438C17.4207 45.6757 17.3378 45.4744 17.3378 45.2401C17.3378 45.008 17.4207 44.8092 17.5864 44.6435C17.7545 44.4777 17.9557 44.3949 18.1901 44.3949C18.4173 44.3949 18.6162 44.4777 18.7867 44.6435C18.9571 44.8092 19.0423 45.008 19.0423 45.2401C19.0423 45.3963 19.0021 45.5395 18.9216 45.6697C18.8435 45.7976 18.7405 45.9006 18.6127 45.9787C18.4848 46.0545 18.344 46.0923 18.1901 46.0923ZM22.8909 46H20.3128V38.7273H22.9122C23.6437 38.7273 24.2735 38.8729 24.8014 39.1641C25.3293 39.4529 25.7354 39.8684 26.0194 40.4105C26.3059 40.9527 26.4491 41.6013 26.4491 42.3565C26.4491 43.1141 26.3059 43.7652 26.0194 44.3097C25.7354 44.8542 25.327 45.272 24.7943 45.5632C24.264 45.8544 23.6295 46 22.8909 46ZM21.8504 44.6825H22.827C23.2815 44.6825 23.6639 44.602 23.974 44.4411C24.2865 44.2777 24.5209 44.0256 24.6771 43.6847C24.8357 43.3414 24.915 42.8987 24.915 42.3565C24.915 41.8191 24.8357 41.38 24.6771 41.0391C24.5209 40.6982 24.2877 40.4472 23.9775 40.2862C23.6674 40.1252 23.2851 40.0447 22.8305 40.0447H21.8504V44.6825ZM34.2714 42.3636C34.2714 43.1567 34.1211 43.8314 33.8204 44.3878C33.5221 44.9441 33.1149 45.3691 32.5988 45.6626C32.0851 45.9538 31.5074 46.0994 30.8659 46.0994C30.2195 46.0994 29.6395 45.9527 29.1258 45.6591C28.6121 45.3655 28.2061 44.9406 27.9078 44.3842C27.6095 43.8279 27.4603 43.1544 27.4603 42.3636C27.4603 41.5705 27.6095 40.8958 27.9078 40.3395C28.2061 39.7831 28.6121 39.3594 29.1258 39.0682C29.6395 38.7746 30.2195 38.6278 30.8659 38.6278C31.5074 38.6278 32.0851 38.7746 32.5988 39.0682C33.1149 39.3594 33.5221 39.7831 33.8204 40.3395C34.1211 40.8958 34.2714 41.5705 34.2714 42.3636ZM32.7124 42.3636C32.7124 41.8499 32.6355 41.4167 32.4816 41.0639C32.3301 40.7112 32.1159 40.4437 31.8389 40.2614C31.5619 40.0791 31.2375 39.9879 30.8659 39.9879C30.4942 39.9879 30.1698 40.0791 29.8928 40.2614C29.6159 40.4437 29.4004 40.7112 29.2465 41.0639C29.095 41.4167 29.0193 41.8499 29.0193 42.3636C29.0193 42.8774 29.095 43.3106 29.2465 43.6634C29.4004 44.0161 29.6159 44.2836 29.8928 44.4659C30.1698 44.6482 30.4942 44.7393 30.8659 44.7393C31.2375 44.7393 31.5619 44.6482 31.8389 44.4659C32.1159 44.2836 32.3301 44.0161 32.4816 43.6634C32.6355 43.3106 32.7124 42.8774 32.7124 42.3636ZM41.8273 41.2734H40.2719C40.2435 41.0722 40.1855 40.8935 40.0979 40.7372C40.0103 40.5786 39.8979 40.4437 39.7606 40.3324C39.6233 40.2211 39.4646 40.1359 39.2847 40.0767C39.1072 40.0175 38.9142 39.9879 38.7059 39.9879C38.3295 39.9879 38.0016 40.0814 37.7222 40.2685C37.4429 40.4531 37.2262 40.723 37.0724 41.0781C36.9185 41.4309 36.8415 41.8594 36.8415 42.3636C36.8415 42.8821 36.9185 43.3177 37.0724 43.6705C37.2286 44.0232 37.4464 44.2895 37.7258 44.4695C38.0051 44.6494 38.3283 44.7393 38.6952 44.7393C38.9012 44.7393 39.0918 44.7121 39.267 44.6577C39.4445 44.6032 39.6019 44.5239 39.7393 44.4197C39.8766 44.3132 39.9902 44.1842 40.0802 44.0327C40.1725 43.8812 40.2364 43.7083 40.2719 43.5142L41.8273 43.5213C41.7871 43.8551 41.6865 44.1771 41.5255 44.4872C41.3669 44.795 41.1526 45.0708 40.8827 45.3146C40.6152 45.5561 40.2956 45.7479 39.9239 45.8899C39.5546 46.0296 39.1367 46.0994 38.6704 46.0994C38.0217 46.0994 37.4417 45.9527 36.9303 45.6591C36.4213 45.3655 36.0189 44.9406 35.7229 44.3842C35.4294 43.8279 35.2826 43.1544 35.2826 42.3636C35.2826 41.5705 35.4317 40.8958 35.73 40.3395C36.0283 39.7831 36.4331 39.3594 36.9445 39.0682C37.4559 38.7746 38.0312 38.6278 38.6704 38.6278C39.0918 38.6278 39.4824 38.687 39.8422 38.8054C40.2045 38.9238 40.5252 39.0966 40.8046 39.3239C41.084 39.5488 41.3112 39.8246 41.4864 40.1513C41.664 40.478 41.7776 40.852 41.8273 41.2734Z" fill="#446CB2"/>
</g>
<defs>
<filter id="filter0_d_3174_15557" x="0" y="0" width="84" height="84" filterUnits="userSpaceOnUse" color-interpolation-filters="sRGB">
<feFlood flood-opacity="0" result="BackgroundImageFix"/>
<feColorMatrix in="SourceAlpha" type="matrix" values="0 0 0 0 0 0 0 0 0 0 0 0 0 0 0 0 0 0 127 0" result="hardAlpha"/>
<feOffset dy="4"/>
<feGaussianBlur stdDeviation="5"/>
<feComposite in2="hardAlpha" operator="out"/>
<feColorMatrix type="matrix" values="0 0 0 0 0 0 0 0 0 0 0 0 0 0 0 0 0 0 0.2 0"/>
<feBlend mode="normal" in2="BackgroundImageFix" result="effect1_dropShadow_3174_15557"/>
<feBlend mode="normal" in="SourceGraphic" in2="effect1_dropShadow_3174_15557" result="shape"/>
</filter>
</defs>
</svg>
