<svg width="84" height="84" viewBox="0 0 84 84" fill="none" xmlns="http://www.w3.org/2000/svg">
<g filter="url(#filter0_d_3174_15567)">
<path d="M32 70H64C69.5228 70 74 65.5228 74 60V38V26L56 6H46H32C26.4772 6 22 10.4772 22 16V60C22 65.5228 26.4772 70 32 70Z" fill="#F8951D"/>
<path d="M60 26H74L56 6V22C56 24.2091 57.7909 26 60 26Z" fill="#ED701B"/>
<rect x="11" y="35" width="37" height="16" rx="8" fill="white" stroke="#F8951D" stroke-width="2"/>
<path d="M21.3688 46.0923C21.1344 46.0923 20.9332 46.0095 20.7651 45.8438C20.5994 45.6757 20.5165 45.4744 20.5165 45.2401C20.5165 45.008 20.5994 44.8092 20.7651 44.6435C20.9332 44.4777 21.1344 44.3949 21.3688 44.3949C21.5961 44.3949 21.7949 44.4777 21.9654 44.6435C22.1358 44.8092 22.2211 45.008 22.2211 45.2401C22.2211 45.3963 22.1808 45.5395 22.1003 45.6697C22.0222 45.7976 21.9192 45.9006 21.7914 45.9787C21.6635 46.0545 21.5227 46.0923 21.3688 46.0923ZM28.3139 41.0781C28.2642 40.9053 28.1944 40.7526 28.1044 40.62C28.0144 40.4851 27.9044 40.3714 27.7741 40.2791C27.6463 40.1844 27.4995 40.1122 27.3338 40.0625C27.1705 40.0128 26.9893 39.9879 26.7905 39.9879C26.4188 39.9879 26.0921 40.0803 25.8104 40.2649C25.531 40.4496 25.3132 40.7183 25.157 41.071C25.0007 41.4214 24.9226 41.8499 24.9226 42.3565C24.9226 42.8632 24.9995 43.294 25.1534 43.6491C25.3073 44.0043 25.5251 44.2753 25.8068 44.4624C26.0885 44.647 26.4212 44.7393 26.8047 44.7393C27.1527 44.7393 27.4498 44.6778 27.696 44.5547C27.9446 44.4292 28.134 44.2528 28.2642 44.0256C28.3968 43.7983 28.4631 43.5296 28.4631 43.2195L28.7756 43.2656H26.9006V42.108H29.9439V43.0241C29.9439 43.6634 29.8089 44.2126 29.5391 44.6719C29.2692 45.1288 28.8975 45.4815 28.424 45.7301C27.9505 45.9763 27.4084 46.0994 26.7976 46.0994C26.1158 46.0994 25.5168 45.9491 25.0007 45.6484C24.4846 45.3454 24.0821 44.9157 23.7933 44.3594C23.5069 43.8007 23.3636 43.1378 23.3636 42.3707C23.3636 41.7812 23.4489 41.2557 23.6193 40.794C23.7921 40.33 24.0336 39.937 24.3438 39.6151C24.6539 39.2931 25.0149 39.0481 25.4268 38.88C25.8388 38.7119 26.285 38.6278 26.7656 38.6278C27.1776 38.6278 27.5611 38.6882 27.9162 38.8089C28.2713 38.9273 28.5862 39.0954 28.8608 39.3132C29.1378 39.531 29.3639 39.7902 29.5391 40.0909C29.7143 40.3892 29.8267 40.7183 29.8764 41.0781H28.3139ZM32.6365 38.7273V46H31.0989V38.7273H32.6365ZM33.9016 46V38.7273H38.717V39.995H35.4393V41.728H38.3974V42.9957H35.4393V46H33.9016Z" fill="#F8951D"/>
</g>
<defs>
<filter id="filter0_d_3174_15567" x="0" y="0" width="84" height="84" filterUnits="userSpaceOnUse" color-interpolation-filters="sRGB">
<feFlood flood-opacity="0" result="BackgroundImageFix"/>
<feColorMatrix in="SourceAlpha" type="matrix" values="0 0 0 0 0 0 0 0 0 0 0 0 0 0 0 0 0 0 127 0" result="hardAlpha"/>
<feOffset dy="4"/>
<feGaussianBlur stdDeviation="5"/>
<feComposite in2="hardAlpha" operator="out"/>
<feColorMatrix type="matrix" values="0 0 0 0 0 0 0 0 0 0 0 0 0 0 0 0 0 0 0.2 0"/>
<feBlend mode="normal" in2="BackgroundImageFix" result="effect1_dropShadow_3174_15567"/>
<feBlend mode="normal" in="SourceGraphic" in2="effect1_dropShadow_3174_15567" result="shape"/>
</filter>
</defs>
</svg>
