<svg width="84" height="84" viewBox="0 0 84 84" fill="none" xmlns="http://www.w3.org/2000/svg">
<g filter="url(#filter0_d_3174_15562)">
<path d="M32 70H64C69.5228 70 74 65.5228 74 60V38V26L56 6H46H32C26.4772 6 22 10.4772 22 16V60C22 65.5228 26.4772 70 32 70Z" fill="#EE417F"/>
<path d="M60 26H74L56 6V22C56 24.2091 57.7909 26 60 26Z" fill="#CB3C6F"/>
<rect x="11" y="35" width="37" height="16" rx="8" fill="white" stroke="#EE417F" stroke-width="2"/>
<path d="M19.0153 46.0923C18.7809 46.0923 18.5797 46.0095 18.4116 45.8438C18.2459 45.6757 18.163 45.4744 18.163 45.2401C18.163 45.008 18.2459 44.8092 18.4116 44.6435C18.5797 44.4777 18.7809 44.3949 19.0153 44.3949C19.2425 44.3949 19.4414 44.4777 19.6119 44.6435C19.7823 44.8092 19.8675 45.008 19.8675 45.2401C19.8675 45.3963 19.8273 45.5395 19.7468 45.6697C19.6687 45.7976 19.5657 45.9006 19.4379 45.9787C19.31 46.0545 19.1692 46.0923 19.0153 46.0923ZM21.138 38.7273H23.0343L25.0371 43.6136H25.1223L27.1252 38.7273H29.0215V46H27.53V41.2663H27.4696L25.5875 45.9645H24.5719L22.6898 41.2486H22.6294V46H21.138V38.7273ZM32.7244 46.1065C32.1728 46.1065 31.6958 45.9893 31.2933 45.755C30.8932 45.5182 30.5843 45.1892 30.3665 44.7678C30.1487 44.344 30.0398 43.8527 30.0398 43.294C30.0398 42.7306 30.1487 42.2382 30.3665 41.8168C30.5843 41.393 30.8932 41.0639 31.2933 40.8295C31.6958 40.5928 32.1728 40.4744 32.7244 40.4744C33.276 40.4744 33.7519 40.5928 34.152 40.8295C34.5545 41.0639 34.8646 41.393 35.0824 41.8168C35.3002 42.2382 35.4091 42.7306 35.4091 43.294C35.4091 43.8527 35.3002 44.344 35.0824 44.7678C34.8646 45.1892 34.5545 45.5182 34.152 45.755C33.7519 45.9893 33.276 46.1065 32.7244 46.1065ZM32.7315 44.9347C32.9825 44.9347 33.192 44.8636 33.3601 44.7216C33.5282 44.5772 33.6548 44.3807 33.7401 44.1321C33.8277 43.8835 33.8714 43.6006 33.8714 43.2834C33.8714 42.9661 33.8277 42.6832 33.7401 42.4347C33.6548 42.1861 33.5282 41.9896 33.3601 41.8452C33.192 41.7008 32.9825 41.6286 32.7315 41.6286C32.4782 41.6286 32.2652 41.7008 32.0923 41.8452C31.9219 41.9896 31.7929 42.1861 31.7053 42.4347C31.62 42.6832 31.5774 42.9661 31.5774 43.2834C31.5774 43.6006 31.62 43.8835 31.7053 44.1321C31.7929 44.3807 31.9219 44.5772 32.0923 44.7216C32.2652 44.8636 32.4782 44.9347 32.7315 44.9347ZM41.3022 40.5455L39.3952 46H37.6907L35.7837 40.5455H37.3817L38.5146 44.4482H38.5714L39.7006 40.5455H41.3022Z" fill="#EE417F"/>
</g>
<defs>
<filter id="filter0_d_3174_15562" x="0" y="0" width="84" height="84" filterUnits="userSpaceOnUse" color-interpolation-filters="sRGB">
<feFlood flood-opacity="0" result="BackgroundImageFix"/>
<feColorMatrix in="SourceAlpha" type="matrix" values="0 0 0 0 0 0 0 0 0 0 0 0 0 0 0 0 0 0 127 0" result="hardAlpha"/>
<feOffset dy="4"/>
<feGaussianBlur stdDeviation="5"/>
<feComposite in2="hardAlpha" operator="out"/>
<feColorMatrix type="matrix" values="0 0 0 0 0 0 0 0 0 0 0 0 0 0 0 0 0 0 0.2 0"/>
<feBlend mode="normal" in2="BackgroundImageFix" result="effect1_dropShadow_3174_15562"/>
<feBlend mode="normal" in="SourceGraphic" in2="effect1_dropShadow_3174_15562" result="shape"/>
</filter>
</defs>
</svg>
