<svg width="84" height="84" viewBox="0 0 84 84" fill="none" xmlns="http://www.w3.org/2000/svg">
<g filter="url(#filter0_d_3174_15542)">
<path d="M32 70H64C69.5228 70 74 65.5228 74 60V38V26L56 6L46 6L32 6C26.4772 6 22 10.4772 22 16L22 60C22 65.5228 26.4772 70 32 70Z" fill="#674172"/>
<path d="M60 26L74 26L56 6V22C56 24.2091 57.7909 26 60 26Z" fill="#592668"/>
<rect x="11" y="35" width="37" height="16" rx="8" fill="white" stroke="#674172" stroke-width="2"/>
<path d="M18.3903 46.0923C18.1559 46.0923 17.9547 46.0095 17.7866 45.8438C17.6209 45.6757 17.538 45.4744 17.538 45.2401C17.538 45.008 17.6209 44.8092 17.7866 44.6435C17.9547 44.4777 18.1559 44.3949 18.3903 44.3949C18.6175 44.3949 18.8164 44.4777 18.9869 44.6435C19.1573 44.8092 19.2425 45.008 19.2425 45.2401C19.2425 45.3963 19.2023 45.5395 19.1218 45.6697C19.0437 45.7976 18.9407 45.9006 18.8129 45.9787C18.685 46.0545 18.5442 46.0923 18.3903 46.0923ZM20.513 38.7273H22.4093L24.4121 43.6136H24.4973L26.5002 38.7273H28.3965V46H26.905V41.2663H26.8446L24.9625 45.9645H23.9469L22.0648 41.2486H22.0044V46H20.513V38.7273ZM29.6634 46V38.7273H32.5327C33.0843 38.7273 33.5542 38.8326 33.9425 39.0433C34.3307 39.2517 34.6267 39.5417 34.8303 39.9134C35.0362 40.2827 35.1392 40.7088 35.1392 41.1918C35.1392 41.6747 35.035 42.1009 34.8267 42.4702C34.6184 42.8395 34.3165 43.1271 33.9212 43.3331C33.5282 43.5391 33.0523 43.642 32.4936 43.642H30.6648V42.4098H32.245C32.541 42.4098 32.7848 42.3589 32.9766 42.2571C33.1707 42.1529 33.3151 42.0097 33.4098 41.8274C33.5069 41.6428 33.5554 41.4309 33.5554 41.1918C33.5554 40.9503 33.5069 40.7396 33.4098 40.5597C33.3151 40.3774 33.1707 40.2365 32.9766 40.1371C32.7824 40.0353 32.5362 39.9844 32.2379 39.9844H31.201V46H29.6634ZM38.7836 46.0994C38.2533 46.0994 37.781 46.0083 37.3667 45.826C36.9547 45.6413 36.6292 45.388 36.3901 45.0661C36.1533 44.7417 36.0314 44.3677 36.0243 43.9439H37.5726C37.5821 44.1214 37.6401 44.2777 37.7466 44.4126C37.8555 44.5452 37.9999 44.6482 38.1799 44.7216C38.3598 44.795 38.5622 44.8317 38.7871 44.8317C39.0215 44.8317 39.2286 44.7902 39.4086 44.7074C39.5885 44.6245 39.7293 44.5097 39.8311 44.3629C39.9329 44.2161 39.9838 44.0469 39.9838 43.8551C39.9838 43.661 39.9294 43.4893 39.8205 43.3402C39.714 43.1887 39.5601 43.0703 39.3588 42.9851C39.16 42.8999 38.9232 42.8572 38.6486 42.8572H37.9703V41.728H38.6486C38.8806 41.728 39.0854 41.6877 39.263 41.6072C39.4429 41.5268 39.5826 41.4155 39.682 41.2734C39.7814 41.129 39.8311 40.9609 39.8311 40.7692C39.8311 40.5869 39.7873 40.4271 39.6998 40.2898C39.6145 40.1501 39.4938 40.0412 39.3375 39.9631C39.1837 39.8849 39.0037 39.8459 38.7978 39.8459C38.5894 39.8459 38.3989 39.8838 38.226 39.9595C38.0532 40.0329 37.9147 40.1383 37.8105 40.2756C37.7064 40.4129 37.6507 40.5739 37.6436 40.7585H36.1699C36.177 40.3395 36.2966 39.9702 36.5286 39.6506C36.7606 39.331 37.0731 39.0812 37.4661 38.9013C37.8614 38.719 38.3077 38.6278 38.8049 38.6278C39.3068 38.6278 39.7459 38.719 40.1223 38.9013C40.4988 39.0836 40.7911 39.3298 40.9995 39.6399C41.2102 39.9477 41.3143 40.2933 41.312 40.6768C41.3143 41.084 41.1877 41.4238 40.932 41.696C40.6787 41.9683 40.3484 42.1411 39.9412 42.2145V42.2713C40.4763 42.34 40.8835 42.5258 41.1628 42.8288C41.4445 43.1295 41.5842 43.5059 41.5819 43.9581C41.5842 44.3724 41.4647 44.7405 41.2232 45.0625C40.9841 45.3845 40.6538 45.6378 40.2324 45.8224C39.811 46.0071 39.3281 46.0994 38.7836 46.0994Z" fill="#674172"/>
</g>
<defs>
<filter id="filter0_d_3174_15542" x="0" y="0" width="84" height="84" filterUnits="userSpaceOnUse" color-interpolation-filters="sRGB">
<feFlood flood-opacity="0" result="BackgroundImageFix"/>
<feColorMatrix in="SourceAlpha" type="matrix" values="0 0 0 0 0 0 0 0 0 0 0 0 0 0 0 0 0 0 127 0" result="hardAlpha"/>
<feOffset dy="4"/>
<feGaussianBlur stdDeviation="5"/>
<feComposite in2="hardAlpha" operator="out"/>
<feColorMatrix type="matrix" values="0 0 0 0 0 0 0 0 0 0 0 0 0 0 0 0 0 0 0.2 0"/>
<feBlend mode="normal" in2="BackgroundImageFix" result="effect1_dropShadow_3174_15542"/>
<feBlend mode="normal" in="SourceGraphic" in2="effect1_dropShadow_3174_15542" result="shape"/>
</filter>
</defs>
</svg>
