<svg width="84" height="84" viewBox="0 0 84 84" fill="none" xmlns="http://www.w3.org/2000/svg">
<g filter="url(#filter0_d_3174_15552)">
<path d="M32 70H64C69.5228 70 74 65.5228 74 60V38V26L56 6H46L32 6C26.4772 6 22 10.4772 22 16L22 60C22 65.5228 26.4772 70 32 70Z" fill="#90C695"/>
<path d="M60 26H74L56 6V22C56 24.2091 57.7909 26 60 26Z" fill="#73AD79"/>
<rect x="11" y="35" width="37" height="16" rx="8" fill="white" stroke="#90C695" stroke-width="2"/>
<path d="M21.525 46.0923C21.2907 46.0923 21.0894 46.0095 20.9213 45.8438C20.7556 45.6757 20.6728 45.4744 20.6728 45.2401C20.6728 45.008 20.7556 44.8092 20.9213 44.6435C21.0894 44.4777 21.2907 44.3949 21.525 44.3949C21.7523 44.3949 21.9512 44.4777 22.1216 44.6435C22.2921 44.8092 22.3773 45.008 22.3773 45.2401C22.3773 45.3963 22.3371 45.5395 22.2566 45.6697C22.1784 45.7976 22.0755 45.9006 21.9476 45.9787C21.8198 46.0545 21.6789 46.0923 21.525 46.0923ZM23.5696 46V45.0874L27.1989 39.995H23.5625V38.7273H29.1307V39.6399L25.4979 44.7322H29.1378V46H23.5696ZM31.8553 38.7273V46H30.3176V38.7273H31.8553ZM33.1204 46V38.7273H35.9897C36.5413 38.7273 37.0112 38.8326 37.3995 39.0433C37.7878 39.2517 38.0837 39.5417 38.2873 39.9134C38.4933 40.2827 38.5962 40.7088 38.5962 41.1918C38.5962 41.6747 38.4921 42.1009 38.2837 42.4702C38.0754 42.8395 37.7736 43.1271 37.3782 43.3331C36.9852 43.5391 36.5094 43.642 35.9506 43.642H34.1218V42.4098H35.7021C35.998 42.4098 36.2418 42.3589 36.4336 42.2571C36.6277 42.1529 36.7721 42.0097 36.8668 41.8274C36.9639 41.6428 37.0124 41.4309 37.0124 41.1918C37.0124 40.9503 36.9639 40.7396 36.8668 40.5597C36.7721 40.3774 36.6277 40.2365 36.4336 40.1371C36.2395 40.0353 35.9933 39.9844 35.695 39.9844H34.658V46H33.1204Z" fill="#90C695"/>
</g>
<defs>
<filter id="filter0_d_3174_15552" x="0" y="0" width="84" height="84" filterUnits="userSpaceOnUse" color-interpolation-filters="sRGB">
<feFlood flood-opacity="0" result="BackgroundImageFix"/>
<feColorMatrix in="SourceAlpha" type="matrix" values="0 0 0 0 0 0 0 0 0 0 0 0 0 0 0 0 0 0 127 0" result="hardAlpha"/>
<feOffset dy="4"/>
<feGaussianBlur stdDeviation="5"/>
<feComposite in2="hardAlpha" operator="out"/>
<feColorMatrix type="matrix" values="0 0 0 0 0 0 0 0 0 0 0 0 0 0 0 0 0 0 0.2 0"/>
<feBlend mode="normal" in2="BackgroundImageFix" result="effect1_dropShadow_3174_15552"/>
<feBlend mode="normal" in="SourceGraphic" in2="effect1_dropShadow_3174_15552" result="shape"/>
</filter>
</defs>
</svg>
