<svg width="51" height="52" viewBox="0 0 51 52" fill="none" xmlns="http://www.w3.org/2000/svg">
<path d="M23.1094 22.5998L19.455 18.9453L17.2014 21.1989L23.1094 27.1069L33.7987 16.4176L31.5452 14.1641L23.1094 22.5998Z" fill="#32BA91"/>
<path d="M43.0312 20.0723C43.0312 10.3918 35.1836 2.54102 25.5 2.54102C15.8196 2.54102 7.96875 10.3918 7.96875 20.0723C7.96875 26.782 11.7443 32.6071 17.2826 35.554L15.9375 50.3535L25.5 43.9785L35.0625 50.3535L33.7174 35.554C36.5296 34.0627 38.8825 31.8336 40.5234 29.106C42.1643 26.3784 43.0313 23.2554 43.0312 20.0723V20.0723ZM25.5 34.416C17.5775 34.416 11.1562 27.9948 11.1562 20.0723C11.1562 12.1497 17.5775 5.72852 25.5 5.72852C33.4225 5.72852 39.8438 12.1497 39.8438 20.0723C39.8438 27.9948 33.4225 34.416 25.5 34.416Z" fill="#32BA91"/>
</svg>
