<svg width="39" height="39" viewBox="0 0 39 39" fill="none" xmlns="http://www.w3.org/2000/svg">
<path d="M34.375 4.57227H30.125V0.322266H8.875V4.57227H4.625C2.2875 4.57227 0.375 6.48477 0.375 8.82227V10.9473C0.375 16.366 4.455 20.786 9.70375 21.4448C11.0425 24.6323 13.9113 27.0335 17.375 27.7348V34.3223H8.875V38.5723H30.125V34.3223H21.625V27.7348C25.0888 27.0335 27.9575 24.6323 29.2963 21.4448C34.545 20.786 38.625 16.366 38.625 10.9473V8.82227C38.625 6.48477 36.7125 4.57227 34.375 4.57227ZM4.625 10.9473V8.82227H8.875V16.9398C6.41 16.0473 4.625 13.7098 4.625 10.9473ZM34.375 10.9473C34.375 13.7098 32.59 16.0473 30.125 16.9398V8.82227H34.375V10.9473Z" fill="#F9A825"/>
</svg>
