<svg width="18" height="18" viewBox="0 0 18 18" fill="none" xmlns="http://www.w3.org/2000/svg">
<path d="M16 2.00004H14V0H4V2.00004H2C0.9 2.00004 0 2.90005 0 4.00007V5.00009C0 7.55013 1.92 9.63017 4.39 9.94017C5.02 11.4402 6.37 12.5702 8 12.9002V16.0003H4V18.0003H14V16.0003H10V12.9002C11.63 12.5702 12.98 11.4402 13.61 9.94017C16.08 9.63017 18 7.55013 18 5.00009V4.00007C18 2.90005 17.1 2.00004 16 2.00004ZM2 5.00009V4.00007H4V7.82014C2.84 7.40013 2 6.30011 2 5.00009ZM16 5.00009C16 6.30011 15.16 7.40013 14 7.82014V4.00007H16V5.00009Z" fill="#F9A825"/>
</svg>
