<svg width="15" height="15" viewBox="0 0 15 15" fill="none" xmlns="http://www.w3.org/2000/svg">
<path d="M11.3333 6.33301V7.66634H10.5533L13.56 10.673C14.26 9.61967 14.6666 8.35967 14.6666 6.99967C14.6666 3.31967 11.68 0.333008 7.99997 0.333008C6.63997 0.333008 5.37997 0.739675 4.32664 1.43967L9.21997 6.33301H11.3333ZM0.926636 1.81301L2.43997 3.32634C1.73997 4.37967 1.3333 5.63967 1.3333 6.99967C1.3333 10.6797 4.31997 13.6663 7.99997 13.6663C9.35997 13.6663 10.62 13.2597 11.6733 12.5597L13.1866 14.073L14.1266 13.133L1.8733 0.873008L0.926636 1.81301ZM4.66664 6.33301H5.44664L6.77997 7.66634H4.66664V6.33301Z" fill="black" fill-opacity="0.38"/>
</svg>
