<svg width="14" height="14" viewBox="0 0 14 14" fill="none" xmlns="http://www.w3.org/2000/svg">
<path d="M7.00004 0.333008C3.32004 0.333008 0.333374 3.31967 0.333374 6.99967C0.333374 10.6797 3.32004 13.6663 7.00004 13.6663C10.68 13.6663 13.6667 10.6797 13.6667 6.99967C13.6667 3.31967 10.68 0.333008 7.00004 0.333008ZM7.00004 12.333C4.06004 12.333 1.66671 9.93967 1.66671 6.99967C1.66671 4.05967 4.06004 1.66634 7.00004 1.66634C9.94004 1.66634 12.3334 4.05967 12.3334 6.99967C12.3334 9.93967 9.94004 12.333 7.00004 12.333ZM7.00004 2.99967C4.80004 2.99967 3.00004 4.79967 3.00004 6.99967C3.00004 9.19967 4.80004 10.9997 7.00004 10.9997C9.20004 10.9997 11 9.19967 11 6.99967C11 4.79967 9.26671 2.99967 7.00004 2.99967ZM9.00004 7.66634H5.00004V6.33301H9.00004V7.66634Z" fill="#F16D50"/>
</svg>
