<svg width="24" height="20" viewBox="0 0 24 20" fill="none" xmlns="http://www.w3.org/2000/svg">
<path d="M21.3512 5.53943C21.3665 5.7436 21.3665 5.9466 21.3665 6.1496C21.3665 12.3621 16.5781 19.5208 7.82705 19.5208C5.13096 19.5208 2.62627 18.7496 0.518555 17.4103C0.901347 17.4534 1.26996 17.4686 1.66811 17.4686C3.81009 17.4737 5.8914 16.7664 7.57658 15.4608C6.58347 15.443 5.62077 15.1195 4.82288 14.5353C4.025 13.9511 3.43177 13.1355 3.12603 12.2023C3.42021 12.2454 3.71558 12.2746 4.02512 12.2746C4.45163 12.2746 4.88049 12.2163 5.27865 12.1148C4.20087 11.8999 3.23174 11.323 2.53603 10.4822C1.84033 9.64145 1.46099 8.58868 1.46254 7.50293V7.4446C2.09698 7.79343 2.83303 8.0116 3.61279 8.04076C2.95955 7.61211 2.42391 7.03046 2.05367 6.34769C1.68342 5.66492 1.49008 4.90226 1.49089 4.12777C1.49089 3.2551 1.726 2.45477 2.13833 1.7571C3.33413 3.20963 4.82556 4.39792 6.51603 5.24503C8.2065 6.09215 10.0583 6.57918 11.9515 6.6746C11.8783 6.3246 11.8334 5.96177 11.8334 5.59777C11.8331 4.98056 11.9559 4.36934 12.195 3.79905C12.434 3.22876 12.7846 2.71059 13.2265 2.27416C13.6685 1.83772 14.1932 1.49158 14.7708 1.25553C15.3483 1.01947 15.9672 0.898131 16.5923 0.898438C17.9628 0.898438 19.1998 1.46544 20.0693 2.38244C21.1347 2.17899 22.1564 1.79493 23.0891 1.24727C22.734 2.33322 21.9901 3.25406 20.9968 3.83727C21.9417 3.73084 22.8651 3.48546 23.7366 3.10927C23.0857 4.04622 22.2792 4.86784 21.3512 5.53943Z" fill="#1DA1F2"/>
</svg>
