<svg width="20" height="18" viewBox="0 0 20 18" fill="none" xmlns="http://www.w3.org/2000/svg">
<path d="M10 0L0 2V16L10 18V0ZM12 2V4H18V6H12V8H18V10H12V12H18V14H12V16H19C19.552 16 20 15.552 20 15V3C20 2.448 19.552 2 19 2H12ZM1.29492 5.29492H2.83008L3.32227 8.77344C3.35727 8.98244 3.38458 9.26714 3.39258 9.61914H3.41797C3.42597 9.36214 3.46244 9.06891 3.52344 8.75391L4.1543 5.29492H6.02344L6.60742 8.74219C6.64242 8.92319 6.66736 9.1892 6.69336 9.5332H6.71289C6.72089 9.2662 6.74725 8.98913 6.78125 8.70312L7.25977 5.29492H8.70312L7.32031 12.7051H6.00586L5.12695 8.74414C5.08295 8.49714 5.05883 8.21906 5.04883 7.91406H5.03125C5.01325 8.24706 4.97855 8.52414 4.93555 8.74414L4.03906 12.7051H2.67188L1.29492 5.29492Z" fill="#616161"/>
</svg>
