<svg width="25" height="17" viewBox="0 0 25 17" fill="none" xmlns="http://www.w3.org/2000/svg">
<path d="M24.0393 14.2094C23.9048 14.7059 23.6411 15.1587 23.2745 15.5224C22.908 15.8862 22.4515 16.1481 21.9507 16.2821C20.1073 16.7734 12.7179 16.7734 12.7179 16.7734C12.7179 16.7734 5.32852 16.7734 3.48512 16.2847C2.98411 16.1512 2.52736 15.8894 2.16074 15.5255C1.79413 15.1617 1.53055 14.7087 1.39647 14.212C0.90332 12.3823 0.90332 8.56628 0.90332 8.56628C0.90332 8.56628 0.90332 4.75022 1.39647 2.92321C1.6681 1.91431 2.46981 1.11973 3.48512 0.850514C5.32852 0.359131 12.7179 0.359131 12.7179 0.359131C12.7179 0.359131 20.1073 0.359131 21.9507 0.850514C22.9686 1.11973 23.7677 1.91431 24.0393 2.92321C24.5325 4.75022 24.5325 8.56628 24.5325 8.56628C24.5325 8.56628 24.5325 12.3823 24.0393 14.2094ZM10.3708 5.06387V12.0687L16.4891 8.59242L10.3708 5.06387Z" fill="#FF0000"/>
</svg>
