<?xml version="1.0" encoding="utf-8"?>
<!-- Generator: Adobe Illustrator 19.0.0, SVG Export Plug-In . SVG Version: 6.00 Build 0)  -->
<svg version="1.1" id="Layer_1" xmlns="http://www.w3.org/2000/svg" xmlns:xlink="http://www.w3.org/1999/xlink" x="0px" y="0px"
	 viewBox="75 89.9 745 663" style="enable-background:new 75 89.9 745 663;" xml:space="preserve">
<style type="text/css">
	.st0{fill:#010101;}
	.st1{fill:none;stroke:#010101;stroke-width:30;stroke-linecap:round;stroke-linejoin:round;stroke-miterlimit:10;}
	.st2{stroke:#010101;stroke-width:30;stroke-linecap:round;stroke-linejoin:round;stroke-miterlimit:10;}
	.st3{fill:none;}
	.st4{fill:none;stroke:#010101;stroke-width:15;stroke-linecap:round;stroke-miterlimit:10;}
</style>
<g id="Layer_4_2_">
	<g>
		<path class="st0" d="M326.9,197.9c6.5,0,10.3,2.8,11.3,4.1v43c-1,1.3-4.8,4.1-11.3,4.1H219.5c-6.5,0-10.3-2.8-11.3-4.1v-43
			c1-1.3,4.8-4.1,11.3-4.1H326.9 M326.9,167.9H219.5c-22.7,0-41.3,15.1-41.3,33.5v44.3c0,18.4,18.6,33.5,41.3,33.5h107.4
			c22.7,0,41.3-15.1,41.3-33.5v-44.3C368.2,183,349.6,167.9,326.9,167.9L326.9,167.9z"/>
	</g>
	<g>
		<path class="st0" d="M561.2,197.9c6.5,0,10.3,2.8,11.3,4.1v43c-1,1.3-4.8,4.1-11.3,4.1H453.8c-6.5,0-10.3-2.8-11.3-4.1v-43
			c1-1.3,4.8-4.1,11.3-4.1H561.2 M561.2,167.9H453.8c-22.7,0-41.3,15.1-41.3,33.5v44.3c0,18.4,18.6,33.5,41.3,33.5h107.4
			c22.7,0,41.3-15.1,41.3-33.5v-44.3C602.5,183,583.9,167.9,561.2,167.9L561.2,167.9z"/>
	</g>
	<g>
		<path d="M219.5,403.2c-14,0-26.3-8.6-26.3-18.5v-44.3c0-9.8,12.3-18.5,26.3-18.5h107.4c14,0,26.3,8.6,26.3,18.5v44.3
			c0,9.8-12.3,18.5-26.3,18.5H219.5z"/>
		<path class="st0" d="M326.9,336.9c6.5,0,10.3,2.8,11.3,4.1v43c-1,1.3-4.8,4.1-11.3,4.1H219.5c-6.5,0-10.3-2.8-11.3-4.1v-43
			c1-1.3,4.8-4.1,11.3-4.1H326.9 M326.9,306.9H219.5c-22.7,0-41.3,15.1-41.3,33.5v44.3c0,18.4,18.6,33.5,41.3,33.5h107.4
			c22.7,0,41.3-15.1,41.3-33.5v-44.3C368.2,322,349.6,306.9,326.9,306.9L326.9,306.9z"/>
	</g>
	<g>
		<path class="st0" d="M561.2,336.9c6.5,0,10.3,2.8,11.3,4.1v43c-1,1.3-4.8,4.1-11.3,4.1H453.8c-6.5,0-10.3-2.8-11.3-4.1v-43
			c1-1.3,4.8-4.1,11.3-4.1H561.2 M561.2,306.9H453.8c-22.7,0-41.3,15.1-41.3,33.5v44.3c0,18.4,18.6,33.5,41.3,33.5h107.4
			c22.7,0,41.3-15.1,41.3-33.5v-44.3C602.5,322,583.9,306.9,561.2,306.9L561.2,306.9z"/>
	</g>
	<path class="st1" d="M493.4,561.9H148.6c-28.1,0-50.9-23.4-50.9-52.3V165.2c0-28.9,22.8-52.3,50.9-52.3h482.5
		c28.1,0,50.9,23.4,50.9,52.3v242.4"/>
</g>
<line class="st1" x1="99" y1="473.1" x2="552.7" y2="473.1"/>
<path class="st2" d="M249.3,683.6h307.9c-12.5,0.3-30.3-1.4-48.3-10.9C454,643.9,451.6,571.1,451.6,567"/>
<path class="st2" d="M538.4,683.6H230.5c12.5,0.3,30.3-1.4,48.3-10.9c54.9-28.9,57.3-101.7,57.4-105.7"/>
<g>
	<path class="st0" d="M677.7,601.4l-2.8,2c-12.1,8.5-28.8,5.5-37.3-6.6l-22.3-31.9c-8.5-12.1-5.5-28.8,6.6-37.3l2.8-2
		c12.1-8.5,28.8-5.5,37.3,6.6l22.3,31.9C692.8,576.2,689.9,592.9,677.7,601.4z"/>
	<path class="st0" d="M790.7,576.1l-25.1-35.9l-7.4-10.6L737,499.3c-4-5.8-8.8-11-14-15.5c-2.3-2-4.7-3.8-7.2-5.5c0,0,0,0-0.1,0
		c-8.1-5.6-17.3-9.6-26.9-12c-0.5-0.1-1.1-0.3-1.6-0.4c-0.3-0.1-0.5-0.1-0.8-0.2c-5.7-1.2-11.5-1.9-17.5-1.9c-1.1,0-2.1,0-3.2,0.1
		c-1.1,0-2.1,0.1-3.2,0.2c0,0,0,0,0,0c-1,0.1-2.1,0.2-3.1,0.3c-1,0.1-2.1,0.3-3.1,0.4c-5.2,0.8-10.3,2.1-15.2,3.8
		c-1,0.3-2,0.7-2.9,1.1c-2.9,1.2-5.8,2.5-8.6,4c-0.9,0.5-1.8,1-2.8,1.6c-1.8,1.1-3.6,2.2-5.4,3.5L584,505.2l-1.3,0.9
		c0,0-0.1,0.1-0.1,0.1c-1.1,0.8-2.2,1.6-3.3,2.4c-0.2,0.1-0.3,0.3-0.5,0.4c-0.9,0.8-1.9,1.5-2.8,2.3c0,0-0.1,0.1-0.1,0.1
		c-0.6,0.5-1.2,1-1.7,1.5c-0.6,0.5-1.1,1-1.7,1.6c0,0,0,0,0,0c-0.5,0.5-1.1,1.1-1.6,1.6c-24.4,25-30.6,63.1-15.1,94.6
		c0.6,1.2,1.2,2.4,1.9,3.6c0,0,0,0.1,0.1,0.2c0.6,1,1.2,2.1,1.8,3.1c0.1,0.2,0.2,0.4,0.3,0.5c0.7,1.2,1.5,2.4,2.3,3.5c0,0,0,0,0,0v0
		l29.2,41.8l4.5,6.5l20,28.5c19.9,28.5,52.6,45.5,87.5,45.5c21.9,0,43-6.7,61-19.3c23.3-16.3,38.9-40.8,43.9-68.8
		C813.3,627.8,807.1,599.5,790.7,576.1z M618.4,640.8c-2.1,0-4.1,0-6.2-0.2l-25.4-36.3c-0.8-1.1-1.5-2.3-2.2-3.5
		c-0.7-1.1-1.3-2.3-1.9-3.5c-0.6-1.2-1.1-2.4-1.6-3.6c-0.2-0.5-0.4-1-0.6-1.5c-0.4-1-0.7-2-1-3c-0.5-1.8-1-3.6-1.3-5.4
		c-3.3-17.3,2.3-35.6,15.4-48.2c1.9-1.8,4-3.5,6.3-5.1l38.9-27.2c9.2-6.5,19.8-9.5,30.3-9.5c14.8,0,29.3,6.2,39.6,17.8
		c1.3,1.5,2.6,3.1,3.8,4.8l21.2,30.3c-5.7,28.2-22.1,54.5-48,72.5C665.1,633.8,641.5,640.8,618.4,640.8z"/>
	<path class="st3" d="M702.9,644c-21.1,14.7-45.1,23.6-70.1,26.1l7.7,11.1c14.9,21.3,38.7,32.7,62.9,32.7c15.2,0,30.5-4.5,43.9-13.8
		c34.7-24.3,43.1-72,18.9-106.7l-10.7-15.2C744.9,604.4,726.8,627.3,702.9,644z"/>
	<path class="st0" d="M559.9,618.1c-0.1-0.2-0.2-0.4-0.3-0.5C559.7,617.7,559.8,617.9,559.9,618.1z"/>
	<path class="st0" d="M578.8,509c0.2-0.1,0.3-0.3,0.5-0.4C579.1,508.7,579,508.9,578.8,509z"/>
	<path class="st0" d="M687.3,466c0.5,0.1,1.1,0.2,1.6,0.4C688.4,466.2,687.8,466.1,687.3,466z"/>
	<path class="st0" d="M575.9,511.4c0,0,0.1-0.1,0.1-0.1C576,511.3,575.9,511.4,575.9,511.4z"/>
	<path class="st0" d="M715.8,478.4C715.8,478.4,715.8,478.4,715.8,478.4C715.8,478.4,715.8,478.4,715.8,478.4z"/>
	<path class="st0" d="M557.7,614.4c0,0,0-0.1-0.1-0.1C557.7,614.3,557.7,614.4,557.7,614.4z"/>
	<path class="st0" d="M562.2,621.6C562.2,621.6,562.2,621.6,562.2,621.6C562.2,621.6,562.2,621.6,562.2,621.6l29.2,41.8l-3.8-5.5
		L562.2,621.6z"/>
	<path class="st0" d="M621.6,478.9c14-9.8,30.4-15,47.5-15h0c5.9,0,11.8,0.6,17.4,1.9c-5.7-1.2-11.5-1.9-17.4-1.9
		C652,464,635.6,469.1,621.6,478.9l-38.9,27.2c0,0-0.1,0.1-0.1,0.1c0,0,0.1-0.1,0.1-0.1L621.6,478.9z"/>
	<path class="st0" d="M559.6,617.5c-0.6-1-1.3-2.1-1.8-3.1C558.3,615.5,558.9,616.5,559.6,617.5z"/>
	<polygon class="st0" points="596,669.8 596,669.8 591.4,663.4 	"/>
	<path class="st0" d="M576,511.3c0.9-0.8,1.8-1.5,2.8-2.3C577.9,509.8,576.9,510.5,576,511.3z"/>
	<path class="st0" d="M579.3,508.6c1.1-0.8,2.2-1.6,3.3-2.4C581.5,507,580.4,507.8,579.3,508.6z"/>
	<path class="st0" d="M562.2,621.5c-0.8-1.2-1.6-2.3-2.3-3.5C560.6,619.2,561.4,620.4,562.2,621.5z"/>
	<path class="st0" d="M686.5,465.8c0.3,0.1,0.5,0.1,0.8,0.2C687,465.9,686.8,465.9,686.5,465.8z"/>
	<path class="st0" d="M575.9,511.4c-14.4,12.4-24,29.2-27.4,48.2c-3.4,19-0.1,38.1,9.1,54.7C538.7,580.1,546.4,537,575.9,511.4z"/>
	<path class="st0" d="M688.9,466.4c9.6,2.4,18.7,6.5,26.9,12C707.6,472.8,698.5,468.7,688.9,466.4z"/>
	<path class="st0" d="M715.9,478.4c2.5,1.7,4.9,3.5,7.2,5.5C720.7,481.9,718.3,480.1,715.9,478.4z"/>
	<path d="M684.3,564.1L662,532.2c-8.5-12.1-25.2-15.1-37.3-6.6l-2.8,2c-12.1,8.5-15.1,25.2-6.6,37.3l22.3,31.9
		c8.5,12.1,25.2,15.1,37.3,6.6l2.8-2C689.9,592.9,692.8,576.2,684.3,564.1z"/>
</g>
<path class="st4" d="M558.8,469.5c0.5,3.1,3.7,21.3,20.8,33c15.7,10.8,32.2,8.6,35.7,8"/>
<rect x="337.6" y="559.9" width="117" height="73"/>
<g>
	<path class="st0" d="M677.7,601.4l-2.8,2c-12.1,8.5-28.8,5.5-37.3-6.6l-22.3-31.9c-8.5-12.1-5.5-28.8,6.6-37.3l2.8-2
		c12.1-8.5,28.8-5.5,37.3,6.6l22.3,31.9C692.8,576.2,689.9,592.9,677.7,601.4z"/>
</g>
</svg>
