<?xml version="1.0" encoding="utf-8"?>
<!-- Generator: Adobe Illustrator 19.0.0, SVG Export Plug-In . SVG Version: 6.00 Build 0)  -->
<svg version="1.1" id="Layer_1" xmlns="http://www.w3.org/2000/svg" xmlns:xlink="http://www.w3.org/1999/xlink" x="0px" y="0px"
	 viewBox="126 48.7 847.6 744.2" style="enable-background:new 126 48.7 847.6 744.2;" xml:space="preserve">
<style type="text/css">
	.st0{fill:#010101;stroke:#010101;stroke-width:30;stroke-linecap:round;stroke-linejoin:round;stroke-miterlimit:10;}
	.st1{fill:#FFFFFF;stroke:#010101;stroke-width:30;stroke-linecap:round;stroke-linejoin:round;stroke-miterlimit:10;}
	.st2{stroke:#010101;stroke-width:30;stroke-linecap:round;stroke-linejoin:round;stroke-miterlimit:10;}
	.st3{fill:none;stroke:#010101;stroke-width:30;stroke-linecap:round;stroke-linejoin:round;stroke-miterlimit:10;}
</style>
<polyline class="st0" points="764.3,575.3 764.3,780.8 338,780.8 338,575.3 "/>
<polygon class="st1" points="551.2,252 138,462.9 551.2,660.1 955.5,462.9 "/>
<ellipse class="st2" cx="546.7" cy="456.1" rx="52.9" ry="37"/>
<path class="st3" d="M599.7,460.2c92.1,15.5,184.3,31,276.4,46.6c0,40.2,0,80.3,0,120.5"/>
<polygon class="st2" points="852.6,742.3 876.1,589.5 899.6,742.3 "/>
<path class="st3" d="M757.3,237c-24.9-19-96.9-69-202.4-73.2c-112.5-4.5-192.1,46-217.2,63.4"/>
<path class="st3" d="M837,178.3C802.5,147.8,702.7,67.9,556.8,61.2c-155.7-7.1-266,73.7-300.7,101.5"/>
</svg>
