<?xml version="1.0" encoding="utf-8"?>
<!-- Generator: Adobe Illustrator 19.0.0, SVG Export Plug-In . SVG Version: 6.00 Build 0)  -->
<svg version="1.1" id="Layer_1" xmlns="http://www.w3.org/2000/svg" xmlns:xlink="http://www.w3.org/1999/xlink" x="0px" y="0px"
	 viewBox="80 90.1 738 665.8" style="enable-background:new 80 90.1 738 665.8;" xml:space="preserve">
<style type="text/css">
	.st0{fill:none;stroke:#000000;stroke-width:30;stroke-linecap:round;stroke-linejoin:round;stroke-miterlimit:10;}
	.st1{stroke:#000000;stroke-width:30;stroke-linecap:round;stroke-linejoin:round;stroke-miterlimit:10;}
</style>
<path class="st0" d="M362.5,175.6h368.2c39.2,0,70.9,31.2,70.9,69.6V563c0,38.4-31.7,69.6-70.9,69.6l-412,0.1l-141,110.3V632.6h-9.6
	c-39.2,0-70.9-31.2-70.9-69.6V245.2c0-38.4,31.7-69.6,70.9-69.6h5.1"/>
<g id="Layer_2_3_">
	<rect x="223.8" y="111.3" class="st0" width="128.2" height="297.1"/>
	<polygon class="st1" points="223.8,410.2 287.9,545.6 352,410.2 	"/>
</g>
<g>
	<g>
		<path d="M330.4,628.1l-39.9-78.4l506.4-0.4l-1,15.9c-0.1,1.2-0.1,2.4-0.2,3.6c-0.5,11.1-1.2,24.9-11.7,36
			c-0.8,0.8-1.6,1.7-2.4,2.7c-10.4,12.3-20.8,17.9-58.1,20.5l-0.5,0H330.4z"/>
		<path d="M781,564.3c-0.7,11-0.3,22.3-7.8,30.2c-8.3,8.7-8,15.6-50.7,18.6H339.6L315,564.6C473,564.5,623,564.4,781,564.3
			 M812.9,534.3l-31.9,0l-235.5,0.2L315,534.6l-48.9,0l22.1,43.6l24.6,48.5l8.3,16.4h18.4h382.9h1.1l1.1-0.1
			c20.5-1.5,34.2-3.9,44.4-8c13.6-5.4,20.1-13.2,24.1-17.9c0.7-0.8,1.3-1.5,1.8-2c14.3-15.1,15.2-33.5,15.8-45.6
			c0.1-1.2,0.1-2.3,0.2-3.5L812.9,534.3L812.9,534.3z"/>
	</g>
</g>
</svg>
