<?xml version="1.0" encoding="utf-8"?>
<!-- Generator: Adobe Illustrator 19.0.0, SVG Export Plug-In . SVG Version: 6.00 Build 0)  -->
<svg version="1.1" id="Layer_1" xmlns="http://www.w3.org/2000/svg" xmlns:xlink="http://www.w3.org/1999/xlink" x="0px" y="0px"
	 viewBox="80 85.4 755.1 670.5" style="enable-background:new 80 85.4 755.1 670.5;" xml:space="preserve">
<style type="text/css">
	.st0{fill:none;stroke:#000000;stroke-width:30;stroke-linecap:round;stroke-linejoin:round;stroke-miterlimit:10;}
	.st1{stroke:#000000;stroke-width:30;stroke-linecap:round;stroke-linejoin:round;stroke-miterlimit:10;}
	.st2{fill:#FFFFFF;}
	.st3{fill:none;stroke:#000000;stroke-width:15;stroke-linecap:round;stroke-linejoin:round;stroke-miterlimit:10;}
</style>
<circle class="st0" cx="359.3" cy="368.3" r="266.9"/>
<path class="st1" d="M811.6,694.1L649.7,557.6c-11.3-9.7-28.7-8.7-38.3,2.5c-9.7,11.3-8.7,28.7,2.5,38.3L775.8,735
	c11.3,10.2,28.7,8.7,38.3-2.5C823.8,721.2,822.9,703.8,811.6,694.1z"/>
<path class="st0" d="M619.8,566.4c-15.4-12.9-30.9-25.8-46.3-38.6"/>
<polyline class="st0" points="300.6,550.7 218,550.7 218,341.1 "/>
<path class="st0" d="M292.9,559.5"/>
<polyline class="st0" points="497.3,341.1 497.3,550.7 414.7,550.7 "/>
<line class="st0" x1="357.6" y1="195.4" x2="532.5" y2="373.1"/>
<line class="st0" x1="357.6" y1="195.4" x2="182.8" y2="373.1"/>
<path d="M359.6,209.6c-47.3,40-94.7,80-142,120c0,70.7,0,141.3,0,212c27-0.7,54-1.3,81-2c2.1-32.7,4.2-65.3,6.2-98
	c37.4,0.9,74.8,1.8,112.3,2.7c2,31.1,4.1,62.2,6.1,93.3c21.5,0.2,42.9,0.3,64.4,0.5v-197L359.6,209.6z"/>
<circle class="st2" cx="357.6" cy="326.9" r="46.9"/>
<path class="st0" d="M300.6,550.7v-75.1c0-17.3,14-31.4,31.4-31.4h51.3c17.3,0,31.4,14,31.4,31.4v75.1"/>
<polyline class="st3" points="472.2,311.8 472.2,221 546.7,221 546.7,270.4 478,270.4 "/>
<rect x="472.2" y="222.9" width="74.6" height="45.5"/>
</svg>
