<?xml version="1.0" encoding="utf-8"?>
<!-- Generator: Adobe Illustrator 19.0.0, SVG Export Plug-In . SVG Version: 6.00 Build 0)  -->
<svg version="1.1" id="Layer_1" xmlns="http://www.w3.org/2000/svg" xmlns:xlink="http://www.w3.org/1999/xlink" x="0px" y="0px"
	 viewBox="80 85.4 755.1 670.5" style="enable-background:new 80 85.4 755.1 670.5;" xml:space="preserve">
<style type="text/css">
	.st0{stroke:#000000;stroke-width:30;stroke-linecap:round;stroke-linejoin:round;stroke-miterlimit:10;}
	.st1{fill:none;stroke:#000000;stroke-width:30;stroke-linecap:round;stroke-linejoin:round;stroke-miterlimit:10;}
</style>
<ellipse class="st0" cx="486.2" cy="237.9" rx="116.9" ry="119.5"/>
<path class="st1" d="M707.4,642.1c0.1-12-0.3-58-2.1-79.3c-3.4-38.4-5.1-57.9-14.8-76.3c-15.3-28.9-43.2-41.8-63.6-50.9
	c-56.3-25.1-77.9-5.4-150.5-19.1c-22.4-4.2-78.4-15.3-133.6-55.1c-47.1-34-76.4-75.5-82.7-84.8c-30.8-45.3-47.2-76.3-47.2-76.3
	c-16.3-31-22.3-48.6-41.3-55.6c-14.6-5.4-33.7-3.4-47.2,6.9c-4,3-13,11-18,29.1c-3.9,13.9-7.9,42.9,28.6,121.4
	c14.1,30.3,33.7,71.2,70.9,117c13.5,16.6,29.3,33.6,47.8,50.4c24.6,22.3,47.3,38.3,63.6,48.8c0,33.9,0,90.6,0,124.5"/>
<line class="st1" x1="222" y1="716.3" x2="781.6" y2="716.3"/>
</svg>
