<?xml version="1.0" encoding="utf-8"?>
<!-- Generator: Adobe Illustrator 19.0.0, SVG Export Plug-In . SVG Version: 6.00 Build 0)  -->
<svg version="1.1" id="Layer_1" xmlns="http://www.w3.org/2000/svg" xmlns:xlink="http://www.w3.org/1999/xlink" x="0px" y="0px"
	 viewBox="80 85.4 745.1 658.7" style="enable-background:new 80 85.4 745.1 658.7;" xml:space="preserve">
<style type="text/css">
	.st0{fill:#010101;}
	.st1{fill:none;stroke:#000000;stroke-width:30;stroke-linecap:round;stroke-linejoin:round;stroke-miterlimit:10;}
	.st2{fill:#FFFFFF;}
	.st3{stroke:#000000;stroke-width:30;stroke-linecap:round;stroke-linejoin:round;stroke-miterlimit:10;}
	.st4{fill:none;stroke:#000000;stroke-width:15;stroke-linecap:round;stroke-linejoin:round;stroke-miterlimit:10;}
	.st5{fill:none;stroke:#FFFFFF;stroke-width:30;stroke-linecap:round;stroke-linejoin:round;stroke-miterlimit:10;}
</style>
<g id="Layer_6_1_">
	<rect x="96.5" y="600.7" width="424.5" height="64.1"/>
	<path class="st0" d="M683.6,86.4H157.5c-30.5,0-55.4,24.7-55.4,55.4v318.3c0,25.2,16.8,46.5,40,53.2c-2.5-9.5-1.1-20.2,4.2-28.3
		c-9.7-4.3-16.4-14-16.4-25.2V141.6c0-15.4,12.4-27.5,27.5-27.5h526.1c15.4,0,27.6,12.4,27.6,27.5V434c0,7.7,6.2,13.9,13.9,13.9l0,0
		c7.7,0,13.9-6.2,13.9-13.9V141.6C738.7,111.1,714.1,86.4,683.6,86.4z"/>
	<polyline id="XMLID_17_" class="st1" points="507.9,600.7 96.5,600.7 157.5,501.1 442,501.1 	"/>
	<g id="XMLID_15_">
		<path d="M825.1,574.5c0,93.4-76.2,169.6-169.6,169.6s-169.6-76.2-169.6-169.6c0-93.4,76.2-169.6,169.6-169.6
			S825.1,481.1,825.1,574.5z"/>
	</g>
	<g id="XMLID_6_">
		<path id="XMLID_14_" class="st2" d="M636.6,470.5l130,83.2c16.8,10.9,16.8,37.4,0,48.3l-130,83.2c-16.8,10.9-37.6-2.5-37.6-24
			V494.9C598.9,473.4,619.8,460,636.6,470.5z"/>
	</g>
	<g id="Layer_3_1_">
		<g id="XMLID_3_">
			<path class="st0" d="M399.8,370.5c-2.3,11.9-9.3,21.7-19.4,28.4l-67.6,43.5c-7.3,4.6-15.7,7.3-24.4,7.3c-3.2,0-6.4-0.3-9.6-0.9
				v38.8c0,12.8-10.5,23.2-23.2,23.2h-98.1c-28.4,0-51.4-23-51.4-51.4v-5.3c3.7,0.9,7.7,1.1,11.6,0.8c1-0.1,1.8-0.2,2.7-0.4
				c0.8-0.1,1.5-0.2,2.2-0.4c2-0.4,3.9-1,5.7-1.8c0.4-0.1,0.7-0.3,1-0.4v7.2c0,15.6,12.6,28.2,28.2,28.2h97.7V386.8l13.1,27.2
				c2.6,5.8,7.6,9.9,13.6,11.6c2,0.6,4.1,0.9,6.1,0.9c4.4,0,8.4-1.1,11.9-3.5l67.7-43.5c10.2-6.7,13-20,6.3-30.2
				c-4.1-6.4-11-9.9-18.3-9.9c-4.1,0-8.1,1.2-11.9,3.5l-46.7,30.2l-24.4-51.7c-3.2-7-9.9-11.3-17.1-12.2h-2.3l-36.8-0.3
				c-8.1,11.9-16.6,23.8-24.7,35.7c-6.7-11.9-13-23.8-19.7-35.7h-14.4c-6.3,0-11.5-5.1-11.5-11.5v0c0-6.3,5.1-11.5,11.5-11.5H172
				c8.4,0,16.3,4.7,20.3,11.9l1.4,2.9l3.5-5c4.4-6.1,11.6-9.9,19.2-9.9h36.8c1.5,0,3.2,0,5.3-0.3c15.7,1.7,29,11.3,35.7,25.5
				l13.1,27.6l24.4-15.7c7.2-4.6,15.7-7.2,24.4-7.2c15.4,0,29.3,7.9,37.7,20.6C400.1,346.7,402.4,358.9,399.8,370.5z"/>
		</g>
		<path id="XMLID_2_" d="M383.2,351.6c-1.7,0-3.8-0.9-4.6-2.6c-1.7-2.6-1.2-6.4,1.5-8.1l105.9-73.4c2.6-1.7,6.4-1.2,8.1,1.5
			c1.7,2.6,1.2,6.4-1.5,8.1l-105.9,73.4C385.5,351.3,384.4,351.6,383.2,351.6z"/>
		<circle id="XMLID_7_" class="st3" cx="192.6" cy="212.2" r="44.4"/>
		<line id="XMLID_5_" class="st4" x1="290.4" y1="173.7" x2="658.9" y2="173.7"/>
		<line id="XMLID_4_" class="st4" x1="290.4" y1="227.9" x2="521.1" y2="227.9"/>
	</g>
	<polyline class="st1" points="96.5,600.7 96.5,664.8 521.1,664.8 	"/>
	<line class="st5" x1="135.4" y1="632.7" x2="173.3" y2="632.7"/>
	<line class="st5" x1="233.6" y1="632.7" x2="271.5" y2="632.7"/>
</g>
</svg>
