<?xml version="1.0" encoding="utf-8"?>
<!-- Generator: Adobe Illustrator 19.0.0, SVG Export Plug-In . SVG Version: 6.00 Build 0)  -->
<svg version="1.1" id="Layer_1" xmlns="http://www.w3.org/2000/svg" xmlns:xlink="http://www.w3.org/1999/xlink" x="0px" y="0px"
	 viewBox="48 120.1 768 635.8" style="enable-background:new 48 120.1 768 635.8;" xml:space="preserve">
<style type="text/css">
	.st0{fill:none;stroke:#000000;stroke-width:30;stroke-linecap:round;stroke-linejoin:round;stroke-miterlimit:10;}
	.st1{stroke:#000000;stroke-width:30;stroke-linecap:round;stroke-linejoin:round;stroke-miterlimit:10;}
	.st2{fill:#FFFFFF;}
</style>
<polyline id="XMLID_29_" class="st0" points="65.5,145.7 151.4,145.7 278.5,669.7 692.1,669.7 "/>
<polyline id="XMLID_28_" class="st0" points="802.5,273 734.8,557 259.8,557 "/>
<path id="XMLID_27_" class="st0" d="M650.4,137.6c-89.6,0.1-178.3-0.1-267.6,0.8c-24.4,0.3-43.6,0.2-43.5,29.4s19.7,31.3,44.2,31.1
	c90.4-0.4,180.8-0.8,271.6-0.3"/>
<path id="XMLID_4_" class="st0" d="M890.2,243.1"/>
<path id="XMLID_26_" class="st0" d="M651.9,552.5c-89.6,0.1-178.3-0.1-267.6,0.8c-24.4,0.3-43.5-21.2-43.5-47.6"/>
<line id="XMLID_25_" class="st0" x1="340.7" y1="513.3" x2="339.5" y2="155.2"/>
<line id="XMLID_23_" class="st0" x1="654.6" y1="202.5" x2="655.9" y2="553"/>
<circle id="XMLID_22_" class="st1" cx="359.3" cy="707.1" r="35.9"/>
<circle id="XMLID_21_" class="st1" cx="688.4" cy="705.6" r="35.9"/>
<line class="st0" x1="802.5" y1="273" x2="655.9" y2="273"/>
<line class="st0" x1="330.5" y1="273" x2="183.9" y2="273"/>
<rect x="348.7" y="137.6" width="305.9" height="64.9"/>
<circle class="st2" cx="659.6" cy="168.3" r="16.3"/>
</svg>
