<?xml version="1.0" encoding="utf-8"?>
<!-- Generator: Adobe Illustrator 19.0.0, SVG Export Plug-In . SVG Version: 6.00 Build 0)  -->
<svg version="1.1" id="Layer_1" xmlns="http://www.w3.org/2000/svg" xmlns:xlink="http://www.w3.org/1999/xlink" x="0px" y="0px"
	 viewBox="80 85.4 755.1 670.5" style="enable-background:new 80 85.4 755.1 670.5;" xml:space="preserve">
<style type="text/css">
	.st0{fill:none;stroke:#000000;stroke-width:30;stroke-linecap:round;stroke-linejoin:round;stroke-miterlimit:10;}
	.st1{stroke:#000000;stroke-width:30;stroke-linecap:round;stroke-linejoin:round;stroke-miterlimit:10;}
	.st2{fill:none;stroke:#FFFFFF;stroke-width:60;stroke-linecap:round;stroke-linejoin:round;stroke-miterlimit:10;}
</style>
<path class="st0" d="M119.7,396.1V199.5c0-18.8,15.3-34.7,34.7-34.7h395.7"/>
<path class="st0" d="M793.4,161.8v524.7c0,18.8-15.3,34.7-34.7,34.7H154.5c-18.8,0-34.7-15.3-34.7-34.7V255.5
	c0-18.8,15.3-34.7,34.7-34.7h420.5l40.6-86c2.9-6.5,9.4-10.6,16.5-10.6h124.3C776.9,124.7,793.4,140.6,793.4,161.8z"/>
<circle class="st1" cx="456.5" cy="471" r="187.3"/>
<line class="st2" x1="456.5" y1="377.4" x2="456.5" y2="564"/>
<line class="st2" x1="550.2" y1="471" x2="363.5" y2="471"/>
</svg>
