<?xml version="1.0" encoding="utf-8"?>
<!-- Generator: Adobe Illustrator 19.0.0, SVG Export Plug-In . SVG Version: 6.00 Build 0)  -->
<svg version="1.1" id="Layer_1" xmlns="http://www.w3.org/2000/svg" xmlns:xlink="http://www.w3.org/1999/xlink" x="0px" y="0px"
	 viewBox="80 85.4 755.1 670.5" style="enable-background:new 80 85.4 755.1 670.5;" xml:space="preserve">
<style type="text/css">
	.st0{fill:none;stroke:#000000;stroke-width:30;stroke-linecap:round;stroke-linejoin:round;stroke-miterlimit:10;}
	.st1{stroke:#000000;stroke-width:30;stroke-linecap:round;stroke-linejoin:round;stroke-miterlimit:10;}
</style>
<line class="st0" x1="520.6" y1="152.7" x2="799.1" y2="152.7"/>
<line class="st0" x1="520.6" y1="235.5" x2="677" y2="235.5"/>
<ellipse class="st1" cx="332.8" cy="236.5" rx="111.7" ry="114.2"/>
<path class="st0" d="M138.8,722.9c1-55.2,0.6-74.7,0-103.6c-0.5-27.4-1.5-55.9,7.4-92.9c5.1-21.4,9.6-37.4,22.3-55
	c19-26.5,44.4-38,60.6-45.2c24.7-11,44.3-13.9,122.5-19.6c88.9-6.4,83-4.1,101.5-7.3c58.4-10.1,109.7-33.5,122.5-39.1
	c42.1-18.5,52-23.2,52-23.2c26.4-12.6,32.3-16.8,47-20.8c20-5.4,40.4-10.9,58.2,0c17,10.4,25.3,32,23.5,50.1
	c-2.2,21.4-18.2,34.7-39.6,52.6c-8,6.6-17.9,13.9-53.2,33c-35.3,19.1-59.4,30.6-59.4,30.6c-49.6,23.5-98.8,43.9-136.1,58.7
	c0,36.7,0,145.2,0,181.9C358.3,722.9,248.6,722.9,138.8,722.9z"/>
<path class="st0" d="M738.2,259.7c-5.7,15.5-11.4,30.9-17.1,46.4"/>
</svg>
