<?xml version="1.0" encoding="utf-8"?>
<!-- Generator: Adobe Illustrator 19.0.0, SVG Export Plug-In . SVG Version: 6.00 Build 0)  -->
<svg version="1.1" id="Layer_1" xmlns="http://www.w3.org/2000/svg" xmlns:xlink="http://www.w3.org/1999/xlink" x="0px" y="0px"
	 viewBox="91 64.9 778.4 713" style="enable-background:new 91 64.9 778.4 713;" xml:space="preserve">
<style type="text/css">
	.st0{fill:none;stroke:#000000;stroke-width:15;stroke-linecap:round;stroke-linejoin:round;stroke-miterlimit:10;}
</style>
<path d="M554.7,185.5v165.7c0,8.7-7,15.7-15.7,15.7s-15.7-7-15.7-15.7V185.5c0-5.7-4.6-10.2-10.2-10.2h-66l-6.9-31.4H513
	C536.1,144,554.7,162.6,554.7,185.5z"/>
<path d="M554.7,671.8v56.8c0.2,11-3.9,21.3-11.6,29.2c-7.8,8.1-18.5,12.6-29.9,12.6H133.5c-22.9,0-41.5-18.6-41.5-41.5V185.5
	c0-22.9,18.6-41.5,41.5-41.5h73.2l-6.9,31.4h-66.3c-5.7,0-10.2,4.6-10.2,10.2v543.2c0,5.7,4.6,10.2,10.2,10.2h379.6
	c2.9,0,5.5-1,7.5-3c1.8-1.8,2.7-4.2,2.6-6.7v-57.3c0-8.7,7-15.7,15.7-15.7S554.7,663.1,554.7,671.8z"/>
<path d="M616.7,567c-0.3,0-0.6,0-1,0c-4.2-0.3-8.1-2.2-10.8-5.3l-77.1-87.9c-5.8-6.5-5-16.4,1.5-22.2l238-208.9
	c3.1-2.7,7.2-4.2,11.4-3.9c4.2,0.3,8.1,2.2,10.8,5.3l77.1,87.9c5.8,6.5,5,16.4-1.5,22.2l-238,208.9C624.3,565.7,620.5,567,616.7,567
	z M561.7,464.9l56.5,64.4l214.3-188.1L776,276.8L561.7,464.9z"/>
<path d="M784.6,417.9c-4.4,0-8.7-1.8-11.8-5.3L702,332c-5.8-6.5-5-16.4,1.5-22.2c6.5-5.8,16.4-5,22.2,1.5l70.7,80.6
	c5.8,6.5,5,16.4-1.5,22.2C792,416.7,788.3,417.9,784.6,417.9z"/>
<path d="M484,605.6c-4.5,0-8.8-1.9-11.8-5.3c-4-4.6-5-11-2.6-16.5l54.2-125.5c2.1-4.9,6.7-8.5,11.9-9.3c5.3-0.8,10.7,1.2,14.2,5.1
	l77.1,87.9c3.6,4.1,4.8,9.6,3.2,14.8s-5.5,9.2-10.8,10.7L488.1,605C487,605.4,485.5,605.6,484,605.6z"/>
<g>
	<polygon points="420.7,187.8 226.2,187.8 228.9,175.4 235.8,144 240.4,122.7 406.5,122.7 411.2,144 418,175.4 	"/>
</g>
<path d="M397.3,142.1H249.9c-3,0-5.8-1.4-7.6-3.7c-1.8-2.3-2.5-5.4-1.8-8.3c9.6-38.5,43.8-65.2,83.1-65.2s73.5,26.9,83.1,65.2
	c0.8,2.8,0.1,5.9-1.8,8.3C403,140.7,400.4,142.1,397.3,142.1z M263.6,122.7h120.2c-10.7-23.2-34-38.6-60-38.6
	S274.3,99.5,263.6,122.7z"/>
<line class="st0" x1="212.8" y1="301.8" x2="420.7" y2="301.8"/>
<line class="st0" x1="287.2" y1="411.4" x2="420.7" y2="411.4"/>
<line class="st0" x1="212.8" y1="521" x2="420.7" y2="521"/>
<line class="st0" x1="233" y1="630.6" x2="420.7" y2="630.6"/>
</svg>
