<?xml version="1.0" encoding="utf-8"?>
<!-- Generator: Adobe Illustrator 19.0.0, SVG Export Plug-In . SVG Version: 6.00 Build 0)  -->
<svg version="1.1" id="Layer_1" xmlns="http://www.w3.org/2000/svg" xmlns:xlink="http://www.w3.org/1999/xlink" x="0px" y="0px"
	 viewBox="80 85.4 755.1 670.5" style="enable-background:new 80 85.4 755.1 670.5;" xml:space="preserve">
<style type="text/css">
	.st0{fill:none;stroke:#000000;stroke-width:30;stroke-linecap:round;stroke-linejoin:round;stroke-miterlimit:10;}
</style>
<path class="st0" d="M359.4,649c-47.4,0-92-11.9-131-33l-28.1,12.2L91.1,675.6l47.3-109.3l7.7-17.7
	c-39.6-47.8-63.4-109.3-63.4-176.3c0-152.8,123.9-276.7,276.7-276.7c9.4,0,42.5-0.9,82.4,12.5c87.3,29.1,132,99.5,145.9,123.8"/>
<path class="st0" d="M410.1,524.3c0,115.2,93.4,208.6,208.6,208.6c35.7,0,69.4-9,98.8-24.8l21.1,9.2l82.4,35.7l-35.7-82.4l-5.8-13.3
	c29.8-36.1,47.8-82.4,47.8-132.9c0-115.2-93.4-208.6-208.6-208.6C503.5,315.7,410.1,409.1,410.1,524.3z"/>
<g>
	<g>
		<path d="M279.7,478.7c-0.2-6.2-0.3-10.8-0.3-13.9c0-18.2,2.6-33.9,7.7-47.2c3.8-10,9.9-20,18.3-30.2c6.2-7.4,17.3-18.2,33.4-32.3
			c16.1-14.2,26.5-25.5,31.3-33.9c4.8-8.4,7.2-17.6,7.2-27.6c0-18-7-33.9-21.1-47.5c-14.1-13.7-31.4-20.5-51.8-20.5
			c-19.8,0-36.3,6.2-49.5,18.6c-13.2,12.4-21.9,31.7-26,58l-47.7-5.7c4.3-35.2,17-62.2,38.3-80.9c21.2-18.7,49.3-28.1,84.1-28.1
			c36.9,0,66.4,10.1,88.4,30.2c22,20.1,33,44.4,33,72.9c0,16.5-3.9,31.7-11.6,45.6c-7.7,13.9-22.9,30.8-45.4,50.8
			c-15.1,13.4-25,23.3-29.6,29.6c-4.6,6.4-8.1,13.7-10.3,21.9c-2.2,8.2-3.5,21.6-3.9,40.2H279.7z M280.1,566.5v-52.8h43.5v52.8
			H280.1z"/>
	</g>
</g>
<circle cx="493.4" cy="529.3" r="41.5"/>
<circle cx="617.7" cy="529.3" r="41.5"/>
<circle cx="741.9" cy="529.3" r="41.5"/>
</svg>
