<svg width="199" height="201" viewBox="0 0 199 201" fill="none" xmlns="http://www.w3.org/2000/svg">
<path d="M144.372 10.0795C144.621 10.1917 144.87 10.3039 145.127 10.4194C152.54 13.7703 159.488 18.0244 165.721 23.2845C166.181 23.6628 166.181 23.6628 166.651 24.0487C170.978 27.6532 175.144 31.6606 178.531 36.1825C178.812 36.5426 179.094 36.9025 179.377 37.2621C193.797 55.8626 195 75.4023 195 98.5225C163.095 98.5225 131.191 98.5225 98.3194 98.5225C101.127 101.754 103.992 104.919 106.907 108.052C109.373 110.704 111.834 113.359 114.268 116.04C115.144 117.004 116.024 117.965 116.904 118.925C117.057 119.091 117.209 119.257 117.366 119.428C117.674 119.764 117.983 120.1 118.291 120.436C119.208 121.436 120.124 122.435 121.04 123.435C121.806 124.271 122.572 125.106 123.339 125.941C124.8 127.534 126.259 129.129 127.712 130.729C129.691 132.907 131.695 135.061 133.698 137.216C135.975 139.667 138.247 142.122 140.496 144.599C141.378 145.57 142.265 146.537 143.152 147.504C144.33 148.788 145.506 150.073 146.679 151.362C146.817 151.513 146.954 151.665 147.097 151.821C147.779 152.571 148.461 153.322 149.142 154.073C150.752 155.846 152.371 157.609 153.998 159.365C154.184 159.566 154.369 159.766 154.561 159.972C155.224 160.687 155.885 161.399 156.572 162.091C156.666 162.908 156.666 162.908 156.689 163.959C156.699 164.352 156.709 164.744 156.719 165.149C156.726 165.58 156.733 166.011 156.739 166.442C156.742 166.659 156.745 166.876 156.748 167.099C156.765 168.249 156.776 169.398 156.785 170.548C156.793 171.497 156.81 172.446 156.835 173.395C156.866 174.543 156.881 175.69 156.885 176.838C156.889 177.274 156.898 177.711 156.913 178.147C157.02 181.545 157.264 181.268 156.174 182.5C155.395 183.059 154.624 183.502 153.765 183.925C153.461 184.112 152.813 184.307 152.5 184.5C152.248 184.638 152.097 184.857 151.837 185C151.548 185.159 151.259 185.318 150.962 185.482C150.662 185.644 150.309 185.833 150 186C149.521 186.259 149.573 186.418 149.084 186.683C137.934 192.64 126.035 196.177 113.588 198.079C113.252 198.13 112.916 198.181 112.57 198.234C108.088 198.891 103.659 199.005 99.139 199C98.6901 198.999 98.6901 198.999 98.2322 198.999C93.7617 198.99 89.3378 198.92 84.9 198.328C84.536 198.28 84.172 198.232 83.797 198.183C66.9502 195.895 50.0527 190.574 36.1022 180.517C35.7645 180.279 35.4265 180.042 35.0884 179.805C30.6405 176.671 26.5846 173.264 22.6829 169.461C22.5187 169.303 22.3546 169.144 22.1855 168.981C20.1491 167.01 18.3217 164.945 16.5831 162.705C16.2754 162.319 15.9676 161.933 15.6598 161.548C4.08265 146.867 -0.0748807 129.464 0.00101828 111.021C0.00457045 109.949 0.00321692 108.876 0.00262847 107.803C0.00236241 106.006 0.00566611 104.209 0.0113495 102.412C0.0178125 100.357 0.0188696 98.3017 0.0169712 96.2468C0.0152136 94.2385 0.0169791 92.2302 0.0203778 90.2219C0.0217658 89.3812 0.0220754 88.5404 0.0214202 87.6997C0.0207903 81.253 0.0983747 74.7476 1.39101 68.4081C1.48905 67.9158 1.48905 67.9158 1.58907 67.4135C4.03731 55.6028 9.39208 44.931 16.8881 35.5683C17.1224 35.2694 17.3567 34.9705 17.5982 34.6626C21.4944 29.845 25.9459 25.4279 30.9175 21.7491C31.5465 21.2437 32.1755 20.7382 32.8046 20.2328C40.9816 13.8511 50.6821 9.23158 60.5011 6.08729C60.9571 5.93958 60.9571 5.93958 61.4222 5.78889C66.7384 4.0832 72.0913 2.79084 77.5803 1.78797C78.0055 1.71026 78.0055 1.71026 78.4393 1.63098C100.289 -2.22242 124.217 0.814827 144.372 10.0795Z" fill="#FE302D"/>
<path d="M102.445 86.0084C102.842 86.0071 103.238 86.0058 103.646 86.0044C104.741 86.001 105.836 86.0071 106.931 86.0149C108.113 86.0216 109.296 86.0193 110.478 86.0181C112.525 86.0173 114.572 86.0221 116.62 86.0308C119.579 86.0433 122.539 86.0473 125.499 86.0493C130.302 86.0527 135.104 86.0629 139.906 86.0775C144.571 86.0916 149.235 86.1025 153.9 86.1091C154.331 86.1097 154.331 86.1097 154.771 86.1103C156.214 86.1123 157.657 86.1143 159.1 86.1162C171.067 86.1321 183.033 86.1597 195 86.1937C195 90.3624 195 94.5312 195 98.8263C193.208 98.8136 193.208 98.8136 191.38 98.8006C180.393 98.7255 169.406 98.6782 158.418 98.6608C156.975 98.6585 155.531 98.656 154.087 98.6533C153.8 98.6527 153.512 98.6522 153.216 98.6516C148.579 98.6425 143.943 98.6137 139.306 98.5776C134.539 98.541 129.772 98.5257 125.004 98.5297C122.069 98.5315 119.134 98.5172 116.198 98.4814C114.178 98.4583 112.158 98.4563 110.138 98.4698C108.976 98.477 107.817 98.4759 106.655 98.4494C102.445 98.6516 101.854 97 101.854 97C102.988 96.3216 100.812 97.8171 101.854 97C98.7134 98.9523 81.6549 110.76 78.5738 112.807C76.8894 113.926 74.8485 114.541 73.1621 115.657C72.8354 115.873 72.5088 116.089 72.1722 116.312C63.4493 122.083 63.4493 122.083 59.1213 124.912C56.963 126.324 54.8129 127.749 52.6624 129.173C50.5232 130.59 48.3821 132.004 46.2371 133.412C43.554 135.174 40.8804 136.95 38.2071 138.727C35.4382 140.567 32.669 142.407 29.8918 144.234C29.6671 144.382 29.4424 144.53 29.2109 144.683C28.9973 144.823 28.7836 144.963 28.5634 145.108C28.3685 145.242 28.1737 145.375 27.9729 145.513C27.2469 145.967 27.2469 145.967 26.3996 146.347C25.3943 146.847 24.6796 147.307 23.8979 148.124C23.4089 149.784 23.4641 151.408 23.5043 153.12C23.5037 153.607 23.5016 154.095 23.4981 154.582C23.493 155.86 23.5078 157.136 23.5268 158.413C23.5427 159.718 23.5396 161.024 23.5382 162.329C23.5381 164.886 23.5591 167.443 23.5935 170C23.2562 169.711 22.9194 169.421 22.5828 169.131C22.3952 168.97 22.2076 168.808 22.0143 168.642C11.6725 159.45 5.09175 144.966 2.20571 131.602C2.15969 131.393 2.11368 131.184 2.06627 130.968C1.00849 125.75 0.980683 120.516 1.00455 115.212C1.00569 114.46 1.00656 113.708 1.00716 112.956C1.00947 110.995 1.01543 109.035 1.02221 107.075C1.02848 105.067 1.03123 103.059 1.03428 101.052C1.04078 97.126 0.487231 93.2004 0.500225 89.2748C0.524361 89.4877 0.975132 89.7806 1 90C2.17454 100.007 5.17708 109.331 9.89312 118.237C9.99035 118.422 10.0876 118.607 10.1878 118.798C13.588 125.205 18.1663 130.444 23.289 135.492C24.9459 134.584 26.5483 133.64 28.1031 132.564C28.4989 132.294 28.895 132.024 29.2912 131.754C29.5007 131.612 29.7103 131.469 29.9261 131.322C31.1444 130.499 32.3735 129.693 33.6023 128.886C33.8634 128.715 34.1246 128.543 34.3936 128.367C35.5661 127.597 36.7392 126.829 37.9134 126.062C40.8845 124.121 43.844 122.162 46.8012 120.2C49.3665 118.497 51.9345 116.799 54.5078 115.109C56.5679 113.756 58.624 112.396 60.6795 111.035C64.0605 108.797 67.4437 106.562 70.8283 104.329C71.7217 103.74 72.615 103.15 73.5081 102.56C77.1614 100.147 80.8198 97.742 84.4845 95.3468C85.1059 94.9405 85.7273 94.5341 86.3486 94.1276C86.5556 93.9922 86.7625 93.8568 86.9757 93.7173C89.1925 92.2656 91.4029 90.8039 93.6122 89.3407C93.8938 89.1545 94.1753 88.9684 94.4654 88.7765C94.8369 88.5306 94.8369 88.5306 95.2159 88.2796C95.6303 88.0097 95.6303 88.0097 96.053 87.7343C96.2099 87.6076 96.3668 87.481 96.5285 87.3505C98.4159 85.9401 100.162 85.9806 102.445 86.0084Z" fill="#CA1E1D"/>
<path d="M158.51 86.003C162.504 86.0066 166.498 86.0083 170.492 86.0099C178.662 86.0131 186.831 86.0189 195 86.0258C195 90.3073 195 94.5888 195 99C163.32 98.8956 134.64 99.6076 102 99.5L99 86.3422C118.837 86.0449 138.67 85.9846 158.51 86.003Z" fill="#A41D18"/>
<path d="M98.4997 42.7235C101.317 44.277 102.52 46.36 103.604 49.1842C104.468 53.0559 103.944 57.5019 101.777 60.9052C100.603 62.3427 99.0191 63.3174 97.1975 63.8717C94.6857 64.1151 92.3395 64.1524 90.259 62.6818C89.3917 61.9568 89.3917 61.9568 88.6821 61.1945C88.4609 60.9736 88.2397 60.7528 88.0119 60.5252C85.7858 57.4457 85.7294 53.1048 86.3154 49.5316C87.0766 46.6313 88.5983 44.4744 91.2052 42.7514C93.4018 41.7307 96.2667 41.7777 98.4997 42.7235Z" fill="#FEFBFB"/>
<path d="M71 42C75.95 42 80.9 42 86 42C86 46.6231 86 46.6231 84.9258 48.8616C84.8138 49.1106 84.7018 49.3597 84.5864 49.6162C84.2313 50.4018 83.866 51.1823 83.5 51.9629C83.2645 52.4787 83.0297 52.9948 82.7957 53.5112C82.3314 54.5327 81.8629 55.5521 81.3906 56.57C80.5611 58.3617 79.7583 60.1649 78.9608 61.9707C78.2212 63.6335 78.2212 63.6335 77.875 63.9765C77.0323 63.9991 76.1978 64.0051 75.3555 63.9958C75.1184 63.9944 74.8813 63.993 74.6371 63.9916C74.0497 63.9879 73.4624 63.9824 72.875 63.9765C73.4906 62.0236 74.2325 60.1681 75.0906 58.3082C75.2111 58.044 75.3317 57.7797 75.4559 57.5074C75.8378 56.6711 76.2216 55.8356 76.6055 55.0002C76.8617 54.44 77.1179 53.8798 77.3739 53.3195C77.7363 52.5266 78.0988 51.7338 78.4623 50.9415C78.5718 50.7028 78.6813 50.4641 78.7941 50.2182C78.8884 50.0128 78.9828 49.8075 79.0799 49.5959C79.6205 48.4073 80.153 47.2151 80.6875 46.0239C77.4906 46.0239 74.2937 46.0239 71 46.0239C71 44.696 71 43.3681 71 42Z" fill="#FEFBFB"/>
<path d="M96.2031 46.1248C97.6221 46.9345 98.063 47.9529 98.5902 49.4962C99.2559 52.3358 99.1472 55.3925 97.9934 58.0777C97.0845 59.464 97.0845 59.464 96.2031 59.9166C94.7452 60.0664 94.1057 60.0907 92.8276 59.3228C91.1788 57.6524 91.0376 55.4897 91 53.2123C91.0156 50.7109 91.4036 48.48 92.9955 46.5271C94.1043 45.9835 94.9972 45.8811 96.2031 46.1248Z" fill="#FE2D2A"/>
<path d="M126.784 53.656C128.004 54.6923 128.82 55.9923 128.992 57.6231C129.046 59.4873 128.848 60.925 127.732 62.4407C126.174 63.7118 124.959 64.132 122.973 63.9652C121.243 63.3861 120.273 62.5912 119.404 60.9162C118.834 59.1619 118.841 57.3166 119.59 55.6187C120.305 54.3334 121.264 53.5629 122.649 53.1069C124.055 52.8401 125.478 53.0909 126.784 53.656Z" fill="#FEF9F9"/>
<path d="M112.003 42.0645C113.851 42.6902 114.771 43.6808 115.69 45.3163C116.16 46.9383 116.071 48.2417 115.587 49.8293C114.794 51.1595 114.115 52.1063 112.659 52.7855C110.726 53.1135 108.751 53.1816 107.047 52.1351C105.728 51.0042 105.22 49.8079 105.02 48.1554C104.935 46.2763 105.075 45.0893 106.433 43.6411C108.3 42.058 109.558 41.8653 112.003 42.0645Z" fill="#FEF9F9"/>
<path d="M123.469 42C123.981 42.0503 124.493 42.1109 125 42.1969C124.604 43.2786 124.14 44.2383 123.551 45.2221C123.298 45.6459 123.298 45.6459 123.04 46.0783C122.768 46.53 122.768 46.53 122.491 46.9909C122.302 47.306 122.114 47.6211 121.919 47.9457C121.338 48.917 120.754 49.8872 120.17 50.8569C119.998 51.1417 119.827 51.4265 119.65 51.7198C119.487 51.9909 119.324 52.2619 119.156 52.5411C118.995 52.8075 118.835 53.074 118.669 53.3485C118.349 53.8776 118.027 54.4055 117.704 54.9322C116.844 56.3356 116.023 57.7493 115.244 59.2016C115.077 59.5034 114.909 59.8051 114.737 60.116C114.417 60.6943 114.107 61.2782 113.808 61.8681C113.362 62.6613 113.002 63.2529 112.321 63.8469C111.178 64.079 110.148 64.021 109 63.8469C110.171 61.2706 111.606 58.9123 113.089 56.5177C113.707 55.5156 114.318 54.5089 114.926 53.501C115.253 52.9607 115.582 52.4214 115.912 51.8833C116.828 50.3824 117.698 48.8684 118.526 47.3146C118.796 46.8225 118.796 46.8225 119.072 46.3204C119.419 45.6848 119.757 45.0435 120.084 44.3963C121.012 42.727 121.518 42.0067 123.469 42Z" fill="#FEF9F9"/>
<path d="M123.323 56C124.38 56.0766 124.939 56.1301 125.69 56.973C126.123 58.3056 126.077 59.5088 125.708 60.8649C125.166 61.5981 124.946 61.8084 124.087 62C123.323 61.8378 123.323 61.8378 122.634 61.1892C121.995 59.954 121.863 59.0097 122.131 57.6216C122.727 56.6486 122.727 56.6486 123.323 56Z" fill="#FE2A27"/>
<path d="M111.052 45C112.105 45.1601 112.105 45.1601 112.707 45.7117C113.123 46.9179 113.071 47.9275 112.707 49.1459C112.181 49.7509 112.181 49.7509 111.504 50C110.58 49.9787 110.154 49.8416 109.454 49.2705C108.939 48.2695 108.929 47.3921 109.097 46.2989C109.573 45.2398 109.841 45.1843 111.052 45Z" fill="#FE2B29"/>
<path d="M104.5 100C106.479 101.573 107.435 98.6768 109.128 100.542C109.876 101.365 110.63 102.182 111.385 102.999C111.232 102.833 111.534 103.16 111.385 102.999C112.629 104.346 113.884 105.683 115.139 107.019C116.758 108.741 118.405 110.254 120 111.999C120.875 112.955 121.753 113.908 122.633 114.859C122.785 115.024 123.343 115.829 123.5 115.999C123.809 116.333 123.934 116.99 124.244 117.324C125.163 118.319 126.081 119.314 127 120.309C127.768 121.14 127.846 120.903 128.615 121.734C130.08 123.319 131.543 124.906 133 126.499C134.984 128.666 140.628 135.167 142.636 137.312C144.919 139.751 147.197 142.194 149.452 144.659C148.562 143.697 150.336 145.626 149.452 144.659C150.633 145.937 151.824 146.716 153 147.999C153.138 148.15 154.358 148.843 154.5 148.999C155.184 149.745 154.317 148.751 155 149.499C155 149.499 162.868 156.251 164.5 157.999C164.594 158.812 158.707 162.578 158.731 163.624C158.74 164.015 158.75 164.406 158.76 164.808C158.767 165.237 158.774 165.666 158.78 166.095C158.783 166.311 158.786 166.527 158.79 166.75C158.806 167.894 158.818 169.038 158.827 170.181C158.835 171.127 158.852 172.071 158.877 173.016C158.907 174.158 158.922 175.3 158.927 176.442C158.931 176.877 158.94 177.311 158.955 177.745C159.062 181.127 159.008 179.855 157.915 181.081C157.134 181.637 156.361 182.078 155.5 182.499C155.195 182.685 154.814 183.307 154.5 183.499C154.247 183.637 153.995 183.774 153.735 183.916C153.3 184.154 153.355 183.769 152.911 184.011C152.611 184.172 152.31 184.333 152 184.499C151.68 184.671 151.435 185.055 151.105 185.232C139.925 191.161 127.994 194.681 115.513 196.573C115.176 196.625 114.84 197.684 114.492 197.737C109.999 198.391 105.558 198.504 101.026 198.499C100.726 198.498 100.426 198.498 100.117 198.498C95.6342 198.488 91.1984 198.42 86.7487 197.83C86.3837 197.782 86.0188 197.735 85.6427 197.686C68.7508 195.409 51.808 190.112 37.8202 180.103C37.4815 179.867 37.1426 179.631 36.8036 179.395C34.6253 177.871 32.4588 176.318 30.4208 174.61C29.665 173.986 28.9067 173.464 28.0635 172.967C26.2219 171.757 24.9383 170.489 24.3973 168.3C23.9611 165.508 24.0138 162.666 24.0726 159.849C24.0988 158.577 24.0832 157.309 24.0568 156.037C23.9135 147.917 23.9135 147.917 25.6523 146.089C26.5822 145.373 27.545 144.94 28.6543 144.573C29.7124 144.172 30.6053 143.512 31.5321 142.873C31.7604 142.726 31.9887 142.579 32.2239 142.427C34.5889 140.902 36.9396 139.356 39.2918 137.811C42.2301 135.882 45.1701 133.956 48.1197 132.044C50.2136 130.686 52.3024 129.32 54.3909 127.954C56.7816 126.391 59.175 124.831 61.5752 123.282C65.2512 120.908 68.9132 118.513 72.5754 116.118C78.6933 112.118 78.6933 112.118 81.7544 110.142C83.8569 108.785 85.9528 107.417 88.0488 106.05C88.0488 106.05 99.2535 98.4553 101.5 97L104.5 100Z" fill="#FEBE00"/>
<path d="M103.5 99C103.5 99 163.36 98.9048 196 98.9048C195 133 195.5 129.5 189.052 145.897C188.939 146.115 188.825 146.332 188.709 146.556C185.538 152.638 181.534 157.923 176.938 162.986C176.662 163.295 176.387 163.605 176.111 163.915C174.746 165.445 173.377 166.926 171.808 168.249C171.078 168.874 170.387 169.535 169.689 170.195C168.272 171.495 166.798 172.699 165.279 173.876C165.074 174.035 164.87 174.194 164.659 174.358C163.459 175.276 162.229 176.119 160.956 176.93C160.659 177.12 160.361 177.309 160.055 177.505C159.83 177.648 159.605 177.791 159.373 177.938C159.377 177.697 159.381 177.456 159.384 177.207C159.416 174.923 159.43 172.638 159.428 170.353C159.427 169.179 159.432 168.005 159.451 166.831C159.47 165.695 159.472 164.56 159.463 163.424C159.462 162.993 159.971 162.431 159.983 162C160.098 162.131 160.055 162.131 160.055 162.131L162.999 157C161.911 155.719 156.151 151.223 154.999 150C153.471 148.372 142.499 138 142.499 138C143.781 139.395 141.238 136.585 142.499 138C141.736 137.17 142.261 137.832 141.499 137C141.654 137.169 141.499 136.5 141.499 137C140.752 136.186 135.244 130.816 134.499 130C132.831 128.176 139.684 135.808 137.999 134C137.999 134 137.145 132.912 134.499 130L121 116C121.501 116 119.259 114.828 118.5 114C118.196 113.669 113.804 109.331 113.5 109C114.245 109.816 112.754 108.185 113.5 109C112.015 107.375 105.001 100.61 103.5 99Z" fill="#1EA2AD"/>
<path d="M22.7151 149C23.0716 149.291 23.4279 149.582 23.7841 149.873C23.9825 150.036 24.181 150.198 24.3854 150.365C25.1333 150.984 25.8553 151.629 26.5785 152.275C40.1893 164.126 57.7279 172.031 75.5611 175.963C75.8673 176.031 76.1735 176.098 76.489 176.168C89.2481 178.934 102.597 179.727 115.596 178.108C115.927 178.066 116.257 178.025 116.598 177.983C132.081 175.99 149 166.5 163 156.5C163 157 163.924 167.059 164 169.5C164.036 170.634 163.944 169.367 164 170.5C164 170.5 164.473 175.405 164.5 176.5C164.513 176.917 164.506 177 164.506 177L159 182.5C159.329 182.308 158.681 182.687 159 182.5C148.035 189.5 133.071 197.103 120 199C119.647 199.051 116.962 199.947 116.598 200C111.892 200.656 107.241 200.769 102.494 200.764C102.18 200.764 101.736 200.67 101.412 200.669C96.7175 200.66 92.0717 200.591 87.4114 200C87.9964 200.073 86.838 199.928 87.4114 200C69.7199 197.718 51.9752 192.408 37.3252 182.374C36.9705 182.137 35.3551 181.236 35 181C32.7192 179.473 30.1209 177.785 27.9869 176.073C27.1897 175.443 24.5 172.5 24.5 172.5C24.5 172.5 22.6418 170.953 22.1561 168.754C21.868 165.797 22.0337 162.842 22.2134 159.882C22.2826 158.654 22.3234 157.426 22.3667 156.197C22.4555 153.796 22.5751 151.398 22.7151 149Z" fill="#E69B03"/>
<path d="M194.951 113.075L195.566 99C195.72 101.124 195.963 110.912 195.974 113.075C195.979 113.808 195.985 114.54 195.993 115.273C196.06 121.558 195.719 127.681 194.022 133.767C193.929 134.107 193.837 134.446 193.742 134.797C190.47 146.528 184.522 157.047 176.253 166.068C176.075 166.262 175.897 166.457 175.714 166.657C172.046 170.644 172.046 170.644 170.092 172.245C169.36 172.853 168.672 173.501 167.974 174.148C166.536 175.441 165.041 176.638 163.499 177.808C163.291 177.967 163.083 178.125 162.87 178.289C161.652 179.201 161.295 179.475 160.002 180.282C160.891 179.717 164.633 176.983 164.322 177.177C164.557 177.03 164.094 177.319 164.322 177.177C164.55 177.035 164.5 177.039 164.5 177.039C164.463 175.939 163.498 169.103 163.499 163.516C180.558 150.823 191.66 134.072 194.951 113.075Z" fill="#18707A"/>
<path d="M75.4148 155V152.341L81.6278 146.588C82.1563 146.077 82.5994 145.616 82.9574 145.207C83.321 144.798 83.5966 144.398 83.7841 144.006C83.9716 143.608 84.0653 143.179 84.0653 142.719C84.0653 142.207 83.9489 141.767 83.7159 141.398C83.483 141.023 83.1648 140.736 82.7614 140.537C82.358 140.332 81.9006 140.23 81.3892 140.23C80.8551 140.23 80.3892 140.338 79.9915 140.554C79.5938 140.77 79.2869 141.08 79.071 141.483C78.8551 141.886 78.7472 142.366 78.7472 142.923H75.2443C75.2443 141.781 75.5028 140.79 76.0199 139.949C76.5369 139.108 77.2614 138.457 78.1932 137.997C79.125 137.537 80.1989 137.307 81.4148 137.307C82.6648 137.307 83.7528 137.528 84.679 137.972C85.6108 138.409 86.3352 139.017 86.8523 139.795C87.3693 140.574 87.6278 141.466 87.6278 142.472C87.6278 143.131 87.4972 143.781 87.2358 144.423C86.9801 145.065 86.5227 145.778 85.8636 146.562C85.2045 147.341 84.2756 148.276 83.0767 149.366L80.5284 151.864V151.983H87.858V155H75.4148ZM97.3757 155.384C95.9098 155.378 94.6484 155.017 93.5916 154.301C92.5405 153.585 91.7308 152.548 91.1626 151.19C90.6001 149.832 90.3217 148.199 90.3274 146.29C90.3274 144.386 90.6087 142.764 91.1712 141.423C91.7393 140.082 92.549 139.062 93.6001 138.364C94.657 137.659 95.9155 137.307 97.3757 137.307C98.8359 137.307 100.092 137.659 101.143 138.364C102.2 139.068 103.012 140.091 103.58 141.432C104.148 142.767 104.43 144.386 104.424 146.29C104.424 148.205 104.14 149.841 103.572 151.199C103.009 152.557 102.202 153.594 101.151 154.31C100.1 155.026 98.8416 155.384 97.3757 155.384ZM97.3757 152.324C98.3757 152.324 99.174 151.821 99.7706 150.815C100.367 149.81 100.663 148.301 100.657 146.29C100.657 144.966 100.521 143.864 100.248 142.983C99.9808 142.102 99.6001 141.44 99.1058 140.997C98.6172 140.554 98.0405 140.332 97.3757 140.332C96.3814 140.332 95.5859 140.83 94.9893 141.824C94.3928 142.818 94.0916 144.307 94.0859 146.29C94.0859 147.631 94.2195 148.75 94.4865 149.648C94.7592 150.54 95.1428 151.21 95.6371 151.659C96.1314 152.102 96.7109 152.324 97.3757 152.324ZM116.609 151.727V150.807C116.609 150.108 116.757 149.466 117.053 148.881C117.354 148.29 117.788 147.818 118.357 147.466C118.93 147.108 119.629 146.929 120.453 146.929C121.288 146.929 121.99 147.105 122.558 147.457C123.132 147.81 123.564 148.281 123.854 148.872C124.149 149.457 124.297 150.102 124.297 150.807V151.727C124.297 152.426 124.149 153.071 123.854 153.662C123.558 154.247 123.124 154.716 122.55 155.068C121.976 155.426 121.277 155.605 120.453 155.605C119.618 155.605 118.916 155.426 118.348 155.068C117.78 154.716 117.348 154.247 117.053 153.662C116.757 153.071 116.609 152.426 116.609 151.727ZM119.089 150.807V151.727C119.089 152.131 119.186 152.511 119.379 152.869C119.578 153.227 119.936 153.406 120.453 153.406C120.97 153.406 121.322 153.23 121.51 152.878C121.703 152.526 121.8 152.142 121.8 151.727V150.807C121.8 150.392 121.709 150.006 121.527 149.648C121.345 149.29 120.987 149.111 120.453 149.111C119.942 149.111 119.587 149.29 119.388 149.648C119.189 150.006 119.089 150.392 119.089 150.807ZM107.652 141.739V140.818C107.652 140.114 107.803 139.469 108.104 138.884C108.405 138.293 108.839 137.821 109.408 137.469C109.982 137.116 110.675 136.94 111.487 136.94C112.328 136.94 113.033 137.116 113.601 137.469C114.169 137.821 114.601 138.293 114.896 138.884C115.192 139.469 115.339 140.114 115.339 140.818V141.739C115.339 142.443 115.189 143.088 114.888 143.673C114.592 144.259 114.158 144.727 113.584 145.08C113.016 145.426 112.317 145.599 111.487 145.599C110.658 145.599 109.956 145.423 109.382 145.071C108.814 144.713 108.382 144.244 108.087 143.665C107.797 143.08 107.652 142.437 107.652 141.739ZM110.149 140.818V141.739C110.149 142.153 110.246 142.537 110.439 142.889C110.638 143.241 110.987 143.418 111.487 143.418C112.01 143.418 112.365 143.241 112.553 142.889C112.746 142.537 112.842 142.153 112.842 141.739V140.818C112.842 140.403 112.751 140.017 112.57 139.659C112.388 139.301 112.027 139.122 111.487 139.122C110.982 139.122 110.632 139.304 110.439 139.668C110.246 140.031 110.149 140.415 110.149 140.818ZM108.777 155L120.777 137.545H123.01L111.01 155H108.777Z" fill="white"/>
<path d="M143.009 110.545V128H139.318V114.048H139.216L135.219 116.554V113.281L139.54 110.545H143.009ZM154.001 128.384C152.535 128.378 151.273 128.017 150.217 127.301C149.165 126.585 148.356 125.548 147.788 124.19C147.225 122.832 146.947 121.199 146.952 119.29C146.952 117.386 147.234 115.764 147.796 114.423C148.364 113.082 149.174 112.062 150.225 111.364C151.282 110.659 152.54 110.307 154.001 110.307C155.461 110.307 156.717 110.659 157.768 111.364C158.825 112.068 159.637 113.091 160.205 114.432C160.773 115.767 161.055 117.386 161.049 119.29C161.049 121.205 160.765 122.841 160.197 124.199C159.634 125.557 158.827 126.594 157.776 127.31C156.725 128.026 155.467 128.384 154.001 128.384ZM154.001 125.324C155.001 125.324 155.799 124.821 156.396 123.815C156.992 122.81 157.288 121.301 157.282 119.29C157.282 117.966 157.146 116.864 156.873 115.983C156.606 115.102 156.225 114.44 155.731 113.997C155.242 113.554 154.665 113.332 154.001 113.332C153.006 113.332 152.211 113.83 151.614 114.824C151.018 115.818 150.717 117.307 150.711 119.29C150.711 120.631 150.844 121.75 151.112 122.648C151.384 123.54 151.768 124.21 152.262 124.659C152.756 125.102 153.336 125.324 154.001 125.324ZM173.234 124.727V123.807C173.234 123.108 173.382 122.466 173.678 121.881C173.979 121.29 174.413 120.818 174.982 120.466C175.555 120.108 176.254 119.929 177.078 119.929C177.913 119.929 178.615 120.105 179.183 120.457C179.757 120.81 180.189 121.281 180.479 121.872C180.774 122.457 180.922 123.102 180.922 123.807V124.727C180.922 125.426 180.774 126.071 180.479 126.662C180.183 127.247 179.749 127.716 179.175 128.068C178.601 128.426 177.902 128.605 177.078 128.605C176.243 128.605 175.541 128.426 174.973 128.068C174.405 127.716 173.973 127.247 173.678 126.662C173.382 126.071 173.234 125.426 173.234 124.727ZM175.714 123.807V124.727C175.714 125.131 175.811 125.511 176.004 125.869C176.203 126.227 176.561 126.406 177.078 126.406C177.595 126.406 177.947 126.23 178.135 125.878C178.328 125.526 178.425 125.142 178.425 124.727V123.807C178.425 123.392 178.334 123.006 178.152 122.648C177.97 122.29 177.612 122.111 177.078 122.111C176.567 122.111 176.212 122.29 176.013 122.648C175.814 123.006 175.714 123.392 175.714 123.807ZM164.277 114.739V113.818C164.277 113.114 164.428 112.469 164.729 111.884C165.03 111.293 165.464 110.821 166.033 110.469C166.607 110.116 167.3 109.94 168.112 109.94C168.953 109.94 169.658 110.116 170.226 110.469C170.794 110.821 171.226 111.293 171.521 111.884C171.817 112.469 171.964 113.114 171.964 113.818V114.739C171.964 115.443 171.814 116.088 171.513 116.673C171.217 117.259 170.783 117.727 170.209 118.08C169.641 118.426 168.942 118.599 168.112 118.599C167.283 118.599 166.581 118.423 166.007 118.071C165.439 117.713 165.007 117.244 164.712 116.665C164.422 116.08 164.277 115.437 164.277 114.739ZM166.774 113.818V114.739C166.774 115.153 166.871 115.537 167.064 115.889C167.263 116.241 167.612 116.418 168.112 116.418C168.635 116.418 168.99 116.241 169.178 115.889C169.371 115.537 169.467 115.153 169.467 114.739V113.818C169.467 113.403 169.376 113.017 169.195 112.659C169.013 112.301 168.652 112.122 168.112 112.122C167.607 112.122 167.257 112.304 167.064 112.668C166.871 113.031 166.774 113.415 166.774 113.818ZM165.402 128L177.402 110.545H179.635L167.635 128H165.402Z" fill="white"/>
</svg>
