<svg width="406" height="404" viewBox="0 0 406 404" fill="none" xmlns="http://www.w3.org/2000/svg">
<path d="M285.524 22.6885C286.022 22.8981 286.519 23.1076 287.031 23.3235C301.83 29.5846 315.757 37.6568 328.325 47.756C329.251 48.4816 329.251 48.4816 330.197 49.2219C338.92 56.1396 347.342 63.8628 354.254 72.6432C354.828 73.3419 355.403 74.04 355.978 74.7377C385.374 110.831 388.729 149.445 389.89 195.206C326.919 196.803 263.948 198.4 199.069 200.046C204.773 206.301 210.587 212.422 216.496 218.477C221.496 223.602 226.487 228.735 231.426 233.919C233.203 235.784 234.988 237.642 236.775 239.498C237.083 239.818 237.392 240.139 237.71 240.47C238.336 241.12 238.962 241.77 239.587 242.419C241.447 244.351 243.305 246.284 245.164 248.216C246.718 249.832 248.272 251.448 249.827 253.063C252.791 256.142 255.751 259.225 258.699 262.32C262.714 266.531 266.778 270.694 270.838 274.86C275.455 279.597 280.063 284.341 284.626 289.131C286.416 291.01 288.216 292.88 290.015 294.749C292.405 297.231 294.79 299.716 297.169 302.208C297.449 302.501 297.729 302.794 298.017 303.096C299.402 304.546 300.785 305.998 302.168 307.451C305.434 310.878 308.718 314.288 312.018 317.683C312.394 318.07 312.77 318.457 313.158 318.856C314.503 320.237 315.844 321.614 317.234 322.948C317.46 324.561 317.46 324.561 317.56 326.64C317.599 327.416 317.638 328.193 317.678 328.993C317.714 329.846 317.748 330.699 317.782 331.552C317.799 331.981 317.816 332.41 317.834 332.853C317.924 335.127 318.005 337.401 318.08 339.676C318.144 341.555 318.225 343.432 318.322 345.31C318.439 347.58 318.526 349.849 318.592 352.121C318.622 352.985 318.662 353.848 318.713 354.71C319.096 361.431 319.096 361.431 317.006 363.924C315.497 365.07 313.998 365.985 312.324 366.864C311.734 367.249 311.143 367.635 310.534 368.032C310.044 368.318 309.554 368.605 309.049 368.9C308.487 369.229 307.924 369.559 307.345 369.898C306.761 370.233 306.177 370.568 305.575 370.913C304.642 371.449 304.642 371.449 303.69 371.997C281.982 384.346 258.673 391.943 234.202 396.329C233.541 396.448 232.881 396.566 232.2 396.688C223.388 398.214 214.653 398.661 205.73 398.876C204.844 398.897 204.844 398.897 203.941 398.92C195.117 399.125 186.382 399.209 177.593 398.259C176.872 398.182 176.151 398.106 175.408 398.027C142.043 394.343 108.425 384.655 80.3853 365.448C79.7068 364.995 79.0278 364.543 78.3486 364.091C69.4123 358.11 61.2361 351.57 53.3442 344.239C53.0122 343.933 52.6803 343.627 52.3383 343.313C48.2201 339.514 44.5097 335.518 40.9658 331.172C40.3391 330.424 39.7123 329.675 39.0854 328.927C15.4982 300.45 6.41879 266.213 5.64276 229.706C5.59591 227.583 5.53939 225.46 5.48437 223.336C5.39363 219.779 5.30993 216.222 5.23093 212.665C5.14052 208.597 5.03945 204.53 4.93254 200.463C4.82826 196.488 4.73093 192.513 4.63682 188.538C4.59735 186.874 4.55575 185.21 4.51225 183.545C4.18738 170.786 4.01394 157.906 6.247 145.294C6.41578 144.314 6.41578 144.314 6.58798 143.315C10.8272 119.816 20.8603 98.4259 35.1854 79.5194C35.6329 78.9161 36.0804 78.3128 36.5414 77.6913C43.9897 67.9609 52.554 58.9955 62.1818 51.4652C63.398 50.4334 64.6141 49.4015 65.8303 48.3696C81.6491 35.3292 100.563 25.7004 119.786 18.9855C120.678 18.6703 120.678 18.6703 121.588 18.3487C131.995 14.7066 142.496 11.8807 153.279 9.62099C154.115 9.44589 154.115 9.44589 154.967 9.26725C197.898 0.546577 245.279 5.36023 285.524 22.6885Z" fill="#FECD1C"/>
<path d="M205.661 175.823C206.447 175.8 207.233 175.778 208.043 175.755C210.215 175.693 212.387 175.65 214.56 175.61C216.906 175.564 219.252 175.5 221.598 175.438C225.659 175.333 229.721 175.24 233.783 175.154C239.655 175.03 245.527 174.889 251.4 174.744C260.927 174.509 270.455 174.287 279.984 174.074C289.238 173.868 298.492 173.654 307.746 173.433C308.602 173.412 308.602 173.412 309.476 173.391C312.338 173.323 315.201 173.254 318.064 173.185C341.806 172.614 365.547 172.067 389.289 171.532C389.498 179.767 389.707 188.003 389.922 196.488C386.366 196.553 386.366 196.553 382.739 196.62C360.938 197.024 339.139 197.483 317.34 198.002C314.476 198.07 311.611 198.138 308.747 198.205C308.177 198.218 307.607 198.232 307.019 198.246C297.82 198.461 288.62 198.637 279.419 198.799C269.959 198.967 260.501 199.176 251.043 199.424C245.219 199.576 239.396 199.695 233.571 199.772C229.561 199.828 225.554 199.926 221.547 200.054C219.243 200.127 216.942 200.183 214.637 200.189C201.415 200.241 193.41 203.637 183.411 212.043C181.384 213.709 179.258 215.146 177.043 216.544C170.91 220.558 164.927 224.798 158.917 228.997C155.632 231.292 152.342 233.58 149.052 235.869C148.415 236.312 147.777 236.755 147.121 237.212C130.105 249.053 130.105 249.053 121.66 254.858C117.449 257.757 113.255 260.68 109.06 263.602C104.887 266.509 100.71 269.41 96.525 272.299C91.2903 275.915 86.0752 279.558 80.8608 283.203C75.4598 286.978 70.0581 290.752 64.6399 294.502C64.2016 294.806 63.7633 295.109 63.3116 295.422C62.8947 295.71 62.4778 295.998 62.0483 296.295C61.6684 296.569 61.2885 296.843 60.8971 297.125C59.4795 298.059 59.4795 298.059 57.8176 298.852C55.8483 299.89 54.4535 300.836 52.9436 302.488C52.0567 305.791 52.2474 308.998 52.4129 312.378C52.4362 313.341 52.4565 314.304 52.4741 315.267C52.5278 317.79 52.6211 320.311 52.7229 322.833C52.8199 325.411 52.8791 327.99 52.9416 330.569C53.0696 335.621 53.2393 340.671 53.4357 345.721C52.7521 345.166 52.0694 344.611 51.3871 344.055C51.0068 343.745 50.6266 343.436 50.2348 343.117C29.2572 325.478 15.4758 297.196 9.08057 270.939C8.97881 270.528 8.87705 270.118 8.77221 269.695C6.41218 259.438 6.09476 249.099 5.87634 238.62C5.84092 237.134 5.80496 235.649 5.76849 234.163C5.67484 230.29 5.58845 226.418 5.50367 222.545C5.41552 218.578 5.32036 214.611 5.22582 210.645C5.042 202.889 4.86562 195.133 4.69471 187.377C4.89403 187.372 5.09335 187.367 5.29871 187.362C5.35726 187.781 5.41581 188.201 5.47614 188.633C8.30771 208.343 13.8596 226.793 23.662 244.15C23.8641 244.51 24.0663 244.871 24.2746 245.242C31.3413 257.728 40.6869 267.849 51.1026 277.563C54.3442 275.687 57.476 273.742 60.5067 271.538C61.2784 270.984 62.0506 270.431 62.8231 269.878C63.2317 269.585 63.6402 269.293 64.0611 268.992C66.4368 267.305 68.8348 265.65 71.2322 263.995C71.7416 263.643 72.2511 263.291 72.776 262.928C75.0635 261.349 77.3524 259.772 79.6434 258.197C85.4404 254.213 91.2138 250.195 96.9821 246.169C101.986 242.677 106.996 239.194 112.016 235.725C116.035 232.948 120.046 230.158 124.056 227.366C130.651 222.774 137.251 218.189 143.854 213.608C145.597 212.398 147.34 211.188 149.082 209.977C156.209 205.026 163.346 200.092 170.497 195.175C171.709 194.341 172.921 193.507 174.134 192.673C174.538 192.395 174.941 192.117 175.357 191.831C179.682 188.851 183.994 185.852 188.304 182.851C188.853 182.469 189.403 182.087 189.968 181.693C190.693 181.188 190.693 181.188 191.432 180.674C192.241 180.119 192.241 180.119 193.066 179.554C193.371 179.296 193.676 179.038 193.99 178.772C197.664 175.891 201.13 175.883 205.661 175.823Z" fill="#FFB600"/>
<path d="M388.5 170.5L390.002 171C390.002 178.575 390.002 191.195 390.002 199C327.962 198.815 262.42 199.69 198.5 199.5C198.5 192.295 197 175.5 197 175.5L388.5 170.5Z" fill="#FFB600"/>
<path d="M139.21 117L153.682 88.3636V88.125H136.824V82.0909H161.318V88.2102L146.83 117H139.21ZM179.314 117.767C176.382 117.756 173.859 117.034 171.746 115.602C169.643 114.17 168.024 112.097 166.888 109.381C165.763 106.665 165.206 103.398 165.217 99.5795C165.217 95.7727 165.78 92.5284 166.905 89.8466C168.041 87.1648 169.661 85.125 171.763 83.7273C173.876 82.3182 176.393 81.6136 179.314 81.6136C182.234 81.6136 184.746 82.3182 186.848 83.7273C188.962 85.1364 190.587 87.1818 191.723 89.8636C192.859 92.5341 193.422 95.7727 193.411 99.5795C193.411 103.409 192.842 106.682 191.706 109.398C190.581 112.114 188.967 114.187 186.865 115.619C184.763 117.051 182.246 117.767 179.314 117.767ZM179.314 111.648C181.314 111.648 182.911 110.642 184.104 108.631C185.297 106.619 185.888 103.602 185.876 99.5795C185.876 96.9318 185.604 94.7273 185.058 92.9659C184.524 91.2045 183.763 89.8807 182.774 88.9943C181.797 88.108 180.643 87.6648 179.314 87.6648C177.325 87.6648 175.734 88.6591 174.541 90.6477C173.348 92.6364 172.746 95.6136 172.734 99.5795C172.734 102.261 173.001 104.5 173.536 106.295C174.081 108.08 174.848 109.42 175.837 110.318C176.825 111.205 177.984 111.648 179.314 111.648ZM217.781 110.455V108.614C217.781 107.216 218.077 105.932 218.668 104.761C219.27 103.58 220.139 102.636 221.276 101.932C222.423 101.216 223.821 100.858 225.469 100.858C227.139 100.858 228.543 101.21 229.679 101.915C230.827 102.619 231.69 103.562 232.27 104.744C232.861 105.915 233.156 107.205 233.156 108.614V110.455C233.156 111.852 232.861 113.142 232.27 114.324C231.679 115.494 230.81 116.432 229.662 117.136C228.514 117.852 227.116 118.21 225.469 118.21C223.798 118.21 222.395 117.852 221.259 117.136C220.122 116.432 219.259 115.494 218.668 114.324C218.077 113.142 217.781 111.852 217.781 110.455ZM222.741 108.614V110.455C222.741 111.261 222.935 112.023 223.321 112.739C223.719 113.455 224.435 113.812 225.469 113.812C226.503 113.812 227.207 113.46 227.582 112.756C227.969 112.051 228.162 111.284 228.162 110.455V108.614C228.162 107.784 227.98 107.011 227.616 106.295C227.253 105.58 226.537 105.222 225.469 105.222C224.446 105.222 223.736 105.58 223.338 106.295C222.94 107.011 222.741 107.784 222.741 108.614ZM199.866 90.4773V88.6364C199.866 87.2273 200.168 85.9375 200.77 84.767C201.372 83.5852 202.241 82.642 203.378 81.9375C204.526 81.233 205.912 80.8807 207.537 80.8807C209.219 80.8807 210.628 81.233 211.764 81.9375C212.901 82.642 213.764 83.5852 214.355 84.767C214.946 85.9375 215.241 87.2273 215.241 88.6364V90.4773C215.241 91.8864 214.94 93.1761 214.338 94.3466C213.747 95.517 212.878 96.4545 211.73 97.1591C210.594 97.8523 209.196 98.1989 207.537 98.1989C205.878 98.1989 204.474 97.8466 203.327 97.142C202.19 96.4261 201.327 95.4886 200.736 94.3295C200.156 93.1591 199.866 91.875 199.866 90.4773ZM204.861 88.6364V90.4773C204.861 91.3068 205.054 92.0739 205.44 92.7784C205.838 93.483 206.537 93.8352 207.537 93.8352C208.582 93.8352 209.293 93.483 209.668 92.7784C210.054 92.0739 210.247 91.3068 210.247 90.4773V88.6364C210.247 87.8068 210.065 87.0341 209.702 86.3182C209.338 85.6023 208.616 85.2443 207.537 85.2443C206.526 85.2443 205.827 85.608 205.44 86.3352C205.054 87.0625 204.861 87.8295 204.861 88.6364ZM202.116 117L226.116 82.0909H230.582L206.582 117H202.116Z" fill="white"/>
<path d="M200.364 198.948C262.544 197.371 326.798 195.742 390.863 194.117C392.638 264.13 392.638 264.13 376.804 296.425C376.593 296.865 374.307 297.358 374.09 297.811C368.174 310.129 360.584 320.895 351.82 331.246C351.294 331.879 350.769 332.513 350.244 333.146C347.642 336.273 345.029 339.302 342.017 342.026C340.617 343.312 339.294 344.666 337.957 346.021C335.242 348.692 332.41 351.171 329.488 353.6C329.094 353.928 328.701 354.257 328.296 354.596C325.987 356.491 323.616 358.238 321.157 359.922C320.584 360.316 320.01 360.71 319.419 361.115C318.985 361.412 318.55 361.709 318.103 362.015C318.098 361.533 318.093 361.051 318.087 360.555C318.032 355.985 317.946 351.417 317.824 346.849C317.763 344.501 317.714 342.153 317.692 339.805C317.671 337.532 317.618 335.263 317.543 332.992C317.52 332.131 317.508 331.269 317.508 330.408C317.503 325.998 316.347 323.277 313.26 320.099C311.86 318.803 311.27 317.032 309.794 315.829C309.023 315.018 308.264 314.193 307.533 313.344C305.332 310.836 303.023 308.45 300.699 306.063C297.617 302.883 294.562 299.685 291.572 296.414C289.026 293.648 286.431 290.931 283.844 288.205C282.305 286.582 280.768 284.957 279.231 283.332C278.927 283.012 278.623 282.691 278.31 282.36C276.804 280.769 275.298 279.176 273.795 277.582C270.429 274.017 267.047 270.47 263.648 266.939C258.238 261.319 252.686 255.994 247.345 250.305C244.374 247.142 241.348 244.225 238.364 241.074C236.832 239.457 235.903 238.59 234.372 236.972C233.761 236.326 231.99 234.541 231.379 233.895C227.712 230.019 228.303 230.76 227.387 229.792C226.775 229.145 226.004 228.388 225.391 227.741C223.885 226.149 222.903 225.232 221.4 223.638C218.402 220.463 214.258 215.826 211.229 212.682C209.329 210.708 207.33 209.205 205.433 207.227C204.555 206.311 202.33 204.046 201.457 203.124C200.973 202.616 200.941 202.623 200.442 202.099C199.424 200.88 200.395 200.169 200.364 198.948Z" fill="#65C6C6"/>
<path d="M293.515 232.818V259H287.979V238.072H287.826L281.83 241.831V236.922L288.312 232.818H293.515ZM310.003 259.575C307.804 259.567 305.912 259.026 304.327 257.952C302.75 256.878 301.536 255.322 300.683 253.286C299.84 251.249 299.422 248.798 299.431 245.935C299.431 243.08 299.852 240.646 300.696 238.635C301.548 236.624 302.763 235.094 304.34 234.045C305.925 232.989 307.813 232.46 310.003 232.46C312.193 232.46 314.077 232.989 315.654 234.045C317.239 235.102 318.458 236.636 319.31 238.648C320.162 240.651 320.584 243.08 320.575 245.935C320.575 248.807 320.149 251.261 319.297 253.298C318.453 255.335 317.243 256.891 315.666 257.964C314.09 259.038 312.202 259.575 310.003 259.575ZM310.003 254.986C311.503 254.986 312.7 254.232 313.595 252.723C314.49 251.214 314.933 248.952 314.925 245.935C314.925 243.949 314.72 242.295 314.311 240.974C313.911 239.653 313.34 238.661 312.598 237.996C311.865 237.331 311 236.999 310.003 236.999C308.512 236.999 307.318 237.744 306.423 239.236C305.529 240.727 305.077 242.96 305.068 245.935C305.068 247.946 305.269 249.625 305.669 250.972C306.078 252.31 306.654 253.315 307.395 253.989C308.137 254.653 309.006 254.986 310.003 254.986ZM338.854 254.091V252.71C338.854 251.662 339.075 250.699 339.518 249.821C339.97 248.935 340.622 248.227 341.474 247.699C342.335 247.162 343.383 246.893 344.619 246.893C345.872 246.893 346.925 247.158 347.777 247.686C348.638 248.214 349.285 248.922 349.72 249.808C350.163 250.686 350.385 251.653 350.385 252.71V254.091C350.385 255.139 350.163 256.107 349.72 256.993C349.277 257.871 348.625 258.574 347.764 259.102C346.903 259.639 345.855 259.908 344.619 259.908C343.366 259.908 342.314 259.639 341.461 259.102C340.609 258.574 339.961 257.871 339.518 256.993C339.075 256.107 338.854 255.139 338.854 254.091ZM342.574 252.71V254.091C342.574 254.696 342.719 255.267 343.008 255.804C343.307 256.341 343.844 256.609 344.619 256.609C345.395 256.609 345.923 256.345 346.204 255.817C346.494 255.288 346.639 254.713 346.639 254.091V252.71C346.639 252.088 346.503 251.509 346.23 250.972C345.957 250.435 345.42 250.166 344.619 250.166C343.852 250.166 343.319 250.435 343.021 250.972C342.723 251.509 342.574 252.088 342.574 252.71ZM325.417 239.108V237.727C325.417 236.67 325.643 235.703 326.095 234.825C326.547 233.939 327.199 233.232 328.051 232.703C328.912 232.175 329.952 231.911 331.17 231.911C332.432 231.911 333.488 232.175 334.341 232.703C335.193 233.232 335.841 233.939 336.284 234.825C336.727 235.703 336.949 236.67 336.949 237.727V239.108C336.949 240.165 336.723 241.132 336.271 242.01C335.828 242.888 335.176 243.591 334.315 244.119C333.463 244.639 332.415 244.899 331.17 244.899C329.926 244.899 328.873 244.635 328.013 244.107C327.16 243.57 326.513 242.866 326.069 241.997C325.635 241.119 325.417 240.156 325.417 239.108ZM329.163 237.727V239.108C329.163 239.73 329.308 240.305 329.598 240.834C329.896 241.362 330.42 241.626 331.17 241.626C331.954 241.626 332.487 241.362 332.768 240.834C333.058 240.305 333.203 239.73 333.203 239.108V237.727C333.203 237.105 333.067 236.526 332.794 235.989C332.521 235.452 331.98 235.183 331.17 235.183C330.412 235.183 329.888 235.456 329.598 236.001C329.308 236.547 329.163 237.122 329.163 237.727ZM327.105 259L345.105 232.818H348.454L330.454 259H327.105Z" fill="white"/>
<path d="M390.242 213.403L389.9 196.141C389.749 200.35 392.321 218.119 392.453 222.499C392.5 223.982 392.549 225.465 392.603 226.948C393.056 239.674 392.709 252.092 389.738 264.501C389.577 265.194 389.416 265.887 389.25 266.601C383.521 290.521 372.552 312.116 357.017 330.792C356.682 331.194 356.347 331.597 356.003 332.012C349.11 340.267 349.11 340.267 345.412 343.605C344.028 344.873 342.729 346.219 341.412 347.562C338.696 350.253 335.864 352.749 332.94 355.196C332.547 355.527 332.153 355.858 331.748 356.199C329.439 358.108 327.066 359.867 324.607 361.564C325.198 361.155 324.033 361.96 324.607 361.564C324.172 361.863 320.166 362.666 319.719 362.975C319.441 358.015 318.443 353.113 318.246 348.15C318.153 345.844 318.065 341.009 318.065 341.009C318.065 341.009 316.615 329.377 316.595 329.137C316.652 329.982 316.562 328.29 316.595 329.137C315.441 321.807 316.669 324.154 319.518 321.979L326.21 318.656C327.229 317.887 329.024 317.091 330.023 316.295C330.55 315.877 331.935 315.357 331.935 315.357C364.293 288.814 384.952 256.089 390.242 213.403Z" fill="#4AA39D"/>
<path d="M197.812 196.512L317.316 316.021C317.316 316.021 313.514 312.12 316.841 315.533C317.22 315.922 316.925 315.62 317.316 316.021C317.316 316.021 316.528 319.165 317.93 320.507C318.158 322.128 318.377 321.655 318.477 323.745C318.516 324.526 318.556 325.306 318.596 326.111C318.632 326.968 318.666 327.826 318.7 328.683C318.718 329.115 318.735 329.546 318.753 329.991C318.843 332.277 318.925 334.563 319 336.85C319.064 338.739 319.146 340.627 319.244 342.514C319.362 344.797 319.449 347.078 319.516 349.363C319.546 350.231 319.587 351.098 319.638 351.965C320.023 358.722 320.023 358.722 317.916 361.228C316.394 362.38 314.883 363.301 313.196 364.185C312.6 364.572 312.005 364.96 311.391 365.359C310.897 365.647 310.403 365.935 309.893 366.232C309.043 366.729 309.043 366.729 308.175 367.235C307.587 367.572 306.998 367.909 306.391 368.256C305.764 368.615 305.137 368.975 304.49 369.346C282.604 381.762 259.104 389.402 234.433 393.813C233.767 393.932 233.101 394.051 232.414 394.174C223.53 395.708 214.723 396.159 205.728 396.376C205.132 396.39 204.537 396.405 203.923 396.42C195.027 396.627 186.221 396.712 177.36 395.758C176.634 395.681 175.907 395.604 175.158 395.524C141.52 391.823 107.628 382.086 79.3604 362.778C78.6763 362.323 77.9918 361.868 77.3071 361.414C72.9068 358.477 68.5286 355.481 64.3975 352.168C62.8659 350.959 61.3346 349.953 59.6359 349.001C55.9198 346.675 53.3081 344.205 52.1236 339.854C51.1164 334.296 51.0767 328.609 51.0506 322.975C51.0382 320.43 50.9429 317.896 50.8259 315.354C50.4564 300.782 50.8297 295.771 50.8297 295.771C52.6388 294.292 51.8164 295.246 51.8164 295.246L79.8636 277.029C85.5969 273.024 91.6066 270.143 97.3631 266.172C101.45 263.351 105.526 260.516 109.601 257.68C114.267 254.433 118.937 251.195 123.622 247.977C130.797 243.046 137.943 238.072 145.089 233.1C157.027 224.793 157.027 224.793 163.002 220.69C167.106 217.87 171.196 215.031 175.286 212.191C179.661 209.155 184.041 206.125 188.425 203.102C191.571 200.93 194.697 198.73 197.812 196.512Z" fill="#2F9097"/>
<path d="M50.8176 295.271C51.5124 295.841 51.8553 296.745 51.8553 296.745L50.8176 295.271C50.8176 295.271 101.972 340.149 155.366 346.904C154.76 346.778 155.953 347.026 155.366 346.904C153.585 346.534 205.277 353.145 229.988 349.245C229.34 349.347 230.616 349.146 229.988 349.245C276.573 341.906 291.873 331.632 317.429 316.018L318.544 322.706C318.89 327.627 319.203 332.548 319.474 337.473C319.601 339.76 319.503 342.807 319.667 345.092C319.826 347.299 319.954 349.507 320.061 351.718C320.107 352.558 320.045 352.92 320.113 353.759C320.322 356.383 321.375 361.784 321.375 361.784L320.13 363.35C319.633 363.641 311.467 367.779 311.467 367.779L305.701 371.083C306.351 370.708 305.069 371.447 305.701 371.083C283.671 383.651 258.056 391.858 233.222 396.321C232.552 396.442 231.882 396.563 231.191 396.687C222.248 398.239 213.383 398.693 204.329 398.912C203.729 398.926 203.13 398.941 202.512 398.956C193.557 399.164 184.693 399.25 175.773 398.282C174.676 398.165 174.676 398.165 173.557 398.045C139.695 394.292 105.578 384.429 77.1209 364.875C76.4322 364.414 75.7432 363.953 75.0538 363.493C70.6253 360.52 61.8105 354.011 61.8105 354.011L49.8204 342.812L49.7926 341.715C49.0917 335.757 49.2564 329.783 49.4476 323.797C49.5167 321.314 49.5315 318.831 49.5512 316.347C49.5975 311.495 50.8176 295.271 50.8176 295.271Z" fill="#0E6582"/>
<path d="M149.36 293V288.568L159.715 278.98C160.596 278.128 161.334 277.361 161.931 276.679C162.537 275.997 162.996 275.33 163.309 274.676C163.621 274.013 163.778 273.298 163.778 272.531C163.778 271.679 163.583 270.945 163.195 270.33C162.807 269.705 162.277 269.226 161.604 268.895C160.932 268.554 160.17 268.384 159.317 268.384C158.427 268.384 157.651 268.563 156.988 268.923C156.325 269.283 155.814 269.799 155.454 270.472C155.094 271.144 154.914 271.944 154.914 272.872H149.076C149.076 270.969 149.507 269.316 150.368 267.915C151.23 266.513 152.438 265.429 153.991 264.662C155.544 263.895 157.333 263.511 159.36 263.511C161.443 263.511 163.257 263.881 164.8 264.619C166.353 265.348 167.561 266.362 168.422 267.659C169.284 268.956 169.715 270.443 169.715 272.119C169.715 273.218 169.497 274.302 169.062 275.372C168.635 276.442 167.873 277.631 166.775 278.938C165.676 280.235 164.128 281.793 162.13 283.611L157.883 287.773V287.972H170.099V293H149.36ZM185.961 293.639C183.518 293.63 181.416 293.028 179.655 291.835C177.903 290.642 176.553 288.914 175.606 286.651C174.669 284.387 174.205 281.665 174.214 278.483C174.214 275.311 174.683 272.607 175.621 270.372C176.568 268.137 177.917 266.437 179.669 265.273C181.43 264.098 183.528 263.511 185.961 263.511C188.395 263.511 190.488 264.098 192.24 265.273C194.001 266.447 195.355 268.152 196.302 270.386C197.249 272.612 197.718 275.311 197.709 278.483C197.709 281.674 197.235 284.402 196.288 286.665C195.351 288.928 194.006 290.656 192.254 291.849C190.502 293.043 188.405 293.639 185.961 293.639ZM185.961 288.54C187.628 288.54 188.959 287.702 189.953 286.026C190.947 284.349 191.44 281.835 191.43 278.483C191.43 276.277 191.203 274.439 190.748 272.972C190.303 271.504 189.669 270.401 188.845 269.662C188.031 268.923 187.069 268.554 185.961 268.554C184.304 268.554 182.979 269.383 181.984 271.04C180.99 272.697 180.488 275.178 180.479 278.483C180.479 280.718 180.701 282.583 181.146 284.08C181.601 285.566 182.24 286.684 183.064 287.432C183.888 288.17 184.854 288.54 185.961 288.54ZM218.018 287.545V286.011C218.018 284.847 218.264 283.777 218.756 282.801C219.258 281.816 219.983 281.03 220.93 280.443C221.886 279.847 223.051 279.548 224.424 279.548C225.816 279.548 226.985 279.842 227.932 280.429C228.889 281.016 229.608 281.802 230.091 282.787C230.584 283.762 230.83 284.837 230.83 286.011V287.545C230.83 288.71 230.584 289.785 230.091 290.77C229.599 291.745 228.875 292.527 227.918 293.114C226.962 293.71 225.797 294.009 224.424 294.009C223.032 294.009 221.862 293.71 220.915 293.114C219.968 292.527 219.249 291.745 218.756 290.77C218.264 289.785 218.018 288.71 218.018 287.545ZM222.151 286.011V287.545C222.151 288.218 222.312 288.852 222.634 289.449C222.965 290.045 223.562 290.344 224.424 290.344C225.286 290.344 225.873 290.05 226.185 289.463C226.507 288.876 226.668 288.237 226.668 287.545V286.011C226.668 285.32 226.517 284.676 226.214 284.08C225.911 283.483 225.314 283.185 224.424 283.185C223.572 283.185 222.98 283.483 222.648 284.08C222.317 284.676 222.151 285.32 222.151 286.011ZM203.089 270.898V269.364C203.089 268.189 203.34 267.115 203.841 266.139C204.343 265.154 205.068 264.368 206.015 263.781C206.971 263.194 208.126 262.901 209.481 262.901C210.882 262.901 212.056 263.194 213.003 263.781C213.95 264.368 214.67 265.154 215.162 266.139C215.655 267.115 215.901 268.189 215.901 269.364V270.898C215.901 272.072 215.65 273.147 215.148 274.122C214.656 275.098 213.931 275.879 212.975 276.466C212.028 277.044 210.863 277.332 209.481 277.332C208.098 277.332 206.929 277.039 205.972 276.452C205.025 275.855 204.305 275.074 203.813 274.108C203.33 273.133 203.089 272.062 203.089 270.898ZM207.251 269.364V270.898C207.251 271.589 207.412 272.228 207.733 272.815C208.065 273.402 208.647 273.696 209.481 273.696C210.352 273.696 210.944 273.402 211.256 272.815C211.578 272.228 211.739 271.589 211.739 270.898V269.364C211.739 268.672 211.588 268.028 211.285 267.432C210.982 266.835 210.38 266.537 209.481 266.537C208.638 266.537 208.055 266.84 207.733 267.446C207.412 268.052 207.251 268.691 207.251 269.364ZM204.964 293L224.964 263.909H228.685L208.685 293H204.964Z" fill="white"/>
</svg>
