<svg width="157" height="128" viewBox="0 0 157 128" fill="none" xmlns="http://www.w3.org/2000/svg">
<path d="M34.1438 0.615816C34.3592 0.680416 34.5747 0.745015 34.7967 0.811573C37.3979 1.63662 39.5975 2.98995 41.5962 5.07938C41.7474 5.23343 41.8986 5.38747 42.0544 5.54619C45.1469 8.865 46.8644 13.6989 47.0029 18.5079C47.054 24.1167 45.2344 28.579 41.9629 32.6826C41.5962 33.0781 41.5962 33.0781 41.2413 33.0781C41.2413 33.212 41.2413 33.3459 41.2413 33.4839C40.8697 33.8155 40.5 34.1213 40.1102 34.4223C39.9496 34.5502 39.9496 34.5502 39.7858 34.6806C38.9817 35.3099 38.9817 35.3099 38.5797 35.3099C39.1138 35.9408 39.6565 36.5123 40.2568 37.0625C42.2746 38.9237 43.8208 41.2395 45.4008 43.5713C45.9315 44.3539 46.4808 45.1189 47.0324 45.8823C47.2743 46.2659 47.2743 46.2659 47.2743 46.6717C47.3914 46.6717 47.5085 46.6717 47.6291 46.6717C47.9317 47.0834 48.2149 47.4955 48.4942 47.9271C48.6489 48.1625 48.8037 48.3979 48.9586 48.6332C49.0335 48.7474 49.1085 48.8615 49.1857 48.9791C49.7291 49.8798 49.7291 49.8798 50.4682 50.5266C50.5164 50.3766 50.5646 50.2265 50.6143 50.0719C50.8122 49.5412 51.0278 49.1349 51.3249 48.6713C51.423 48.5171 51.5211 48.3629 51.6222 48.2041C51.7245 48.0457 51.8267 47.8874 51.9321 47.7242C52.0813 47.4902 52.0813 47.4902 52.2336 47.2515C52.5308 46.7864 52.8299 46.323 53.1298 45.8602C53.2241 45.714 53.3184 45.5678 53.4155 45.4172C56.4561 40.7342 60.5286 37.962 64.9317 35.1845C65.7973 34.6347 66.6501 34.0602 67.5024 33.4839C67.334 33.304 67.1657 33.124 66.9922 32.9386C63.6802 29.0981 61.9497 24.1902 61.9338 18.8002C62.0098 14.2762 63.3901 10.1569 65.9054 6.7025C66.0519 6.48555 66.0519 6.48555 66.2014 6.26423C68.5067 2.99035 72.5217 0.694265 76.1509 0.244958C80.8235 -0.162076 85.2989 0.610817 88.9968 4.18144C89.5408 4.72884 90.0562 5.30633 90.5695 5.89094C90.725 6.06172 90.8806 6.23251 91.0408 6.40847C92.9895 8.67444 94.1018 11.583 94.828 14.6152C94.8715 14.7943 94.9149 14.9735 94.9597 15.1581C95.9657 20.224 94.8311 25.4848 92.5213 29.8319C91.7016 31.1948 90.7072 32.3248 89.6823 33.4839C89.7955 33.5593 89.9087 33.6347 90.0253 33.7124C90.1845 33.8185 90.3438 33.9246 90.5078 34.0339C90.6845 34.1516 90.8612 34.2694 91.0432 34.3907C91.4329 34.6505 91.8224 34.9107 92.2118 35.1711C93.0707 35.7454 93.9294 36.3191 94.7954 36.8791C98.5583 39.3259 102.012 42.4231 104.381 46.6154C104.89 47.4969 105.432 48.349 105.98 49.1989C106.539 50.0771 106.539 50.0771 106.539 50.5266C107.173 49.8184 107.765 49.0839 108.336 48.3075C108.42 48.193 108.504 48.0785 108.591 47.9606C109.265 47.0413 109.914 46.1019 110.559 45.1555C111.232 44.1695 111.921 43.1993 112.616 42.2335C112.717 42.0937 112.817 41.9538 112.921 41.8097C116.183 37.2914 116.183 37.2914 118.123 35.9503C118.455 35.736 118.455 35.736 118.605 35.3099C118.476 35.2579 118.346 35.2058 118.213 35.1522C117.341 34.7154 116.667 33.978 115.943 33.281C115.796 33.1448 115.648 33.0085 115.496 32.8681C112.511 29.9924 110.747 25.7053 110.265 21.3105C110.241 20.5791 110.24 19.8487 110.243 19.1168C110.242 18.9247 110.242 18.7326 110.241 18.5347C110.247 13.5513 111.992 9.02703 115.056 5.48516C117.084 3.28114 119.48 1.72738 122.154 0.818705C122.321 0.754106 122.488 0.689506 122.66 0.622949C126.646 -0.709923 131.147 0.20082 134.761 2.3594C135.98 3.13881 137.074 4.02633 138.123 5.07938C138.256 5.21198 138.389 5.34458 138.526 5.4812C141.489 8.64328 143.303 13.317 143.507 17.9256C143.558 20.0083 143.425 21.9407 142.914 23.9481C142.863 24.1555 142.811 24.3629 142.758 24.5766C141.751 28.3116 139.618 32.111 136.704 34.2955C136.587 34.2955 136.469 34.2955 136.349 34.2955C136.763 34.8251 137.182 35.1063 137.735 35.424C142.219 38.1891 145.798 42.6192 147.335 48.2354C147.438 48.6475 147.539 49.0605 147.638 49.4741C147.696 49.7072 147.753 49.9402 147.812 50.1804C148.511 53.0821 149.137 56.0069 149.765 58.9297C150.237 61.1204 150.726 63.3032 151.254 65.4771C151.535 66.6352 151.788 67.7952 152.023 68.9667C152.289 70.2837 152.575 71.5945 152.863 72.9053C153.021 73.6241 153.178 74.343 153.335 75.062C153.385 75.2876 153.385 75.2876 153.435 75.5177C153.969 77.9564 154.498 80.3965 155.025 82.837C155.193 83.6148 155.361 84.3924 155.53 85.1699C155.698 85.9429 155.865 86.716 156.032 87.4893C156.095 87.7787 156.157 88.068 156.22 88.3573C156.307 88.7574 156.394 89.1579 156.48 89.5583C156.529 89.7843 156.578 90.0102 156.628 90.243C156.925 91.7898 156.959 93.2739 156.96 94.8509C156.961 95.1028 156.962 95.3547 156.963 95.6142C156.965 96.3016 156.967 96.989 156.967 97.6765C156.968 98.1064 156.969 98.5363 156.969 98.9662C156.972 100.313 156.974 101.659 156.974 103.005C156.975 104.558 156.978 106.11 156.983 107.662C156.987 108.864 156.989 110.065 156.989 111.267C156.989 111.984 156.99 112.701 156.994 113.418C156.997 114.217 156.996 115.016 156.995 115.815C156.998 116.171 156.998 116.171 157 116.533C156.999 116.751 156.998 116.969 156.997 117.193C156.997 117.382 156.998 117.571 156.998 117.765C156.882 118.693 156.541 119.167 155.926 119.769C155.219 120.186 154.637 120.231 153.86 120.219C153.641 120.221 153.641 120.221 153.418 120.223C152.931 120.226 152.444 120.222 151.957 120.219C151.607 120.22 151.257 120.221 150.908 120.223C149.958 120.226 149.009 120.223 148.06 120.22C147.067 120.217 146.073 120.219 145.08 120.219C143.412 120.22 141.743 120.217 140.075 120.212C138.147 120.207 136.218 120.207 134.289 120.209C132.434 120.211 130.579 120.21 128.723 120.207C127.934 120.206 127.144 120.206 126.355 120.207C125.425 120.208 124.495 120.206 123.565 120.201C123.224 120.2 122.883 120.2 122.542 120.201C122.076 120.202 121.61 120.2 121.144 120.196C120.942 120.198 120.942 120.198 120.735 120.2C119.895 120.189 119.32 120.014 118.605 119.509C118.004 118.751 117.872 118.098 117.884 117.094C117.886 116.888 117.887 116.683 117.889 116.471C117.892 116.245 117.895 116.02 117.898 115.787C117.903 115.293 117.907 114.799 117.912 114.305C117.916 113.91 117.916 113.91 117.919 113.506C117.933 111.946 117.935 110.385 117.939 108.824C117.943 107.182 117.95 105.542 117.971 103.9C118.059 96.7493 117.751 90.341 115.539 83.5434C115.063 82.074 114.682 80.5714 114.291 79.0706C114.166 78.6105 114.042 78.1505 113.916 77.6908C113.866 77.5071 113.816 77.3234 113.764 77.1342C113.646 76.696 113.646 76.696 113.459 76.2936C112.235 77.6608 112.235 77.6608 111.086 79.1087C110.524 79.8574 109.929 80.563 109.323 81.2644C109.229 81.3742 109.135 81.484 109.039 81.5971C108.804 81.8663 108.559 82.1243 108.313 82.3802C108.196 82.3802 108.079 82.3802 107.959 82.3802C107.959 82.5142 107.959 82.6481 107.959 82.786C103.441 87.8397 96.5598 89.0858 90.6293 90.5904C90.3709 90.6579 90.1131 90.7288 89.8565 90.8049C88.7886 91.1097 87.7721 91.1682 86.6746 91.1731C86.4868 91.1754 86.299 91.1778 86.1055 91.1802C85.4871 91.1871 84.2503 91.194 84.2503 91.194L79.9913 90.3021L74.9343 87.8674C73.3373 87.0559 68.5465 88.8762 64.5541 89.2848H62.035C61.8209 89.2327 61.6068 89.1805 61.3862 89.1267C61.1794 89.0764 60.9727 89.026 60.7597 88.9742C53.7598 87.2083 48.7327 83.264 44.1393 77.014C43.8956 76.6895 43.6363 76.3915 43.3706 76.0907C43.3245 76.2598 43.2783 76.4289 43.2308 76.6031C43.1623 76.8537 43.0939 77.1042 43.0234 77.3624C42.9847 77.5054 42.9459 77.6484 42.906 77.7958C42.6548 78.7197 42.397 79.6407 42.1328 80.5599C39.8248 88.6526 39.0295 96.0297 39.1217 104.512C39.1423 106.448 39.1392 108.385 39.1366 110.321C39.1362 110.609 39.1359 110.898 39.1355 111.186C39.1353 111.326 39.1351 111.467 39.1349 111.612C39.1342 112.567 39.1404 113.523 39.1491 114.478C39.1511 114.853 39.1511 114.853 39.1532 115.236C39.1558 115.701 39.1604 116.166 39.1673 116.631C39.1733 118.565 39.1733 118.565 38.5797 119.306C37.7414 120.08 37.0824 120.235 36.0335 120.221C35.887 120.222 35.7405 120.223 35.5895 120.225C35.0999 120.228 34.6105 120.225 34.1209 120.223C33.7693 120.224 33.4178 120.225 33.0662 120.227C32.1123 120.231 31.1584 120.229 30.2045 120.227C29.2061 120.225 28.2078 120.227 27.2094 120.228C25.5328 120.229 23.8562 120.227 22.1796 120.223C20.2413 120.219 18.3031 120.22 16.3649 120.225C14.7006 120.229 13.0364 120.229 11.3721 120.227C10.3782 120.226 9.38424 120.226 8.3903 120.228C7.45585 120.231 6.52146 120.229 5.58701 120.224C5.2441 120.223 4.90119 120.224 4.55828 120.225C4.09009 120.228 3.62212 120.225 3.15394 120.221C3.01831 120.223 2.88267 120.224 2.74293 120.226C1.82786 120.211 1.30185 119.985 0.607713 119.306C0.134924 118.6 0.00875604 118.095 0.00779891 117.213C0.00554735 116.893 0.00554735 116.893 0.0032503 116.566C0.00432783 116.334 0.00540536 116.102 0.00651555 115.863C0.00558276 115.616 0.00464997 115.37 0.00368891 115.116C0.00174837 114.442 0.00220396 113.767 0.00389198 113.093C0.00524434 112.383 0.00398694 111.674 0.00315283 110.965C0.00218432 109.771 0.00345936 108.578 0.00599571 107.385C0.0088779 106.013 0.00796542 104.641 0.00502371 103.269C0.00259043 102.087 0.00227502 100.904 0.00365913 99.7211C0.00448134 99.017 0.00462176 98.3129 0.00284146 97.6089C-0.00938365 92.0045 -0.009383 92.0045 0.607713 89.2785C0.664661 89.0216 0.72161 88.7647 0.780284 88.5001C0.921393 87.8786 1.06853 87.2595 1.21905 86.6409C1.69556 84.6764 2.14534 82.706 2.53713 80.717C3.25169 77.092 4.05781 73.4942 4.86043 69.8938C5.17765 68.4702 5.49383 67.0462 5.81011 65.6223C5.88865 65.2688 5.9672 64.9152 6.04578 64.5617C6.53101 62.3783 7.01257 60.194 7.48626 58.0074C7.53491 57.7831 7.58355 57.5588 7.63367 57.3278C7.84921 56.3334 8.06382 55.3388 8.27685 54.3438C8.65134 52.6053 9.05036 50.8779 9.49285 49.1603C9.53427 48.9971 9.57569 48.8339 9.61837 48.6658C10.0514 47.0203 10.6941 45.5265 11.4315 44.0341C11.576 43.7352 11.576 43.7352 11.7233 43.4302C12.3071 42.3031 13.0022 41.334 13.7715 40.3695C13.8622 40.2556 13.953 40.1418 14.0465 40.0246C14.4969 39.4779 14.8934 39.0311 15.5126 38.759C15.5126 38.6251 15.5126 38.4912 15.5126 38.3532C15.8687 38.0204 16.2233 37.7157 16.5994 37.4149C16.7097 37.3256 16.82 37.2363 16.9336 37.1443C18.0713 36.2387 19.2642 35.4581 20.4809 34.7012C20.0008 34.1471 19.5163 33.6012 19.0198 33.0662C17.5977 31.5149 16.4787 29.9626 15.5126 28.0059C15.4239 27.8288 15.3351 27.6518 15.2437 27.4693C14.6279 26.1566 14.2489 24.7757 13.9157 23.3394C13.8752 23.1673 13.8347 22.9952 13.793 22.8179C12.8845 18.1836 13.8105 13.1864 15.8675 9.13717C16.3679 8.29379 16.9035 7.49415 17.4645 6.7025C17.5555 6.56728 17.6465 6.43207 17.7403 6.29276C20.0142 3.03908 23.856 0.807985 27.4343 0.298009C29.6099 0.0406652 32.0255 -0.0585493 34.1438 0.615816Z" fill="#010000"/>
<path d="M135.834 40.469C140.1 43.9539 141.807 48.4387 143.013 54.1498C143.113 54.6076 143.212 55.0653 143.312 55.5229C143.506 56.4139 143.699 57.3052 143.89 58.197C144.195 59.6227 144.515 61.0439 144.837 62.4648C145.25 64.3044 145.651 66.1473 146.041 67.9939C146.284 69.1388 146.55 70.2751 146.825 71.41C147.43 73.9042 147.97 76.4176 148.517 78.9291C148.674 79.6471 148.831 80.3652 148.988 81.0832C149.085 81.525 149.181 81.9669 149.278 82.4088C149.842 84.9912 150.422 87.5688 151 90.1472C147.386 90.152 143.773 90.1556 140.159 90.1578C138.481 90.1588 136.803 90.1603 135.125 90.1626C133.662 90.1646 132.199 90.1659 130.736 90.1664C129.962 90.1667 129.188 90.1673 128.414 90.1688C127.684 90.1701 126.954 90.1706 126.225 90.1703C125.958 90.1703 125.691 90.1707 125.424 90.1715C124.039 90.1754 122.671 90.153 121.295 89.9435C120.591 87.0747 119.89 84.2052 119.192 81.3347C118.859 79.9672 118.524 78.6004 118.186 77.2346C118 76.4811 117.816 75.727 117.633 74.9727C117.548 74.6231 117.461 74.2738 117.374 73.9248C117.254 73.4435 117.137 72.9613 117.02 72.4788C116.967 72.2691 116.967 72.2691 116.912 72.0552C116.781 71.501 116.697 71.1027 116.841 70.5448C117.111 70.1262 117.398 69.7663 117.721 69.4013C117.849 69.255 117.977 69.1087 118.109 68.958C118.243 68.807 118.377 68.656 118.515 68.5004C119.486 67.4014 120.416 66.2871 121.295 65.0878C121.383 64.9683 121.471 64.8488 121.562 64.7257C121.818 64.38 122.073 64.0337 122.327 63.6872C123.102 62.6353 123.889 61.6017 124.697 60.5834C125.274 59.8138 125.232 59.1026 125.22 58.1139C125.124 57.1869 124.916 56.9116 124.283 56.3272C123.744 56.0092 123.307 55.8597 122.701 55.9198C122.129 56.2861 121.727 56.7843 121.295 57.3459C121.149 57.5307 121.149 57.5307 121.001 57.7192C120.802 57.9792 120.606 58.2421 120.412 58.507C119.985 59.0825 119.542 59.6403 119.097 60.1982C118.547 60.8903 118.002 61.5862 117.471 62.2992C117.091 62.8082 116.699 63.2912 116.285 63.7636C115.875 64.2318 115.486 64.7101 115.11 65.2152C113.436 67.4518 111.657 69.5559 109.839 71.6345C109.042 72.55 108.272 73.473 107.542 74.4607C106.399 75.9626 105.133 77.3451 103.893 78.7381C103.798 78.8458 103.703 78.9536 103.604 79.0647C100.622 82.375 96.0149 83.5299 92.1164 84.5954C91.8323 84.6746 91.5483 84.7539 91.2643 84.8334C90.9881 84.9102 90.7118 84.9869 90.4356 85.0634C90.3123 85.0976 90.189 85.1317 90.0621 85.1669C89.8176 85.2337 89.5729 85.2988 89.3278 85.3623C89.0782 85.4282 88.8295 85.4991 88.582 85.5752C87.0706 85.9986 85.5295 85.9198 83.9856 85.9086C83.6767 85.9078 83.3679 85.9072 83.0591 85.9068C82.2518 85.9053 81.4444 85.9013 80.6371 85.8968C79.811 85.8926 79.285 85.9086 78.4062 85.5752C78.0382 85.2618 77.3234 84.137 77.3234 84.137L77 82.8128L77.3234 81.7217C78.7307 80.2881 79.955 79.3839 81.7954 78.8759C82.5006 78.6724 83.1979 78.4381 83.8967 78.2069C84.0147 78.1679 84.1327 78.1288 84.2542 78.0886C84.3745 78.0488 84.4947 78.009 84.6186 77.968C85.2319 77.7659 85.8459 77.567 86.4601 77.3684C86.5814 77.3292 86.7027 77.2899 86.8277 77.2495C87.6084 76.9973 88.3895 76.7471 89.1708 76.4978C89.3667 76.435 89.5626 76.3722 89.7644 76.3075C90.1246 76.1921 90.4849 76.0775 90.8454 75.9639C94.8865 74.6686 97.3908 72.062 99.8881 68.2624C100.499 67.3378 101.159 66.4621 101.82 65.5853C102.291 64.9698 102.291 64.9698 102.663 64.2729C102.779 64.2729 102.895 64.2729 103.014 64.2729C103.058 64.1589 103.102 64.0449 103.147 63.9275C103.403 63.3781 103.711 62.9431 104.058 62.4648C104.935 61.2399 105.783 59.9913 106.629 58.7372C106.886 58.357 107.145 57.9779 107.403 57.599C107.489 57.4734 107.574 57.3478 107.662 57.2184C107.824 56.9811 107.986 56.7438 108.148 56.5069C108.546 55.9218 108.925 55.3301 109.288 54.7157C109.422 54.5079 109.556 54.3002 109.694 54.0862C109.81 54.0862 109.926 54.0862 110.045 54.0862C110.087 53.9761 110.129 53.8661 110.173 53.7527C110.455 53.1454 110.8 52.6318 111.166 52.087C111.242 51.9722 111.319 51.8575 111.398 51.7392C112.083 50.72 112.78 49.7125 113.479 48.7061C114.048 47.8853 114.604 47.055 115.153 46.2169C120.221 38.54 128.139 34.4353 135.834 40.469Z" fill="#F05E44"/>
<path d="M36.0933 40.2014C38.1169 42.1266 39.6835 44.4467 41.2321 46.8768C42.0001 48.0748 42.8119 49.2252 43.6345 50.3729C44.2405 51.22 44.83 52.0759 45.4037 52.9529C46.1863 54.1489 47.0056 55.3053 47.8317 56.461C48.4548 57.3355 49.0625 58.2198 49.6526 59.1247C50.3206 60.145 51.017 61.1272 51.734 62.1008C52.211 62.7488 52.6775 63.4038 53.1331 64.0723C53.7528 64.9804 54.3941 65.8648 55.041 66.7468C55.5591 67.4543 56.0672 68.1697 56.5696 68.8924C57.2528 69.8686 57.9722 70.799 58.7085 71.7216C59.1058 72.2333 59.1058 72.2333 59.4653 72.7704C61.4063 75.5026 65.4105 76.0939 68.1856 76.9768C68.7933 77.1712 69.0646 77.5379 69.0646 77.5379C69.0646 77.5379 69.2945 77.6399 69.547 77.9459C69.7996 78.252 69.9615 78.846 69.9972 79.4761C70.0415 80.2584 69.547 81.9244 69.547 81.9244C69.547 81.9244 69.2287 82.5788 69.0646 82.7517C68.7524 83.0811 68.4427 83.4137 68.1355 83.7495C67.989 83.9005 67.8425 84.0514 67.6915 84.207C67.5643 84.3424 67.3176 84.3352 67.1865 84.4747C65.869 84.6788 64.028 84.3865 62.7179 84.0284C62.5429 83.9806 62.5429 83.9806 62.3644 83.9319C54.767 81.8446 54.767 81.8446 52.2547 78.7748C51.8328 78.2687 51.4121 77.7977 50.9372 77.3594C50.7923 77.2163 50.6474 77.0732 50.498 76.9258C50.498 76.7912 50.498 76.6565 50.498 76.5178C50.3977 76.4678 50.2974 76.4178 50.194 76.3664C49.7261 76.0651 49.4123 75.7116 49.0378 75.2681C48.9117 75.1203 48.7855 74.9725 48.6556 74.8202C48.3106 74.3927 47.9799 73.96 47.6512 73.5161C47.0337 72.6948 46.3846 71.9213 45.7166 71.1558C45.6003 71.0215 45.4841 70.8873 45.3644 70.7491C44.9973 70.3252 44.6296 69.902 44.2618 69.4789C43.7764 68.9206 43.2915 68.3616 42.8071 67.8021C42.6437 67.6149 42.6437 67.6149 42.477 67.4239C41.8115 66.6553 41.1829 65.8607 40.5712 65.034C40.2652 64.6255 39.942 64.2443 39.6066 63.8682C39.1555 63.3623 38.7371 62.835 38.3262 62.2855C37.6948 61.4412 37.0404 60.6255 36.3787 59.8133C35.4833 58.7096 34.5975 57.5987 33.7286 56.4668C33.33 55.906 33.33 55.906 32.6238 55.8348C32.0006 55.8426 31.8941 55.8959 31.3722 56.3703C30.7775 57.2641 30.5662 57.7968 30.5906 58.9661C30.7058 59.8027 31.1565 60.3789 31.6576 60.9609C31.8772 61.2159 31.8772 61.2159 31.8772 61.624C31.9932 61.624 32.1091 61.624 32.2286 61.624C32.484 61.9581 32.7272 62.3049 32.9642 62.6568C33.5267 63.4742 34.099 64.2301 34.7455 64.9569C35.1661 65.4431 35.5495 65.9629 35.9368 66.4847C36.3128 66.9872 36.6966 67.4808 37.0814 67.9742C37.2136 68.1473 37.3459 68.3204 37.4821 68.4986C37.83 68.9557 37.83 68.9557 38.1519 69.2988C38.5036 69.7005 38.7232 70.0306 38.7413 70.6135C38.6092 72.0087 38.3331 73.3201 38.0036 74.6688C37.8909 75.1424 37.7784 75.6161 37.666 76.0898C37.5799 76.4511 37.5799 76.4511 37.4921 76.8197C37.2281 77.9403 36.9794 79.0651 36.73 80.1902C36.0015 83.4579 35.2559 86.7204 34.5122 89.9834C24.7732 89.9834 15.0342 89.9834 5 89.9834C5.41823 87.919 5.83742 85.857 6.27977 83.7997C6.332 83.5562 6.38424 83.3127 6.43805 83.0619C6.57741 82.4128 6.717 81.7639 6.85676 81.115C6.94448 80.7077 7.03212 80.3003 7.11975 79.893C7.87873 76.3662 8.65177 72.8442 9.45208 69.3298C10.1079 66.4483 10.737 63.5598 11.357 60.6676C11.4465 60.2509 11.536 59.8342 11.6255 59.4176C12.1103 57.1609 12.1103 57.161 12.5932 54.9038C12.7512 54.1641 12.9108 53.4248 13.0718 52.6859C13.1536 52.3083 13.2337 51.9302 13.3138 51.5521C14.3485 46.8272 16.6338 42.6903 20.2832 40.1619C21.736 39.2209 23.2448 38.4699 24.8505 37.9571C24.9834 37.9113 25.1163 37.8656 25.2533 37.8184C28.8951 36.7556 33.0669 37.6724 36.0933 40.2014Z" fill="#FEB24B"/>
<path d="M72.002 37.7553C72.2925 37.896 72.5808 38.0427 72.8667 38.1951C73.1718 38.3102 73.4788 38.4192 73.7875 38.5218C73.9214 38.57 74.0553 38.6182 74.1932 38.6678C77.3662 39.5474 81.0147 39.1622 83.9962 37.7584C84.657 37.5582 84.852 37.6329 85.4441 37.994C85.6943 38.1421 85.6943 38.1421 85.9495 38.2932C99.2682 46.8218 99.2682 46.8218 101.436 54.0773C101.513 54.3095 101.591 54.5417 101.671 54.781C102.146 57.4845 102.146 57.4845 101.41 58.7704C100.993 59.3429 100.541 59.8753 100.08 60.404C99.6982 60.8529 99.3554 61.3332 99.0099 61.8174C98.2478 62.8648 97.4696 63.8958 96.6881 64.9249C96.4477 65.2423 96.2077 65.5602 95.9725 65.8825C95.7607 66.1726 95.544 66.4582 95.3265 66.7429C95.2672 66.7429 95.2079 66.7429 95.1468 66.7429C95.1428 66.3687 95.1428 66.3687 95.1388 65.9869C95.1284 65.0584 95.1145 64.13 95.0996 63.2016C95.0937 62.8003 95.0886 62.399 95.0845 61.9977C95.0785 61.4198 95.0691 60.8419 95.059 60.264C95.0573 59.9963 95.0573 59.9963 95.0556 59.7232C95.034 58.6996 94.9331 57.9806 94.4281 57.0929C93.8405 56.4971 93.36 56.3045 92.5639 56.2385C91.8415 56.2943 91.5591 56.3646 91.0142 56.8919C90.153 58.353 90.2012 59.722 90.2253 61.4279C90.2266 61.7095 90.2276 61.9912 90.2284 62.2729C90.2311 63.0093 90.2381 63.7456 90.2461 64.4819C90.2535 65.2353 90.2568 65.9887 90.2604 66.7421C90.268 68.2167 90.2803 69.6913 90.2955 71.1658C87.8899 71.962 85.4849 72.7417 83.0522 73.4275C82.5924 73.5583 82.1327 73.6892 81.673 73.8202C81.4582 73.8807 81.2433 73.9412 81.0219 74.0036C80.4676 74.1655 79.921 74.3462 79.3723 74.5301C77.6762 75.0433 76.6709 76.678 75.0228 76.0913C74.6436 75.962 73.3159 74.684 73.3159 74.684C73.3159 74.684 72.9565 74.1814 72.7768 73.9804C72.5073 73.7793 70.9419 72.9339 69.9469 72.6234C69.7676 72.5668 69.5883 72.5103 69.4036 72.4521C68.3055 72.1081 67.2038 71.7914 66.0945 71.4954C65.6795 71.3669 65.6795 71.3669 65.4999 71.1658C65.4968 70.6033 65.5052 70.0464 65.5216 69.4844C65.528 69.2247 65.528 69.2247 65.5345 68.9598C65.5483 68.4009 65.5633 67.8421 65.5785 67.2832C65.612 66.0131 65.6433 64.7431 65.6685 63.4727C65.6759 63.1024 65.684 62.732 65.6927 62.3617C65.7046 61.8172 65.7126 61.2728 65.7195 60.7282C65.7237 60.5651 65.7278 60.4019 65.7321 60.2339C65.7405 59.1613 65.5668 58.4561 65.1405 57.495C65.0812 57.296 65.0219 57.097 64.9608 56.8919C64.1862 56.3199 63.3387 56.3414 62.4453 56.4898C61.5763 57.0378 61.2374 57.6354 60.94 58.689C60.6812 60.1136 60.7222 61.5876 60.7047 63.0362C60.6987 63.3766 60.6925 63.7171 60.6861 64.0575C60.6709 64.8856 60.6589 65.7137 60.6485 66.5419C60.2892 66.2654 60.2892 66.2654 59.9298 65.9387C59.9298 65.8061 59.9298 65.6734 59.9298 65.5367C59.8112 65.5367 59.6927 65.5367 59.5705 65.5367C59.336 65.2398 59.336 65.2398 59.0539 64.8079C58.4892 63.9702 57.8945 63.1741 57.2796 62.3828C56.3351 61.1635 55.4376 59.9095 54.5542 58.6345C54.2905 58.2528 54.2905 58.2528 54.0004 57.8971C53.9667 53.59 55.8641 50.0697 58.4363 47.0409C60.3808 44.9408 62.6726 43.3909 64.9608 41.8138C65.4498 41.4744 65.9385 41.1346 66.4272 40.7947C66.7499 40.5711 67.0732 40.3485 67.3972 40.1271C68.0872 39.6551 68.769 39.1813 69.4282 38.6568C70.9936 37.4297 70.9936 37.4297 72.002 37.7553Z" fill="#2DA780"/>
<path d="M123 95.5393C132.24 95.5393 141.48 95.5393 151 95.5393C151 102.27 151 109.001 151 115.935C141.76 115.935 132.52 115.935 123 115.935C123 109.205 123 102.474 123 95.5393Z" fill="#324473"/>
<path d="M5 95.5393C14.57 95.5393 24.14 95.5393 34 95.5393C34 102.27 34 109.001 34 115.935C24.43 115.935 14.86 115.935 5 115.935C5 109.205 5 102.474 5 95.5393Z" fill="#4AC2FF"/>
<path d="M84.8993 7.67802C87.4766 9.79161 89.1807 12.7232 89.832 16.3231C90.0968 18.5827 90.1134 20.9113 89.4 23.0609C89.339 23.2571 89.2781 23.4534 89.2154 23.6555C88.0624 27.125 85.8908 29.6996 82.9952 31.2518C80.3907 32.5348 77.1482 32.4434 74.4761 31.443C71.3725 29.9373 69.2207 27.6821 67.8238 24.1363C66.6115 20.5798 66.8 16.7811 67.9787 13.2343C69.3135 9.74971 71.6734 7.51172 74.683 6.08838C78.1334 4.7129 81.8721 5.33856 84.8993 7.67802Z" fill="#FED4A7"/>
<path d="M36.6046 7.70112C38.2417 9.07684 39.5668 10.5145 40.54 12.5698C40.6239 12.7447 40.7078 12.9196 40.7943 13.0998C41.7161 15.1868 42.1249 17.4622 41.9668 19.7847C41.9482 20.0831 41.9482 20.0831 41.9292 20.3875C41.6694 23.028 40.6739 25.4194 39.1132 27.4004C38.9845 27.5988 38.8558 27.7972 38.7231 28.0017C36.9905 30.2934 34.2316 31.723 31.6116 32.1477C28.2623 32.4464 25.0806 31.5717 22.4211 29.1908C19.7715 26.6125 18.3837 23.438 18.0064 19.5459C17.9044 15.8839 19.0277 12.426 21.1699 9.67003C22.5839 8.12867 24.2445 6.92304 26.094 6.15652C26.2344 6.09297 26.3749 6.02941 26.5196 5.96393C29.8456 4.68485 33.7388 5.55289 36.6046 7.70112Z" fill="#FED4A6"/>
<path d="M132.991 7.76139C135.797 10.2278 137.466 13.5423 137.968 17.6089C138.189 21.3566 137.269 24.7753 135.222 27.6575C133.261 30.291 130.676 31.9426 127.683 32.1887C124.295 32.3371 121.477 31.4267 118.866 28.7879C117.063 26.7839 115.924 24.4544 115.316 21.6284C115.287 21.5033 115.257 21.3782 115.227 21.2494C114.571 17.8728 115.4 14.4063 116.894 11.5382C117.109 11.1483 117.327 10.7603 117.547 10.374C117.66 10.374 117.773 10.374 117.89 10.374C117.933 10.2572 117.976 10.1403 118.02 10.02C119.082 7.77922 121.724 6.44031 123.725 5.75168C126.851 4.7709 130.329 5.74753 132.991 7.76139Z" fill="#FED4A7"/>
<path d="M60 88.0249C72.21 88.0249 84.42 88.0249 97 88.0249C97 101.132 97 114.239 97 127.744C84.79 127.744 72.58 127.744 60 127.744C60 114.636 60 101.529 60 88.0249Z" fill="black"/>
<path d="M65 91.0379C77.7365 92.5691 76.4189 93.4878 91 89.0984C91 100.215 91 110.923 91 122.376C82.42 122.376 73.84 122.376 65 122.376C65 111.26 65 102.491 65 91.0379Z" fill="#263238"/>
</svg>
